<svg xmlns="http://www.w3.org/2000/svg" width="720" height="320">
  <rect width="720" height="320" fill="#0d1117" rx="8"/>
  <text x="70" y="22" fill="#c9d1d9" font-family="sans-serif" font-size="14" font-weight="bold">Total Downloads Over Time</text>
  <line x1="70" y1="270.0" x2="690" y2="270.0" stroke="#21262d" stroke-width="1"/><text x="62" y="274.0" text-anchor="end" fill="#8b949e" font-family="sans-serif" font-size="11">0</text><line x1="70" y1="210.0" x2="690" y2="210.0" stroke="#21262d" stroke-width="1"/><text x="62" y="214.0" text-anchor="end" fill="#8b949e" font-family="sans-serif" font-size="11">2.8K</text><line x1="70" y1="150.0" x2="690" y2="150.0" stroke="#21262d" stroke-width="1"/><text x="62" y="154.0" text-anchor="end" fill="#8b949e" font-family="sans-serif" font-size="11">5.6K</text><line x1="70" y1="90.0" x2="690" y2="90.0" stroke="#21262d" stroke-width="1"/><text x="62" y="94.0" text-anchor="end" fill="#8b949e" font-family="sans-serif" font-size="11">8.4K</text><line x1="70" y1="30.0" x2="690" y2="30.0" stroke="#21262d" stroke-width="1"/><text x="62" y="34.0" text-anchor="end" fill="#8b949e" font-family="sans-serif" font-size="11">11.2K</text>
  <polygon points="70.0,185.7 86.3,185.7 102.6,184.6 118.9,172.0 135.3,164.1 151.6,161.9 167.9,160.0 184.2,153.4 200.5,153.1 216.8,151.1 233.2,150.6 249.5,150.5 265.8,140.8 282.1,128.1 298.4,117.4 314.7,113.4 331.1,109.3 347.4,106.0 363.7,105.1 380.0,104.9 396.3,103.0 412.6,101.1 428.9,96.3 445.3,91.7 461.6,88.3 477.9,84.8 494.2,83.7 510.5,75.0 526.8,69.6 543.2,67.7 559.5,67.4 575.8,65.9 592.1,65.8 608.4,65.8 624.7,65.2 641.1,65.1 657.4,64.9 673.7,64.4 690.0,61.3 690.0,270.0 70.0,270.0" fill="#58a6ff" opacity="0.15"/>
  <polyline points="70.0,185.7 86.3,185.7 102.6,184.6 118.9,172.0 135.3,164.1 151.6,161.9 167.9,160.0 184.2,153.4 200.5,153.1 216.8,151.1 233.2,150.6 249.5,150.5 265.8,140.8 282.1,128.1 298.4,117.4 314.7,113.4 331.1,109.3 347.4,106.0 363.7,105.1 380.0,104.9 396.3,103.0 412.6,101.1 428.9,96.3 445.3,91.7 461.6,88.3 477.9,84.8 494.2,83.7 510.5,75.0 526.8,69.6 543.2,67.7 559.5,67.4 575.8,65.9 592.1,65.8 608.4,65.8 624.7,65.2 641.1,65.1 657.4,64.9 673.7,64.4 690.0,61.3" fill="none" stroke="#58a6ff" stroke-width="2.5" stroke-linejoin="round" stroke-linecap="round"/>
  <text x="70.0" y="310" text-anchor="middle" fill="#8b949e" font-family="sans-serif" font-size="11">03-12</text><text x="216.8" y="310" text-anchor="middle" fill="#8b949e" font-family="sans-serif" font-size="11">03-21</text><text x="363.7" y="310" text-anchor="middle" fill="#8b949e" font-family="sans-serif" font-size="11">03-30</text><text x="510.5" y="310" text-anchor="middle" fill="#8b949e" font-family="sans-serif" font-size="11">04-08</text><text x="657.4" y="310" text-anchor="middle" fill="#8b949e" font-family="sans-serif" font-size="11">04-17</text>
  <text x="694.0" y="53.3" fill="#58a6ff" font-family="sans-serif" font-size="12" font-weight="bold">9.8K</text>
</svg>