<svg xmlns="http://www.w3.org/2000/svg" width="720" height="320">
  <rect width="720" height="320" fill="#0d1117" rx="8"/>
  <text x="70" y="22" fill="#c9d1d9" font-family="sans-serif" font-size="14" font-weight="bold">Total Downloads Over Time</text>
  <line x1="70" y1="270.0" x2="690" y2="270.0" stroke="#21262d" stroke-width="1"/><text x="62" y="274.0" text-anchor="end" fill="#8b949e" font-family="sans-serif" font-size="11">0</text><line x1="70" y1="210.0" x2="690" y2="210.0" stroke="#21262d" stroke-width="1"/><text x="62" y="214.0" text-anchor="end" fill="#8b949e" font-family="sans-serif" font-size="11">2.3K</text><line x1="70" y1="150.0" x2="690" y2="150.0" stroke="#21262d" stroke-width="1"/><text x="62" y="154.0" text-anchor="end" fill="#8b949e" font-family="sans-serif" font-size="11">4.5K</text><line x1="70" y1="90.0" x2="690" y2="90.0" stroke="#21262d" stroke-width="1"/><text x="62" y="94.0" text-anchor="end" fill="#8b949e" font-family="sans-serif" font-size="11">6.8K</text><line x1="70" y1="30.0" x2="690" y2="30.0" stroke="#21262d" stroke-width="1"/><text x="62" y="34.0" text-anchor="end" fill="#8b949e" font-family="sans-serif" font-size="11">9.1K</text>
  <polygon points="70.0,165.9 99.5,165.8 129.0,164.5 158.6,149.0 188.1,139.1 217.6,136.4 247.1,134.1 276.7,126.0 306.2,125.5 335.7,123.1 365.2,122.5 394.8,122.3 424.3,110.4 453.8,94.7 483.3,81.5 512.9,76.4 542.4,71.4 571.9,67.4 601.4,66.2 631.0,66.0 660.5,63.6 690.0,61.3 690.0,270.0 70.0,270.0" fill="#58a6ff" opacity="0.15"/>
  <polyline points="70.0,165.9 99.5,165.8 129.0,164.5 158.6,149.0 188.1,139.1 217.6,136.4 247.1,134.1 276.7,126.0 306.2,125.5 335.7,123.1 365.2,122.5 394.8,122.3 424.3,110.4 453.8,94.7 483.3,81.5 512.9,76.4 542.4,71.4 571.9,67.4 601.4,66.2 631.0,66.0 660.5,63.6 690.0,61.3" fill="none" stroke="#58a6ff" stroke-width="2.5" stroke-linejoin="round" stroke-linecap="round"/>
  <text x="70.0" y="310" text-anchor="middle" fill="#8b949e" font-family="sans-serif" font-size="11">03-12</text><text x="217.6" y="310" text-anchor="middle" fill="#8b949e" font-family="sans-serif" font-size="11">03-17</text><text x="365.2" y="310" text-anchor="middle" fill="#8b949e" font-family="sans-serif" font-size="11">03-22</text><text x="512.9" y="310" text-anchor="middle" fill="#8b949e" font-family="sans-serif" font-size="11">03-27</text><text x="660.5" y="310" text-anchor="middle" fill="#8b949e" font-family="sans-serif" font-size="11">04-01</text>
  <text x="694.0" y="53.3" fill="#58a6ff" font-family="sans-serif" font-size="12" font-weight="bold">7.9K</text>
</svg>