<svg xmlns="http://www.w3.org/2000/svg" width="720" height="320">
  <rect width="720" height="320" fill="#0d1117" rx="8"/>
  <text x="70" y="22" fill="#c9d1d9" font-family="sans-serif" font-size="14" font-weight="bold">Total Downloads Over Time</text>
  <line x1="70" y1="270.0" x2="690" y2="270.0" stroke="#21262d" stroke-width="1"/><text x="62" y="274.0" text-anchor="end" fill="#8b949e" font-family="sans-serif" font-size="11">0</text><line x1="70" y1="210.0" x2="690" y2="210.0" stroke="#21262d" stroke-width="1"/><text x="62" y="214.0" text-anchor="end" fill="#8b949e" font-family="sans-serif" font-size="11">3.4K</text><line x1="70" y1="150.0" x2="690" y2="150.0" stroke="#21262d" stroke-width="1"/><text x="62" y="154.0" text-anchor="end" fill="#8b949e" font-family="sans-serif" font-size="11">6.8K</text><line x1="70" y1="90.0" x2="690" y2="90.0" stroke="#21262d" stroke-width="1"/><text x="62" y="94.0" text-anchor="end" fill="#8b949e" font-family="sans-serif" font-size="11">10.2K</text><line x1="70" y1="30.0" x2="690" y2="30.0" stroke="#21262d" stroke-width="1"/><text x="62" y="34.0" text-anchor="end" fill="#8b949e" font-family="sans-serif" font-size="11">13.7K</text>
  <polygon points="70.0,200.7 75.0,200.7 80.1,199.8 85.1,189.4 90.2,182.9 95.2,181.1 100.2,179.5 105.3,174.1 110.3,173.8 115.4,172.2 120.4,171.8 125.4,171.7 130.5,163.8 135.5,153.3 140.6,144.5 145.6,141.2 150.7,137.8 155.7,135.2 160.7,134.4 165.8,134.2 170.8,132.6 175.9,131.1 180.9,127.2 185.9,123.4 191.0,120.5 196.0,117.7 201.1,116.8 206.1,109.6 211.1,105.2 216.2,103.6 221.2,103.4 226.3,102.2 231.3,102.1 236.3,102.1 241.4,101.6 246.4,101.5 251.5,101.3 256.5,100.9 261.5,98.4 266.6,98.3 271.6,97.7 276.7,96.8 281.7,96.7 286.7,96.4 291.8,96.1 296.8,95.9 301.9,95.7 306.9,95.7 312.0,95.6 317.0,93.9 322.0,93.6 327.1,93.6 332.1,93.5 337.2,93.4 342.2,93.3 347.2,92.3 352.3,92.2 357.3,92.0 362.4,92.0 367.4,90.7 372.4,90.4 377.5,90.1 382.5,87.9 387.6,87.8 392.6,87.4 397.6,85.3 402.7,85.1 407.7,85.1 412.8,85.0 417.8,84.9 422.8,84.9 427.9,84.5 432.9,84.5 438.0,84.5 443.0,84.3 448.0,84.0 453.1,82.8 458.1,80.5 463.2,80.5 468.2,80.4 473.3,80.4 478.3,79.2 483.3,79.2 488.4,79.1 493.4,78.4 498.5,78.4 503.5,75.2 508.5,73.7 513.6,73.7 518.6,73.6 523.7,73.5 528.7,73.2 533.7,73.0 538.8,73.0 543.8,73.0 548.9,72.9 553.9,72.5 558.9,71.8 564.0,71.7 569.0,71.6 574.1,71.5 579.1,71.4 584.1,71.3 589.2,71.3 594.2,69.2 599.3,69.1 604.3,69.1 609.3,68.7 614.4,68.4 619.4,68.2 624.5,67.7 629.5,67.5 634.6,66.4 639.6,66.2 644.6,66.0 649.7,65.5 654.7,65.3 659.8,65.1 664.8,64.5 669.8,64.0 674.9,63.7 679.9,63.7 685.0,63.6 690.0,61.3 690.0,270.0 70.0,270.0" fill="#58a6ff" opacity="0.15"/>
  <polyline points="70.0,200.7 75.0,200.7 80.1,199.8 85.1,189.4 90.2,182.9 95.2,181.1 100.2,179.5 105.3,174.1 110.3,173.8 115.4,172.2 120.4,171.8 125.4,171.7 130.5,163.8 135.5,153.3 140.6,144.5 145.6,141.2 150.7,137.8 155.7,135.2 160.7,134.4 165.8,134.2 170.8,132.6 175.9,131.1 180.9,127.2 185.9,123.4 191.0,120.5 196.0,117.7 201.1,116.8 206.1,109.6 211.1,105.2 216.2,103.6 221.2,103.4 226.3,102.2 231.3,102.1 236.3,102.1 241.4,101.6 246.4,101.5 251.5,101.3 256.5,100.9 261.5,98.4 266.6,98.3 271.6,97.7 276.7,96.8 281.7,96.7 286.7,96.4 291.8,96.1 296.8,95.9 301.9,95.7 306.9,95.7 312.0,95.6 317.0,93.9 322.0,93.6 327.1,93.6 332.1,93.5 337.2,93.4 342.2,93.3 347.2,92.3 352.3,92.2 357.3,92.0 362.4,92.0 367.4,90.7 372.4,90.4 377.5,90.1 382.5,87.9 387.6,87.8 392.6,87.4 397.6,85.3 402.7,85.1 407.7,85.1 412.8,85.0 417.8,84.9 422.8,84.9 427.9,84.5 432.9,84.5 438.0,84.5 443.0,84.3 448.0,84.0 453.1,82.8 458.1,80.5 463.2,80.5 468.2,80.4 473.3,80.4 478.3,79.2 483.3,79.2 488.4,79.1 493.4,78.4 498.5,78.4 503.5,75.2 508.5,73.7 513.6,73.7 518.6,73.6 523.7,73.5 528.7,73.2 533.7,73.0 538.8,73.0 543.8,73.0 548.9,72.9 553.9,72.5 558.9,71.8 564.0,71.7 569.0,71.6 574.1,71.5 579.1,71.4 584.1,71.3 589.2,71.3 594.2,69.2 599.3,69.1 604.3,69.1 609.3,68.7 614.4,68.4 619.4,68.2 624.5,67.7 629.5,67.5 634.6,66.4 639.6,66.2 644.6,66.0 649.7,65.5 654.7,65.3 659.8,65.1 664.8,64.5 669.8,64.0 674.9,63.7 679.9,63.7 685.0,63.6 690.0,61.3" fill="none" stroke="#58a6ff" stroke-width="2.5" stroke-linejoin="round" stroke-linecap="round"/>
  <text x="70.0" y="310" text-anchor="middle" fill="#8b949e" font-family="sans-serif" font-size="11">03-12</text><text x="221.2" y="310" text-anchor="middle" fill="#8b949e" font-family="sans-serif" font-size="11">04-11</text><text x="372.4" y="310" text-anchor="middle" fill="#8b949e" font-family="sans-serif" font-size="11">05-11</text><text x="523.7" y="310" text-anchor="middle" fill="#8b949e" font-family="sans-serif" font-size="11">06-10</text><text x="674.9" y="310" text-anchor="middle" fill="#8b949e" font-family="sans-serif" font-size="11">07-10</text>
  <text x="694.0" y="53.3" fill="#58a6ff" font-family="sans-serif" font-size="12" font-weight="bold">11.9K</text>
</svg>