<svg xmlns="http://www.w3.org/2000/svg" width="720" height="320">
  <rect width="720" height="320" fill="#0d1117" rx="8"/>
  <text x="70" y="22" fill="#c9d1d9" font-family="sans-serif" font-size="14" font-weight="bold">Total Downloads Over Time</text>
  <line x1="70" y1="270.0" x2="690" y2="270.0" stroke="#21262d" stroke-width="1"/><text x="62" y="274.0" text-anchor="end" fill="#8b949e" font-family="sans-serif" font-size="11">0</text><line x1="70" y1="210.0" x2="690" y2="210.0" stroke="#21262d" stroke-width="1"/><text x="62" y="214.0" text-anchor="end" fill="#8b949e" font-family="sans-serif" font-size="11">3.2K</text><line x1="70" y1="150.0" x2="690" y2="150.0" stroke="#21262d" stroke-width="1"/><text x="62" y="154.0" text-anchor="end" fill="#8b949e" font-family="sans-serif" font-size="11">6.5K</text><line x1="70" y1="90.0" x2="690" y2="90.0" stroke="#21262d" stroke-width="1"/><text x="62" y="94.0" text-anchor="end" fill="#8b949e" font-family="sans-serif" font-size="11">9.7K</text><line x1="70" y1="30.0" x2="690" y2="30.0" stroke="#21262d" stroke-width="1"/><text x="62" y="34.0" text-anchor="end" fill="#8b949e" font-family="sans-serif" font-size="11">13.0K</text>
  <polygon points="70.0,197.1 76.2,197.1 82.4,196.2 88.6,185.3 94.8,178.4 101.0,176.5 107.2,174.9 113.4,169.2 119.6,168.9 125.8,167.2 132.0,166.8 138.2,166.7 144.4,158.3 150.6,147.4 156.8,138.1 163.0,134.6 169.2,131.1 175.4,128.3 181.6,127.4 187.8,127.3 194.0,125.6 200.2,124.0 206.4,119.8 212.6,115.9 218.8,112.9 225.0,109.9 231.2,108.9 237.4,101.4 243.6,96.7 249.8,95.1 256.0,94.9 262.2,93.6 268.4,93.5 274.6,93.5 280.8,93.0 287.0,92.8 293.2,92.7 299.4,92.2 305.6,89.6 311.8,89.5 318.0,88.9 324.2,88.0 330.4,87.8 336.6,87.5 342.8,87.2 349.0,87.0 355.2,86.8 361.4,86.7 367.6,86.6 373.8,84.9 380.0,84.6 386.2,84.6 392.4,84.4 398.6,84.3 404.8,84.3 411.0,83.2 417.2,83.1 423.4,82.9 429.6,82.9 435.8,81.5 442.0,81.2 448.2,80.9 454.4,78.6 460.6,78.5 466.8,78.0 473.0,75.8 479.2,75.7 485.4,75.6 491.6,75.5 497.8,75.4 504.0,75.4 510.2,75.0 516.4,75.0 522.6,75.0 528.8,74.8 535.0,74.5 541.2,73.3 547.4,70.8 553.6,70.8 559.8,70.7 566.0,70.7 572.2,69.4 578.4,69.4 584.6,69.3 590.8,68.6 597.0,68.6 603.2,65.2 609.4,63.7 615.6,63.6 621.8,63.5 628.0,63.4 634.2,63.1 640.4,62.9 646.6,62.9 652.8,62.9 659.0,62.8 665.2,62.4 671.4,61.6 677.6,61.5 683.8,61.4 690.0,61.3 690.0,270.0 70.0,270.0" fill="#58a6ff" opacity="0.15"/>
  <polyline points="70.0,197.1 76.2,197.1 82.4,196.2 88.6,185.3 94.8,178.4 101.0,176.5 107.2,174.9 113.4,169.2 119.6,168.9 125.8,167.2 132.0,166.8 138.2,166.7 144.4,158.3 150.6,147.4 156.8,138.1 163.0,134.6 169.2,131.1 175.4,128.3 181.6,127.4 187.8,127.3 194.0,125.6 200.2,124.0 206.4,119.8 212.6,115.9 218.8,112.9 225.0,109.9 231.2,108.9 237.4,101.4 243.6,96.7 249.8,95.1 256.0,94.9 262.2,93.6 268.4,93.5 274.6,93.5 280.8,93.0 287.0,92.8 293.2,92.7 299.4,92.2 305.6,89.6 311.8,89.5 318.0,88.9 324.2,88.0 330.4,87.8 336.6,87.5 342.8,87.2 349.0,87.0 355.2,86.8 361.4,86.7 367.6,86.6 373.8,84.9 380.0,84.6 386.2,84.6 392.4,84.4 398.6,84.3 404.8,84.3 411.0,83.2 417.2,83.1 423.4,82.9 429.6,82.9 435.8,81.5 442.0,81.2 448.2,80.9 454.4,78.6 460.6,78.5 466.8,78.0 473.0,75.8 479.2,75.7 485.4,75.6 491.6,75.5 497.8,75.4 504.0,75.4 510.2,75.0 516.4,75.0 522.6,75.0 528.8,74.8 535.0,74.5 541.2,73.3 547.4,70.8 553.6,70.8 559.8,70.7 566.0,70.7 572.2,69.4 578.4,69.4 584.6,69.3 590.8,68.6 597.0,68.6 603.2,65.2 609.4,63.7 615.6,63.6 621.8,63.5 628.0,63.4 634.2,63.1 640.4,62.9 646.6,62.9 652.8,62.9 659.0,62.8 665.2,62.4 671.4,61.6 677.6,61.5 683.8,61.4 690.0,61.3" fill="none" stroke="#58a6ff" stroke-width="2.5" stroke-linejoin="round" stroke-linecap="round"/>
  <text x="70.0" y="310" text-anchor="middle" fill="#8b949e" font-family="sans-serif" font-size="11">03-12</text><text x="225.0" y="310" text-anchor="middle" fill="#8b949e" font-family="sans-serif" font-size="11">04-06</text><text x="380.0" y="310" text-anchor="middle" fill="#8b949e" font-family="sans-serif" font-size="11">05-01</text><text x="535.0" y="310" text-anchor="middle" fill="#8b949e" font-family="sans-serif" font-size="11">05-26</text><text x="690.0" y="310" text-anchor="middle" fill="#8b949e" font-family="sans-serif" font-size="11">06-20</text>
  <text x="694.0" y="53.3" fill="#58a6ff" font-family="sans-serif" font-size="12" font-weight="bold">11.3K</text>
</svg>