<svg xmlns="http://www.w3.org/2000/svg" width="720" height="320">
  <rect width="720" height="320" fill="#0d1117" rx="8"/>
  <text x="70" y="22" fill="#c9d1d9" font-family="sans-serif" font-size="14" font-weight="bold">Total Downloads Over Time</text>
  <line x1="70" y1="270.0" x2="690" y2="270.0" stroke="#21262d" stroke-width="1"/><text x="62" y="274.0" text-anchor="end" fill="#8b949e" font-family="sans-serif" font-size="11">0</text><line x1="70" y1="210.0" x2="690" y2="210.0" stroke="#21262d" stroke-width="1"/><text x="62" y="214.0" text-anchor="end" fill="#8b949e" font-family="sans-serif" font-size="11">2.9K</text><line x1="70" y1="150.0" x2="690" y2="150.0" stroke="#21262d" stroke-width="1"/><text x="62" y="154.0" text-anchor="end" fill="#8b949e" font-family="sans-serif" font-size="11">5.9K</text><line x1="70" y1="90.0" x2="690" y2="90.0" stroke="#21262d" stroke-width="1"/><text x="62" y="94.0" text-anchor="end" fill="#8b949e" font-family="sans-serif" font-size="11">8.8K</text><line x1="70" y1="30.0" x2="690" y2="30.0" stroke="#21262d" stroke-width="1"/><text x="62" y="34.0" text-anchor="end" fill="#8b949e" font-family="sans-serif" font-size="11">11.7K</text>
  <polygon points="70.0,189.3 80.5,189.3 91.0,188.3 101.5,176.2 112.0,168.6 122.5,166.5 133.1,164.7 143.6,158.4 154.1,158.1 164.6,156.2 175.1,155.7 185.6,155.6 196.1,146.4 206.6,134.2 217.1,124.0 227.6,120.1 238.1,116.2 248.6,113.1 259.2,112.2 269.7,112.0 280.2,110.1 290.7,108.3 301.2,103.8 311.7,99.4 322.2,96.1 332.7,92.7 343.2,91.7 353.7,83.3 364.2,78.2 374.7,76.4 385.3,76.1 395.8,74.7 406.3,74.6 416.8,74.6 427.3,74.0 437.8,73.8 448.3,73.7 458.8,73.2 469.3,70.2 479.8,70.1 490.3,69.5 500.8,68.4 511.4,68.3 521.9,67.9 532.4,67.7 542.9,67.4 553.4,67.2 563.9,67.1 574.4,67.0 584.9,65.1 595.4,64.7 605.9,64.7 616.4,64.5 626.9,64.4 637.5,64.4 648.0,63.2 658.5,63.1 669.0,62.9 679.5,62.8 690.0,61.3 690.0,270.0 70.0,270.0" fill="#58a6ff" opacity="0.15"/>
  <polyline points="70.0,189.3 80.5,189.3 91.0,188.3 101.5,176.2 112.0,168.6 122.5,166.5 133.1,164.7 143.6,158.4 154.1,158.1 164.6,156.2 175.1,155.7 185.6,155.6 196.1,146.4 206.6,134.2 217.1,124.0 227.6,120.1 238.1,116.2 248.6,113.1 259.2,112.2 269.7,112.0 280.2,110.1 290.7,108.3 301.2,103.8 311.7,99.4 322.2,96.1 332.7,92.7 343.2,91.7 353.7,83.3 364.2,78.2 374.7,76.4 385.3,76.1 395.8,74.7 406.3,74.6 416.8,74.6 427.3,74.0 437.8,73.8 448.3,73.7 458.8,73.2 469.3,70.2 479.8,70.1 490.3,69.5 500.8,68.4 511.4,68.3 521.9,67.9 532.4,67.7 542.9,67.4 553.4,67.2 563.9,67.1 574.4,67.0 584.9,65.1 595.4,64.7 605.9,64.7 616.4,64.5 626.9,64.4 637.5,64.4 648.0,63.2 658.5,63.1 669.0,62.9 679.5,62.8 690.0,61.3" fill="none" stroke="#58a6ff" stroke-width="2.5" stroke-linejoin="round" stroke-linecap="round"/>
  <text x="70.0" y="310" text-anchor="middle" fill="#8b949e" font-family="sans-serif" font-size="11">03-12</text><text x="217.1" y="310" text-anchor="middle" fill="#8b949e" font-family="sans-serif" font-size="11">03-26</text><text x="364.2" y="310" text-anchor="middle" fill="#8b949e" font-family="sans-serif" font-size="11">04-09</text><text x="511.4" y="310" text-anchor="middle" fill="#8b949e" font-family="sans-serif" font-size="11">04-23</text><text x="658.5" y="310" text-anchor="middle" fill="#8b949e" font-family="sans-serif" font-size="11">05-07</text>
  <text x="694.0" y="53.3" fill="#58a6ff" font-family="sans-serif" font-size="12" font-weight="bold">10.2K</text>
</svg>