<svg xmlns="http://www.w3.org/2000/svg" width="720" height="320">
  <rect width="720" height="320" fill="#0d1117" rx="8"/>
  <text x="70" y="22" fill="#c9d1d9" font-family="sans-serif" font-size="14" font-weight="bold">Total Downloads Over Time</text>
  <line x1="70" y1="270.0" x2="690" y2="270.0" stroke="#21262d" stroke-width="1"/><text x="62" y="274.0" text-anchor="end" fill="#8b949e" font-family="sans-serif" font-size="11">0</text><line x1="70" y1="210.0" x2="690" y2="210.0" stroke="#21262d" stroke-width="1"/><text x="62" y="214.0" text-anchor="end" fill="#8b949e" font-family="sans-serif" font-size="11">3.2K</text><line x1="70" y1="150.0" x2="690" y2="150.0" stroke="#21262d" stroke-width="1"/><text x="62" y="154.0" text-anchor="end" fill="#8b949e" font-family="sans-serif" font-size="11">6.5K</text><line x1="70" y1="90.0" x2="690" y2="90.0" stroke="#21262d" stroke-width="1"/><text x="62" y="94.0" text-anchor="end" fill="#8b949e" font-family="sans-serif" font-size="11">9.8K</text><line x1="70" y1="30.0" x2="690" y2="30.0" stroke="#21262d" stroke-width="1"/><text x="62" y="34.0" text-anchor="end" fill="#8b949e" font-family="sans-serif" font-size="11">13.0K</text>
  <polygon points="70.0,197.2 76.0,197.2 82.0,196.3 88.1,185.4 94.1,178.5 100.1,176.6 106.1,175.0 112.1,169.3 118.2,169.0 124.2,167.4 130.2,166.9 136.2,166.8 142.2,158.5 148.3,147.5 154.3,138.2 160.3,134.7 166.3,131.2 172.3,128.4 178.3,127.6 184.4,127.4 190.4,125.8 196.4,124.1 202.4,120.0 208.4,116.0 214.5,113.1 220.5,110.1 226.5,109.1 232.5,101.6 238.5,96.9 244.6,95.3 250.6,95.0 256.6,93.8 262.6,93.7 268.6,93.7 274.7,93.1 280.7,93.0 286.7,92.9 292.7,92.4 298.7,89.8 304.8,89.7 310.8,89.1 316.8,88.1 322.8,88.0 328.8,87.7 334.9,87.4 340.9,87.2 346.9,87.0 352.9,86.9 358.9,86.8 365.0,85.1 371.0,84.8 377.0,84.7 383.0,84.6 389.0,84.5 395.0,84.5 401.1,83.4 407.1,83.3 413.1,83.1 419.1,83.1 425.1,81.7 431.2,81.4 437.2,81.1 443.2,78.8 449.2,78.7 455.2,78.2 461.3,76.0 467.3,75.9 473.3,75.8 479.3,75.7 485.3,75.6 491.4,75.6 497.4,75.2 503.4,75.2 509.4,75.2 515.4,75.0 521.5,74.7 527.5,73.5 533.5,71.0 539.5,71.0 545.5,70.9 551.6,70.9 557.6,69.6 563.6,69.6 569.6,69.6 575.6,68.8 581.7,68.8 587.7,65.4 593.7,63.9 599.7,63.8 605.7,63.8 611.7,63.7 617.8,63.3 623.8,63.1 629.8,63.1 635.8,63.1 641.8,63.1 647.9,62.6 653.9,61.9 659.9,61.7 665.9,61.6 671.9,61.5 678.0,61.4 684.0,61.3 690.0,61.3 690.0,270.0 70.0,270.0" fill="#58a6ff" opacity="0.15"/>
  <polyline points="70.0,197.2 76.0,197.2 82.0,196.3 88.1,185.4 94.1,178.5 100.1,176.6 106.1,175.0 112.1,169.3 118.2,169.0 124.2,167.4 130.2,166.9 136.2,166.8 142.2,158.5 148.3,147.5 154.3,138.2 160.3,134.7 166.3,131.2 172.3,128.4 178.3,127.6 184.4,127.4 190.4,125.8 196.4,124.1 202.4,120.0 208.4,116.0 214.5,113.1 220.5,110.1 226.5,109.1 232.5,101.6 238.5,96.9 244.6,95.3 250.6,95.0 256.6,93.8 262.6,93.7 268.6,93.7 274.7,93.1 280.7,93.0 286.7,92.9 292.7,92.4 298.7,89.8 304.8,89.7 310.8,89.1 316.8,88.1 322.8,88.0 328.8,87.7 334.9,87.4 340.9,87.2 346.9,87.0 352.9,86.9 358.9,86.8 365.0,85.1 371.0,84.8 377.0,84.7 383.0,84.6 389.0,84.5 395.0,84.5 401.1,83.4 407.1,83.3 413.1,83.1 419.1,83.1 425.1,81.7 431.2,81.4 437.2,81.1 443.2,78.8 449.2,78.7 455.2,78.2 461.3,76.0 467.3,75.9 473.3,75.8 479.3,75.7 485.3,75.6 491.4,75.6 497.4,75.2 503.4,75.2 509.4,75.2 515.4,75.0 521.5,74.7 527.5,73.5 533.5,71.0 539.5,71.0 545.5,70.9 551.6,70.9 557.6,69.6 563.6,69.6 569.6,69.6 575.6,68.8 581.7,68.8 587.7,65.4 593.7,63.9 599.7,63.8 605.7,63.8 611.7,63.7 617.8,63.3 623.8,63.1 629.8,63.1 635.8,63.1 641.8,63.1 647.9,62.6 653.9,61.9 659.9,61.7 665.9,61.6 671.9,61.5 678.0,61.4 684.0,61.3 690.0,61.3" fill="none" stroke="#58a6ff" stroke-width="2.5" stroke-linejoin="round" stroke-linecap="round"/>
  <text x="70.0" y="310" text-anchor="middle" fill="#8b949e" font-family="sans-serif" font-size="11">03-12</text><text x="220.5" y="310" text-anchor="middle" fill="#8b949e" font-family="sans-serif" font-size="11">04-06</text><text x="371.0" y="310" text-anchor="middle" fill="#8b949e" font-family="sans-serif" font-size="11">05-01</text><text x="521.5" y="310" text-anchor="middle" fill="#8b949e" font-family="sans-serif" font-size="11">05-26</text><text x="671.9" y="310" text-anchor="middle" fill="#8b949e" font-family="sans-serif" font-size="11">06-20</text>
  <text x="694.0" y="53.3" fill="#58a6ff" font-family="sans-serif" font-size="12" font-weight="bold">11.3K</text>
</svg>