<svg xmlns="http://www.w3.org/2000/svg" width="720" height="320">
  <rect width="720" height="320" fill="#0d1117" rx="8"/>
  <text x="70" y="22" fill="#c9d1d9" font-family="sans-serif" font-size="14" font-weight="bold">Total Downloads Over Time</text>
  <line x1="70" y1="270.0" x2="690" y2="270.0" stroke="#21262d" stroke-width="1"/><text x="62" y="274.0" text-anchor="end" fill="#8b949e" font-family="sans-serif" font-size="11">0</text><line x1="70" y1="210.0" x2="690" y2="210.0" stroke="#21262d" stroke-width="1"/><text x="62" y="214.0" text-anchor="end" fill="#8b949e" font-family="sans-serif" font-size="11">2.9K</text><line x1="70" y1="150.0" x2="690" y2="150.0" stroke="#21262d" stroke-width="1"/><text x="62" y="154.0" text-anchor="end" fill="#8b949e" font-family="sans-serif" font-size="11">5.8K</text><line x1="70" y1="90.0" x2="690" y2="90.0" stroke="#21262d" stroke-width="1"/><text x="62" y="94.0" text-anchor="end" fill="#8b949e" font-family="sans-serif" font-size="11">8.7K</text><line x1="70" y1="30.0" x2="690" y2="30.0" stroke="#21262d" stroke-width="1"/><text x="62" y="34.0" text-anchor="end" fill="#8b949e" font-family="sans-serif" font-size="11">11.6K</text>
  <polygon points="70.0,188.1 81.5,188.1 93.0,187.1 104.4,174.8 115.9,167.1 127.4,165.0 138.9,163.2 150.4,156.8 161.9,156.4 173.3,154.5 184.8,154.0 196.3,153.9 207.8,144.5 219.3,132.2 230.7,121.8 242.2,117.8 253.7,113.9 265.2,110.7 276.7,109.8 288.1,109.6 299.6,107.8 311.1,105.9 322.6,101.3 334.1,96.8 345.6,93.5 357.0,90.1 368.5,89.0 380.0,80.6 391.5,75.3 403.0,73.5 414.4,73.2 425.9,71.8 437.4,71.7 448.9,71.7 460.4,71.1 471.9,70.9 483.3,70.8 494.8,70.3 506.3,67.3 517.8,67.2 529.3,66.6 540.7,65.5 552.2,65.3 563.7,64.9 575.2,64.7 586.7,64.4 598.1,64.2 609.6,64.1 621.1,64.0 632.6,62.1 644.1,61.7 655.6,61.6 667.0,61.5 678.5,61.4 690.0,61.3 690.0,270.0 70.0,270.0" fill="#58a6ff" opacity="0.15"/>
  <polyline points="70.0,188.1 81.5,188.1 93.0,187.1 104.4,174.8 115.9,167.1 127.4,165.0 138.9,163.2 150.4,156.8 161.9,156.4 173.3,154.5 184.8,154.0 196.3,153.9 207.8,144.5 219.3,132.2 230.7,121.8 242.2,117.8 253.7,113.9 265.2,110.7 276.7,109.8 288.1,109.6 299.6,107.8 311.1,105.9 322.6,101.3 334.1,96.8 345.6,93.5 357.0,90.1 368.5,89.0 380.0,80.6 391.5,75.3 403.0,73.5 414.4,73.2 425.9,71.8 437.4,71.7 448.9,71.7 460.4,71.1 471.9,70.9 483.3,70.8 494.8,70.3 506.3,67.3 517.8,67.2 529.3,66.6 540.7,65.5 552.2,65.3 563.7,64.9 575.2,64.7 586.7,64.4 598.1,64.2 609.6,64.1 621.1,64.0 632.6,62.1 644.1,61.7 655.6,61.6 667.0,61.5 678.5,61.4 690.0,61.3" fill="none" stroke="#58a6ff" stroke-width="2.5" stroke-linejoin="round" stroke-linecap="round"/>
  <text x="70.0" y="310" text-anchor="middle" fill="#8b949e" font-family="sans-serif" font-size="11">03-12</text><text x="219.3" y="310" text-anchor="middle" fill="#8b949e" font-family="sans-serif" font-size="11">03-25</text><text x="368.5" y="310" text-anchor="middle" fill="#8b949e" font-family="sans-serif" font-size="11">04-07</text><text x="517.8" y="310" text-anchor="middle" fill="#8b949e" font-family="sans-serif" font-size="11">04-20</text><text x="667.0" y="310" text-anchor="middle" fill="#8b949e" font-family="sans-serif" font-size="11">05-03</text>
  <text x="694.0" y="53.3" fill="#58a6ff" font-family="sans-serif" font-size="12" font-weight="bold">10.1K</text>
</svg>