<svg xmlns="http://www.w3.org/2000/svg" width="720" height="320">
  <rect width="720" height="320" fill="#0d1117" rx="8"/>
  <text x="70" y="22" fill="#c9d1d9" font-family="sans-serif" font-size="14" font-weight="bold">Total Downloads Over Time</text>
  <line x1="70" y1="270.0" x2="690" y2="270.0" stroke="#21262d" stroke-width="1"/><text x="62" y="274.0" text-anchor="end" fill="#8b949e" font-family="sans-serif" font-size="11">0</text><line x1="70" y1="210.0" x2="690" y2="210.0" stroke="#21262d" stroke-width="1"/><text x="62" y="214.0" text-anchor="end" fill="#8b949e" font-family="sans-serif" font-size="11">2.7K</text><line x1="70" y1="150.0" x2="690" y2="150.0" stroke="#21262d" stroke-width="1"/><text x="62" y="154.0" text-anchor="end" fill="#8b949e" font-family="sans-serif" font-size="11">5.4K</text><line x1="70" y1="90.0" x2="690" y2="90.0" stroke="#21262d" stroke-width="1"/><text x="62" y="94.0" text-anchor="end" fill="#8b949e" font-family="sans-serif" font-size="11">8.2K</text><line x1="70" y1="30.0" x2="690" y2="30.0" stroke="#21262d" stroke-width="1"/><text x="62" y="34.0" text-anchor="end" fill="#8b949e" font-family="sans-serif" font-size="11">10.9K</text>
  <polygon points="70.0,183.1 91.4,183.0 112.8,181.9 134.1,168.9 155.5,160.7 176.9,158.4 198.3,156.5 219.7,149.8 241.0,149.4 262.4,147.4 283.8,146.8 305.2,146.7 326.6,136.7 347.9,123.6 369.3,112.6 390.7,108.4 412.1,104.2 433.4,100.8 454.8,99.9 476.2,99.7 497.6,97.7 519.0,95.7 540.3,90.8 561.7,86.1 583.1,82.5 604.5,78.9 625.9,77.8 647.2,68.8 668.6,63.2 690.0,61.3 690.0,270.0 70.0,270.0" fill="#58a6ff" opacity="0.15"/>
  <polyline points="70.0,183.1 91.4,183.0 112.8,181.9 134.1,168.9 155.5,160.7 176.9,158.4 198.3,156.5 219.7,149.8 241.0,149.4 262.4,147.4 283.8,146.8 305.2,146.7 326.6,136.7 347.9,123.6 369.3,112.6 390.7,108.4 412.1,104.2 433.4,100.8 454.8,99.9 476.2,99.7 497.6,97.7 519.0,95.7 540.3,90.8 561.7,86.1 583.1,82.5 604.5,78.9 625.9,77.8 647.2,68.8 668.6,63.2 690.0,61.3" fill="none" stroke="#58a6ff" stroke-width="2.5" stroke-linejoin="round" stroke-linecap="round"/>
  <text x="70.0" y="310" text-anchor="middle" fill="#8b949e" font-family="sans-serif" font-size="11">03-12</text><text x="219.7" y="310" text-anchor="middle" fill="#8b949e" font-family="sans-serif" font-size="11">03-19</text><text x="369.3" y="310" text-anchor="middle" fill="#8b949e" font-family="sans-serif" font-size="11">03-26</text><text x="519.0" y="310" text-anchor="middle" fill="#8b949e" font-family="sans-serif" font-size="11">04-02</text><text x="668.6" y="310" text-anchor="middle" fill="#8b949e" font-family="sans-serif" font-size="11">04-09</text>
  <text x="694.0" y="53.3" fill="#58a6ff" font-family="sans-serif" font-size="12" font-weight="bold">9.5K</text>
</svg>