<svg xmlns="http://www.w3.org/2000/svg" width="720" height="320">
  <rect width="720" height="320" fill="#0d1117" rx="8"/>
  <text x="70" y="22" fill="#c9d1d9" font-family="sans-serif" font-size="14" font-weight="bold">Total Downloads Over Time</text>
  <line x1="70" y1="270.0" x2="690" y2="270.0" stroke="#21262d" stroke-width="1"/><text x="62" y="274.0" text-anchor="end" fill="#8b949e" font-family="sans-serif" font-size="11">0</text><line x1="70" y1="210.0" x2="690" y2="210.0" stroke="#21262d" stroke-width="1"/><text x="62" y="214.0" text-anchor="end" fill="#8b949e" font-family="sans-serif" font-size="11">3.0K</text><line x1="70" y1="150.0" x2="690" y2="150.0" stroke="#21262d" stroke-width="1"/><text x="62" y="154.0" text-anchor="end" fill="#8b949e" font-family="sans-serif" font-size="11">6.0K</text><line x1="70" y1="90.0" x2="690" y2="90.0" stroke="#21262d" stroke-width="1"/><text x="62" y="94.0" text-anchor="end" fill="#8b949e" font-family="sans-serif" font-size="11">9.1K</text><line x1="70" y1="30.0" x2="690" y2="30.0" stroke="#21262d" stroke-width="1"/><text x="62" y="34.0" text-anchor="end" fill="#8b949e" font-family="sans-serif" font-size="11">12.1K</text>
  <polygon points="70.0,191.8 79.3,191.8 88.5,190.7 97.8,179.1 107.0,171.7 116.3,169.6 125.5,167.9 134.8,161.8 144.0,161.5 153.3,159.7 162.5,159.2 171.8,159.0 181.0,150.1 190.3,138.3 199.6,128.4 208.8,124.6 218.1,120.8 227.3,117.8 236.6,116.9 245.8,116.7 255.1,115.0 264.3,113.2 273.6,108.8 282.8,104.5 292.1,101.3 301.3,98.1 310.6,97.1 319.9,89.0 329.1,84.0 338.4,82.2 347.6,82.0 356.9,80.6 366.1,80.5 375.4,80.5 384.6,79.9 393.9,79.8 403.1,79.6 412.4,79.1 421.6,76.3 430.9,76.2 440.1,75.6 449.4,74.5 458.7,74.4 467.9,74.0 477.2,73.8 486.4,73.5 495.7,73.3 504.9,73.2 514.2,73.1 523.4,71.3 532.7,70.9 541.9,70.9 551.2,70.7 560.4,70.6 569.7,70.6 579.0,69.5 588.2,69.4 597.5,69.1 606.7,69.1 616.0,67.6 625.2,67.3 634.5,67.0 643.7,64.5 653.0,64.4 662.2,63.9 671.5,61.5 680.7,61.3 690.0,61.3 690.0,270.0 70.0,270.0" fill="#58a6ff" opacity="0.15"/>
  <polyline points="70.0,191.8 79.3,191.8 88.5,190.7 97.8,179.1 107.0,171.7 116.3,169.6 125.5,167.9 134.8,161.8 144.0,161.5 153.3,159.7 162.5,159.2 171.8,159.0 181.0,150.1 190.3,138.3 199.6,128.4 208.8,124.6 218.1,120.8 227.3,117.8 236.6,116.9 245.8,116.7 255.1,115.0 264.3,113.2 273.6,108.8 282.8,104.5 292.1,101.3 301.3,98.1 310.6,97.1 319.9,89.0 329.1,84.0 338.4,82.2 347.6,82.0 356.9,80.6 366.1,80.5 375.4,80.5 384.6,79.9 393.9,79.8 403.1,79.6 412.4,79.1 421.6,76.3 430.9,76.2 440.1,75.6 449.4,74.5 458.7,74.4 467.9,74.0 477.2,73.8 486.4,73.5 495.7,73.3 504.9,73.2 514.2,73.1 523.4,71.3 532.7,70.9 541.9,70.9 551.2,70.7 560.4,70.6 569.7,70.6 579.0,69.5 588.2,69.4 597.5,69.1 606.7,69.1 616.0,67.6 625.2,67.3 634.5,67.0 643.7,64.5 653.0,64.4 662.2,63.9 671.5,61.5 680.7,61.3 690.0,61.3" fill="none" stroke="#58a6ff" stroke-width="2.5" stroke-linejoin="round" stroke-linecap="round"/>
  <text x="70.0" y="310" text-anchor="middle" fill="#8b949e" font-family="sans-serif" font-size="11">03-12</text><text x="218.1" y="310" text-anchor="middle" fill="#8b949e" font-family="sans-serif" font-size="11">03-28</text><text x="366.1" y="310" text-anchor="middle" fill="#8b949e" font-family="sans-serif" font-size="11">04-13</text><text x="514.2" y="310" text-anchor="middle" fill="#8b949e" font-family="sans-serif" font-size="11">04-29</text><text x="662.2" y="310" text-anchor="middle" fill="#8b949e" font-family="sans-serif" font-size="11">05-15</text>
  <text x="694.0" y="53.3" fill="#58a6ff" font-family="sans-serif" font-size="12" font-weight="bold">10.5K</text>
</svg>