<svg xmlns="http://www.w3.org/2000/svg" width="720" height="320">
  <rect width="720" height="320" fill="#0d1117" rx="8"/>
  <text x="70" y="22" fill="#c9d1d9" font-family="sans-serif" font-size="14" font-weight="bold">Total Downloads Over Time</text>
  <line x1="70" y1="270.0" x2="690" y2="270.0" stroke="#21262d" stroke-width="1"/><text x="62" y="274.0" text-anchor="end" fill="#8b949e" font-family="sans-serif" font-size="11">0</text><line x1="70" y1="210.0" x2="690" y2="210.0" stroke="#21262d" stroke-width="1"/><text x="62" y="214.0" text-anchor="end" fill="#8b949e" font-family="sans-serif" font-size="11">3.2K</text><line x1="70" y1="150.0" x2="690" y2="150.0" stroke="#21262d" stroke-width="1"/><text x="62" y="154.0" text-anchor="end" fill="#8b949e" font-family="sans-serif" font-size="11">6.5K</text><line x1="70" y1="90.0" x2="690" y2="90.0" stroke="#21262d" stroke-width="1"/><text x="62" y="94.0" text-anchor="end" fill="#8b949e" font-family="sans-serif" font-size="11">9.7K</text><line x1="70" y1="30.0" x2="690" y2="30.0" stroke="#21262d" stroke-width="1"/><text x="62" y="34.0" text-anchor="end" fill="#8b949e" font-family="sans-serif" font-size="11">13.0K</text>
  <polygon points="70.0,197.1 76.3,197.1 82.5,196.1 88.8,185.3 95.1,178.4 101.3,176.5 107.6,174.9 113.8,169.2 120.1,168.9 126.4,167.2 132.6,166.8 138.9,166.6 145.2,158.3 151.4,147.3 157.7,138.0 163.9,134.5 170.2,131.0 176.5,128.2 182.7,127.4 189.0,127.2 195.3,125.5 201.5,123.9 207.8,119.8 214.0,115.8 220.3,112.8 226.6,109.8 232.8,108.9 239.1,101.3 245.4,96.7 251.6,95.0 257.9,94.8 264.1,93.5 270.4,93.4 276.7,93.4 282.9,92.9 289.2,92.8 295.5,92.6 301.7,92.1 308.0,89.5 314.2,89.4 320.5,88.8 326.8,87.9 333.0,87.7 339.3,87.4 345.6,87.2 351.8,86.9 358.1,86.7 364.3,86.7 370.6,86.6 376.9,84.9 383.1,84.5 389.4,84.5 395.7,84.3 401.9,84.2 408.2,84.2 414.4,83.2 420.7,83.0 427.0,82.8 433.2,82.8 439.5,81.4 445.8,81.1 452.0,80.8 458.3,78.5 464.5,78.4 470.8,77.9 477.1,75.7 483.3,75.6 489.6,75.5 495.9,75.4 502.1,75.3 508.4,75.3 514.6,74.9 520.9,74.9 527.2,74.9 533.4,74.7 539.7,74.4 546.0,73.2 552.2,70.7 558.5,70.7 564.7,70.6 571.0,70.6 577.3,69.3 583.5,69.3 589.8,69.3 596.1,68.5 602.3,68.5 608.6,65.1 614.8,63.6 621.1,63.5 627.4,63.4 633.6,63.4 639.9,63.0 646.2,62.8 652.4,62.8 658.7,62.8 664.9,62.7 671.2,62.3 677.5,61.5 683.7,61.4 690.0,61.3 690.0,270.0 70.0,270.0" fill="#58a6ff" opacity="0.15"/>
  <polyline points="70.0,197.1 76.3,197.1 82.5,196.1 88.8,185.3 95.1,178.4 101.3,176.5 107.6,174.9 113.8,169.2 120.1,168.9 126.4,167.2 132.6,166.8 138.9,166.6 145.2,158.3 151.4,147.3 157.7,138.0 163.9,134.5 170.2,131.0 176.5,128.2 182.7,127.4 189.0,127.2 195.3,125.5 201.5,123.9 207.8,119.8 214.0,115.8 220.3,112.8 226.6,109.8 232.8,108.9 239.1,101.3 245.4,96.7 251.6,95.0 257.9,94.8 264.1,93.5 270.4,93.4 276.7,93.4 282.9,92.9 289.2,92.8 295.5,92.6 301.7,92.1 308.0,89.5 314.2,89.4 320.5,88.8 326.8,87.9 333.0,87.7 339.3,87.4 345.6,87.2 351.8,86.9 358.1,86.7 364.3,86.7 370.6,86.6 376.9,84.9 383.1,84.5 389.4,84.5 395.7,84.3 401.9,84.2 408.2,84.2 414.4,83.2 420.7,83.0 427.0,82.8 433.2,82.8 439.5,81.4 445.8,81.1 452.0,80.8 458.3,78.5 464.5,78.4 470.8,77.9 477.1,75.7 483.3,75.6 489.6,75.5 495.9,75.4 502.1,75.3 508.4,75.3 514.6,74.9 520.9,74.9 527.2,74.9 533.4,74.7 539.7,74.4 546.0,73.2 552.2,70.7 558.5,70.7 564.7,70.6 571.0,70.6 577.3,69.3 583.5,69.3 589.8,69.3 596.1,68.5 602.3,68.5 608.6,65.1 614.8,63.6 621.1,63.5 627.4,63.4 633.6,63.4 639.9,63.0 646.2,62.8 652.4,62.8 658.7,62.8 664.9,62.7 671.2,62.3 677.5,61.5 683.7,61.4 690.0,61.3" fill="none" stroke="#58a6ff" stroke-width="2.5" stroke-linejoin="round" stroke-linecap="round"/>
  <text x="70.0" y="310" text-anchor="middle" fill="#8b949e" font-family="sans-serif" font-size="11">03-12</text><text x="220.3" y="310" text-anchor="middle" fill="#8b949e" font-family="sans-serif" font-size="11">04-05</text><text x="370.6" y="310" text-anchor="middle" fill="#8b949e" font-family="sans-serif" font-size="11">04-29</text><text x="520.9" y="310" text-anchor="middle" fill="#8b949e" font-family="sans-serif" font-size="11">05-23</text><text x="671.2" y="310" text-anchor="middle" fill="#8b949e" font-family="sans-serif" font-size="11">06-16</text>
  <text x="694.0" y="53.3" fill="#58a6ff" font-family="sans-serif" font-size="12" font-weight="bold">11.3K</text>
</svg>