<svg xmlns="http://www.w3.org/2000/svg" width="720" height="320">
  <rect width="720" height="320" fill="#0d1117" rx="8"/>
  <text x="70" y="22" fill="#c9d1d9" font-family="sans-serif" font-size="14" font-weight="bold">Total Downloads Over Time</text>
  <line x1="70" y1="270.0" x2="690" y2="270.0" stroke="#21262d" stroke-width="1"/><text x="62" y="274.0" text-anchor="end" fill="#8b949e" font-family="sans-serif" font-size="11">0</text><line x1="70" y1="210.0" x2="690" y2="210.0" stroke="#21262d" stroke-width="1"/><text x="62" y="214.0" text-anchor="end" fill="#8b949e" font-family="sans-serif" font-size="11">3.3K</text><line x1="70" y1="150.0" x2="690" y2="150.0" stroke="#21262d" stroke-width="1"/><text x="62" y="154.0" text-anchor="end" fill="#8b949e" font-family="sans-serif" font-size="11">6.6K</text><line x1="70" y1="90.0" x2="690" y2="90.0" stroke="#21262d" stroke-width="1"/><text x="62" y="94.0" text-anchor="end" fill="#8b949e" font-family="sans-serif" font-size="11">9.9K</text><line x1="70" y1="30.0" x2="690" y2="30.0" stroke="#21262d" stroke-width="1"/><text x="62" y="34.0" text-anchor="end" fill="#8b949e" font-family="sans-serif" font-size="11">13.2K</text>
  <polygon points="70.0,198.3 75.7,198.2 81.5,197.3 87.2,186.6 93.0,179.9 98.7,178.0 104.4,176.4 110.2,170.8 115.9,170.5 121.7,168.8 127.4,168.4 133.1,168.2 138.9,160.1 144.6,149.3 150.4,140.1 156.1,136.7 161.9,133.2 167.6,130.4 173.3,129.6 179.1,129.5 184.8,127.8 190.6,126.2 196.3,122.2 202.0,118.2 207.8,115.3 213.5,112.4 219.3,111.4 225.0,104.0 230.7,99.4 236.5,97.8 242.2,97.6 248.0,96.3 253.7,96.2 259.4,96.2 265.2,95.7 270.9,95.6 276.7,95.4 282.4,95.0 288.1,92.4 293.9,92.3 299.6,91.7 305.4,90.8 311.1,90.6 316.9,90.3 322.6,90.1 328.3,89.8 334.1,89.6 339.8,89.6 345.6,89.5 351.3,87.8 357.0,87.5 362.8,87.4 368.5,87.3 374.3,87.2 380.0,87.1 385.7,86.1 391.5,86.0 397.2,85.8 403.0,85.8 408.7,84.4 414.4,84.1 420.2,83.8 425.9,81.6 431.7,81.4 437.4,81.0 443.1,78.8 448.9,78.7 454.6,78.6 460.4,78.5 466.1,78.4 471.9,78.4 477.6,78.0 483.3,78.0 489.1,78.0 494.8,77.8 500.6,77.5 506.3,76.3 512.0,73.9 517.8,73.8 523.5,73.7 529.3,73.7 535.0,72.5 540.7,72.5 546.5,72.4 552.2,71.7 558.0,71.7 563.7,68.4 569.4,66.8 575.2,66.8 580.9,66.7 586.7,66.6 592.4,66.3 598.1,66.1 603.9,66.1 609.6,66.1 615.4,66.0 621.1,65.6 626.9,64.9 632.6,64.7 638.3,64.6 644.1,64.5 649.8,64.4 655.6,64.3 661.3,64.3 667.0,62.2 672.8,62.1 678.5,62.1 684.3,61.7 690.0,61.3 690.0,270.0 70.0,270.0" fill="#58a6ff" opacity="0.15"/>
  <polyline points="70.0,198.3 75.7,198.2 81.5,197.3 87.2,186.6 93.0,179.9 98.7,178.0 104.4,176.4 110.2,170.8 115.9,170.5 121.7,168.8 127.4,168.4 133.1,168.2 138.9,160.1 144.6,149.3 150.4,140.1 156.1,136.7 161.9,133.2 167.6,130.4 173.3,129.6 179.1,129.5 184.8,127.8 190.6,126.2 196.3,122.2 202.0,118.2 207.8,115.3 213.5,112.4 219.3,111.4 225.0,104.0 230.7,99.4 236.5,97.8 242.2,97.6 248.0,96.3 253.7,96.2 259.4,96.2 265.2,95.7 270.9,95.6 276.7,95.4 282.4,95.0 288.1,92.4 293.9,92.3 299.6,91.7 305.4,90.8 311.1,90.6 316.9,90.3 322.6,90.1 328.3,89.8 334.1,89.6 339.8,89.6 345.6,89.5 351.3,87.8 357.0,87.5 362.8,87.4 368.5,87.3 374.3,87.2 380.0,87.1 385.7,86.1 391.5,86.0 397.2,85.8 403.0,85.8 408.7,84.4 414.4,84.1 420.2,83.8 425.9,81.6 431.7,81.4 437.4,81.0 443.1,78.8 448.9,78.7 454.6,78.6 460.4,78.5 466.1,78.4 471.9,78.4 477.6,78.0 483.3,78.0 489.1,78.0 494.8,77.8 500.6,77.5 506.3,76.3 512.0,73.9 517.8,73.8 523.5,73.7 529.3,73.7 535.0,72.5 540.7,72.5 546.5,72.4 552.2,71.7 558.0,71.7 563.7,68.4 569.4,66.8 575.2,66.8 580.9,66.7 586.7,66.6 592.4,66.3 598.1,66.1 603.9,66.1 609.6,66.1 615.4,66.0 621.1,65.6 626.9,64.9 632.6,64.7 638.3,64.6 644.1,64.5 649.8,64.4 655.6,64.3 661.3,64.3 667.0,62.2 672.8,62.1 678.5,62.1 684.3,61.7 690.0,61.3" fill="none" stroke="#58a6ff" stroke-width="2.5" stroke-linejoin="round" stroke-linecap="round"/>
  <text x="70.0" y="310" text-anchor="middle" fill="#8b949e" font-family="sans-serif" font-size="11">03-12</text><text x="225.0" y="310" text-anchor="middle" fill="#8b949e" font-family="sans-serif" font-size="11">04-08</text><text x="380.0" y="310" text-anchor="middle" fill="#8b949e" font-family="sans-serif" font-size="11">05-05</text><text x="535.0" y="310" text-anchor="middle" fill="#8b949e" font-family="sans-serif" font-size="11">06-01</text><text x="690.0" y="310" text-anchor="middle" fill="#8b949e" font-family="sans-serif" font-size="11">06-28</text>
  <text x="694.0" y="53.3" fill="#58a6ff" font-family="sans-serif" font-size="12" font-weight="bold">11.5K</text>
</svg>