<svg xmlns="http://www.w3.org/2000/svg" width="720" height="320">
  <rect width="720" height="320" fill="#0d1117" rx="8"/>
  <text x="70" y="22" fill="#c9d1d9" font-family="sans-serif" font-size="14" font-weight="bold">Total Downloads Over Time</text>
  <line x1="70" y1="270.0" x2="690" y2="270.0" stroke="#21262d" stroke-width="1"/><text x="62" y="274.0" text-anchor="end" fill="#8b949e" font-family="sans-serif" font-size="11">0</text><line x1="70" y1="210.0" x2="690" y2="210.0" stroke="#21262d" stroke-width="1"/><text x="62" y="214.0" text-anchor="end" fill="#8b949e" font-family="sans-serif" font-size="11">3.2K</text><line x1="70" y1="150.0" x2="690" y2="150.0" stroke="#21262d" stroke-width="1"/><text x="62" y="154.0" text-anchor="end" fill="#8b949e" font-family="sans-serif" font-size="11">6.4K</text><line x1="70" y1="90.0" x2="690" y2="90.0" stroke="#21262d" stroke-width="1"/><text x="62" y="94.0" text-anchor="end" fill="#8b949e" font-family="sans-serif" font-size="11">9.7K</text><line x1="70" y1="30.0" x2="690" y2="30.0" stroke="#21262d" stroke-width="1"/><text x="62" y="34.0" text-anchor="end" fill="#8b949e" font-family="sans-serif" font-size="11">12.9K</text>
  <polygon points="70.0,196.6 76.5,196.6 83.1,195.6 89.6,184.7 96.1,177.8 102.6,175.8 109.2,174.2 115.7,168.5 122.2,168.2 128.7,166.5 135.3,166.0 141.8,165.9 148.3,157.5 154.8,146.5 161.4,137.1 167.9,133.6 174.4,130.0 180.9,127.2 187.5,126.4 194.0,126.2 200.5,124.5 207.1,122.9 213.6,118.7 220.1,114.7 226.6,111.7 233.2,108.7 239.7,107.7 246.2,100.1 252.7,95.5 259.3,93.8 265.8,93.6 272.3,92.3 278.8,92.2 285.4,92.2 291.9,91.6 298.4,91.5 304.9,91.4 311.5,90.9 318.0,88.2 324.5,88.1 331.1,87.6 337.6,86.6 344.1,86.4 350.6,86.1 357.2,85.9 363.7,85.7 370.2,85.5 376.7,85.4 383.3,85.3 389.8,83.6 396.3,83.2 402.8,83.2 409.4,83.0 415.9,83.0 422.4,82.9 428.9,81.9 435.5,81.7 442.0,81.5 448.5,81.5 455.1,80.1 461.6,79.8 468.1,79.5 474.6,77.2 481.2,77.1 487.7,76.6 494.2,74.4 500.7,74.2 507.3,74.2 513.8,74.1 520.3,73.9 526.8,73.9 533.4,73.6 539.9,73.6 546.4,73.6 552.9,73.3 559.5,73.1 566.0,71.8 572.5,69.3 579.1,69.3 585.6,69.2 592.1,69.2 598.6,67.9 605.2,67.9 611.7,67.9 618.2,67.1 624.7,67.1 631.3,63.7 637.8,62.1 644.3,62.1 650.8,62.0 657.4,61.9 663.9,61.5 670.4,61.4 676.9,61.4 683.5,61.4 690.0,61.3 690.0,270.0 70.0,270.0" fill="#58a6ff" opacity="0.15"/>
  <polyline points="70.0,196.6 76.5,196.6 83.1,195.6 89.6,184.7 96.1,177.8 102.6,175.8 109.2,174.2 115.7,168.5 122.2,168.2 128.7,166.5 135.3,166.0 141.8,165.9 148.3,157.5 154.8,146.5 161.4,137.1 167.9,133.6 174.4,130.0 180.9,127.2 187.5,126.4 194.0,126.2 200.5,124.5 207.1,122.9 213.6,118.7 220.1,114.7 226.6,111.7 233.2,108.7 239.7,107.7 246.2,100.1 252.7,95.5 259.3,93.8 265.8,93.6 272.3,92.3 278.8,92.2 285.4,92.2 291.9,91.6 298.4,91.5 304.9,91.4 311.5,90.9 318.0,88.2 324.5,88.1 331.1,87.6 337.6,86.6 344.1,86.4 350.6,86.1 357.2,85.9 363.7,85.7 370.2,85.5 376.7,85.4 383.3,85.3 389.8,83.6 396.3,83.2 402.8,83.2 409.4,83.0 415.9,83.0 422.4,82.9 428.9,81.9 435.5,81.7 442.0,81.5 448.5,81.5 455.1,80.1 461.6,79.8 468.1,79.5 474.6,77.2 481.2,77.1 487.7,76.6 494.2,74.4 500.7,74.2 507.3,74.2 513.8,74.1 520.3,73.9 526.8,73.9 533.4,73.6 539.9,73.6 546.4,73.6 552.9,73.3 559.5,73.1 566.0,71.8 572.5,69.3 579.1,69.3 585.6,69.2 592.1,69.2 598.6,67.9 605.2,67.9 611.7,67.9 618.2,67.1 624.7,67.1 631.3,63.7 637.8,62.1 644.3,62.1 650.8,62.0 657.4,61.9 663.9,61.5 670.4,61.4 676.9,61.4 683.5,61.4 690.0,61.3" fill="none" stroke="#58a6ff" stroke-width="2.5" stroke-linejoin="round" stroke-linecap="round"/>
  <text x="70.0" y="310" text-anchor="middle" fill="#8b949e" font-family="sans-serif" font-size="11">03-12</text><text x="220.1" y="310" text-anchor="middle" fill="#8b949e" font-family="sans-serif" font-size="11">04-04</text><text x="370.2" y="310" text-anchor="middle" fill="#8b949e" font-family="sans-serif" font-size="11">04-27</text><text x="520.3" y="310" text-anchor="middle" fill="#8b949e" font-family="sans-serif" font-size="11">05-20</text><text x="670.4" y="310" text-anchor="middle" fill="#8b949e" font-family="sans-serif" font-size="11">06-12</text>
  <text x="694.0" y="53.3" fill="#58a6ff" font-family="sans-serif" font-size="12" font-weight="bold">11.2K</text>
</svg>