<svg xmlns="http://www.w3.org/2000/svg" width="720" height="320">
  <rect width="720" height="320" fill="#0d1117" rx="8"/>
  <text x="70" y="22" fill="#c9d1d9" font-family="sans-serif" font-size="14" font-weight="bold">Total Downloads Over Time</text>
  <line x1="70" y1="270.0" x2="690" y2="270.0" stroke="#21262d" stroke-width="1"/><text x="62" y="274.0" text-anchor="end" fill="#8b949e" font-family="sans-serif" font-size="11">0</text><line x1="70" y1="210.0" x2="690" y2="210.0" stroke="#21262d" stroke-width="1"/><text x="62" y="214.0" text-anchor="end" fill="#8b949e" font-family="sans-serif" font-size="11">3.1K</text><line x1="70" y1="150.0" x2="690" y2="150.0" stroke="#21262d" stroke-width="1"/><text x="62" y="154.0" text-anchor="end" fill="#8b949e" font-family="sans-serif" font-size="11">6.2K</text><line x1="70" y1="90.0" x2="690" y2="90.0" stroke="#21262d" stroke-width="1"/><text x="62" y="94.0" text-anchor="end" fill="#8b949e" font-family="sans-serif" font-size="11">9.4K</text><line x1="70" y1="30.0" x2="690" y2="30.0" stroke="#21262d" stroke-width="1"/><text x="62" y="34.0" text-anchor="end" fill="#8b949e" font-family="sans-serif" font-size="11">12.5K</text>
  <polygon points="70.0,194.2 77.5,194.2 84.9,193.2 92.4,181.9 99.9,174.8 107.3,172.8 114.8,171.1 122.3,165.2 129.8,164.9 137.2,163.1 144.7,162.7 152.2,162.5 159.6,153.9 167.1,142.4 174.6,132.8 182.0,129.1 189.5,125.5 197.0,122.6 204.5,121.7 211.9,121.5 219.4,119.8 226.9,118.1 234.3,113.8 241.8,109.7 249.3,106.6 256.7,103.5 264.2,102.5 271.7,94.6 279.2,89.8 286.6,88.1 294.1,87.8 301.6,86.5 309.0,86.4 316.5,86.4 324.0,85.9 331.4,85.7 338.9,85.6 346.4,85.1 353.9,82.3 361.3,82.3 368.8,81.7 376.3,80.7 383.7,80.5 391.2,80.2 398.7,79.9 406.1,79.7 413.6,79.5 421.1,79.4 428.6,79.3 436.0,77.5 443.5,77.2 451.0,77.1 458.4,77.0 465.9,76.9 473.4,76.8 480.8,75.8 488.3,75.6 495.8,75.4 503.3,75.4 510.7,74.0 518.2,73.6 525.7,73.4 533.1,71.0 540.6,70.8 548.1,70.3 555.5,68.1 563.0,67.9 570.5,67.8 578.0,67.7 585.4,67.6 592.9,67.6 600.4,67.2 607.8,67.2 615.3,67.2 622.8,67.0 630.2,66.7 637.7,65.4 645.2,62.8 652.7,62.8 660.1,62.7 667.6,62.7 675.1,61.4 682.5,61.4 690.0,61.3 690.0,270.0 70.0,270.0" fill="#58a6ff" opacity="0.15"/>
  <polyline points="70.0,194.2 77.5,194.2 84.9,193.2 92.4,181.9 99.9,174.8 107.3,172.8 114.8,171.1 122.3,165.2 129.8,164.9 137.2,163.1 144.7,162.7 152.2,162.5 159.6,153.9 167.1,142.4 174.6,132.8 182.0,129.1 189.5,125.5 197.0,122.6 204.5,121.7 211.9,121.5 219.4,119.8 226.9,118.1 234.3,113.8 241.8,109.7 249.3,106.6 256.7,103.5 264.2,102.5 271.7,94.6 279.2,89.8 286.6,88.1 294.1,87.8 301.6,86.5 309.0,86.4 316.5,86.4 324.0,85.9 331.4,85.7 338.9,85.6 346.4,85.1 353.9,82.3 361.3,82.3 368.8,81.7 376.3,80.7 383.7,80.5 391.2,80.2 398.7,79.9 406.1,79.7 413.6,79.5 421.1,79.4 428.6,79.3 436.0,77.5 443.5,77.2 451.0,77.1 458.4,77.0 465.9,76.9 473.4,76.8 480.8,75.8 488.3,75.6 495.8,75.4 503.3,75.4 510.7,74.0 518.2,73.6 525.7,73.4 533.1,71.0 540.6,70.8 548.1,70.3 555.5,68.1 563.0,67.9 570.5,67.8 578.0,67.7 585.4,67.6 592.9,67.6 600.4,67.2 607.8,67.2 615.3,67.2 622.8,67.0 630.2,66.7 637.7,65.4 645.2,62.8 652.7,62.8 660.1,62.7 667.6,62.7 675.1,61.4 682.5,61.4 690.0,61.3" fill="none" stroke="#58a6ff" stroke-width="2.5" stroke-linejoin="round" stroke-linecap="round"/>
  <text x="70.0" y="310" text-anchor="middle" fill="#8b949e" font-family="sans-serif" font-size="11">03-12</text><text x="219.4" y="310" text-anchor="middle" fill="#8b949e" font-family="sans-serif" font-size="11">04-01</text><text x="368.8" y="310" text-anchor="middle" fill="#8b949e" font-family="sans-serif" font-size="11">04-21</text><text x="518.2" y="310" text-anchor="middle" fill="#8b949e" font-family="sans-serif" font-size="11">05-11</text><text x="667.6" y="310" text-anchor="middle" fill="#8b949e" font-family="sans-serif" font-size="11">05-31</text>
  <text x="694.0" y="53.3" fill="#58a6ff" font-family="sans-serif" font-size="12" font-weight="bold">10.9K</text>
</svg>