<svg xmlns="http://www.w3.org/2000/svg" width="720" height="320">
  <rect width="720" height="320" fill="#0d1117" rx="8"/>
  <text x="70" y="22" fill="#c9d1d9" font-family="sans-serif" font-size="14" font-weight="bold">Total Downloads Over Time</text>
  <line x1="70" y1="270.0" x2="690" y2="270.0" stroke="#21262d" stroke-width="1"/><text x="62" y="274.0" text-anchor="end" fill="#8b949e" font-family="sans-serif" font-size="11">0</text><line x1="70" y1="210.0" x2="690" y2="210.0" stroke="#21262d" stroke-width="1"/><text x="62" y="214.0" text-anchor="end" fill="#8b949e" font-family="sans-serif" font-size="11">3.0K</text><line x1="70" y1="150.0" x2="690" y2="150.0" stroke="#21262d" stroke-width="1"/><text x="62" y="154.0" text-anchor="end" fill="#8b949e" font-family="sans-serif" font-size="11">6.0K</text><line x1="70" y1="90.0" x2="690" y2="90.0" stroke="#21262d" stroke-width="1"/><text x="62" y="94.0" text-anchor="end" fill="#8b949e" font-family="sans-serif" font-size="11">9.1K</text><line x1="70" y1="30.0" x2="690" y2="30.0" stroke="#21262d" stroke-width="1"/><text x="62" y="34.0" text-anchor="end" fill="#8b949e" font-family="sans-serif" font-size="11">12.1K</text>
  <polygon points="70.0,191.7 79.5,191.7 89.1,190.7 98.6,179.0 108.2,171.6 117.7,169.5 127.2,167.8 136.8,161.7 146.3,161.3 155.8,159.6 165.4,159.1 174.9,158.9 184.5,150.0 194.0,138.2 203.5,128.2 213.1,124.4 222.6,120.7 232.2,117.6 241.7,116.8 251.2,116.6 260.8,114.8 270.3,113.1 279.8,108.6 289.4,104.3 298.9,101.1 308.5,97.9 318.0,96.9 327.5,88.8 337.1,83.8 346.6,82.0 356.2,81.8 365.7,80.4 375.2,80.3 384.8,80.3 394.3,79.7 403.8,79.6 413.4,79.4 422.9,78.9 432.5,76.1 442.0,76.0 451.5,75.4 461.1,74.3 470.6,74.2 480.2,73.8 489.7,73.6 499.2,73.3 508.8,73.1 518.3,73.0 527.8,72.9 537.4,71.1 546.9,70.7 556.5,70.7 566.0,70.5 575.5,70.4 585.1,70.4 594.6,69.3 604.2,69.1 613.7,68.9 623.2,68.9 632.8,67.4 642.3,67.1 651.8,66.8 661.4,64.3 670.9,64.1 680.5,63.6 690.0,61.3 690.0,270.0 70.0,270.0" fill="#58a6ff" opacity="0.15"/>
  <polyline points="70.0,191.7 79.5,191.7 89.1,190.7 98.6,179.0 108.2,171.6 117.7,169.5 127.2,167.8 136.8,161.7 146.3,161.3 155.8,159.6 165.4,159.1 174.9,158.9 184.5,150.0 194.0,138.2 203.5,128.2 213.1,124.4 222.6,120.7 232.2,117.6 241.7,116.8 251.2,116.6 260.8,114.8 270.3,113.1 279.8,108.6 289.4,104.3 298.9,101.1 308.5,97.9 318.0,96.9 327.5,88.8 337.1,83.8 346.6,82.0 356.2,81.8 365.7,80.4 375.2,80.3 384.8,80.3 394.3,79.7 403.8,79.6 413.4,79.4 422.9,78.9 432.5,76.1 442.0,76.0 451.5,75.4 461.1,74.3 470.6,74.2 480.2,73.8 489.7,73.6 499.2,73.3 508.8,73.1 518.3,73.0 527.8,72.9 537.4,71.1 546.9,70.7 556.5,70.7 566.0,70.5 575.5,70.4 585.1,70.4 594.6,69.3 604.2,69.1 613.7,68.9 623.2,68.9 632.8,67.4 642.3,67.1 651.8,66.8 661.4,64.3 670.9,64.1 680.5,63.6 690.0,61.3" fill="none" stroke="#58a6ff" stroke-width="2.5" stroke-linejoin="round" stroke-linecap="round"/>
  <text x="70.0" y="310" text-anchor="middle" fill="#8b949e" font-family="sans-serif" font-size="11">03-12</text><text x="222.6" y="310" text-anchor="middle" fill="#8b949e" font-family="sans-serif" font-size="11">03-28</text><text x="375.2" y="310" text-anchor="middle" fill="#8b949e" font-family="sans-serif" font-size="11">04-13</text><text x="527.8" y="310" text-anchor="middle" fill="#8b949e" font-family="sans-serif" font-size="11">04-29</text><text x="680.5" y="310" text-anchor="middle" fill="#8b949e" font-family="sans-serif" font-size="11">05-15</text>
  <text x="694.0" y="53.3" fill="#58a6ff" font-family="sans-serif" font-size="12" font-weight="bold">10.5K</text>
</svg>