<svg xmlns="http://www.w3.org/2000/svg" width="720" height="320">
  <rect width="720" height="320" fill="#0d1117" rx="8"/>
  <text x="70" y="22" fill="#c9d1d9" font-family="sans-serif" font-size="14" font-weight="bold">Total Downloads Over Time</text>
  <line x1="70" y1="270.0" x2="690" y2="270.0" stroke="#21262d" stroke-width="1"/><text x="62" y="274.0" text-anchor="end" fill="#8b949e" font-family="sans-serif" font-size="11">0</text><line x1="70" y1="210.0" x2="690" y2="210.0" stroke="#21262d" stroke-width="1"/><text x="62" y="214.0" text-anchor="end" fill="#8b949e" font-family="sans-serif" font-size="11">2.9K</text><line x1="70" y1="150.0" x2="690" y2="150.0" stroke="#21262d" stroke-width="1"/><text x="62" y="154.0" text-anchor="end" fill="#8b949e" font-family="sans-serif" font-size="11">5.7K</text><line x1="70" y1="90.0" x2="690" y2="90.0" stroke="#21262d" stroke-width="1"/><text x="62" y="94.0" text-anchor="end" fill="#8b949e" font-family="sans-serif" font-size="11">8.6K</text><line x1="70" y1="30.0" x2="690" y2="30.0" stroke="#21262d" stroke-width="1"/><text x="62" y="34.0" text-anchor="end" fill="#8b949e" font-family="sans-serif" font-size="11">11.4K</text>
  <polygon points="70.0,187.0 83.2,187.0 96.4,185.9 109.6,173.6 122.8,165.7 136.0,163.5 149.1,161.7 162.3,155.2 175.5,154.9 188.7,153.0 201.9,152.5 215.1,152.3 228.3,142.8 241.5,130.3 254.7,119.8 267.9,115.8 281.1,111.8 294.3,108.6 307.4,107.6 320.6,107.4 333.8,105.6 347.0,103.7 360.2,99.0 373.4,94.5 386.6,91.1 399.8,87.7 413.0,86.6 426.2,78.0 439.4,72.7 452.6,70.8 465.7,70.5 478.9,69.1 492.1,69.0 505.3,69.0 518.5,68.4 531.7,68.2 544.9,68.1 558.1,67.5 571.3,64.5 584.5,64.4 597.7,63.8 610.9,62.7 624.0,62.5 637.2,62.1 650.4,61.9 663.6,61.6 676.8,61.4 690.0,61.3 690.0,270.0 70.0,270.0" fill="#58a6ff" opacity="0.15"/>
  <polyline points="70.0,187.0 83.2,187.0 96.4,185.9 109.6,173.6 122.8,165.7 136.0,163.5 149.1,161.7 162.3,155.2 175.5,154.9 188.7,153.0 201.9,152.5 215.1,152.3 228.3,142.8 241.5,130.3 254.7,119.8 267.9,115.8 281.1,111.8 294.3,108.6 307.4,107.6 320.6,107.4 333.8,105.6 347.0,103.7 360.2,99.0 373.4,94.5 386.6,91.1 399.8,87.7 413.0,86.6 426.2,78.0 439.4,72.7 452.6,70.8 465.7,70.5 478.9,69.1 492.1,69.0 505.3,69.0 518.5,68.4 531.7,68.2 544.9,68.1 558.1,67.5 571.3,64.5 584.5,64.4 597.7,63.8 610.9,62.7 624.0,62.5 637.2,62.1 650.4,61.9 663.6,61.6 676.8,61.4 690.0,61.3" fill="none" stroke="#58a6ff" stroke-width="2.5" stroke-linejoin="round" stroke-linecap="round"/>
  <text x="70.0" y="310" text-anchor="middle" fill="#8b949e" font-family="sans-serif" font-size="11">03-12</text><text x="215.1" y="310" text-anchor="middle" fill="#8b949e" font-family="sans-serif" font-size="11">03-23</text><text x="360.2" y="310" text-anchor="middle" fill="#8b949e" font-family="sans-serif" font-size="11">04-03</text><text x="505.3" y="310" text-anchor="middle" fill="#8b949e" font-family="sans-serif" font-size="11">04-14</text><text x="650.4" y="310" text-anchor="middle" fill="#8b949e" font-family="sans-serif" font-size="11">04-25</text>
  <text x="694.0" y="53.3" fill="#58a6ff" font-family="sans-serif" font-size="12" font-weight="bold">9.9K</text>
</svg>