<svg xmlns="http://www.w3.org/2000/svg" width="720" height="320">
  <rect width="720" height="320" fill="#0d1117" rx="8"/>
  <text x="70" y="22" fill="#c9d1d9" font-family="sans-serif" font-size="14" font-weight="bold">Total Downloads Over Time</text>
  <line x1="70" y1="270.0" x2="690" y2="270.0" stroke="#21262d" stroke-width="1"/><text x="62" y="274.0" text-anchor="end" fill="#8b949e" font-family="sans-serif" font-size="11">0</text><line x1="70" y1="210.0" x2="690" y2="210.0" stroke="#21262d" stroke-width="1"/><text x="62" y="214.0" text-anchor="end" fill="#8b949e" font-family="sans-serif" font-size="11">3.4K</text><line x1="70" y1="150.0" x2="690" y2="150.0" stroke="#21262d" stroke-width="1"/><text x="62" y="154.0" text-anchor="end" fill="#8b949e" font-family="sans-serif" font-size="11">6.7K</text><line x1="70" y1="90.0" x2="690" y2="90.0" stroke="#21262d" stroke-width="1"/><text x="62" y="94.0" text-anchor="end" fill="#8b949e" font-family="sans-serif" font-size="11">10.1K</text><line x1="70" y1="30.0" x2="690" y2="30.0" stroke="#21262d" stroke-width="1"/><text x="62" y="34.0" text-anchor="end" fill="#8b949e" font-family="sans-serif" font-size="11">13.5K</text>
  <polygon points="70.0,199.9 75.1,199.9 80.2,199.0 85.4,188.5 90.5,181.9 95.6,180.0 100.7,178.5 105.9,173.0 111.0,172.7 116.1,171.1 121.2,170.7 126.4,170.6 131.5,162.5 136.6,152.0 141.7,143.1 146.9,139.7 152.0,136.3 157.1,133.6 162.2,132.8 167.4,132.6 172.5,131.1 177.6,129.5 182.7,125.5 187.9,121.7 193.0,118.8 198.1,115.9 203.2,115.0 208.3,107.7 213.5,103.3 218.6,101.7 223.7,101.5 228.8,100.2 234.0,100.2 239.1,100.1 244.2,99.6 249.3,99.5 254.5,99.4 259.6,98.9 264.7,96.4 269.8,96.3 275.0,95.8 280.1,94.8 285.2,94.7 290.3,94.4 295.5,94.1 300.6,93.9 305.7,93.7 310.8,93.7 316.0,93.6 321.1,91.9 326.2,91.6 331.3,91.5 336.4,91.4 341.6,91.3 346.7,91.3 351.8,90.3 356.9,90.2 362.1,90.0 367.2,89.9 372.3,88.6 377.4,88.3 382.6,88.1 387.7,85.8 392.8,85.7 397.9,85.3 403.1,83.2 408.2,83.0 413.3,83.0 418.4,82.9 423.6,82.7 428.7,82.7 433.8,82.4 438.9,82.4 444.0,82.4 449.2,82.1 454.3,81.9 459.4,80.7 464.5,78.3 469.7,78.3 474.8,78.2 479.9,78.2 485.0,77.0 490.2,77.0 495.3,76.9 500.4,76.2 505.5,76.2 510.7,72.9 515.8,71.4 520.9,71.4 526.0,71.3 531.2,71.2 536.3,70.9 541.4,70.7 546.5,70.7 551.7,70.7 556.8,70.7 561.9,70.2 567.0,69.5 572.1,69.4 577.3,69.3 582.4,69.2 587.5,69.1 592.6,69.0 597.8,69.0 602.9,66.9 608.0,66.8 613.1,66.8 618.3,66.4 623.4,66.0 628.5,65.9 633.6,65.3 638.8,65.2 643.9,64.0 649.0,63.8 654.1,63.6 659.3,63.1 664.4,63.0 669.5,62.7 674.6,62.1 679.8,61.6 684.9,61.3 690.0,61.3 690.0,270.0 70.0,270.0" fill="#58a6ff" opacity="0.15"/>
  <polyline points="70.0,199.9 75.1,199.9 80.2,199.0 85.4,188.5 90.5,181.9 95.6,180.0 100.7,178.5 105.9,173.0 111.0,172.7 116.1,171.1 121.2,170.7 126.4,170.6 131.5,162.5 136.6,152.0 141.7,143.1 146.9,139.7 152.0,136.3 157.1,133.6 162.2,132.8 167.4,132.6 172.5,131.1 177.6,129.5 182.7,125.5 187.9,121.7 193.0,118.8 198.1,115.9 203.2,115.0 208.3,107.7 213.5,103.3 218.6,101.7 223.7,101.5 228.8,100.2 234.0,100.2 239.1,100.1 244.2,99.6 249.3,99.5 254.5,99.4 259.6,98.9 264.7,96.4 269.8,96.3 275.0,95.8 280.1,94.8 285.2,94.7 290.3,94.4 295.5,94.1 300.6,93.9 305.7,93.7 310.8,93.7 316.0,93.6 321.1,91.9 326.2,91.6 331.3,91.5 336.4,91.4 341.6,91.3 346.7,91.3 351.8,90.3 356.9,90.2 362.1,90.0 367.2,89.9 372.3,88.6 377.4,88.3 382.6,88.1 387.7,85.8 392.8,85.7 397.9,85.3 403.1,83.2 408.2,83.0 413.3,83.0 418.4,82.9 423.6,82.7 428.7,82.7 433.8,82.4 438.9,82.4 444.0,82.4 449.2,82.1 454.3,81.9 459.4,80.7 464.5,78.3 469.7,78.3 474.8,78.2 479.9,78.2 485.0,77.0 490.2,77.0 495.3,76.9 500.4,76.2 505.5,76.2 510.7,72.9 515.8,71.4 520.9,71.4 526.0,71.3 531.2,71.2 536.3,70.9 541.4,70.7 546.5,70.7 551.7,70.7 556.8,70.7 561.9,70.2 567.0,69.5 572.1,69.4 577.3,69.3 582.4,69.2 587.5,69.1 592.6,69.0 597.8,69.0 602.9,66.9 608.0,66.8 613.1,66.8 618.3,66.4 623.4,66.0 628.5,65.9 633.6,65.3 638.8,65.2 643.9,64.0 649.0,63.8 654.1,63.6 659.3,63.1 664.4,63.0 669.5,62.7 674.6,62.1 679.8,61.6 684.9,61.3 690.0,61.3" fill="none" stroke="#58a6ff" stroke-width="2.5" stroke-linejoin="round" stroke-linecap="round"/>
  <text x="70.0" y="310" text-anchor="middle" fill="#8b949e" font-family="sans-serif" font-size="11">03-12</text><text x="223.7" y="310" text-anchor="middle" fill="#8b949e" font-family="sans-serif" font-size="11">04-11</text><text x="377.4" y="310" text-anchor="middle" fill="#8b949e" font-family="sans-serif" font-size="11">05-11</text><text x="531.2" y="310" text-anchor="middle" fill="#8b949e" font-family="sans-serif" font-size="11">06-10</text><text x="684.9" y="310" text-anchor="middle" fill="#8b949e" font-family="sans-serif" font-size="11">07-10</text>
  <text x="694.0" y="53.3" fill="#58a6ff" font-family="sans-serif" font-size="12" font-weight="bold">11.7K</text>
</svg>