<svg xmlns="http://www.w3.org/2000/svg" width="720" height="320">
  <rect width="720" height="320" fill="#0d1117" rx="8"/>
  <text x="70" y="22" fill="#c9d1d9" font-family="sans-serif" font-size="14" font-weight="bold">Total Downloads Over Time</text>
  <line x1="70" y1="270.0" x2="690" y2="270.0" stroke="#21262d" stroke-width="1"/><text x="62" y="274.0" text-anchor="end" fill="#8b949e" font-family="sans-serif" font-size="11">0</text><line x1="70" y1="210.0" x2="690" y2="210.0" stroke="#21262d" stroke-width="1"/><text x="62" y="214.0" text-anchor="end" fill="#8b949e" font-family="sans-serif" font-size="11">2.7K</text><line x1="70" y1="150.0" x2="690" y2="150.0" stroke="#21262d" stroke-width="1"/><text x="62" y="154.0" text-anchor="end" fill="#8b949e" font-family="sans-serif" font-size="11">5.5K</text><line x1="70" y1="90.0" x2="690" y2="90.0" stroke="#21262d" stroke-width="1"/><text x="62" y="94.0" text-anchor="end" fill="#8b949e" font-family="sans-serif" font-size="11">8.2K</text><line x1="70" y1="30.0" x2="690" y2="30.0" stroke="#21262d" stroke-width="1"/><text x="62" y="34.0" text-anchor="end" fill="#8b949e" font-family="sans-serif" font-size="11">11.0K</text>
  <polygon points="70.0,183.9 88.8,183.8 107.6,182.7 126.4,169.9 145.2,161.8 163.9,159.5 182.7,157.6 201.5,150.9 220.3,150.5 239.1,148.5 257.9,148.0 276.7,147.8 295.5,138.0 314.2,125.0 333.0,114.1 351.8,109.9 370.6,105.7 389.4,102.4 408.2,101.5 427.0,101.2 445.8,99.3 464.5,97.4 483.3,92.5 502.1,87.8 520.9,84.3 539.7,80.7 558.5,79.6 577.3,70.7 596.1,65.2 614.8,63.2 633.6,62.9 652.4,61.4 671.2,61.3 690.0,61.3 690.0,270.0 70.0,270.0" fill="#58a6ff" opacity="0.15"/>
  <polyline points="70.0,183.9 88.8,183.8 107.6,182.7 126.4,169.9 145.2,161.8 163.9,159.5 182.7,157.6 201.5,150.9 220.3,150.5 239.1,148.5 257.9,148.0 276.7,147.8 295.5,138.0 314.2,125.0 333.0,114.1 351.8,109.9 370.6,105.7 389.4,102.4 408.2,101.5 427.0,101.2 445.8,99.3 464.5,97.4 483.3,92.5 502.1,87.8 520.9,84.3 539.7,80.7 558.5,79.6 577.3,70.7 596.1,65.2 614.8,63.2 633.6,62.9 652.4,61.4 671.2,61.3 690.0,61.3" fill="none" stroke="#58a6ff" stroke-width="2.5" stroke-linejoin="round" stroke-linecap="round"/>
  <text x="70.0" y="310" text-anchor="middle" fill="#8b949e" font-family="sans-serif" font-size="11">03-12</text><text x="220.3" y="310" text-anchor="middle" fill="#8b949e" font-family="sans-serif" font-size="11">03-20</text><text x="370.6" y="310" text-anchor="middle" fill="#8b949e" font-family="sans-serif" font-size="11">03-28</text><text x="520.9" y="310" text-anchor="middle" fill="#8b949e" font-family="sans-serif" font-size="11">04-05</text><text x="671.2" y="310" text-anchor="middle" fill="#8b949e" font-family="sans-serif" font-size="11">04-13</text>
  <text x="694.0" y="53.3" fill="#58a6ff" font-family="sans-serif" font-size="12" font-weight="bold">9.6K</text>
</svg>