<svg xmlns="http://www.w3.org/2000/svg" width="720" height="320">
  <rect width="720" height="320" fill="#0d1117" rx="8"/>
  <text x="70" y="22" fill="#c9d1d9" font-family="sans-serif" font-size="14" font-weight="bold">Total Downloads Over Time</text>
  <line x1="70" y1="270.0" x2="690" y2="270.0" stroke="#21262d" stroke-width="1"/><text x="62" y="274.0" text-anchor="end" fill="#8b949e" font-family="sans-serif" font-size="11">0</text><line x1="70" y1="210.0" x2="690" y2="210.0" stroke="#21262d" stroke-width="1"/><text x="62" y="214.0" text-anchor="end" fill="#8b949e" font-family="sans-serif" font-size="11">2.8K</text><line x1="70" y1="150.0" x2="690" y2="150.0" stroke="#21262d" stroke-width="1"/><text x="62" y="154.0" text-anchor="end" fill="#8b949e" font-family="sans-serif" font-size="11">5.5K</text><line x1="70" y1="90.0" x2="690" y2="90.0" stroke="#21262d" stroke-width="1"/><text x="62" y="94.0" text-anchor="end" fill="#8b949e" font-family="sans-serif" font-size="11">8.3K</text><line x1="70" y1="30.0" x2="690" y2="30.0" stroke="#21262d" stroke-width="1"/><text x="62" y="34.0" text-anchor="end" fill="#8b949e" font-family="sans-serif" font-size="11">11.1K</text>
  <polygon points="70.0,184.5 86.8,184.4 103.5,183.3 120.3,170.6 137.0,162.5 153.8,160.3 170.5,158.4 187.3,151.7 204.1,151.3 220.8,149.4 237.6,148.9 254.3,148.7 271.1,138.9 287.8,126.0 304.6,115.2 321.4,111.0 338.1,106.9 354.9,103.6 371.6,102.6 388.4,102.4 405.1,100.5 421.9,98.6 438.6,93.7 455.4,89.1 472.2,85.6 488.9,82.1 505.7,80.9 522.4,72.1 539.2,66.6 555.9,64.7 572.7,64.4 589.5,62.9 606.2,62.8 623.0,62.8 639.7,62.2 656.5,62.0 673.2,61.9 690.0,61.3 690.0,270.0 70.0,270.0" fill="#58a6ff" opacity="0.15"/>
  <polyline points="70.0,184.5 86.8,184.4 103.5,183.3 120.3,170.6 137.0,162.5 153.8,160.3 170.5,158.4 187.3,151.7 204.1,151.3 220.8,149.4 237.6,148.9 254.3,148.7 271.1,138.9 287.8,126.0 304.6,115.2 321.4,111.0 338.1,106.9 354.9,103.6 371.6,102.6 388.4,102.4 405.1,100.5 421.9,98.6 438.6,93.7 455.4,89.1 472.2,85.6 488.9,82.1 505.7,80.9 522.4,72.1 539.2,66.6 555.9,64.7 572.7,64.4 589.5,62.9 606.2,62.8 623.0,62.8 639.7,62.2 656.5,62.0 673.2,61.9 690.0,61.3" fill="none" stroke="#58a6ff" stroke-width="2.5" stroke-linejoin="round" stroke-linecap="round"/>
  <text x="70.0" y="310" text-anchor="middle" fill="#8b949e" font-family="sans-serif" font-size="11">03-12</text><text x="220.8" y="310" text-anchor="middle" fill="#8b949e" font-family="sans-serif" font-size="11">03-21</text><text x="371.6" y="310" text-anchor="middle" fill="#8b949e" font-family="sans-serif" font-size="11">03-30</text><text x="522.4" y="310" text-anchor="middle" fill="#8b949e" font-family="sans-serif" font-size="11">04-08</text><text x="673.2" y="310" text-anchor="middle" fill="#8b949e" font-family="sans-serif" font-size="11">04-17</text>
  <text x="694.0" y="53.3" fill="#58a6ff" font-family="sans-serif" font-size="12" font-weight="bold">9.6K</text>
</svg>