<svg xmlns="http://www.w3.org/2000/svg" width="720" height="320">
  <rect width="720" height="320" fill="#0d1117" rx="8"/>
  <text x="70" y="22" fill="#c9d1d9" font-family="sans-serif" font-size="14" font-weight="bold">Total Downloads Over Time</text>
  <line x1="70" y1="270.0" x2="690" y2="270.0" stroke="#21262d" stroke-width="1"/><text x="62" y="274.0" text-anchor="end" fill="#8b949e" font-family="sans-serif" font-size="11">0</text><line x1="70" y1="210.0" x2="690" y2="210.0" stroke="#21262d" stroke-width="1"/><text x="62" y="214.0" text-anchor="end" fill="#8b949e" font-family="sans-serif" font-size="11">3.3K</text><line x1="70" y1="150.0" x2="690" y2="150.0" stroke="#21262d" stroke-width="1"/><text x="62" y="154.0" text-anchor="end" fill="#8b949e" font-family="sans-serif" font-size="11">6.7K</text><line x1="70" y1="90.0" x2="690" y2="90.0" stroke="#21262d" stroke-width="1"/><text x="62" y="94.0" text-anchor="end" fill="#8b949e" font-family="sans-serif" font-size="11">10.0K</text><line x1="70" y1="30.0" x2="690" y2="30.0" stroke="#21262d" stroke-width="1"/><text x="62" y="34.0" text-anchor="end" fill="#8b949e" font-family="sans-serif" font-size="11">13.4K</text>
  <polygon points="70.0,199.3 75.4,199.3 80.8,198.3 86.2,187.8 91.6,181.1 97.0,179.3 102.3,177.7 107.7,172.2 113.1,171.9 118.5,170.3 123.9,169.8 129.3,169.7 134.7,161.6 140.1,151.0 145.5,142.0 150.9,138.5 156.3,135.1 161.7,132.4 167.0,131.6 172.4,131.4 177.8,129.8 183.2,128.3 188.6,124.2 194.0,120.4 199.4,117.5 204.8,114.6 210.2,113.7 215.6,106.3 221.0,101.8 226.3,100.2 231.7,100.0 237.1,98.8 242.5,98.7 247.9,98.6 253.3,98.1 258.7,98.0 264.1,97.9 269.5,97.4 274.9,94.9 280.3,94.8 285.7,94.2 291.0,93.3 296.4,93.1 301.8,92.8 307.2,92.6 312.6,92.4 318.0,92.2 323.4,92.1 328.8,92.0 334.2,90.4 339.6,90.0 345.0,90.0 350.3,89.9 355.7,89.8 361.1,89.7 366.5,88.7 371.9,88.6 377.3,88.4 382.7,88.4 388.1,87.0 393.5,86.7 398.9,86.5 404.3,84.2 409.7,84.1 415.0,83.6 420.4,81.5 425.8,81.4 431.2,81.3 436.6,81.2 442.0,81.1 447.4,81.1 452.8,80.7 458.2,80.7 463.6,80.7 469.0,80.5 474.3,80.2 479.7,79.0 485.1,76.6 490.5,76.6 495.9,76.5 501.3,76.5 506.7,75.3 512.1,75.3 517.5,75.2 522.9,74.5 528.3,74.5 533.7,71.2 539.0,69.7 544.4,69.7 549.8,69.6 555.2,69.5 560.6,69.1 566.0,69.0 571.4,69.0 576.8,69.0 582.2,68.9 587.6,68.5 593.0,67.7 598.3,67.6 603.7,67.5 609.1,67.4 614.5,67.3 619.9,67.2 625.3,67.2 630.7,65.1 636.1,65.1 641.5,65.0 646.9,64.6 652.3,64.2 657.7,64.1 663.0,63.5 668.4,63.4 673.8,62.2 679.2,62.0 684.6,61.8 690.0,61.3 690.0,270.0 70.0,270.0" fill="#58a6ff" opacity="0.15"/>
  <polyline points="70.0,199.3 75.4,199.3 80.8,198.3 86.2,187.8 91.6,181.1 97.0,179.3 102.3,177.7 107.7,172.2 113.1,171.9 118.5,170.3 123.9,169.8 129.3,169.7 134.7,161.6 140.1,151.0 145.5,142.0 150.9,138.5 156.3,135.1 161.7,132.4 167.0,131.6 172.4,131.4 177.8,129.8 183.2,128.3 188.6,124.2 194.0,120.4 199.4,117.5 204.8,114.6 210.2,113.7 215.6,106.3 221.0,101.8 226.3,100.2 231.7,100.0 237.1,98.8 242.5,98.7 247.9,98.6 253.3,98.1 258.7,98.0 264.1,97.9 269.5,97.4 274.9,94.9 280.3,94.8 285.7,94.2 291.0,93.3 296.4,93.1 301.8,92.8 307.2,92.6 312.6,92.4 318.0,92.2 323.4,92.1 328.8,92.0 334.2,90.4 339.6,90.0 345.0,90.0 350.3,89.9 355.7,89.8 361.1,89.7 366.5,88.7 371.9,88.6 377.3,88.4 382.7,88.4 388.1,87.0 393.5,86.7 398.9,86.5 404.3,84.2 409.7,84.1 415.0,83.6 420.4,81.5 425.8,81.4 431.2,81.3 436.6,81.2 442.0,81.1 447.4,81.1 452.8,80.7 458.2,80.7 463.6,80.7 469.0,80.5 474.3,80.2 479.7,79.0 485.1,76.6 490.5,76.6 495.9,76.5 501.3,76.5 506.7,75.3 512.1,75.3 517.5,75.2 522.9,74.5 528.3,74.5 533.7,71.2 539.0,69.7 544.4,69.7 549.8,69.6 555.2,69.5 560.6,69.1 566.0,69.0 571.4,69.0 576.8,69.0 582.2,68.9 587.6,68.5 593.0,67.7 598.3,67.6 603.7,67.5 609.1,67.4 614.5,67.3 619.9,67.2 625.3,67.2 630.7,65.1 636.1,65.1 641.5,65.0 646.9,64.6 652.3,64.2 657.7,64.1 663.0,63.5 668.4,63.4 673.8,62.2 679.2,62.0 684.6,61.8 690.0,61.3" fill="none" stroke="#58a6ff" stroke-width="2.5" stroke-linejoin="round" stroke-linecap="round"/>
  <text x="70.0" y="310" text-anchor="middle" fill="#8b949e" font-family="sans-serif" font-size="11">03-12</text><text x="221.0" y="310" text-anchor="middle" fill="#8b949e" font-family="sans-serif" font-size="11">04-09</text><text x="371.9" y="310" text-anchor="middle" fill="#8b949e" font-family="sans-serif" font-size="11">05-07</text><text x="522.9" y="310" text-anchor="middle" fill="#8b949e" font-family="sans-serif" font-size="11">06-04</text><text x="673.8" y="310" text-anchor="middle" fill="#8b949e" font-family="sans-serif" font-size="11">07-02</text>
  <text x="694.0" y="53.3" fill="#58a6ff" font-family="sans-serif" font-size="12" font-weight="bold">11.6K</text>
</svg>