<svg xmlns="http://www.w3.org/2000/svg" width="720" height="320">
  <rect width="720" height="320" fill="#0d1117" rx="8"/>
  <text x="70" y="22" fill="#c9d1d9" font-family="sans-serif" font-size="14" font-weight="bold">Total Downloads Over Time</text>
  <line x1="70" y1="270.0" x2="690" y2="270.0" stroke="#21262d" stroke-width="1"/><text x="62" y="274.0" text-anchor="end" fill="#8b949e" font-family="sans-serif" font-size="11">0</text><line x1="70" y1="210.0" x2="690" y2="210.0" stroke="#21262d" stroke-width="1"/><text x="62" y="214.0" text-anchor="end" fill="#8b949e" font-family="sans-serif" font-size="11">3.3K</text><line x1="70" y1="150.0" x2="690" y2="150.0" stroke="#21262d" stroke-width="1"/><text x="62" y="154.0" text-anchor="end" fill="#8b949e" font-family="sans-serif" font-size="11">6.6K</text><line x1="70" y1="90.0" x2="690" y2="90.0" stroke="#21262d" stroke-width="1"/><text x="62" y="94.0" text-anchor="end" fill="#8b949e" font-family="sans-serif" font-size="11">9.9K</text><line x1="70" y1="30.0" x2="690" y2="30.0" stroke="#21262d" stroke-width="1"/><text x="62" y="34.0" text-anchor="end" fill="#8b949e" font-family="sans-serif" font-size="11">13.2K</text>
  <polygon points="70.0,198.1 75.8,198.1 81.6,197.2 87.4,186.5 93.2,179.7 99.0,177.8 104.8,176.2 110.6,170.6 116.4,170.3 122.1,168.7 127.9,168.2 133.7,168.1 139.5,159.9 145.3,149.0 151.1,139.9 156.9,136.4 162.7,133.0 168.5,130.2 174.3,129.4 180.1,129.2 185.9,127.6 191.7,126.0 197.5,121.9 203.3,118.0 209.1,115.1 214.9,112.1 220.7,111.2 226.4,103.7 232.2,99.1 238.0,97.5 243.8,97.3 249.6,96.0 255.4,95.9 261.2,95.9 267.0,95.4 272.8,95.3 278.6,95.1 284.4,94.7 290.2,92.1 296.0,92.0 301.8,91.4 307.6,90.4 313.4,90.3 319.2,90.0 325.0,89.8 330.7,89.5 336.5,89.3 342.3,89.3 348.1,89.2 353.9,87.5 359.7,87.1 365.5,87.1 371.3,87.0 377.1,86.9 382.9,86.8 388.7,85.8 394.5,85.7 400.3,85.5 406.1,85.4 411.9,84.1 417.7,83.8 423.5,83.5 429.3,81.2 435.0,81.1 440.8,80.6 446.6,78.5 452.4,78.3 458.2,78.3 464.0,78.2 469.8,78.1 475.6,78.1 481.4,77.7 487.2,77.7 493.0,77.7 498.8,77.5 504.6,77.2 510.4,76.0 516.2,73.5 522.0,73.5 527.8,73.4 533.6,73.4 539.3,72.2 545.1,72.2 550.9,72.1 556.7,71.3 562.5,71.3 568.3,68.0 574.1,66.5 579.9,66.4 585.7,66.4 591.5,66.3 597.3,65.9 603.1,65.8 608.9,65.7 614.7,65.7 620.5,65.7 626.3,65.2 632.1,64.5 637.9,64.4 643.6,64.3 649.4,64.2 655.2,64.1 661.0,64.0 666.8,63.9 672.6,61.8 678.4,61.8 684.2,61.7 690.0,61.3 690.0,270.0 70.0,270.0" fill="#58a6ff" opacity="0.15"/>
  <polyline points="70.0,198.1 75.8,198.1 81.6,197.2 87.4,186.5 93.2,179.7 99.0,177.8 104.8,176.2 110.6,170.6 116.4,170.3 122.1,168.7 127.9,168.2 133.7,168.1 139.5,159.9 145.3,149.0 151.1,139.9 156.9,136.4 162.7,133.0 168.5,130.2 174.3,129.4 180.1,129.2 185.9,127.6 191.7,126.0 197.5,121.9 203.3,118.0 209.1,115.1 214.9,112.1 220.7,111.2 226.4,103.7 232.2,99.1 238.0,97.5 243.8,97.3 249.6,96.0 255.4,95.9 261.2,95.9 267.0,95.4 272.8,95.3 278.6,95.1 284.4,94.7 290.2,92.1 296.0,92.0 301.8,91.4 307.6,90.4 313.4,90.3 319.2,90.0 325.0,89.8 330.7,89.5 336.5,89.3 342.3,89.3 348.1,89.2 353.9,87.5 359.7,87.1 365.5,87.1 371.3,87.0 377.1,86.9 382.9,86.8 388.7,85.8 394.5,85.7 400.3,85.5 406.1,85.4 411.9,84.1 417.7,83.8 423.5,83.5 429.3,81.2 435.0,81.1 440.8,80.6 446.6,78.5 452.4,78.3 458.2,78.3 464.0,78.2 469.8,78.1 475.6,78.1 481.4,77.7 487.2,77.7 493.0,77.7 498.8,77.5 504.6,77.2 510.4,76.0 516.2,73.5 522.0,73.5 527.8,73.4 533.6,73.4 539.3,72.2 545.1,72.2 550.9,72.1 556.7,71.3 562.5,71.3 568.3,68.0 574.1,66.5 579.9,66.4 585.7,66.4 591.5,66.3 597.3,65.9 603.1,65.8 608.9,65.7 614.7,65.7 620.5,65.7 626.3,65.2 632.1,64.5 637.9,64.4 643.6,64.3 649.4,64.2 655.2,64.1 661.0,64.0 666.8,63.9 672.6,61.8 678.4,61.8 684.2,61.7 690.0,61.3" fill="none" stroke="#58a6ff" stroke-width="2.5" stroke-linejoin="round" stroke-linecap="round"/>
  <text x="70.0" y="310" text-anchor="middle" fill="#8b949e" font-family="sans-serif" font-size="11">03-12</text><text x="220.7" y="310" text-anchor="middle" fill="#8b949e" font-family="sans-serif" font-size="11">04-07</text><text x="371.3" y="310" text-anchor="middle" fill="#8b949e" font-family="sans-serif" font-size="11">05-03</text><text x="522.0" y="310" text-anchor="middle" fill="#8b949e" font-family="sans-serif" font-size="11">05-29</text><text x="672.6" y="310" text-anchor="middle" fill="#8b949e" font-family="sans-serif" font-size="11">06-24</text>
  <text x="694.0" y="53.3" fill="#58a6ff" font-family="sans-serif" font-size="12" font-weight="bold">11.5K</text>
</svg>