<svg xmlns="http://www.w3.org/2000/svg" width="720" height="320">
  <rect width="720" height="320" fill="#0d1117" rx="8"/>
  <text x="70" y="22" fill="#c9d1d9" font-family="sans-serif" font-size="14" font-weight="bold">Total Downloads Over Time</text>
  <line x1="70" y1="270.0" x2="690" y2="270.0" stroke="#21262d" stroke-width="1"/><text x="62" y="274.0" text-anchor="end" fill="#8b949e" font-family="sans-serif" font-size="11">0</text><line x1="70" y1="210.0" x2="690" y2="210.0" stroke="#21262d" stroke-width="1"/><text x="62" y="214.0" text-anchor="end" fill="#8b949e" font-family="sans-serif" font-size="11">3.0K</text><line x1="70" y1="150.0" x2="690" y2="150.0" stroke="#21262d" stroke-width="1"/><text x="62" y="154.0" text-anchor="end" fill="#8b949e" font-family="sans-serif" font-size="11">6.1K</text><line x1="70" y1="90.0" x2="690" y2="90.0" stroke="#21262d" stroke-width="1"/><text x="62" y="94.0" text-anchor="end" fill="#8b949e" font-family="sans-serif" font-size="11">9.1K</text><line x1="70" y1="30.0" x2="690" y2="30.0" stroke="#21262d" stroke-width="1"/><text x="62" y="34.0" text-anchor="end" fill="#8b949e" font-family="sans-serif" font-size="11">12.1K</text>
  <polygon points="70.0,192.0 78.5,192.0 87.0,191.0 95.5,179.4 104.0,172.0 112.5,169.9 121.0,168.2 129.5,162.2 137.9,161.8 146.4,160.0 154.9,159.5 163.4,159.4 171.9,150.5 180.4,138.7 188.9,128.8 197.4,125.0 205.9,121.3 214.4,118.3 222.9,117.4 231.4,117.2 239.9,115.5 248.4,113.7 256.8,109.3 265.3,105.0 273.8,101.8 282.3,98.6 290.8,97.6 299.3,89.5 307.8,84.6 316.3,82.8 324.8,82.5 333.3,81.2 341.8,81.1 350.3,81.1 358.8,80.5 367.3,80.4 375.8,80.2 384.2,79.7 392.7,76.9 401.2,76.8 409.7,76.2 418.2,75.1 426.7,75.0 435.2,74.7 443.7,74.4 452.2,74.1 460.7,73.9 469.2,73.9 477.7,73.7 486.2,71.9 494.7,71.6 503.2,71.5 511.6,71.4 520.1,71.3 528.6,71.2 537.1,70.1 545.6,70.0 554.1,69.7 562.6,69.7 571.1,68.2 579.6,67.9 588.1,67.6 596.6,65.2 605.1,65.0 613.6,64.5 622.1,62.2 630.5,62.0 639.0,62.0 647.5,61.8 656.0,61.7 664.5,61.7 673.0,61.3 681.5,61.3 690.0,61.3 690.0,270.0 70.0,270.0" fill="#58a6ff" opacity="0.15"/>
  <polyline points="70.0,192.0 78.5,192.0 87.0,191.0 95.5,179.4 104.0,172.0 112.5,169.9 121.0,168.2 129.5,162.2 137.9,161.8 146.4,160.0 154.9,159.5 163.4,159.4 171.9,150.5 180.4,138.7 188.9,128.8 197.4,125.0 205.9,121.3 214.4,118.3 222.9,117.4 231.4,117.2 239.9,115.5 248.4,113.7 256.8,109.3 265.3,105.0 273.8,101.8 282.3,98.6 290.8,97.6 299.3,89.5 307.8,84.6 316.3,82.8 324.8,82.5 333.3,81.2 341.8,81.1 350.3,81.1 358.8,80.5 367.3,80.4 375.8,80.2 384.2,79.7 392.7,76.9 401.2,76.8 409.7,76.2 418.2,75.1 426.7,75.0 435.2,74.7 443.7,74.4 452.2,74.1 460.7,73.9 469.2,73.9 477.7,73.7 486.2,71.9 494.7,71.6 503.2,71.5 511.6,71.4 520.1,71.3 528.6,71.2 537.1,70.1 545.6,70.0 554.1,69.7 562.6,69.7 571.1,68.2 579.6,67.9 588.1,67.6 596.6,65.2 605.1,65.0 613.6,64.5 622.1,62.2 630.5,62.0 639.0,62.0 647.5,61.8 656.0,61.7 664.5,61.7 673.0,61.3 681.5,61.3 690.0,61.3" fill="none" stroke="#58a6ff" stroke-width="2.5" stroke-linejoin="round" stroke-linecap="round"/>
  <text x="70.0" y="310" text-anchor="middle" fill="#8b949e" font-family="sans-serif" font-size="11">03-12</text><text x="222.9" y="310" text-anchor="middle" fill="#8b949e" font-family="sans-serif" font-size="11">03-30</text><text x="375.8" y="310" text-anchor="middle" fill="#8b949e" font-family="sans-serif" font-size="11">04-17</text><text x="528.6" y="310" text-anchor="middle" fill="#8b949e" font-family="sans-serif" font-size="11">05-05</text><text x="681.5" y="310" text-anchor="middle" fill="#8b949e" font-family="sans-serif" font-size="11">05-23</text>
  <text x="694.0" y="53.3" fill="#58a6ff" font-family="sans-serif" font-size="12" font-weight="bold">10.6K</text>
</svg>