<svg xmlns="http://www.w3.org/2000/svg" width="720" height="320">
  <rect width="720" height="320" fill="#0d1117" rx="8"/>
  <text x="70" y="22" fill="#c9d1d9" font-family="sans-serif" font-size="14" font-weight="bold">Total Downloads Over Time</text>
  <line x1="70" y1="270.0" x2="690" y2="270.0" stroke="#21262d" stroke-width="1"/><text x="62" y="274.0" text-anchor="end" fill="#8b949e" font-family="sans-serif" font-size="11">0</text><line x1="70" y1="210.0" x2="690" y2="210.0" stroke="#21262d" stroke-width="1"/><text x="62" y="214.0" text-anchor="end" fill="#8b949e" font-family="sans-serif" font-size="11">3.1K</text><line x1="70" y1="150.0" x2="690" y2="150.0" stroke="#21262d" stroke-width="1"/><text x="62" y="154.0" text-anchor="end" fill="#8b949e" font-family="sans-serif" font-size="11">6.2K</text><line x1="70" y1="90.0" x2="690" y2="90.0" stroke="#21262d" stroke-width="1"/><text x="62" y="94.0" text-anchor="end" fill="#8b949e" font-family="sans-serif" font-size="11">9.4K</text><line x1="70" y1="30.0" x2="690" y2="30.0" stroke="#21262d" stroke-width="1"/><text x="62" y="34.0" text-anchor="end" fill="#8b949e" font-family="sans-serif" font-size="11">12.5K</text>
  <polygon points="70.0,194.2 77.6,194.2 85.1,193.2 92.7,181.9 100.2,174.7 107.8,172.7 115.4,171.1 122.9,165.2 130.5,164.8 138.0,163.1 145.6,162.6 153.2,162.5 160.7,153.8 168.3,142.4 175.9,132.8 183.4,129.1 191.0,125.4 198.5,122.5 206.1,121.7 213.7,121.5 221.2,119.8 228.8,118.1 236.3,113.8 243.9,109.6 251.5,106.5 259.0,103.4 266.6,102.4 274.1,94.5 281.7,89.7 289.3,88.0 296.8,87.8 304.4,86.4 312.0,86.3 319.5,86.3 327.1,85.8 334.6,85.6 342.2,85.5 349.8,85.0 357.3,82.3 364.9,82.2 372.4,81.6 380.0,80.6 387.6,80.4 395.1,80.1 402.7,79.8 410.2,79.6 417.8,79.4 425.4,79.3 432.9,79.2 440.5,77.4 448.0,77.1 455.6,77.0 463.2,76.9 470.7,76.8 478.3,76.7 485.9,75.7 493.4,75.6 501.0,75.3 508.5,75.3 516.1,73.9 523.7,73.5 531.2,73.3 538.8,70.9 546.3,70.7 553.9,70.2 561.5,68.0 569.0,67.8 576.6,67.7 584.1,67.6 591.7,67.5 599.3,67.5 606.8,67.1 614.4,67.1 622.0,67.1 629.5,66.9 637.1,66.6 644.6,65.3 652.2,62.7 659.8,62.7 667.3,62.6 674.9,62.6 682.4,61.3 690.0,61.3 690.0,270.0 70.0,270.0" fill="#58a6ff" opacity="0.15"/>
  <polyline points="70.0,194.2 77.6,194.2 85.1,193.2 92.7,181.9 100.2,174.7 107.8,172.7 115.4,171.1 122.9,165.2 130.5,164.8 138.0,163.1 145.6,162.6 153.2,162.5 160.7,153.8 168.3,142.4 175.9,132.8 183.4,129.1 191.0,125.4 198.5,122.5 206.1,121.7 213.7,121.5 221.2,119.8 228.8,118.1 236.3,113.8 243.9,109.6 251.5,106.5 259.0,103.4 266.6,102.4 274.1,94.5 281.7,89.7 289.3,88.0 296.8,87.8 304.4,86.4 312.0,86.3 319.5,86.3 327.1,85.8 334.6,85.6 342.2,85.5 349.8,85.0 357.3,82.3 364.9,82.2 372.4,81.6 380.0,80.6 387.6,80.4 395.1,80.1 402.7,79.8 410.2,79.6 417.8,79.4 425.4,79.3 432.9,79.2 440.5,77.4 448.0,77.1 455.6,77.0 463.2,76.9 470.7,76.8 478.3,76.7 485.9,75.7 493.4,75.6 501.0,75.3 508.5,75.3 516.1,73.9 523.7,73.5 531.2,73.3 538.8,70.9 546.3,70.7 553.9,70.2 561.5,68.0 569.0,67.8 576.6,67.7 584.1,67.6 591.7,67.5 599.3,67.5 606.8,67.1 614.4,67.1 622.0,67.1 629.5,66.9 637.1,66.6 644.6,65.3 652.2,62.7 659.8,62.7 667.3,62.6 674.9,62.6 682.4,61.3 690.0,61.3" fill="none" stroke="#58a6ff" stroke-width="2.5" stroke-linejoin="round" stroke-linecap="round"/>
  <text x="70.0" y="310" text-anchor="middle" fill="#8b949e" font-family="sans-serif" font-size="11">03-12</text><text x="221.2" y="310" text-anchor="middle" fill="#8b949e" font-family="sans-serif" font-size="11">04-01</text><text x="372.4" y="310" text-anchor="middle" fill="#8b949e" font-family="sans-serif" font-size="11">04-21</text><text x="523.7" y="310" text-anchor="middle" fill="#8b949e" font-family="sans-serif" font-size="11">05-11</text><text x="674.9" y="310" text-anchor="middle" fill="#8b949e" font-family="sans-serif" font-size="11">05-31</text>
  <text x="694.0" y="53.3" fill="#58a6ff" font-family="sans-serif" font-size="12" font-weight="bold">10.9K</text>
</svg>