<svg xmlns="http://www.w3.org/2000/svg" width="720" height="320">
  <rect width="720" height="320" fill="#0d1117" rx="8"/>
  <text x="70" y="22" fill="#c9d1d9" font-family="sans-serif" font-size="14" font-weight="bold">Total Downloads Over Time</text>
  <line x1="70" y1="270.0" x2="690" y2="270.0" stroke="#21262d" stroke-width="1"/><text x="62" y="274.0" text-anchor="end" fill="#8b949e" font-family="sans-serif" font-size="11">0</text><line x1="70" y1="210.0" x2="690" y2="210.0" stroke="#21262d" stroke-width="1"/><text x="62" y="214.0" text-anchor="end" fill="#8b949e" font-family="sans-serif" font-size="11">3.4K</text><line x1="70" y1="150.0" x2="690" y2="150.0" stroke="#21262d" stroke-width="1"/><text x="62" y="154.0" text-anchor="end" fill="#8b949e" font-family="sans-serif" font-size="11">6.7K</text><line x1="70" y1="90.0" x2="690" y2="90.0" stroke="#21262d" stroke-width="1"/><text x="62" y="94.0" text-anchor="end" fill="#8b949e" font-family="sans-serif" font-size="11">10.1K</text><line x1="70" y1="30.0" x2="690" y2="30.0" stroke="#21262d" stroke-width="1"/><text x="62" y="34.0" text-anchor="end" fill="#8b949e" font-family="sans-serif" font-size="11">13.5K</text>
  <polygon points="70.0,199.9 75.2,199.9 80.3,199.0 85.5,188.5 90.7,181.9 95.8,180.0 101.0,178.5 106.2,173.0 111.3,172.7 116.5,171.1 121.7,170.7 126.8,170.5 132.0,162.5 137.2,152.0 142.3,143.1 147.5,139.7 152.7,136.3 157.8,133.6 163.0,132.8 168.2,132.6 173.3,131.0 178.5,129.5 183.7,125.5 188.8,121.7 194.0,118.8 199.2,115.9 204.3,115.0 209.5,107.7 214.7,103.3 219.8,101.7 225.0,101.4 230.2,100.2 235.3,100.1 240.5,100.1 245.7,99.6 250.8,99.5 256.0,99.4 261.2,98.9 266.3,96.4 271.5,96.3 276.7,95.7 281.8,94.8 287.0,94.6 292.2,94.3 297.3,94.1 302.5,93.9 307.7,93.7 312.8,93.6 318.0,93.5 323.2,91.9 328.3,91.6 333.5,91.5 338.7,91.4 343.8,91.3 349.0,91.2 354.2,90.3 359.3,90.2 364.5,89.9 369.7,89.9 374.8,88.6 380.0,88.3 385.2,88.0 390.3,85.8 395.5,85.7 400.7,85.2 405.8,83.1 411.0,83.0 416.2,82.9 421.3,82.8 426.5,82.7 431.7,82.7 436.8,82.4 442.0,82.3 447.2,82.3 452.3,82.1 457.5,81.9 462.7,80.7 467.8,78.3 473.0,78.3 478.2,78.2 483.3,78.1 488.5,77.0 493.7,77.0 498.8,76.9 504.0,76.2 509.2,76.1 514.3,72.9 519.5,71.4 524.7,71.4 529.8,71.3 535.0,71.2 540.2,70.9 545.3,70.7 550.5,70.7 555.7,70.7 560.8,70.6 566.0,70.2 571.2,69.5 576.3,69.4 581.5,69.2 586.7,69.1 591.8,69.1 597.0,69.0 602.2,68.9 607.3,66.8 612.5,66.8 617.7,66.8 622.8,66.4 628.0,66.0 633.2,65.9 638.3,65.3 643.5,65.2 648.7,64.0 653.8,63.8 659.0,63.6 664.2,63.1 669.3,62.9 674.5,62.7 679.7,62.1 684.8,61.6 690.0,61.3 690.0,270.0 70.0,270.0" fill="#58a6ff" opacity="0.15"/>
  <polyline points="70.0,199.9 75.2,199.9 80.3,199.0 85.5,188.5 90.7,181.9 95.8,180.0 101.0,178.5 106.2,173.0 111.3,172.7 116.5,171.1 121.7,170.7 126.8,170.5 132.0,162.5 137.2,152.0 142.3,143.1 147.5,139.7 152.7,136.3 157.8,133.6 163.0,132.8 168.2,132.6 173.3,131.0 178.5,129.5 183.7,125.5 188.8,121.7 194.0,118.8 199.2,115.9 204.3,115.0 209.5,107.7 214.7,103.3 219.8,101.7 225.0,101.4 230.2,100.2 235.3,100.1 240.5,100.1 245.7,99.6 250.8,99.5 256.0,99.4 261.2,98.9 266.3,96.4 271.5,96.3 276.7,95.7 281.8,94.8 287.0,94.6 292.2,94.3 297.3,94.1 302.5,93.9 307.7,93.7 312.8,93.6 318.0,93.5 323.2,91.9 328.3,91.6 333.5,91.5 338.7,91.4 343.8,91.3 349.0,91.2 354.2,90.3 359.3,90.2 364.5,89.9 369.7,89.9 374.8,88.6 380.0,88.3 385.2,88.0 390.3,85.8 395.5,85.7 400.7,85.2 405.8,83.1 411.0,83.0 416.2,82.9 421.3,82.8 426.5,82.7 431.7,82.7 436.8,82.4 442.0,82.3 447.2,82.3 452.3,82.1 457.5,81.9 462.7,80.7 467.8,78.3 473.0,78.3 478.2,78.2 483.3,78.1 488.5,77.0 493.7,77.0 498.8,76.9 504.0,76.2 509.2,76.1 514.3,72.9 519.5,71.4 524.7,71.4 529.8,71.3 535.0,71.2 540.2,70.9 545.3,70.7 550.5,70.7 555.7,70.7 560.8,70.6 566.0,70.2 571.2,69.5 576.3,69.4 581.5,69.2 586.7,69.1 591.8,69.1 597.0,69.0 602.2,68.9 607.3,66.8 612.5,66.8 617.7,66.8 622.8,66.4 628.0,66.0 633.2,65.9 638.3,65.3 643.5,65.2 648.7,64.0 653.8,63.8 659.0,63.6 664.2,63.1 669.3,62.9 674.5,62.7 679.7,62.1 684.8,61.6 690.0,61.3" fill="none" stroke="#58a6ff" stroke-width="2.5" stroke-linejoin="round" stroke-linecap="round"/>
  <text x="70.0" y="310" text-anchor="middle" fill="#8b949e" font-family="sans-serif" font-size="11">03-12</text><text x="225.0" y="310" text-anchor="middle" fill="#8b949e" font-family="sans-serif" font-size="11">04-11</text><text x="380.0" y="310" text-anchor="middle" fill="#8b949e" font-family="sans-serif" font-size="11">05-11</text><text x="535.0" y="310" text-anchor="middle" fill="#8b949e" font-family="sans-serif" font-size="11">06-10</text><text x="690.0" y="310" text-anchor="middle" fill="#8b949e" font-family="sans-serif" font-size="11">07-10</text>
  <text x="694.0" y="53.3" fill="#58a6ff" font-family="sans-serif" font-size="12" font-weight="bold">11.7K</text>
</svg>