<svg xmlns="http://www.w3.org/2000/svg" width="720" height="320">
  <rect width="720" height="320" fill="#0d1117" rx="8"/>
  <text x="70" y="22" fill="#c9d1d9" font-family="sans-serif" font-size="14" font-weight="bold">Total Downloads Over Time</text>
  <line x1="70" y1="270.0" x2="690" y2="270.0" stroke="#21262d" stroke-width="1"/><text x="62" y="274.0" text-anchor="end" fill="#8b949e" font-family="sans-serif" font-size="11">0</text><line x1="70" y1="210.0" x2="690" y2="210.0" stroke="#21262d" stroke-width="1"/><text x="62" y="214.0" text-anchor="end" fill="#8b949e" font-family="sans-serif" font-size="11">2.9K</text><line x1="70" y1="150.0" x2="690" y2="150.0" stroke="#21262d" stroke-width="1"/><text x="62" y="154.0" text-anchor="end" fill="#8b949e" font-family="sans-serif" font-size="11">5.8K</text><line x1="70" y1="90.0" x2="690" y2="90.0" stroke="#21262d" stroke-width="1"/><text x="62" y="94.0" text-anchor="end" fill="#8b949e" font-family="sans-serif" font-size="11">8.7K</text><line x1="70" y1="30.0" x2="690" y2="30.0" stroke="#21262d" stroke-width="1"/><text x="62" y="34.0" text-anchor="end" fill="#8b949e" font-family="sans-serif" font-size="11">11.6K</text>
  <polygon points="70.0,188.6 81.3,188.6 92.5,187.5 103.8,175.4 115.1,167.7 126.4,165.5 137.6,163.7 148.9,157.4 160.2,157.0 171.5,155.2 182.7,154.7 194.0,154.5 205.3,145.2 216.5,133.0 227.8,122.6 239.1,118.7 250.4,114.7 261.6,111.6 272.9,110.7 284.2,110.5 295.5,108.7 306.7,106.8 318.0,102.2 329.3,97.8 340.5,94.4 351.8,91.1 363.1,90.0 374.4,81.6 385.6,76.4 396.9,74.6 408.2,74.3 419.5,72.9 430.7,72.8 442.0,72.7 453.3,72.2 464.5,72.0 475.8,71.9 487.1,71.3 498.4,68.4 509.6,68.3 520.9,67.7 532.2,66.6 543.5,66.4 554.7,66.1 566.0,65.8 577.3,65.5 588.5,65.3 599.8,65.2 611.1,65.1 622.4,63.2 633.6,62.8 644.9,62.8 656.2,62.6 667.5,62.5 678.7,62.4 690.0,61.3 690.0,270.0 70.0,270.0" fill="#58a6ff" opacity="0.15"/>
  <polyline points="70.0,188.6 81.3,188.6 92.5,187.5 103.8,175.4 115.1,167.7 126.4,165.5 137.6,163.7 148.9,157.4 160.2,157.0 171.5,155.2 182.7,154.7 194.0,154.5 205.3,145.2 216.5,133.0 227.8,122.6 239.1,118.7 250.4,114.7 261.6,111.6 272.9,110.7 284.2,110.5 295.5,108.7 306.7,106.8 318.0,102.2 329.3,97.8 340.5,94.4 351.8,91.1 363.1,90.0 374.4,81.6 385.6,76.4 396.9,74.6 408.2,74.3 419.5,72.9 430.7,72.8 442.0,72.7 453.3,72.2 464.5,72.0 475.8,71.9 487.1,71.3 498.4,68.4 509.6,68.3 520.9,67.7 532.2,66.6 543.5,66.4 554.7,66.1 566.0,65.8 577.3,65.5 588.5,65.3 599.8,65.2 611.1,65.1 622.4,63.2 633.6,62.8 644.9,62.8 656.2,62.6 667.5,62.5 678.7,62.4 690.0,61.3" fill="none" stroke="#58a6ff" stroke-width="2.5" stroke-linejoin="round" stroke-linecap="round"/>
  <text x="70.0" y="310" text-anchor="middle" fill="#8b949e" font-family="sans-serif" font-size="11">03-12</text><text x="216.5" y="310" text-anchor="middle" fill="#8b949e" font-family="sans-serif" font-size="11">03-25</text><text x="363.1" y="310" text-anchor="middle" fill="#8b949e" font-family="sans-serif" font-size="11">04-07</text><text x="509.6" y="310" text-anchor="middle" fill="#8b949e" font-family="sans-serif" font-size="11">04-20</text><text x="656.2" y="310" text-anchor="middle" fill="#8b949e" font-family="sans-serif" font-size="11">05-03</text>
  <text x="694.0" y="53.3" fill="#58a6ff" font-family="sans-serif" font-size="12" font-weight="bold">10.1K</text>
</svg>