<svg xmlns="http://www.w3.org/2000/svg" width="720" height="320">
  <rect width="720" height="320" fill="#0d1117" rx="8"/>
  <text x="70" y="22" fill="#c9d1d9" font-family="sans-serif" font-size="14" font-weight="bold">Total Downloads Over Time</text>
  <line x1="70" y1="270.0" x2="690" y2="270.0" stroke="#21262d" stroke-width="1"/><text x="62" y="274.0" text-anchor="end" fill="#8b949e" font-family="sans-serif" font-size="11">0</text><line x1="70" y1="210.0" x2="690" y2="210.0" stroke="#21262d" stroke-width="1"/><text x="62" y="214.0" text-anchor="end" fill="#8b949e" font-family="sans-serif" font-size="11">3.2K</text><line x1="70" y1="150.0" x2="690" y2="150.0" stroke="#21262d" stroke-width="1"/><text x="62" y="154.0" text-anchor="end" fill="#8b949e" font-family="sans-serif" font-size="11">6.5K</text><line x1="70" y1="90.0" x2="690" y2="90.0" stroke="#21262d" stroke-width="1"/><text x="62" y="94.0" text-anchor="end" fill="#8b949e" font-family="sans-serif" font-size="11">9.8K</text><line x1="70" y1="30.0" x2="690" y2="30.0" stroke="#21262d" stroke-width="1"/><text x="62" y="34.0" text-anchor="end" fill="#8b949e" font-family="sans-serif" font-size="11">13.0K</text>
  <polygon points="70.0,197.2 76.1,197.2 82.2,196.3 88.2,185.4 94.3,178.5 100.4,176.6 106.5,175.0 112.5,169.3 118.6,169.0 124.7,167.3 130.8,166.9 136.9,166.8 142.9,158.4 149.0,147.5 155.1,138.2 161.2,134.7 167.3,131.2 173.3,128.4 179.4,127.6 185.5,127.4 191.6,125.7 197.6,124.1 203.7,120.0 209.8,116.0 215.9,113.0 222.0,110.1 228.0,109.1 234.1,101.5 240.2,96.9 246.3,95.3 252.4,95.0 258.4,93.8 264.5,93.7 270.6,93.6 276.7,93.1 282.7,93.0 288.8,92.9 294.9,92.4 301.0,89.8 307.1,89.7 313.1,89.1 319.2,88.1 325.3,88.0 331.4,87.7 337.5,87.4 343.5,87.2 349.6,87.0 355.7,86.9 361.8,86.8 367.8,85.1 373.9,84.8 380.0,84.7 386.1,84.6 392.2,84.5 398.2,84.4 404.3,83.4 410.4,83.3 416.5,83.1 422.5,83.1 428.6,81.7 434.7,81.4 440.8,81.1 446.9,78.8 452.9,78.7 459.0,78.2 465.1,76.0 471.2,75.9 477.3,75.8 483.3,75.7 489.4,75.6 495.5,75.6 501.6,75.2 507.6,75.2 513.7,75.2 519.8,75.0 525.9,74.7 532.0,73.5 538.0,71.0 544.1,71.0 550.2,70.9 556.3,70.8 562.4,69.6 568.4,69.6 574.5,69.5 580.6,68.8 586.7,68.8 592.7,65.4 598.8,63.9 604.9,63.8 611.0,63.7 617.1,63.6 623.1,63.3 629.2,63.1 635.3,63.1 641.4,63.1 647.5,63.0 653.5,62.6 659.6,61.8 665.7,61.7 671.8,61.6 677.8,61.5 683.9,61.4 690.0,61.3 690.0,270.0 70.0,270.0" fill="#58a6ff" opacity="0.15"/>
  <polyline points="70.0,197.2 76.1,197.2 82.2,196.3 88.2,185.4 94.3,178.5 100.4,176.6 106.5,175.0 112.5,169.3 118.6,169.0 124.7,167.3 130.8,166.9 136.9,166.8 142.9,158.4 149.0,147.5 155.1,138.2 161.2,134.7 167.3,131.2 173.3,128.4 179.4,127.6 185.5,127.4 191.6,125.7 197.6,124.1 203.7,120.0 209.8,116.0 215.9,113.0 222.0,110.1 228.0,109.1 234.1,101.5 240.2,96.9 246.3,95.3 252.4,95.0 258.4,93.8 264.5,93.7 270.6,93.6 276.7,93.1 282.7,93.0 288.8,92.9 294.9,92.4 301.0,89.8 307.1,89.7 313.1,89.1 319.2,88.1 325.3,88.0 331.4,87.7 337.5,87.4 343.5,87.2 349.6,87.0 355.7,86.9 361.8,86.8 367.8,85.1 373.9,84.8 380.0,84.7 386.1,84.6 392.2,84.5 398.2,84.4 404.3,83.4 410.4,83.3 416.5,83.1 422.5,83.1 428.6,81.7 434.7,81.4 440.8,81.1 446.9,78.8 452.9,78.7 459.0,78.2 465.1,76.0 471.2,75.9 477.3,75.8 483.3,75.7 489.4,75.6 495.5,75.6 501.6,75.2 507.6,75.2 513.7,75.2 519.8,75.0 525.9,74.7 532.0,73.5 538.0,71.0 544.1,71.0 550.2,70.9 556.3,70.8 562.4,69.6 568.4,69.6 574.5,69.5 580.6,68.8 586.7,68.8 592.7,65.4 598.8,63.9 604.9,63.8 611.0,63.7 617.1,63.6 623.1,63.3 629.2,63.1 635.3,63.1 641.4,63.1 647.5,63.0 653.5,62.6 659.6,61.8 665.7,61.7 671.8,61.6 677.8,61.5 683.9,61.4 690.0,61.3" fill="none" stroke="#58a6ff" stroke-width="2.5" stroke-linejoin="round" stroke-linecap="round"/>
  <text x="70.0" y="310" text-anchor="middle" fill="#8b949e" font-family="sans-serif" font-size="11">03-12</text><text x="222.0" y="310" text-anchor="middle" fill="#8b949e" font-family="sans-serif" font-size="11">04-06</text><text x="373.9" y="310" text-anchor="middle" fill="#8b949e" font-family="sans-serif" font-size="11">05-01</text><text x="525.9" y="310" text-anchor="middle" fill="#8b949e" font-family="sans-serif" font-size="11">05-26</text><text x="677.8" y="310" text-anchor="middle" fill="#8b949e" font-family="sans-serif" font-size="11">06-20</text>
  <text x="694.0" y="53.3" fill="#58a6ff" font-family="sans-serif" font-size="12" font-weight="bold">11.3K</text>
</svg>