<svg xmlns="http://www.w3.org/2000/svg" width="720" height="320">
  <rect width="720" height="320" fill="#0d1117" rx="8"/>
  <text x="70" y="22" fill="#c9d1d9" font-family="sans-serif" font-size="14" font-weight="bold">Total Downloads Over Time</text>
  <line x1="70" y1="270.0" x2="690" y2="270.0" stroke="#21262d" stroke-width="1"/><text x="62" y="274.0" text-anchor="end" fill="#8b949e" font-family="sans-serif" font-size="11">0</text><line x1="70" y1="210.0" x2="690" y2="210.0" stroke="#21262d" stroke-width="1"/><text x="62" y="214.0" text-anchor="end" fill="#8b949e" font-family="sans-serif" font-size="11">2.3K</text><line x1="70" y1="150.0" x2="690" y2="150.0" stroke="#21262d" stroke-width="1"/><text x="62" y="154.0" text-anchor="end" fill="#8b949e" font-family="sans-serif" font-size="11">4.7K</text><line x1="70" y1="90.0" x2="690" y2="90.0" stroke="#21262d" stroke-width="1"/><text x="62" y="94.0" text-anchor="end" fill="#8b949e" font-family="sans-serif" font-size="11">7.0K</text><line x1="70" y1="30.0" x2="690" y2="30.0" stroke="#21262d" stroke-width="1"/><text x="62" y="34.0" text-anchor="end" fill="#8b949e" font-family="sans-serif" font-size="11">9.3K</text>
  <polygon points="70.0,168.7 98.2,168.7 126.4,167.4 154.5,152.3 182.7,142.7 210.9,140.1 239.1,137.8 267.3,130.0 295.5,129.5 323.6,127.2 351.8,126.6 380.0,126.4 408.2,114.8 436.4,99.5 464.5,86.7 492.7,81.8 520.9,76.9 549.1,73.0 577.3,71.9 605.5,71.6 633.6,69.3 661.8,67.1 690.0,61.3 690.0,270.0 70.0,270.0" fill="#58a6ff" opacity="0.15"/>
  <polyline points="70.0,168.7 98.2,168.7 126.4,167.4 154.5,152.3 182.7,142.7 210.9,140.1 239.1,137.8 267.3,130.0 295.5,129.5 323.6,127.2 351.8,126.6 380.0,126.4 408.2,114.8 436.4,99.5 464.5,86.7 492.7,81.8 520.9,76.9 549.1,73.0 577.3,71.9 605.5,71.6 633.6,69.3 661.8,67.1 690.0,61.3" fill="none" stroke="#58a6ff" stroke-width="2.5" stroke-linejoin="round" stroke-linecap="round"/>
  <text x="70.0" y="310" text-anchor="middle" fill="#8b949e" font-family="sans-serif" font-size="11">03-12</text><text x="210.9" y="310" text-anchor="middle" fill="#8b949e" font-family="sans-serif" font-size="11">03-17</text><text x="351.8" y="310" text-anchor="middle" fill="#8b949e" font-family="sans-serif" font-size="11">03-22</text><text x="492.7" y="310" text-anchor="middle" fill="#8b949e" font-family="sans-serif" font-size="11">03-27</text><text x="633.6" y="310" text-anchor="middle" fill="#8b949e" font-family="sans-serif" font-size="11">04-01</text>
  <text x="694.0" y="53.3" fill="#58a6ff" font-family="sans-serif" font-size="12" font-weight="bold">8.1K</text>
</svg>