<svg xmlns="http://www.w3.org/2000/svg" width="720" height="320">
  <rect width="720" height="320" fill="#0d1117" rx="8"/>
  <text x="70" y="22" fill="#c9d1d9" font-family="sans-serif" font-size="14" font-weight="bold">Total Downloads Over Time</text>
  <line x1="70" y1="270.0" x2="690" y2="270.0" stroke="#21262d" stroke-width="1"/><text x="62" y="274.0" text-anchor="end" fill="#8b949e" font-family="sans-serif" font-size="11">0</text><line x1="70" y1="210.0" x2="690" y2="210.0" stroke="#21262d" stroke-width="1"/><text x="62" y="214.0" text-anchor="end" fill="#8b949e" font-family="sans-serif" font-size="11">2.8K</text><line x1="70" y1="150.0" x2="690" y2="150.0" stroke="#21262d" stroke-width="1"/><text x="62" y="154.0" text-anchor="end" fill="#8b949e" font-family="sans-serif" font-size="11">5.7K</text><line x1="70" y1="90.0" x2="690" y2="90.0" stroke="#21262d" stroke-width="1"/><text x="62" y="94.0" text-anchor="end" fill="#8b949e" font-family="sans-serif" font-size="11">8.5K</text><line x1="70" y1="30.0" x2="690" y2="30.0" stroke="#21262d" stroke-width="1"/><text x="62" y="34.0" text-anchor="end" fill="#8b949e" font-family="sans-serif" font-size="11">11.4K</text>
  <polygon points="70.0,187.0 83.5,187.0 97.0,185.9 110.4,173.5 123.9,165.7 137.4,163.5 150.9,161.7 164.3,155.2 177.8,154.8 191.3,152.9 204.8,152.4 218.3,152.3 231.7,142.8 245.2,130.3 258.7,119.7 272.2,115.7 285.7,111.7 299.1,108.5 312.6,107.6 326.1,107.4 339.6,105.5 353.0,103.6 366.5,98.9 380.0,94.4 393.5,91.0 407.0,87.6 420.4,86.5 433.9,77.9 447.4,72.6 460.9,70.8 474.3,70.5 487.8,69.0 501.3,68.9 514.8,68.9 528.3,68.3 541.7,68.1 555.2,68.0 568.7,67.5 582.2,64.4 595.7,64.3 609.1,63.7 622.6,62.6 636.1,62.4 649.6,62.1 663.0,61.8 676.5,61.5 690.0,61.3 690.0,270.0 70.0,270.0" fill="#58a6ff" opacity="0.15"/>
  <polyline points="70.0,187.0 83.5,187.0 97.0,185.9 110.4,173.5 123.9,165.7 137.4,163.5 150.9,161.7 164.3,155.2 177.8,154.8 191.3,152.9 204.8,152.4 218.3,152.3 231.7,142.8 245.2,130.3 258.7,119.7 272.2,115.7 285.7,111.7 299.1,108.5 312.6,107.6 326.1,107.4 339.6,105.5 353.0,103.6 366.5,98.9 380.0,94.4 393.5,91.0 407.0,87.6 420.4,86.5 433.9,77.9 447.4,72.6 460.9,70.8 474.3,70.5 487.8,69.0 501.3,68.9 514.8,68.9 528.3,68.3 541.7,68.1 555.2,68.0 568.7,67.5 582.2,64.4 595.7,64.3 609.1,63.7 622.6,62.6 636.1,62.4 649.6,62.1 663.0,61.8 676.5,61.5 690.0,61.3" fill="none" stroke="#58a6ff" stroke-width="2.5" stroke-linejoin="round" stroke-linecap="round"/>
  <text x="70.0" y="310" text-anchor="middle" fill="#8b949e" font-family="sans-serif" font-size="11">03-12</text><text x="218.3" y="310" text-anchor="middle" fill="#8b949e" font-family="sans-serif" font-size="11">03-23</text><text x="366.5" y="310" text-anchor="middle" fill="#8b949e" font-family="sans-serif" font-size="11">04-03</text><text x="514.8" y="310" text-anchor="middle" fill="#8b949e" font-family="sans-serif" font-size="11">04-14</text><text x="663.0" y="310" text-anchor="middle" fill="#8b949e" font-family="sans-serif" font-size="11">04-25</text>
  <text x="694.0" y="53.3" fill="#58a6ff" font-family="sans-serif" font-size="12" font-weight="bold">9.9K</text>
</svg>