<svg xmlns="http://www.w3.org/2000/svg" width="720" height="320">
  <rect width="720" height="320" fill="#0d1117" rx="8"/>
  <text x="70" y="22" fill="#c9d1d9" font-family="sans-serif" font-size="14" font-weight="bold">Total Downloads Over Time</text>
  <line x1="70" y1="270.0" x2="690" y2="270.0" stroke="#21262d" stroke-width="1"/><text x="62" y="274.0" text-anchor="end" fill="#8b949e" font-family="sans-serif" font-size="11">0</text><line x1="70" y1="210.0" x2="690" y2="210.0" stroke="#21262d" stroke-width="1"/><text x="62" y="214.0" text-anchor="end" fill="#8b949e" font-family="sans-serif" font-size="11">2.1K</text><line x1="70" y1="150.0" x2="690" y2="150.0" stroke="#21262d" stroke-width="1"/><text x="62" y="154.0" text-anchor="end" fill="#8b949e" font-family="sans-serif" font-size="11">4.1K</text><line x1="70" y1="90.0" x2="690" y2="90.0" stroke="#21262d" stroke-width="1"/><text x="62" y="94.0" text-anchor="end" fill="#8b949e" font-family="sans-serif" font-size="11">6.2K</text><line x1="70" y1="30.0" x2="690" y2="30.0" stroke="#21262d" stroke-width="1"/><text x="62" y="34.0" text-anchor="end" fill="#8b949e" font-family="sans-serif" font-size="11">8.2K</text>
  <polygon points="70.0,154.7 114.3,154.7 158.6,153.2 202.9,136.0 247.1,125.1 291.4,122.1 335.7,119.5 380.0,110.6 424.3,110.0 468.6,107.4 512.9,106.7 557.1,106.5 601.4,93.3 645.7,76.0 690.0,61.3 690.0,270.0 70.0,270.0" fill="#58a6ff" opacity="0.15"/>
  <polyline points="70.0,154.7 114.3,154.7 158.6,153.2 202.9,136.0 247.1,125.1 291.4,122.1 335.7,119.5 380.0,110.6 424.3,110.0 468.6,107.4 512.9,106.7 557.1,106.5 601.4,93.3 645.7,76.0 690.0,61.3" fill="none" stroke="#58a6ff" stroke-width="2.5" stroke-linejoin="round" stroke-linecap="round"/>
  <text x="70.0" y="310" text-anchor="middle" fill="#8b949e" font-family="sans-serif" font-size="11">03-12</text><text x="202.9" y="310" text-anchor="middle" fill="#8b949e" font-family="sans-serif" font-size="11">03-15</text><text x="335.7" y="310" text-anchor="middle" fill="#8b949e" font-family="sans-serif" font-size="11">03-18</text><text x="468.6" y="310" text-anchor="middle" fill="#8b949e" font-family="sans-serif" font-size="11">03-21</text><text x="601.4" y="310" text-anchor="middle" fill="#8b949e" font-family="sans-serif" font-size="11">03-24</text>
  <text x="694.0" y="53.3" fill="#58a6ff" font-family="sans-serif" font-size="12" font-weight="bold">7.1K</text>
</svg>