<svg xmlns="http://www.w3.org/2000/svg" width="720" height="320">
  <rect width="720" height="320" fill="#0d1117" rx="8"/>
  <text x="70" y="22" fill="#c9d1d9" font-family="sans-serif" font-size="14" font-weight="bold">Total Downloads Over Time</text>
  <line x1="70" y1="270.0" x2="690" y2="270.0" stroke="#21262d" stroke-width="1"/><text x="62" y="274.0" text-anchor="end" fill="#8b949e" font-family="sans-serif" font-size="11">0</text><line x1="70" y1="210.0" x2="690" y2="210.0" stroke="#21262d" stroke-width="1"/><text x="62" y="214.0" text-anchor="end" fill="#8b949e" font-family="sans-serif" font-size="11">3.6K</text><line x1="70" y1="150.0" x2="690" y2="150.0" stroke="#21262d" stroke-width="1"/><text x="62" y="154.0" text-anchor="end" fill="#8b949e" font-family="sans-serif" font-size="11">7.3K</text><line x1="70" y1="90.0" x2="690" y2="90.0" stroke="#21262d" stroke-width="1"/><text x="62" y="94.0" text-anchor="end" fill="#8b949e" font-family="sans-serif" font-size="11">10.9K</text><line x1="70" y1="30.0" x2="690" y2="30.0" stroke="#21262d" stroke-width="1"/><text x="62" y="34.0" text-anchor="end" fill="#8b949e" font-family="sans-serif" font-size="11">14.5K</text>
  <polygon points="70.0,204.9 73.0,204.9 76.0,204.1 79.0,194.3 82.0,188.2 85.0,186.5 88.0,185.1 91.0,180.0 94.0,179.7 97.0,178.2 100.0,177.8 102.9,177.7 105.9,170.2 108.9,160.4 111.9,152.2 114.9,149.0 117.9,145.9 120.9,143.4 123.9,142.6 126.9,142.5 129.9,141.0 132.9,139.6 135.9,135.9 138.9,132.3 141.9,129.7 144.9,127.0 147.9,126.1 150.9,119.4 153.9,115.2 156.9,113.8 159.9,113.5 162.9,112.4 165.8,112.3 168.8,112.3 171.8,111.8 174.8,111.7 177.8,111.6 180.8,111.2 183.8,108.8 186.8,108.7 189.8,108.2 192.8,107.4 195.8,107.2 198.8,107.0 201.8,106.7 204.8,106.5 207.8,106.4 210.8,106.3 213.8,106.2 216.8,104.7 219.8,104.4 222.8,104.3 225.7,104.2 228.7,104.1 231.7,104.1 234.7,103.2 237.7,103.1 240.7,102.9 243.7,102.8 246.7,101.6 249.7,101.3 252.7,101.1 255.7,99.0 258.7,98.9 261.7,98.5 264.7,96.5 267.7,96.4 270.7,96.4 273.7,96.3 276.7,96.2 279.7,96.2 282.7,95.8 285.7,95.8 288.6,95.8 291.6,95.6 294.6,95.4 297.6,94.3 300.6,92.0 303.6,92.0 306.6,91.9 309.6,91.9 312.6,90.8 315.6,90.8 318.6,90.8 321.6,90.1 324.6,90.1 327.6,87.1 330.6,85.7 333.6,85.6 336.6,85.6 339.6,85.5 342.6,85.2 345.6,85.0 348.6,85.0 351.5,85.0 354.5,84.9 357.5,84.5 360.5,83.9 363.5,83.8 366.5,83.7 369.5,83.6 372.5,83.5 375.5,83.4 378.5,83.4 381.5,81.4 384.5,81.4 387.5,81.4 390.5,81.0 393.5,80.7 396.5,80.5 399.5,80.0 402.5,79.9 405.5,78.8 408.5,78.6 411.4,78.4 414.4,77.9 417.4,77.8 420.4,77.6 423.4,77.0 426.4,76.6 429.4,76.3 432.4,76.3 435.4,76.2 438.4,74.0 441.4,73.9 444.4,73.9 447.4,73.6 450.4,73.4 453.4,73.4 456.4,73.1 459.4,73.0 462.4,73.0 465.4,72.3 468.4,72.2 471.4,72.1 474.3,71.5 477.3,71.4 480.3,71.1 483.3,71.1 486.3,71.0 489.3,71.0 492.3,70.9 495.3,70.7 498.3,70.7 501.3,70.7 504.3,70.6 507.3,70.6 510.3,70.5 513.3,70.5 516.3,70.5 519.3,70.2 522.3,70.0 525.3,70.0 528.3,69.9 531.3,69.1 534.3,69.1 537.2,69.0 540.2,69.0 543.2,69.0 546.2,68.9 549.2,68.9 552.2,68.5 555.2,68.3 558.2,68.1 561.2,68.1 564.2,68.0 567.2,68.0 570.2,68.0 573.2,68.0 576.2,68.0 579.2,67.9 582.2,67.0 585.2,66.8 588.2,66.3 591.2,66.2 594.2,66.1 597.1,66.0 600.1,65.9 603.1,65.8 606.1,65.8 609.1,65.7 612.1,65.7 615.1,65.7 618.1,65.7 621.1,65.2 624.1,65.2 627.1,64.8 630.1,64.7 633.1,64.4 636.1,64.4 639.1,64.4 642.1,64.4 645.1,64.4 648.1,64.4 651.1,64.3 654.1,63.9 657.1,63.9 660.0,63.8 663.0,63.5 666.0,63.3 669.0,63.3 672.0,63.3 675.0,63.2 678.0,63.2 681.0,63.1 684.0,63.0 687.0,61.3 690.0,61.3 690.0,270.0 70.0,270.0" fill="#58a6ff" opacity="0.15"/>
  <polyline points="70.0,204.9 73.0,204.9 76.0,204.1 79.0,194.3 82.0,188.2 85.0,186.5 88.0,185.1 91.0,180.0 94.0,179.7 97.0,178.2 100.0,177.8 102.9,177.7 105.9,170.2 108.9,160.4 111.9,152.2 114.9,149.0 117.9,145.9 120.9,143.4 123.9,142.6 126.9,142.5 129.9,141.0 132.9,139.6 135.9,135.9 138.9,132.3 141.9,129.7 144.9,127.0 147.9,126.1 150.9,119.4 153.9,115.2 156.9,113.8 159.9,113.5 162.9,112.4 165.8,112.3 168.8,112.3 171.8,111.8 174.8,111.7 177.8,111.6 180.8,111.2 183.8,108.8 186.8,108.7 189.8,108.2 192.8,107.4 195.8,107.2 198.8,107.0 201.8,106.7 204.8,106.5 207.8,106.4 210.8,106.3 213.8,106.2 216.8,104.7 219.8,104.4 222.8,104.3 225.7,104.2 228.7,104.1 231.7,104.1 234.7,103.2 237.7,103.1 240.7,102.9 243.7,102.8 246.7,101.6 249.7,101.3 252.7,101.1 255.7,99.0 258.7,98.9 261.7,98.5 264.7,96.5 267.7,96.4 270.7,96.4 273.7,96.3 276.7,96.2 279.7,96.2 282.7,95.8 285.7,95.8 288.6,95.8 291.6,95.6 294.6,95.4 297.6,94.3 300.6,92.0 303.6,92.0 306.6,91.9 309.6,91.9 312.6,90.8 315.6,90.8 318.6,90.8 321.6,90.1 324.6,90.1 327.6,87.1 330.6,85.7 333.6,85.6 336.6,85.6 339.6,85.5 342.6,85.2 345.6,85.0 348.6,85.0 351.5,85.0 354.5,84.9 357.5,84.5 360.5,83.9 363.5,83.8 366.5,83.7 369.5,83.6 372.5,83.5 375.5,83.4 378.5,83.4 381.5,81.4 384.5,81.4 387.5,81.4 390.5,81.0 393.5,80.7 396.5,80.5 399.5,80.0 402.5,79.9 405.5,78.8 408.5,78.6 411.4,78.4 414.4,77.9 417.4,77.8 420.4,77.6 423.4,77.0 426.4,76.6 429.4,76.3 432.4,76.3 435.4,76.2 438.4,74.0 441.4,73.9 444.4,73.9 447.4,73.6 450.4,73.4 453.4,73.4 456.4,73.1 459.4,73.0 462.4,73.0 465.4,72.3 468.4,72.2 471.4,72.1 474.3,71.5 477.3,71.4 480.3,71.1 483.3,71.1 486.3,71.0 489.3,71.0 492.3,70.9 495.3,70.7 498.3,70.7 501.3,70.7 504.3,70.6 507.3,70.6 510.3,70.5 513.3,70.5 516.3,70.5 519.3,70.2 522.3,70.0 525.3,70.0 528.3,69.9 531.3,69.1 534.3,69.1 537.2,69.0 540.2,69.0 543.2,69.0 546.2,68.9 549.2,68.9 552.2,68.5 555.2,68.3 558.2,68.1 561.2,68.1 564.2,68.0 567.2,68.0 570.2,68.0 573.2,68.0 576.2,68.0 579.2,67.9 582.2,67.0 585.2,66.8 588.2,66.3 591.2,66.2 594.2,66.1 597.1,66.0 600.1,65.9 603.1,65.8 606.1,65.8 609.1,65.7 612.1,65.7 615.1,65.7 618.1,65.7 621.1,65.2 624.1,65.2 627.1,64.8 630.1,64.7 633.1,64.4 636.1,64.4 639.1,64.4 642.1,64.4 645.1,64.4 648.1,64.4 651.1,64.3 654.1,63.9 657.1,63.9 660.0,63.8 663.0,63.5 666.0,63.3 669.0,63.3 672.0,63.3 675.0,63.2 678.0,63.2 681.0,63.1 684.0,63.0 687.0,61.3 690.0,61.3" fill="none" stroke="#58a6ff" stroke-width="2.5" stroke-linejoin="round" stroke-linecap="round"/>
  <text x="70.0" y="310" text-anchor="middle" fill="#8b949e" font-family="sans-serif" font-size="11">03-12</text><text x="222.8" y="310" text-anchor="middle" fill="#8b949e" font-family="sans-serif" font-size="11">05-02</text><text x="375.5" y="310" text-anchor="middle" fill="#8b949e" font-family="sans-serif" font-size="11">06-22</text><text x="528.3" y="310" text-anchor="middle" fill="#8b949e" font-family="sans-serif" font-size="11">08-12</text><text x="681.0" y="310" text-anchor="middle" fill="#8b949e" font-family="sans-serif" font-size="11">10-02</text>
  <text x="694.0" y="53.3" fill="#58a6ff" font-family="sans-serif" font-size="12" font-weight="bold">12.6K</text>
</svg>