<svg xmlns="http://www.w3.org/2000/svg" width="720" height="320">
  <rect width="720" height="320" fill="#0d1117" rx="8"/>
  <text x="70" y="22" fill="#c9d1d9" font-family="sans-serif" font-size="14" font-weight="bold">Total Downloads Over Time</text>
  <line x1="70" y1="270.0" x2="690" y2="270.0" stroke="#21262d" stroke-width="1"/><text x="62" y="274.0" text-anchor="end" fill="#8b949e" font-family="sans-serif" font-size="11">0</text><line x1="70" y1="210.0" x2="690" y2="210.0" stroke="#21262d" stroke-width="1"/><text x="62" y="214.0" text-anchor="end" fill="#8b949e" font-family="sans-serif" font-size="11">3.2K</text><line x1="70" y1="150.0" x2="690" y2="150.0" stroke="#21262d" stroke-width="1"/><text x="62" y="154.0" text-anchor="end" fill="#8b949e" font-family="sans-serif" font-size="11">6.4K</text><line x1="70" y1="90.0" x2="690" y2="90.0" stroke="#21262d" stroke-width="1"/><text x="62" y="94.0" text-anchor="end" fill="#8b949e" font-family="sans-serif" font-size="11">9.6K</text><line x1="70" y1="30.0" x2="690" y2="30.0" stroke="#21262d" stroke-width="1"/><text x="62" y="34.0" text-anchor="end" fill="#8b949e" font-family="sans-serif" font-size="11">12.7K</text>
  <polygon points="70.0,195.8 77.2,195.7 84.4,194.8 91.6,183.7 98.8,176.7 106.0,174.7 113.3,173.1 120.5,167.3 127.7,167.0 134.9,165.3 142.1,164.8 149.3,164.7 156.5,156.2 163.7,145.0 170.9,135.6 178.1,132.0 185.3,128.4 192.6,125.6 199.8,124.7 207.0,124.5 214.2,122.9 221.4,121.2 228.6,117.0 235.8,112.9 243.0,109.9 250.2,106.9 257.4,105.9 264.7,98.2 271.9,93.4 279.1,91.8 286.3,91.5 293.5,90.2 300.7,90.1 307.9,90.1 315.1,89.6 322.3,89.5 329.5,89.3 336.7,88.8 344.0,86.1 351.2,86.0 358.4,85.5 365.6,84.5 372.8,84.3 380.0,84.0 387.2,83.8 394.4,83.5 401.6,83.3 408.8,83.3 416.0,83.1 423.3,81.4 430.5,81.1 437.7,81.0 444.9,80.9 452.1,80.8 459.3,80.7 466.5,79.7 473.7,79.6 480.9,79.3 488.1,79.3 495.3,77.9 502.6,77.6 509.8,77.3 517.0,75.0 524.2,74.8 531.4,74.4 538.6,72.1 545.8,72.0 553.0,71.9 560.2,71.8 567.4,71.7 574.7,71.7 581.9,71.3 589.1,71.3 596.3,71.3 603.5,71.1 610.7,70.8 617.9,69.5 625.1,67.0 632.3,67.0 639.5,66.9 646.7,66.9 654.0,65.6 661.2,65.6 668.4,65.5 675.6,64.8 682.8,64.7 690.0,61.3 690.0,270.0 70.0,270.0" fill="#58a6ff" opacity="0.15"/>
  <polyline points="70.0,195.8 77.2,195.7 84.4,194.8 91.6,183.7 98.8,176.7 106.0,174.7 113.3,173.1 120.5,167.3 127.7,167.0 134.9,165.3 142.1,164.8 149.3,164.7 156.5,156.2 163.7,145.0 170.9,135.6 178.1,132.0 185.3,128.4 192.6,125.6 199.8,124.7 207.0,124.5 214.2,122.9 221.4,121.2 228.6,117.0 235.8,112.9 243.0,109.9 250.2,106.9 257.4,105.9 264.7,98.2 271.9,93.4 279.1,91.8 286.3,91.5 293.5,90.2 300.7,90.1 307.9,90.1 315.1,89.6 322.3,89.5 329.5,89.3 336.7,88.8 344.0,86.1 351.2,86.0 358.4,85.5 365.6,84.5 372.8,84.3 380.0,84.0 387.2,83.8 394.4,83.5 401.6,83.3 408.8,83.3 416.0,83.1 423.3,81.4 430.5,81.1 437.7,81.0 444.9,80.9 452.1,80.8 459.3,80.7 466.5,79.7 473.7,79.6 480.9,79.3 488.1,79.3 495.3,77.9 502.6,77.6 509.8,77.3 517.0,75.0 524.2,74.8 531.4,74.4 538.6,72.1 545.8,72.0 553.0,71.9 560.2,71.8 567.4,71.7 574.7,71.7 581.9,71.3 589.1,71.3 596.3,71.3 603.5,71.1 610.7,70.8 617.9,69.5 625.1,67.0 632.3,67.0 639.5,66.9 646.7,66.9 654.0,65.6 661.2,65.6 668.4,65.5 675.6,64.8 682.8,64.7 690.0,61.3" fill="none" stroke="#58a6ff" stroke-width="2.5" stroke-linejoin="round" stroke-linecap="round"/>
  <text x="70.0" y="310" text-anchor="middle" fill="#8b949e" font-family="sans-serif" font-size="11">03-12</text><text x="221.4" y="310" text-anchor="middle" fill="#8b949e" font-family="sans-serif" font-size="11">04-02</text><text x="372.8" y="310" text-anchor="middle" fill="#8b949e" font-family="sans-serif" font-size="11">04-23</text><text x="524.2" y="310" text-anchor="middle" fill="#8b949e" font-family="sans-serif" font-size="11">05-14</text><text x="675.6" y="310" text-anchor="middle" fill="#8b949e" font-family="sans-serif" font-size="11">06-04</text>
  <text x="694.0" y="53.3" fill="#58a6ff" font-family="sans-serif" font-size="12" font-weight="bold">11.1K</text>
</svg>