<svg xmlns="http://www.w3.org/2000/svg" width="720" height="320">
  <rect width="720" height="320" fill="#0d1117" rx="8"/>
  <text x="70" y="22" fill="#c9d1d9" font-family="sans-serif" font-size="14" font-weight="bold">Total Downloads Over Time</text>
  <line x1="70" y1="270.0" x2="690" y2="270.0" stroke="#21262d" stroke-width="1"/><text x="62" y="274.0" text-anchor="end" fill="#8b949e" font-family="sans-serif" font-size="11">0</text><line x1="70" y1="210.0" x2="690" y2="210.0" stroke="#21262d" stroke-width="1"/><text x="62" y="214.0" text-anchor="end" fill="#8b949e" font-family="sans-serif" font-size="11">3.1K</text><line x1="70" y1="150.0" x2="690" y2="150.0" stroke="#21262d" stroke-width="1"/><text x="62" y="154.0" text-anchor="end" fill="#8b949e" font-family="sans-serif" font-size="11">6.3K</text><line x1="70" y1="90.0" x2="690" y2="90.0" stroke="#21262d" stroke-width="1"/><text x="62" y="94.0" text-anchor="end" fill="#8b949e" font-family="sans-serif" font-size="11">9.4K</text><line x1="70" y1="30.0" x2="690" y2="30.0" stroke="#21262d" stroke-width="1"/><text x="62" y="34.0" text-anchor="end" fill="#8b949e" font-family="sans-serif" font-size="11">12.5K</text>
  <polygon points="70.0,194.5 77.4,194.5 84.8,193.5 92.1,182.3 99.5,175.1 106.9,173.1 114.3,171.5 121.7,165.6 129.0,165.3 136.4,163.5 143.8,163.1 151.2,162.9 158.6,154.3 166.0,142.9 173.3,133.3 180.7,129.7 188.1,126.0 195.5,123.1 202.9,122.3 210.2,122.1 217.6,120.4 225.0,118.7 232.4,114.4 239.8,110.3 247.1,107.2 254.5,104.1 261.9,103.1 269.3,95.3 276.7,90.5 284.0,88.8 291.4,88.5 298.8,87.2 306.2,87.1 313.6,87.1 321.0,86.6 328.3,86.4 335.7,86.3 343.1,85.8 350.5,83.1 357.9,83.0 365.2,82.4 372.6,81.4 380.0,81.2 387.4,80.9 394.8,80.6 402.1,80.4 409.5,80.2 416.9,80.1 424.3,80.0 431.7,78.2 439.0,77.9 446.4,77.8 453.8,77.7 461.2,77.6 468.6,77.5 476.0,76.5 483.3,76.4 490.7,76.1 498.1,76.1 505.5,74.7 512.9,74.4 520.2,74.1 527.6,71.7 535.0,71.5 542.4,71.1 549.8,68.8 557.1,68.6 564.5,68.6 571.9,68.5 579.3,68.4 586.7,68.4 594.0,68.0 601.4,68.0 608.8,68.0 616.2,67.7 623.6,67.5 631.0,66.1 638.3,63.6 645.7,63.6 653.1,63.5 660.5,63.4 667.9,62.2 675.2,62.2 682.6,62.1 690.0,61.3 690.0,270.0 70.0,270.0" fill="#58a6ff" opacity="0.15"/>
  <polyline points="70.0,194.5 77.4,194.5 84.8,193.5 92.1,182.3 99.5,175.1 106.9,173.1 114.3,171.5 121.7,165.6 129.0,165.3 136.4,163.5 143.8,163.1 151.2,162.9 158.6,154.3 166.0,142.9 173.3,133.3 180.7,129.7 188.1,126.0 195.5,123.1 202.9,122.3 210.2,122.1 217.6,120.4 225.0,118.7 232.4,114.4 239.8,110.3 247.1,107.2 254.5,104.1 261.9,103.1 269.3,95.3 276.7,90.5 284.0,88.8 291.4,88.5 298.8,87.2 306.2,87.1 313.6,87.1 321.0,86.6 328.3,86.4 335.7,86.3 343.1,85.8 350.5,83.1 357.9,83.0 365.2,82.4 372.6,81.4 380.0,81.2 387.4,80.9 394.8,80.6 402.1,80.4 409.5,80.2 416.9,80.1 424.3,80.0 431.7,78.2 439.0,77.9 446.4,77.8 453.8,77.7 461.2,77.6 468.6,77.5 476.0,76.5 483.3,76.4 490.7,76.1 498.1,76.1 505.5,74.7 512.9,74.4 520.2,74.1 527.6,71.7 535.0,71.5 542.4,71.1 549.8,68.8 557.1,68.6 564.5,68.6 571.9,68.5 579.3,68.4 586.7,68.4 594.0,68.0 601.4,68.0 608.8,68.0 616.2,67.7 623.6,67.5 631.0,66.1 638.3,63.6 645.7,63.6 653.1,63.5 660.5,63.4 667.9,62.2 675.2,62.2 682.6,62.1 690.0,61.3" fill="none" stroke="#58a6ff" stroke-width="2.5" stroke-linejoin="round" stroke-linecap="round"/>
  <text x="70.0" y="310" text-anchor="middle" fill="#8b949e" font-family="sans-serif" font-size="11">03-12</text><text x="225.0" y="310" text-anchor="middle" fill="#8b949e" font-family="sans-serif" font-size="11">04-02</text><text x="380.0" y="310" text-anchor="middle" fill="#8b949e" font-family="sans-serif" font-size="11">04-23</text><text x="535.0" y="310" text-anchor="middle" fill="#8b949e" font-family="sans-serif" font-size="11">05-14</text><text x="690.0" y="310" text-anchor="middle" fill="#8b949e" font-family="sans-serif" font-size="11">06-04</text>
  <text x="694.0" y="53.3" fill="#58a6ff" font-family="sans-serif" font-size="12" font-weight="bold">10.9K</text>
</svg>