<svg xmlns="http://www.w3.org/2000/svg" width="720" height="320">
  <rect width="720" height="320" fill="#0d1117" rx="8"/>
  <text x="70" y="22" fill="#c9d1d9" font-family="sans-serif" font-size="14" font-weight="bold">Total Downloads Over Time</text>
  <line x1="70" y1="270.0" x2="690" y2="270.0" stroke="#21262d" stroke-width="1"/><text x="62" y="274.0" text-anchor="end" fill="#8b949e" font-family="sans-serif" font-size="11">0</text><line x1="70" y1="210.0" x2="690" y2="210.0" stroke="#21262d" stroke-width="1"/><text x="62" y="214.0" text-anchor="end" fill="#8b949e" font-family="sans-serif" font-size="11">3.1K</text><line x1="70" y1="150.0" x2="690" y2="150.0" stroke="#21262d" stroke-width="1"/><text x="62" y="154.0" text-anchor="end" fill="#8b949e" font-family="sans-serif" font-size="11">6.2K</text><line x1="70" y1="90.0" x2="690" y2="90.0" stroke="#21262d" stroke-width="1"/><text x="62" y="94.0" text-anchor="end" fill="#8b949e" font-family="sans-serif" font-size="11">9.3K</text><line x1="70" y1="30.0" x2="690" y2="30.0" stroke="#21262d" stroke-width="1"/><text x="62" y="34.0" text-anchor="end" fill="#8b949e" font-family="sans-serif" font-size="11">12.4K</text>
  <polygon points="70.0,193.7 77.8,193.7 85.5,192.7 93.2,181.3 101.0,174.1 108.8,172.1 116.5,170.4 124.2,164.5 132.0,164.2 139.8,162.4 147.5,162.0 155.2,161.8 163.0,153.1 170.8,141.6 178.5,131.9 186.2,128.2 194.0,124.5 201.8,121.6 209.5,120.8 217.2,120.6 225.0,118.8 232.8,117.1 240.5,112.8 248.2,108.6 256.0,105.5 263.8,102.4 271.5,101.4 279.2,93.5 287.0,88.6 294.8,86.9 302.5,86.6 310.2,85.3 318.0,85.2 325.8,85.2 333.5,84.7 341.2,84.5 349.0,84.4 356.8,83.9 364.5,81.1 372.2,81.0 380.0,80.4 387.8,79.4 395.5,79.2 403.2,78.9 411.0,78.7 418.8,78.4 426.5,78.2 434.2,78.2 442.0,78.0 449.8,76.3 457.5,75.9 465.2,75.9 473.0,75.7 480.8,75.6 488.5,75.5 496.2,74.5 504.0,74.4 511.8,74.1 519.5,74.1 527.2,72.7 535.0,72.3 542.8,72.1 550.5,69.6 558.2,69.5 566.0,69.0 573.8,66.7 581.5,66.5 589.2,66.5 597.0,66.4 604.8,66.3 612.5,66.3 620.2,65.9 628.0,65.9 635.8,65.9 643.5,65.6 651.2,65.3 659.0,64.0 666.8,61.4 674.5,61.4 682.2,61.3 690.0,61.3 690.0,270.0 70.0,270.0" fill="#58a6ff" opacity="0.15"/>
  <polyline points="70.0,193.7 77.8,193.7 85.5,192.7 93.2,181.3 101.0,174.1 108.8,172.1 116.5,170.4 124.2,164.5 132.0,164.2 139.8,162.4 147.5,162.0 155.2,161.8 163.0,153.1 170.8,141.6 178.5,131.9 186.2,128.2 194.0,124.5 201.8,121.6 209.5,120.8 217.2,120.6 225.0,118.8 232.8,117.1 240.5,112.8 248.2,108.6 256.0,105.5 263.8,102.4 271.5,101.4 279.2,93.5 287.0,88.6 294.8,86.9 302.5,86.6 310.2,85.3 318.0,85.2 325.8,85.2 333.5,84.7 341.2,84.5 349.0,84.4 356.8,83.9 364.5,81.1 372.2,81.0 380.0,80.4 387.8,79.4 395.5,79.2 403.2,78.9 411.0,78.7 418.8,78.4 426.5,78.2 434.2,78.2 442.0,78.0 449.8,76.3 457.5,75.9 465.2,75.9 473.0,75.7 480.8,75.6 488.5,75.5 496.2,74.5 504.0,74.4 511.8,74.1 519.5,74.1 527.2,72.7 535.0,72.3 542.8,72.1 550.5,69.6 558.2,69.5 566.0,69.0 573.8,66.7 581.5,66.5 589.2,66.5 597.0,66.4 604.8,66.3 612.5,66.3 620.2,65.9 628.0,65.9 635.8,65.9 643.5,65.6 651.2,65.3 659.0,64.0 666.8,61.4 674.5,61.4 682.2,61.3 690.0,61.3" fill="none" stroke="#58a6ff" stroke-width="2.5" stroke-linejoin="round" stroke-linecap="round"/>
  <text x="70.0" y="310" text-anchor="middle" fill="#8b949e" font-family="sans-serif" font-size="11">03-12</text><text x="225.0" y="310" text-anchor="middle" fill="#8b949e" font-family="sans-serif" font-size="11">04-01</text><text x="380.0" y="310" text-anchor="middle" fill="#8b949e" font-family="sans-serif" font-size="11">04-21</text><text x="535.0" y="310" text-anchor="middle" fill="#8b949e" font-family="sans-serif" font-size="11">05-11</text><text x="690.0" y="310" text-anchor="middle" fill="#8b949e" font-family="sans-serif" font-size="11">05-31</text>
  <text x="694.0" y="53.3" fill="#58a6ff" font-family="sans-serif" font-size="12" font-weight="bold">10.8K</text>
</svg>