<svg xmlns="http://www.w3.org/2000/svg" width="720" height="320">
  <rect width="720" height="320" fill="#0d1117" rx="8"/>
  <text x="70" y="22" fill="#c9d1d9" font-family="sans-serif" font-size="14" font-weight="bold">Total Downloads Over Time</text>
  <line x1="70" y1="270.0" x2="690" y2="270.0" stroke="#21262d" stroke-width="1"/><text x="62" y="274.0" text-anchor="end" fill="#8b949e" font-family="sans-serif" font-size="11">0</text><line x1="70" y1="210.0" x2="690" y2="210.0" stroke="#21262d" stroke-width="1"/><text x="62" y="214.0" text-anchor="end" fill="#8b949e" font-family="sans-serif" font-size="11">3.3K</text><line x1="70" y1="150.0" x2="690" y2="150.0" stroke="#21262d" stroke-width="1"/><text x="62" y="154.0" text-anchor="end" fill="#8b949e" font-family="sans-serif" font-size="11">6.6K</text><line x1="70" y1="90.0" x2="690" y2="90.0" stroke="#21262d" stroke-width="1"/><text x="62" y="94.0" text-anchor="end" fill="#8b949e" font-family="sans-serif" font-size="11">9.9K</text><line x1="70" y1="30.0" x2="690" y2="30.0" stroke="#21262d" stroke-width="1"/><text x="62" y="34.0" text-anchor="end" fill="#8b949e" font-family="sans-serif" font-size="11">13.2K</text>
  <polygon points="70.0,198.3 75.7,198.3 81.4,197.4 87.1,186.7 92.8,179.9 98.4,178.0 104.1,176.4 109.8,170.9 115.5,170.5 121.2,168.9 126.9,168.5 132.6,168.3 138.3,160.1 143.9,149.3 149.6,140.2 155.3,136.8 161.0,133.3 166.7,130.5 172.4,129.7 178.1,129.6 183.8,127.9 189.4,126.3 195.1,122.3 200.8,118.4 206.5,115.4 212.2,112.5 217.9,111.5 223.6,104.1 229.3,99.5 235.0,97.9 240.6,97.7 246.3,96.4 252.0,96.3 257.7,96.3 263.4,95.8 269.1,95.7 274.8,95.6 280.5,95.1 286.1,92.5 291.8,92.4 297.5,91.8 303.2,90.9 308.9,90.7 314.6,90.4 320.3,90.2 326.0,90.0 331.7,89.8 337.3,89.7 343.0,89.6 348.7,87.9 354.4,87.6 360.1,87.5 365.8,87.4 371.5,87.3 377.2,87.2 382.8,86.2 388.5,86.1 394.2,85.9 399.9,85.9 405.6,84.5 411.3,84.2 417.0,84.0 422.7,81.7 428.3,81.6 434.0,81.1 439.7,79.0 445.4,78.8 451.1,78.8 456.8,78.6 462.5,78.5 468.2,78.5 473.9,78.2 479.5,78.2 485.2,78.2 490.9,77.9 496.6,77.7 502.3,76.4 508.0,74.0 513.7,74.0 519.4,73.9 525.0,73.9 530.7,72.7 536.4,72.7 542.1,72.6 547.8,71.8 553.5,71.8 559.2,68.5 564.9,67.0 570.6,66.9 576.2,66.9 581.9,66.8 587.6,66.4 593.3,66.2 599.0,66.2 604.7,66.2 610.4,66.2 616.1,65.7 621.7,65.0 627.4,64.9 633.1,64.8 638.8,64.7 644.5,64.6 650.2,64.5 655.9,64.4 661.6,62.3 667.2,62.3 672.9,62.2 678.6,61.8 684.3,61.4 690.0,61.3 690.0,270.0 70.0,270.0" fill="#58a6ff" opacity="0.15"/>
  <polyline points="70.0,198.3 75.7,198.3 81.4,197.4 87.1,186.7 92.8,179.9 98.4,178.0 104.1,176.4 109.8,170.9 115.5,170.5 121.2,168.9 126.9,168.5 132.6,168.3 138.3,160.1 143.9,149.3 149.6,140.2 155.3,136.8 161.0,133.3 166.7,130.5 172.4,129.7 178.1,129.6 183.8,127.9 189.4,126.3 195.1,122.3 200.8,118.4 206.5,115.4 212.2,112.5 217.9,111.5 223.6,104.1 229.3,99.5 235.0,97.9 240.6,97.7 246.3,96.4 252.0,96.3 257.7,96.3 263.4,95.8 269.1,95.7 274.8,95.6 280.5,95.1 286.1,92.5 291.8,92.4 297.5,91.8 303.2,90.9 308.9,90.7 314.6,90.4 320.3,90.2 326.0,90.0 331.7,89.8 337.3,89.7 343.0,89.6 348.7,87.9 354.4,87.6 360.1,87.5 365.8,87.4 371.5,87.3 377.2,87.2 382.8,86.2 388.5,86.1 394.2,85.9 399.9,85.9 405.6,84.5 411.3,84.2 417.0,84.0 422.7,81.7 428.3,81.6 434.0,81.1 439.7,79.0 445.4,78.8 451.1,78.8 456.8,78.6 462.5,78.5 468.2,78.5 473.9,78.2 479.5,78.2 485.2,78.2 490.9,77.9 496.6,77.7 502.3,76.4 508.0,74.0 513.7,74.0 519.4,73.9 525.0,73.9 530.7,72.7 536.4,72.7 542.1,72.6 547.8,71.8 553.5,71.8 559.2,68.5 564.9,67.0 570.6,66.9 576.2,66.9 581.9,66.8 587.6,66.4 593.3,66.2 599.0,66.2 604.7,66.2 610.4,66.2 616.1,65.7 621.7,65.0 627.4,64.9 633.1,64.8 638.8,64.7 644.5,64.6 650.2,64.5 655.9,64.4 661.6,62.3 667.2,62.3 672.9,62.2 678.6,61.8 684.3,61.4 690.0,61.3" fill="none" stroke="#58a6ff" stroke-width="2.5" stroke-linejoin="round" stroke-linecap="round"/>
  <text x="70.0" y="310" text-anchor="middle" fill="#8b949e" font-family="sans-serif" font-size="11">03-12</text><text x="223.6" y="310" text-anchor="middle" fill="#8b949e" font-family="sans-serif" font-size="11">04-08</text><text x="377.2" y="310" text-anchor="middle" fill="#8b949e" font-family="sans-serif" font-size="11">05-05</text><text x="530.7" y="310" text-anchor="middle" fill="#8b949e" font-family="sans-serif" font-size="11">06-01</text><text x="684.3" y="310" text-anchor="middle" fill="#8b949e" font-family="sans-serif" font-size="11">06-28</text>
  <text x="694.0" y="53.3" fill="#58a6ff" font-family="sans-serif" font-size="12" font-weight="bold">11.5K</text>
</svg>