<svg xmlns="http://www.w3.org/2000/svg" width="720" height="320">
  <rect width="720" height="320" fill="#0d1117" rx="8"/>
  <text x="70" y="22" fill="#c9d1d9" font-family="sans-serif" font-size="14" font-weight="bold">Total Downloads Over Time</text>
  <line x1="70" y1="270.0" x2="690" y2="270.0" stroke="#21262d" stroke-width="1"/><text x="62" y="274.0" text-anchor="end" fill="#8b949e" font-family="sans-serif" font-size="11">0</text><line x1="70" y1="210.0" x2="690" y2="210.0" stroke="#21262d" stroke-width="1"/><text x="62" y="214.0" text-anchor="end" fill="#8b949e" font-family="sans-serif" font-size="11">2.7K</text><line x1="70" y1="150.0" x2="690" y2="150.0" stroke="#21262d" stroke-width="1"/><text x="62" y="154.0" text-anchor="end" fill="#8b949e" font-family="sans-serif" font-size="11">5.5K</text><line x1="70" y1="90.0" x2="690" y2="90.0" stroke="#21262d" stroke-width="1"/><text x="62" y="94.0" text-anchor="end" fill="#8b949e" font-family="sans-serif" font-size="11">8.2K</text><line x1="70" y1="30.0" x2="690" y2="30.0" stroke="#21262d" stroke-width="1"/><text x="62" y="34.0" text-anchor="end" fill="#8b949e" font-family="sans-serif" font-size="11">11.0K</text>
  <polygon points="70.0,183.9 89.4,183.8 108.8,182.7 128.1,169.9 147.5,161.7 166.9,159.5 186.2,157.6 205.6,150.9 225.0,150.5 244.4,148.5 263.8,148.0 283.1,147.8 302.5,138.0 321.9,125.0 341.2,114.0 360.6,109.9 380.0,105.7 399.4,102.4 418.8,101.4 438.1,101.2 457.5,99.3 476.9,97.4 496.2,92.5 515.6,87.8 535.0,84.2 554.4,80.7 573.8,79.6 593.1,70.6 612.5,65.1 631.9,63.2 651.2,62.9 670.6,61.4 690.0,61.3 690.0,270.0 70.0,270.0" fill="#58a6ff" opacity="0.15"/>
  <polyline points="70.0,183.9 89.4,183.8 108.8,182.7 128.1,169.9 147.5,161.7 166.9,159.5 186.2,157.6 205.6,150.9 225.0,150.5 244.4,148.5 263.8,148.0 283.1,147.8 302.5,138.0 321.9,125.0 341.2,114.0 360.6,109.9 380.0,105.7 399.4,102.4 418.8,101.4 438.1,101.2 457.5,99.3 476.9,97.4 496.2,92.5 515.6,87.8 535.0,84.2 554.4,80.7 573.8,79.6 593.1,70.6 612.5,65.1 631.9,63.2 651.2,62.9 670.6,61.4 690.0,61.3" fill="none" stroke="#58a6ff" stroke-width="2.5" stroke-linejoin="round" stroke-linecap="round"/>
  <text x="70.0" y="310" text-anchor="middle" fill="#8b949e" font-family="sans-serif" font-size="11">03-12</text><text x="225.0" y="310" text-anchor="middle" fill="#8b949e" font-family="sans-serif" font-size="11">03-20</text><text x="380.0" y="310" text-anchor="middle" fill="#8b949e" font-family="sans-serif" font-size="11">03-28</text><text x="535.0" y="310" text-anchor="middle" fill="#8b949e" font-family="sans-serif" font-size="11">04-05</text><text x="690.0" y="310" text-anchor="middle" fill="#8b949e" font-family="sans-serif" font-size="11">04-13</text>
  <text x="694.0" y="53.3" fill="#58a6ff" font-family="sans-serif" font-size="12" font-weight="bold">9.6K</text>
</svg>