<svg xmlns="http://www.w3.org/2000/svg" width="720" height="320">
  <rect width="720" height="320" fill="#0d1117" rx="8"/>
  <text x="70" y="22" fill="#c9d1d9" font-family="sans-serif" font-size="14" font-weight="bold">Total Downloads Over Time</text>
  <line x1="70" y1="270.0" x2="690" y2="270.0" stroke="#21262d" stroke-width="1"/><text x="62" y="274.0" text-anchor="end" fill="#8b949e" font-family="sans-serif" font-size="11">0</text><line x1="70" y1="210.0" x2="690" y2="210.0" stroke="#21262d" stroke-width="1"/><text x="62" y="214.0" text-anchor="end" fill="#8b949e" font-family="sans-serif" font-size="11">3.4K</text><line x1="70" y1="150.0" x2="690" y2="150.0" stroke="#21262d" stroke-width="1"/><text x="62" y="154.0" text-anchor="end" fill="#8b949e" font-family="sans-serif" font-size="11">6.7K</text><line x1="70" y1="90.0" x2="690" y2="90.0" stroke="#21262d" stroke-width="1"/><text x="62" y="94.0" text-anchor="end" fill="#8b949e" font-family="sans-serif" font-size="11">10.1K</text><line x1="70" y1="30.0" x2="690" y2="30.0" stroke="#21262d" stroke-width="1"/><text x="62" y="34.0" text-anchor="end" fill="#8b949e" font-family="sans-serif" font-size="11">13.5K</text>
  <polygon points="70.0,199.8 75.2,199.8 80.4,198.8 85.6,188.4 90.8,181.8 96.1,179.9 101.3,178.4 106.5,172.9 111.7,172.6 116.9,171.0 122.1,170.5 127.3,170.4 132.5,162.4 137.7,151.8 142.9,142.9 148.2,139.5 153.4,136.1 158.6,133.4 163.8,132.6 169.0,132.4 174.2,130.8 179.4,129.3 184.6,125.3 189.8,121.4 195.0,118.6 200.3,115.7 205.5,114.8 210.7,107.5 215.9,103.0 221.1,101.4 226.3,101.2 231.5,100.0 236.7,99.9 241.9,99.9 247.1,99.4 252.4,99.2 257.6,99.1 262.8,98.7 268.0,96.1 273.2,96.0 278.4,95.5 283.6,94.5 288.8,94.4 294.0,94.1 299.2,93.9 304.5,93.6 309.7,93.5 314.9,93.4 320.1,93.3 325.3,91.6 330.5,91.3 335.7,91.3 340.9,91.1 346.1,91.0 351.3,91.0 356.6,90.0 361.8,89.9 367.0,89.7 372.2,89.6 377.4,88.3 382.6,88.0 387.8,87.8 393.0,85.5 398.2,85.4 403.4,85.0 408.7,82.9 413.9,82.7 419.1,82.7 424.3,82.6 429.5,82.4 434.7,82.4 439.9,82.1 445.1,82.1 450.3,82.1 455.5,81.8 460.8,81.6 466.0,80.4 471.2,78.0 476.4,78.0 481.6,77.9 486.8,77.9 492.0,76.7 497.2,76.7 502.4,76.6 507.6,75.9 512.9,75.9 518.1,72.6 523.3,71.1 528.5,71.1 533.7,71.0 538.9,70.9 544.1,70.6 549.3,70.4 554.5,70.4 559.7,70.4 565.0,70.3 570.2,69.9 575.4,69.2 580.6,69.1 585.8,68.9 591.0,68.9 596.2,68.8 601.4,68.7 606.6,68.6 611.8,66.5 617.1,66.5 622.3,66.5 627.5,66.1 632.7,65.7 637.9,65.6 643.1,65.0 648.3,64.9 653.5,63.7 658.7,63.5 663.9,63.3 669.2,62.8 674.4,62.6 679.6,62.4 684.8,61.8 690.0,61.3 690.0,270.0 70.0,270.0" fill="#58a6ff" opacity="0.15"/>
  <polyline points="70.0,199.8 75.2,199.8 80.4,198.8 85.6,188.4 90.8,181.8 96.1,179.9 101.3,178.4 106.5,172.9 111.7,172.6 116.9,171.0 122.1,170.5 127.3,170.4 132.5,162.4 137.7,151.8 142.9,142.9 148.2,139.5 153.4,136.1 158.6,133.4 163.8,132.6 169.0,132.4 174.2,130.8 179.4,129.3 184.6,125.3 189.8,121.4 195.0,118.6 200.3,115.7 205.5,114.8 210.7,107.5 215.9,103.0 221.1,101.4 226.3,101.2 231.5,100.0 236.7,99.9 241.9,99.9 247.1,99.4 252.4,99.2 257.6,99.1 262.8,98.7 268.0,96.1 273.2,96.0 278.4,95.5 283.6,94.5 288.8,94.4 294.0,94.1 299.2,93.9 304.5,93.6 309.7,93.5 314.9,93.4 320.1,93.3 325.3,91.6 330.5,91.3 335.7,91.3 340.9,91.1 346.1,91.0 351.3,91.0 356.6,90.0 361.8,89.9 367.0,89.7 372.2,89.6 377.4,88.3 382.6,88.0 387.8,87.8 393.0,85.5 398.2,85.4 403.4,85.0 408.7,82.9 413.9,82.7 419.1,82.7 424.3,82.6 429.5,82.4 434.7,82.4 439.9,82.1 445.1,82.1 450.3,82.1 455.5,81.8 460.8,81.6 466.0,80.4 471.2,78.0 476.4,78.0 481.6,77.9 486.8,77.9 492.0,76.7 497.2,76.7 502.4,76.6 507.6,75.9 512.9,75.9 518.1,72.6 523.3,71.1 528.5,71.1 533.7,71.0 538.9,70.9 544.1,70.6 549.3,70.4 554.5,70.4 559.7,70.4 565.0,70.3 570.2,69.9 575.4,69.2 580.6,69.1 585.8,68.9 591.0,68.9 596.2,68.8 601.4,68.7 606.6,68.6 611.8,66.5 617.1,66.5 622.3,66.5 627.5,66.1 632.7,65.7 637.9,65.6 643.1,65.0 648.3,64.9 653.5,63.7 658.7,63.5 663.9,63.3 669.2,62.8 674.4,62.6 679.6,62.4 684.8,61.8 690.0,61.3" fill="none" stroke="#58a6ff" stroke-width="2.5" stroke-linejoin="round" stroke-linecap="round"/>
  <text x="70.0" y="310" text-anchor="middle" fill="#8b949e" font-family="sans-serif" font-size="11">03-12</text><text x="221.1" y="310" text-anchor="middle" fill="#8b949e" font-family="sans-serif" font-size="11">04-10</text><text x="372.2" y="310" text-anchor="middle" fill="#8b949e" font-family="sans-serif" font-size="11">05-09</text><text x="523.3" y="310" text-anchor="middle" fill="#8b949e" font-family="sans-serif" font-size="11">06-07</text><text x="674.4" y="310" text-anchor="middle" fill="#8b949e" font-family="sans-serif" font-size="11">07-06</text>
  <text x="694.0" y="53.3" fill="#58a6ff" font-family="sans-serif" font-size="12" font-weight="bold">11.7K</text>
</svg>