<svg xmlns="http://www.w3.org/2000/svg" width="720" height="320">
  <rect width="720" height="320" fill="#0d1117" rx="8"/>
  <text x="70" y="22" fill="#c9d1d9" font-family="sans-serif" font-size="14" font-weight="bold">Total Downloads Over Time</text>
  <line x1="70" y1="270.0" x2="690" y2="270.0" stroke="#21262d" stroke-width="1"/><text x="62" y="274.0" text-anchor="end" fill="#8b949e" font-family="sans-serif" font-size="11">0</text><line x1="70" y1="210.0" x2="690" y2="210.0" stroke="#21262d" stroke-width="1"/><text x="62" y="214.0" text-anchor="end" fill="#8b949e" font-family="sans-serif" font-size="11">3.0K</text><line x1="70" y1="150.0" x2="690" y2="150.0" stroke="#21262d" stroke-width="1"/><text x="62" y="154.0" text-anchor="end" fill="#8b949e" font-family="sans-serif" font-size="11">6.1K</text><line x1="70" y1="90.0" x2="690" y2="90.0" stroke="#21262d" stroke-width="1"/><text x="62" y="94.0" text-anchor="end" fill="#8b949e" font-family="sans-serif" font-size="11">9.1K</text><line x1="70" y1="30.0" x2="690" y2="30.0" stroke="#21262d" stroke-width="1"/><text x="62" y="34.0" text-anchor="end" fill="#8b949e" font-family="sans-serif" font-size="11">12.1K</text>
  <polygon points="70.0,192.1 78.4,192.1 86.8,191.1 95.1,179.5 103.5,172.1 111.9,170.1 120.3,168.3 128.6,162.3 137.0,161.9 145.4,160.2 153.8,159.7 162.2,159.5 170.5,150.6 178.9,138.9 187.3,129.0 195.7,125.2 204.1,121.5 212.4,118.5 220.8,117.6 229.2,117.4 237.6,115.6 245.9,113.9 254.3,109.5 262.7,105.2 271.1,102.1 279.5,98.9 287.8,97.8 296.2,89.7 304.6,84.8 313.0,83.1 321.4,82.8 329.7,81.4 338.1,81.3 346.5,81.3 354.9,80.7 363.2,80.6 371.6,80.5 380.0,80.0 388.4,77.1 396.8,77.0 405.1,76.4 413.5,75.4 421.9,75.2 430.3,74.9 438.6,74.6 447.0,74.4 455.4,74.2 463.8,74.1 472.2,74.0 480.5,72.2 488.9,71.8 497.3,71.8 505.7,71.6 514.1,71.5 522.4,71.4 530.8,70.4 539.2,70.2 547.6,70.0 555.9,70.0 564.3,68.5 572.7,68.2 581.1,67.9 589.5,65.4 597.8,65.3 606.2,64.8 614.6,62.4 623.0,62.3 631.4,62.2 639.7,62.1 648.1,62.0 656.5,62.0 664.9,61.6 673.2,61.6 681.6,61.6 690.0,61.3 690.0,270.0 70.0,270.0" fill="#58a6ff" opacity="0.15"/>
  <polyline points="70.0,192.1 78.4,192.1 86.8,191.1 95.1,179.5 103.5,172.1 111.9,170.1 120.3,168.3 128.6,162.3 137.0,161.9 145.4,160.2 153.8,159.7 162.2,159.5 170.5,150.6 178.9,138.9 187.3,129.0 195.7,125.2 204.1,121.5 212.4,118.5 220.8,117.6 229.2,117.4 237.6,115.6 245.9,113.9 254.3,109.5 262.7,105.2 271.1,102.1 279.5,98.9 287.8,97.8 296.2,89.7 304.6,84.8 313.0,83.1 321.4,82.8 329.7,81.4 338.1,81.3 346.5,81.3 354.9,80.7 363.2,80.6 371.6,80.5 380.0,80.0 388.4,77.1 396.8,77.0 405.1,76.4 413.5,75.4 421.9,75.2 430.3,74.9 438.6,74.6 447.0,74.4 455.4,74.2 463.8,74.1 472.2,74.0 480.5,72.2 488.9,71.8 497.3,71.8 505.7,71.6 514.1,71.5 522.4,71.4 530.8,70.4 539.2,70.2 547.6,70.0 555.9,70.0 564.3,68.5 572.7,68.2 581.1,67.9 589.5,65.4 597.8,65.3 606.2,64.8 614.6,62.4 623.0,62.3 631.4,62.2 639.7,62.1 648.1,62.0 656.5,62.0 664.9,61.6 673.2,61.6 681.6,61.6 690.0,61.3" fill="none" stroke="#58a6ff" stroke-width="2.5" stroke-linejoin="round" stroke-linecap="round"/>
  <text x="70.0" y="310" text-anchor="middle" fill="#8b949e" font-family="sans-serif" font-size="11">03-12</text><text x="220.8" y="310" text-anchor="middle" fill="#8b949e" font-family="sans-serif" font-size="11">03-30</text><text x="371.6" y="310" text-anchor="middle" fill="#8b949e" font-family="sans-serif" font-size="11">04-17</text><text x="522.4" y="310" text-anchor="middle" fill="#8b949e" font-family="sans-serif" font-size="11">05-05</text><text x="673.2" y="310" text-anchor="middle" fill="#8b949e" font-family="sans-serif" font-size="11">05-23</text>
  <text x="694.0" y="53.3" fill="#58a6ff" font-family="sans-serif" font-size="12" font-weight="bold">10.6K</text>
</svg>