<svg xmlns="http://www.w3.org/2000/svg" width="720" height="320">
  <rect width="720" height="320" fill="#0d1117" rx="8"/>
  <text x="70" y="22" fill="#c9d1d9" font-family="sans-serif" font-size="14" font-weight="bold">Total Downloads Over Time</text>
  <line x1="70" y1="270.0" x2="690" y2="270.0" stroke="#21262d" stroke-width="1"/><text x="62" y="274.0" text-anchor="end" fill="#8b949e" font-family="sans-serif" font-size="11">0</text><line x1="70" y1="210.0" x2="690" y2="210.0" stroke="#21262d" stroke-width="1"/><text x="62" y="214.0" text-anchor="end" fill="#8b949e" font-family="sans-serif" font-size="11">2.9K</text><line x1="70" y1="150.0" x2="690" y2="150.0" stroke="#21262d" stroke-width="1"/><text x="62" y="154.0" text-anchor="end" fill="#8b949e" font-family="sans-serif" font-size="11">5.9K</text><line x1="70" y1="90.0" x2="690" y2="90.0" stroke="#21262d" stroke-width="1"/><text x="62" y="94.0" text-anchor="end" fill="#8b949e" font-family="sans-serif" font-size="11">8.8K</text><line x1="70" y1="30.0" x2="690" y2="30.0" stroke="#21262d" stroke-width="1"/><text x="62" y="34.0" text-anchor="end" fill="#8b949e" font-family="sans-serif" font-size="11">11.8K</text>
  <polygon points="70.0,189.5 80.3,189.4 90.7,188.4 101.0,176.4 111.3,168.8 121.7,166.7 132.0,164.9 142.3,158.6 152.7,158.3 163.0,156.4 173.3,155.9 183.7,155.8 194.0,146.6 204.3,134.4 214.7,124.2 225.0,120.3 235.3,116.4 245.7,113.3 256.0,112.4 266.3,112.2 276.7,110.4 287.0,108.6 297.3,104.0 307.7,99.6 318.0,96.4 328.3,93.0 338.7,92.0 349.0,83.6 359.3,78.5 369.7,76.7 380.0,76.4 390.3,75.0 400.7,74.9 411.0,74.9 421.3,74.3 431.7,74.2 442.0,74.0 452.3,73.5 462.7,70.6 473.0,70.5 483.3,69.9 493.7,68.8 504.0,68.6 514.3,68.3 524.7,68.0 535.0,67.7 545.3,67.5 555.7,67.5 566.0,67.3 576.3,65.5 586.7,65.1 597.0,65.0 607.3,64.9 617.7,64.8 628.0,64.7 638.3,63.6 648.7,63.4 659.0,63.2 669.3,63.2 679.7,61.7 690.0,61.3 690.0,270.0 70.0,270.0" fill="#58a6ff" opacity="0.15"/>
  <polyline points="70.0,189.5 80.3,189.4 90.7,188.4 101.0,176.4 111.3,168.8 121.7,166.7 132.0,164.9 142.3,158.6 152.7,158.3 163.0,156.4 173.3,155.9 183.7,155.8 194.0,146.6 204.3,134.4 214.7,124.2 225.0,120.3 235.3,116.4 245.7,113.3 256.0,112.4 266.3,112.2 276.7,110.4 287.0,108.6 297.3,104.0 307.7,99.6 318.0,96.4 328.3,93.0 338.7,92.0 349.0,83.6 359.3,78.5 369.7,76.7 380.0,76.4 390.3,75.0 400.7,74.9 411.0,74.9 421.3,74.3 431.7,74.2 442.0,74.0 452.3,73.5 462.7,70.6 473.0,70.5 483.3,69.9 493.7,68.8 504.0,68.6 514.3,68.3 524.7,68.0 535.0,67.7 545.3,67.5 555.7,67.5 566.0,67.3 576.3,65.5 586.7,65.1 597.0,65.0 607.3,64.9 617.7,64.8 628.0,64.7 638.3,63.6 648.7,63.4 659.0,63.2 669.3,63.2 679.7,61.7 690.0,61.3" fill="none" stroke="#58a6ff" stroke-width="2.5" stroke-linejoin="round" stroke-linecap="round"/>
  <text x="70.0" y="310" text-anchor="middle" fill="#8b949e" font-family="sans-serif" font-size="11">03-12</text><text x="225.0" y="310" text-anchor="middle" fill="#8b949e" font-family="sans-serif" font-size="11">03-27</text><text x="380.0" y="310" text-anchor="middle" fill="#8b949e" font-family="sans-serif" font-size="11">04-11</text><text x="535.0" y="310" text-anchor="middle" fill="#8b949e" font-family="sans-serif" font-size="11">04-26</text><text x="690.0" y="310" text-anchor="middle" fill="#8b949e" font-family="sans-serif" font-size="11">05-11</text>
  <text x="694.0" y="53.3" fill="#58a6ff" font-family="sans-serif" font-size="12" font-weight="bold">10.2K</text>
</svg>