<svg xmlns="http://www.w3.org/2000/svg" width="720" height="320">
  <rect width="720" height="320" fill="#0d1117" rx="8"/>
  <text x="70" y="22" fill="#c9d1d9" font-family="sans-serif" font-size="14" font-weight="bold">Total Downloads Over Time</text>
  <line x1="70" y1="270.0" x2="690" y2="270.0" stroke="#21262d" stroke-width="1"/><text x="62" y="274.0" text-anchor="end" fill="#8b949e" font-family="sans-serif" font-size="11">0</text><line x1="70" y1="210.0" x2="690" y2="210.0" stroke="#21262d" stroke-width="1"/><text x="62" y="214.0" text-anchor="end" fill="#8b949e" font-family="sans-serif" font-size="11">2.1K</text><line x1="70" y1="150.0" x2="690" y2="150.0" stroke="#21262d" stroke-width="1"/><text x="62" y="154.0" text-anchor="end" fill="#8b949e" font-family="sans-serif" font-size="11">4.2K</text><line x1="70" y1="90.0" x2="690" y2="90.0" stroke="#21262d" stroke-width="1"/><text x="62" y="94.0" text-anchor="end" fill="#8b949e" font-family="sans-serif" font-size="11">6.3K</text><line x1="70" y1="30.0" x2="690" y2="30.0" stroke="#21262d" stroke-width="1"/><text x="62" y="34.0" text-anchor="end" fill="#8b949e" font-family="sans-serif" font-size="11">8.4K</text>
  <polygon points="70.0,157.7 111.3,157.7 152.7,156.2 194.0,139.5 235.3,128.9 276.7,125.9 318.0,123.5 359.3,114.7 400.7,114.2 442.0,111.6 483.3,111.0 524.7,110.7 566.0,97.9 607.3,81.0 648.7,66.7 690.0,61.3 690.0,270.0 70.0,270.0" fill="#58a6ff" opacity="0.15"/>
  <polyline points="70.0,157.7 111.3,157.7 152.7,156.2 194.0,139.5 235.3,128.9 276.7,125.9 318.0,123.5 359.3,114.7 400.7,114.2 442.0,111.6 483.3,111.0 524.7,110.7 566.0,97.9 607.3,81.0 648.7,66.7 690.0,61.3" fill="none" stroke="#58a6ff" stroke-width="2.5" stroke-linejoin="round" stroke-linecap="round"/>
  <text x="70.0" y="310" text-anchor="middle" fill="#8b949e" font-family="sans-serif" font-size="11">03-12</text><text x="194.0" y="310" text-anchor="middle" fill="#8b949e" font-family="sans-serif" font-size="11">03-15</text><text x="318.0" y="310" text-anchor="middle" fill="#8b949e" font-family="sans-serif" font-size="11">03-18</text><text x="442.0" y="310" text-anchor="middle" fill="#8b949e" font-family="sans-serif" font-size="11">03-21</text><text x="566.0" y="310" text-anchor="middle" fill="#8b949e" font-family="sans-serif" font-size="11">03-24</text><text x="690.0" y="310" text-anchor="middle" fill="#8b949e" font-family="sans-serif" font-size="11">03-27</text>
  <text x="694.0" y="53.3" fill="#58a6ff" font-family="sans-serif" font-size="12" font-weight="bold">7.3K</text>
</svg>