<svg xmlns="http://www.w3.org/2000/svg" width="720" height="320">
  <rect width="720" height="320" fill="#0d1117" rx="8"/>
  <text x="70" y="22" fill="#c9d1d9" font-family="sans-serif" font-size="14" font-weight="bold">Total Downloads Over Time</text>
  <line x1="70" y1="270.0" x2="690" y2="270.0" stroke="#21262d" stroke-width="1"/><text x="62" y="274.0" text-anchor="end" fill="#8b949e" font-family="sans-serif" font-size="11">0</text><line x1="70" y1="210.0" x2="690" y2="210.0" stroke="#21262d" stroke-width="1"/><text x="62" y="214.0" text-anchor="end" fill="#8b949e" font-family="sans-serif" font-size="11">3.3K</text><line x1="70" y1="150.0" x2="690" y2="150.0" stroke="#21262d" stroke-width="1"/><text x="62" y="154.0" text-anchor="end" fill="#8b949e" font-family="sans-serif" font-size="11">6.7K</text><line x1="70" y1="90.0" x2="690" y2="90.0" stroke="#21262d" stroke-width="1"/><text x="62" y="94.0" text-anchor="end" fill="#8b949e" font-family="sans-serif" font-size="11">10.0K</text><line x1="70" y1="30.0" x2="690" y2="30.0" stroke="#21262d" stroke-width="1"/><text x="62" y="34.0" text-anchor="end" fill="#8b949e" font-family="sans-serif" font-size="11">13.3K</text>
  <polygon points="70.0,199.0 75.5,199.0 81.0,198.1 86.5,187.5 91.9,180.8 97.4,178.9 102.9,177.4 108.4,171.8 113.9,171.5 119.4,169.9 124.9,169.5 130.4,169.3 135.8,161.2 141.3,150.5 146.8,141.5 152.3,138.1 157.8,134.7 163.3,131.9 168.8,131.1 174.2,130.9 179.7,129.3 185.2,127.8 190.7,123.7 196.2,119.9 201.7,117.0 207.2,114.0 212.7,113.1 218.1,105.7 223.6,101.2 229.1,99.6 234.6,99.4 240.1,98.2 245.6,98.1 251.1,98.0 256.5,97.5 262.0,97.4 267.5,97.3 273.0,96.8 278.5,94.2 284.0,94.2 289.5,93.6 295.0,92.7 300.4,92.5 305.9,92.2 311.4,92.0 316.9,91.7 322.4,91.6 327.9,91.5 333.4,91.4 338.8,89.7 344.3,89.4 349.8,89.3 355.3,89.2 360.8,89.1 366.3,89.1 371.8,88.1 377.3,88.0 382.7,87.7 388.2,87.7 393.7,86.4 399.2,86.1 404.7,85.8 410.2,83.6 415.7,83.4 421.2,83.0 426.6,80.9 432.1,80.7 437.6,80.7 443.1,80.5 448.6,80.4 454.1,80.4 459.6,80.1 465.0,80.1 470.5,80.1 476.0,79.8 481.5,79.6 487.0,78.4 492.5,75.9 498.0,75.9 503.5,75.8 508.9,75.8 514.4,74.6 519.9,74.6 525.4,74.5 530.9,73.8 536.4,73.8 541.9,70.5 547.3,69.0 552.8,69.0 558.3,68.9 563.8,68.8 569.3,68.4 574.8,68.3 580.3,68.3 585.8,68.3 591.2,68.2 596.7,67.8 602.2,67.0 607.7,66.9 613.2,66.8 618.7,66.7 624.2,66.6 629.6,66.5 635.1,66.5 640.6,64.4 646.1,64.3 651.6,64.3 657.1,63.9 662.6,63.5 668.1,63.4 673.5,62.8 679.0,62.7 684.5,61.5 690.0,61.3 690.0,270.0 70.0,270.0" fill="#58a6ff" opacity="0.15"/>
  <polyline points="70.0,199.0 75.5,199.0 81.0,198.1 86.5,187.5 91.9,180.8 97.4,178.9 102.9,177.4 108.4,171.8 113.9,171.5 119.4,169.9 124.9,169.5 130.4,169.3 135.8,161.2 141.3,150.5 146.8,141.5 152.3,138.1 157.8,134.7 163.3,131.9 168.8,131.1 174.2,130.9 179.7,129.3 185.2,127.8 190.7,123.7 196.2,119.9 201.7,117.0 207.2,114.0 212.7,113.1 218.1,105.7 223.6,101.2 229.1,99.6 234.6,99.4 240.1,98.2 245.6,98.1 251.1,98.0 256.5,97.5 262.0,97.4 267.5,97.3 273.0,96.8 278.5,94.2 284.0,94.2 289.5,93.6 295.0,92.7 300.4,92.5 305.9,92.2 311.4,92.0 316.9,91.7 322.4,91.6 327.9,91.5 333.4,91.4 338.8,89.7 344.3,89.4 349.8,89.3 355.3,89.2 360.8,89.1 366.3,89.1 371.8,88.1 377.3,88.0 382.7,87.7 388.2,87.7 393.7,86.4 399.2,86.1 404.7,85.8 410.2,83.6 415.7,83.4 421.2,83.0 426.6,80.9 432.1,80.7 437.6,80.7 443.1,80.5 448.6,80.4 454.1,80.4 459.6,80.1 465.0,80.1 470.5,80.1 476.0,79.8 481.5,79.6 487.0,78.4 492.5,75.9 498.0,75.9 503.5,75.8 508.9,75.8 514.4,74.6 519.9,74.6 525.4,74.5 530.9,73.8 536.4,73.8 541.9,70.5 547.3,69.0 552.8,69.0 558.3,68.9 563.8,68.8 569.3,68.4 574.8,68.3 580.3,68.3 585.8,68.3 591.2,68.2 596.7,67.8 602.2,67.0 607.7,66.9 613.2,66.8 618.7,66.7 624.2,66.6 629.6,66.5 635.1,66.5 640.6,64.4 646.1,64.3 651.6,64.3 657.1,63.9 662.6,63.5 668.1,63.4 673.5,62.8 679.0,62.7 684.5,61.5 690.0,61.3" fill="none" stroke="#58a6ff" stroke-width="2.5" stroke-linejoin="round" stroke-linecap="round"/>
  <text x="70.0" y="310" text-anchor="middle" fill="#8b949e" font-family="sans-serif" font-size="11">03-12</text><text x="223.6" y="310" text-anchor="middle" fill="#8b949e" font-family="sans-serif" font-size="11">04-09</text><text x="377.3" y="310" text-anchor="middle" fill="#8b949e" font-family="sans-serif" font-size="11">05-07</text><text x="530.9" y="310" text-anchor="middle" fill="#8b949e" font-family="sans-serif" font-size="11">06-04</text><text x="684.5" y="310" text-anchor="middle" fill="#8b949e" font-family="sans-serif" font-size="11">07-02</text>
  <text x="694.0" y="53.3" fill="#58a6ff" font-family="sans-serif" font-size="12" font-weight="bold">11.6K</text>
</svg>