<svg xmlns="http://www.w3.org/2000/svg" width="720" height="320">
  <rect width="720" height="320" fill="#0d1117" rx="8"/>
  <text x="70" y="22" fill="#c9d1d9" font-family="sans-serif" font-size="14" font-weight="bold">Total Downloads Over Time</text>
  <line x1="70" y1="270.0" x2="690" y2="270.0" stroke="#21262d" stroke-width="1"/><text x="62" y="274.0" text-anchor="end" fill="#8b949e" font-family="sans-serif" font-size="11">0</text><line x1="70" y1="210.0" x2="690" y2="210.0" stroke="#21262d" stroke-width="1"/><text x="62" y="214.0" text-anchor="end" fill="#8b949e" font-family="sans-serif" font-size="11">3.0K</text><line x1="70" y1="150.0" x2="690" y2="150.0" stroke="#21262d" stroke-width="1"/><text x="62" y="154.0" text-anchor="end" fill="#8b949e" font-family="sans-serif" font-size="11">6.0K</text><line x1="70" y1="90.0" x2="690" y2="90.0" stroke="#21262d" stroke-width="1"/><text x="62" y="94.0" text-anchor="end" fill="#8b949e" font-family="sans-serif" font-size="11">8.9K</text><line x1="70" y1="30.0" x2="690" y2="30.0" stroke="#21262d" stroke-width="1"/><text x="62" y="34.0" text-anchor="end" fill="#8b949e" font-family="sans-serif" font-size="11">11.9K</text>
  <polygon points="70.0,190.5 80.0,190.5 90.0,189.5 100.0,177.7 110.0,170.2 120.0,168.1 130.0,166.3 140.0,160.1 150.0,159.8 160.0,157.9 170.0,157.5 180.0,157.3 190.0,148.2 200.0,136.3 210.0,126.2 220.0,122.3 230.0,118.5 240.0,115.4 250.0,114.5 260.0,114.3 270.0,112.5 280.0,110.8 290.0,106.3 300.0,101.9 310.0,98.7 320.0,95.4 330.0,94.4 340.0,86.1 350.0,81.1 360.0,79.3 370.0,79.0 380.0,77.6 390.0,77.5 400.0,77.5 410.0,76.9 420.0,76.8 430.0,76.7 440.0,76.1 450.0,73.3 460.0,73.2 470.0,72.5 480.0,71.5 490.0,71.3 500.0,71.0 510.0,70.7 520.0,70.5 530.0,70.3 540.0,70.2 550.0,70.0 560.0,68.2 570.0,67.8 580.0,67.8 590.0,67.6 600.0,67.5 610.0,67.5 620.0,66.3 630.0,66.2 640.0,66.0 650.0,65.9 660.0,64.4 670.0,64.1 680.0,63.8 690.0,61.3 690.0,270.0 70.0,270.0" fill="#58a6ff" opacity="0.15"/>
  <polyline points="70.0,190.5 80.0,190.5 90.0,189.5 100.0,177.7 110.0,170.2 120.0,168.1 130.0,166.3 140.0,160.1 150.0,159.8 160.0,157.9 170.0,157.5 180.0,157.3 190.0,148.2 200.0,136.3 210.0,126.2 220.0,122.3 230.0,118.5 240.0,115.4 250.0,114.5 260.0,114.3 270.0,112.5 280.0,110.8 290.0,106.3 300.0,101.9 310.0,98.7 320.0,95.4 330.0,94.4 340.0,86.1 350.0,81.1 360.0,79.3 370.0,79.0 380.0,77.6 390.0,77.5 400.0,77.5 410.0,76.9 420.0,76.8 430.0,76.7 440.0,76.1 450.0,73.3 460.0,73.2 470.0,72.5 480.0,71.5 490.0,71.3 500.0,71.0 510.0,70.7 520.0,70.5 530.0,70.3 540.0,70.2 550.0,70.0 560.0,68.2 570.0,67.8 580.0,67.8 590.0,67.6 600.0,67.5 610.0,67.5 620.0,66.3 630.0,66.2 640.0,66.0 650.0,65.9 660.0,64.4 670.0,64.1 680.0,63.8 690.0,61.3" fill="none" stroke="#58a6ff" stroke-width="2.5" stroke-linejoin="round" stroke-linecap="round"/>
  <text x="70.0" y="310" text-anchor="middle" fill="#8b949e" font-family="sans-serif" font-size="11">03-12</text><text x="220.0" y="310" text-anchor="middle" fill="#8b949e" font-family="sans-serif" font-size="11">03-27</text><text x="370.0" y="310" text-anchor="middle" fill="#8b949e" font-family="sans-serif" font-size="11">04-11</text><text x="520.0" y="310" text-anchor="middle" fill="#8b949e" font-family="sans-serif" font-size="11">04-26</text><text x="670.0" y="310" text-anchor="middle" fill="#8b949e" font-family="sans-serif" font-size="11">05-11</text>
  <text x="694.0" y="53.3" fill="#58a6ff" font-family="sans-serif" font-size="12" font-weight="bold">10.4K</text>
</svg>