<svg xmlns="http://www.w3.org/2000/svg" width="720" height="320">
  <rect width="720" height="320" fill="#0d1117" rx="8"/>
  <text x="70" y="22" fill="#c9d1d9" font-family="sans-serif" font-size="14" font-weight="bold">Total Downloads Over Time</text>
  <line x1="70" y1="270.0" x2="690" y2="270.0" stroke="#21262d" stroke-width="1"/><text x="62" y="274.0" text-anchor="end" fill="#8b949e" font-family="sans-serif" font-size="11">0</text><line x1="70" y1="210.0" x2="690" y2="210.0" stroke="#21262d" stroke-width="1"/><text x="62" y="214.0" text-anchor="end" fill="#8b949e" font-family="sans-serif" font-size="11">3.1K</text><line x1="70" y1="150.0" x2="690" y2="150.0" stroke="#21262d" stroke-width="1"/><text x="62" y="154.0" text-anchor="end" fill="#8b949e" font-family="sans-serif" font-size="11">6.2K</text><line x1="70" y1="90.0" x2="690" y2="90.0" stroke="#21262d" stroke-width="1"/><text x="62" y="94.0" text-anchor="end" fill="#8b949e" font-family="sans-serif" font-size="11">9.3K</text><line x1="70" y1="30.0" x2="690" y2="30.0" stroke="#21262d" stroke-width="1"/><text x="62" y="34.0" text-anchor="end" fill="#8b949e" font-family="sans-serif" font-size="11">12.4K</text>
  <polygon points="70.0,193.7 77.8,193.7 85.7,192.7 93.5,181.3 101.4,174.1 109.2,172.1 117.1,170.4 124.9,164.5 132.8,164.2 140.6,162.4 148.5,161.9 156.3,161.8 164.2,153.1 172.0,141.6 179.9,131.9 187.7,128.2 195.6,124.5 203.4,121.6 211.3,120.7 219.1,120.5 227.0,118.8 234.8,117.1 242.7,112.8 250.5,108.6 258.4,105.5 266.2,102.4 274.1,101.4 281.9,93.5 289.7,88.6 297.6,86.9 305.4,86.6 313.3,85.3 321.1,85.2 329.0,85.2 336.8,84.6 344.7,84.5 352.5,84.4 360.4,83.9 368.2,81.1 376.1,81.0 383.9,80.4 391.8,79.4 399.6,79.2 407.5,78.9 415.3,78.7 423.2,78.4 431.0,78.2 438.9,78.1 446.7,78.0 454.6,76.2 462.4,75.9 470.3,75.8 478.1,75.7 485.9,75.6 493.8,75.5 501.6,74.5 509.5,74.3 517.3,74.1 525.2,74.1 533.0,72.6 540.9,72.3 548.7,72.0 556.6,69.6 564.4,69.5 572.3,69.0 580.1,66.7 588.0,66.5 595.8,66.5 603.7,66.4 611.5,66.2 619.4,66.2 627.2,65.9 635.1,65.9 642.9,65.9 650.8,65.6 658.6,65.3 666.5,64.0 674.3,61.4 682.2,61.4 690.0,61.3 690.0,270.0 70.0,270.0" fill="#58a6ff" opacity="0.15"/>
  <polyline points="70.0,193.7 77.8,193.7 85.7,192.7 93.5,181.3 101.4,174.1 109.2,172.1 117.1,170.4 124.9,164.5 132.8,164.2 140.6,162.4 148.5,161.9 156.3,161.8 164.2,153.1 172.0,141.6 179.9,131.9 187.7,128.2 195.6,124.5 203.4,121.6 211.3,120.7 219.1,120.5 227.0,118.8 234.8,117.1 242.7,112.8 250.5,108.6 258.4,105.5 266.2,102.4 274.1,101.4 281.9,93.5 289.7,88.6 297.6,86.9 305.4,86.6 313.3,85.3 321.1,85.2 329.0,85.2 336.8,84.6 344.7,84.5 352.5,84.4 360.4,83.9 368.2,81.1 376.1,81.0 383.9,80.4 391.8,79.4 399.6,79.2 407.5,78.9 415.3,78.7 423.2,78.4 431.0,78.2 438.9,78.1 446.7,78.0 454.6,76.2 462.4,75.9 470.3,75.8 478.1,75.7 485.9,75.6 493.8,75.5 501.6,74.5 509.5,74.3 517.3,74.1 525.2,74.1 533.0,72.6 540.9,72.3 548.7,72.0 556.6,69.6 564.4,69.5 572.3,69.0 580.1,66.7 588.0,66.5 595.8,66.5 603.7,66.4 611.5,66.2 619.4,66.2 627.2,65.9 635.1,65.9 642.9,65.9 650.8,65.6 658.6,65.3 666.5,64.0 674.3,61.4 682.2,61.4 690.0,61.3" fill="none" stroke="#58a6ff" stroke-width="2.5" stroke-linejoin="round" stroke-linecap="round"/>
  <text x="70.0" y="310" text-anchor="middle" fill="#8b949e" font-family="sans-serif" font-size="11">03-12</text><text x="219.1" y="310" text-anchor="middle" fill="#8b949e" font-family="sans-serif" font-size="11">03-31</text><text x="368.2" y="310" text-anchor="middle" fill="#8b949e" font-family="sans-serif" font-size="11">04-19</text><text x="517.3" y="310" text-anchor="middle" fill="#8b949e" font-family="sans-serif" font-size="11">05-08</text><text x="666.5" y="310" text-anchor="middle" fill="#8b949e" font-family="sans-serif" font-size="11">05-27</text>
  <text x="694.0" y="53.3" fill="#58a6ff" font-family="sans-serif" font-size="12" font-weight="bold">10.8K</text>
</svg>