<svg xmlns="http://www.w3.org/2000/svg" width="720" height="320">
  <rect width="720" height="320" fill="#0d1117" rx="8"/>
  <text x="70" y="22" fill="#c9d1d9" font-family="sans-serif" font-size="14" font-weight="bold">Total Downloads Over Time</text>
  <line x1="70" y1="270.0" x2="690" y2="270.0" stroke="#21262d" stroke-width="1"/><text x="62" y="274.0" text-anchor="end" fill="#8b949e" font-family="sans-serif" font-size="11">0</text><line x1="70" y1="210.0" x2="690" y2="210.0" stroke="#21262d" stroke-width="1"/><text x="62" y="214.0" text-anchor="end" fill="#8b949e" font-family="sans-serif" font-size="11">3.4K</text><line x1="70" y1="150.0" x2="690" y2="150.0" stroke="#21262d" stroke-width="1"/><text x="62" y="154.0" text-anchor="end" fill="#8b949e" font-family="sans-serif" font-size="11">6.9K</text><line x1="70" y1="90.0" x2="690" y2="90.0" stroke="#21262d" stroke-width="1"/><text x="62" y="94.0" text-anchor="end" fill="#8b949e" font-family="sans-serif" font-size="11">10.3K</text><line x1="70" y1="30.0" x2="690" y2="30.0" stroke="#21262d" stroke-width="1"/><text x="62" y="34.0" text-anchor="end" fill="#8b949e" font-family="sans-serif" font-size="11">13.8K</text>
  <polygon points="70.0,201.3 74.7,201.3 79.4,200.4 84.1,190.1 88.8,183.7 93.5,181.9 98.2,180.3 102.9,175.0 107.6,174.7 112.3,173.1 117.0,172.7 121.7,172.6 126.4,164.7 131.1,154.4 135.8,145.6 140.5,142.3 145.2,139.0 149.8,136.3 154.5,135.6 159.2,135.4 163.9,133.9 168.6,132.3 173.3,128.4 178.0,124.7 182.7,121.9 187.4,119.0 192.1,118.1 196.8,111.0 201.5,106.6 206.2,105.1 210.9,104.9 215.6,103.7 220.3,103.6 225.0,103.6 229.7,103.1 234.4,102.9 239.1,102.8 243.8,102.4 248.5,99.9 253.2,99.8 257.9,99.3 262.6,98.3 267.3,98.2 272.0,97.9 276.7,97.7 281.4,97.5 286.1,97.3 290.8,97.2 295.5,97.1 300.2,95.5 304.8,95.2 309.5,95.1 314.2,95.0 318.9,94.9 323.6,94.9 328.3,93.9 333.0,93.8 337.7,93.6 342.4,93.6 347.1,92.3 351.8,92.0 356.5,91.7 361.2,89.5 365.9,89.4 370.6,89.0 375.3,86.9 380.0,86.8 384.7,86.7 389.4,86.6 394.1,86.5 398.8,86.5 403.5,86.2 408.2,86.1 412.9,86.1 417.6,85.9 422.3,85.7 427.0,84.5 431.7,82.2 436.4,82.1 441.1,82.1 445.8,82.0 450.5,80.9 455.2,80.9 459.8,80.8 464.5,80.1 469.2,80.1 473.9,76.9 478.6,75.4 483.3,75.4 488.0,75.3 492.7,75.2 497.4,74.9 502.1,74.7 506.8,74.7 511.5,74.7 516.2,74.7 520.9,74.2 525.6,73.5 530.3,73.4 535.0,73.3 539.7,73.2 544.4,73.1 549.1,73.0 553.8,73.0 558.5,71.0 563.2,70.9 567.9,70.9 572.6,70.5 577.3,70.1 582.0,70.0 586.7,69.4 591.4,69.3 596.1,68.2 600.8,68.0 605.5,67.8 610.2,67.3 614.8,67.1 619.5,66.9 624.2,66.3 628.9,65.8 633.6,65.5 638.3,65.5 643.0,65.4 647.7,63.2 652.4,63.0 657.1,63.0 661.8,62.7 666.5,62.5 671.2,62.4 675.9,62.2 680.6,62.1 685.3,62.1 690.0,61.3 690.0,270.0 70.0,270.0" fill="#58a6ff" opacity="0.15"/>
  <polyline points="70.0,201.3 74.7,201.3 79.4,200.4 84.1,190.1 88.8,183.7 93.5,181.9 98.2,180.3 102.9,175.0 107.6,174.7 112.3,173.1 117.0,172.7 121.7,172.6 126.4,164.7 131.1,154.4 135.8,145.6 140.5,142.3 145.2,139.0 149.8,136.3 154.5,135.6 159.2,135.4 163.9,133.9 168.6,132.3 173.3,128.4 178.0,124.7 182.7,121.9 187.4,119.0 192.1,118.1 196.8,111.0 201.5,106.6 206.2,105.1 210.9,104.9 215.6,103.7 220.3,103.6 225.0,103.6 229.7,103.1 234.4,102.9 239.1,102.8 243.8,102.4 248.5,99.9 253.2,99.8 257.9,99.3 262.6,98.3 267.3,98.2 272.0,97.9 276.7,97.7 281.4,97.5 286.1,97.3 290.8,97.2 295.5,97.1 300.2,95.5 304.8,95.2 309.5,95.1 314.2,95.0 318.9,94.9 323.6,94.9 328.3,93.9 333.0,93.8 337.7,93.6 342.4,93.6 347.1,92.3 351.8,92.0 356.5,91.7 361.2,89.5 365.9,89.4 370.6,89.0 375.3,86.9 380.0,86.8 384.7,86.7 389.4,86.6 394.1,86.5 398.8,86.5 403.5,86.2 408.2,86.1 412.9,86.1 417.6,85.9 422.3,85.7 427.0,84.5 431.7,82.2 436.4,82.1 441.1,82.1 445.8,82.0 450.5,80.9 455.2,80.9 459.8,80.8 464.5,80.1 469.2,80.1 473.9,76.9 478.6,75.4 483.3,75.4 488.0,75.3 492.7,75.2 497.4,74.9 502.1,74.7 506.8,74.7 511.5,74.7 516.2,74.7 520.9,74.2 525.6,73.5 530.3,73.4 535.0,73.3 539.7,73.2 544.4,73.1 549.1,73.0 553.8,73.0 558.5,71.0 563.2,70.9 567.9,70.9 572.6,70.5 577.3,70.1 582.0,70.0 586.7,69.4 591.4,69.3 596.1,68.2 600.8,68.0 605.5,67.8 610.2,67.3 614.8,67.1 619.5,66.9 624.2,66.3 628.9,65.8 633.6,65.5 638.3,65.5 643.0,65.4 647.7,63.2 652.4,63.0 657.1,63.0 661.8,62.7 666.5,62.5 671.2,62.4 675.9,62.2 680.6,62.1 685.3,62.1 690.0,61.3" fill="none" stroke="#58a6ff" stroke-width="2.5" stroke-linejoin="round" stroke-linecap="round"/>
  <text x="70.0" y="310" text-anchor="middle" fill="#8b949e" font-family="sans-serif" font-size="11">03-12</text><text x="225.0" y="310" text-anchor="middle" fill="#8b949e" font-family="sans-serif" font-size="11">04-14</text><text x="380.0" y="310" text-anchor="middle" fill="#8b949e" font-family="sans-serif" font-size="11">05-17</text><text x="535.0" y="310" text-anchor="middle" fill="#8b949e" font-family="sans-serif" font-size="11">06-19</text><text x="690.0" y="310" text-anchor="middle" fill="#8b949e" font-family="sans-serif" font-size="11">07-22</text>
  <text x="694.0" y="53.3" fill="#58a6ff" font-family="sans-serif" font-size="12" font-weight="bold">12.0K</text>
</svg>