<svg xmlns="http://www.w3.org/2000/svg" width="720" height="320">
  <rect width="720" height="320" fill="#0d1117" rx="8"/>
  <text x="70" y="22" fill="#c9d1d9" font-family="sans-serif" font-size="14" font-weight="bold">Total Downloads Over Time</text>
  <line x1="70" y1="270.0" x2="690" y2="270.0" stroke="#21262d" stroke-width="1"/><text x="62" y="274.0" text-anchor="end" fill="#8b949e" font-family="sans-serif" font-size="11">0</text><line x1="70" y1="210.0" x2="690" y2="210.0" stroke="#21262d" stroke-width="1"/><text x="62" y="214.0" text-anchor="end" fill="#8b949e" font-family="sans-serif" font-size="11">2.7K</text><line x1="70" y1="150.0" x2="690" y2="150.0" stroke="#21262d" stroke-width="1"/><text x="62" y="154.0" text-anchor="end" fill="#8b949e" font-family="sans-serif" font-size="11">5.5K</text><line x1="70" y1="90.0" x2="690" y2="90.0" stroke="#21262d" stroke-width="1"/><text x="62" y="94.0" text-anchor="end" fill="#8b949e" font-family="sans-serif" font-size="11">8.2K</text><line x1="70" y1="30.0" x2="690" y2="30.0" stroke="#21262d" stroke-width="1"/><text x="62" y="34.0" text-anchor="end" fill="#8b949e" font-family="sans-serif" font-size="11">11.0K</text>
  <polygon points="70.0,183.8 90.0,183.8 110.0,182.7 130.0,169.8 150.0,161.7 170.0,159.4 190.0,157.5 210.0,150.8 230.0,150.4 250.0,148.4 270.0,147.9 290.0,147.7 310.0,137.9 330.0,124.9 350.0,114.0 370.0,109.8 390.0,105.6 410.0,102.3 430.0,101.4 450.0,101.1 470.0,99.2 490.0,97.3 510.0,92.4 530.0,87.7 550.0,84.1 570.0,80.6 590.0,79.5 610.0,70.5 630.0,65.0 650.0,63.1 670.0,62.8 690.0,61.3 690.0,270.0 70.0,270.0" fill="#58a6ff" opacity="0.15"/>
  <polyline points="70.0,183.8 90.0,183.8 110.0,182.7 130.0,169.8 150.0,161.7 170.0,159.4 190.0,157.5 210.0,150.8 230.0,150.4 250.0,148.4 270.0,147.9 290.0,147.7 310.0,137.9 330.0,124.9 350.0,114.0 370.0,109.8 390.0,105.6 410.0,102.3 430.0,101.4 450.0,101.1 470.0,99.2 490.0,97.3 510.0,92.4 530.0,87.7 550.0,84.1 570.0,80.6 590.0,79.5 610.0,70.5 630.0,65.0 650.0,63.1 670.0,62.8 690.0,61.3" fill="none" stroke="#58a6ff" stroke-width="2.5" stroke-linejoin="round" stroke-linecap="round"/>
  <text x="70.0" y="310" text-anchor="middle" fill="#8b949e" font-family="sans-serif" font-size="11">03-12</text><text x="210.0" y="310" text-anchor="middle" fill="#8b949e" font-family="sans-serif" font-size="11">03-19</text><text x="350.0" y="310" text-anchor="middle" fill="#8b949e" font-family="sans-serif" font-size="11">03-26</text><text x="490.0" y="310" text-anchor="middle" fill="#8b949e" font-family="sans-serif" font-size="11">04-02</text><text x="630.0" y="310" text-anchor="middle" fill="#8b949e" font-family="sans-serif" font-size="11">04-09</text>
  <text x="694.0" y="53.3" fill="#58a6ff" font-family="sans-serif" font-size="12" font-weight="bold">9.5K</text>
</svg>