<svg xmlns="http://www.w3.org/2000/svg" width="720" height="320">
  <rect width="720" height="320" fill="#0d1117" rx="8"/>
  <text x="70" y="22" fill="#c9d1d9" font-family="sans-serif" font-size="14" font-weight="bold">Total Downloads Over Time</text>
  <line x1="70" y1="270.0" x2="690" y2="270.0" stroke="#21262d" stroke-width="1"/><text x="62" y="274.0" text-anchor="end" fill="#8b949e" font-family="sans-serif" font-size="11">0</text><line x1="70" y1="210.0" x2="690" y2="210.0" stroke="#21262d" stroke-width="1"/><text x="62" y="214.0" text-anchor="end" fill="#8b949e" font-family="sans-serif" font-size="11">2.2K</text><line x1="70" y1="150.0" x2="690" y2="150.0" stroke="#21262d" stroke-width="1"/><text x="62" y="154.0" text-anchor="end" fill="#8b949e" font-family="sans-serif" font-size="11">4.4K</text><line x1="70" y1="90.0" x2="690" y2="90.0" stroke="#21262d" stroke-width="1"/><text x="62" y="94.0" text-anchor="end" fill="#8b949e" font-family="sans-serif" font-size="11">6.7K</text><line x1="70" y1="30.0" x2="690" y2="30.0" stroke="#21262d" stroke-width="1"/><text x="62" y="34.0" text-anchor="end" fill="#8b949e" font-family="sans-serif" font-size="11">8.9K</text>
  <polygon points="70.0,163.3 104.4,163.3 138.9,161.9 173.3,146.0 207.8,136.0 242.2,133.2 276.7,130.8 311.1,122.5 345.6,122.0 380.0,119.6 414.4,118.9 448.9,118.7 483.3,106.5 517.8,90.5 552.2,76.9 586.7,71.7 621.1,66.6 655.6,62.5 690.0,61.3 690.0,270.0 70.0,270.0" fill="#58a6ff" opacity="0.15"/>
  <polyline points="70.0,163.3 104.4,163.3 138.9,161.9 173.3,146.0 207.8,136.0 242.2,133.2 276.7,130.8 311.1,122.5 345.6,122.0 380.0,119.6 414.4,118.9 448.9,118.7 483.3,106.5 517.8,90.5 552.2,76.9 586.7,71.7 621.1,66.6 655.6,62.5 690.0,61.3" fill="none" stroke="#58a6ff" stroke-width="2.5" stroke-linejoin="round" stroke-linecap="round"/>
  <text x="70.0" y="310" text-anchor="middle" fill="#8b949e" font-family="sans-serif" font-size="11">03-12</text><text x="207.8" y="310" text-anchor="middle" fill="#8b949e" font-family="sans-serif" font-size="11">03-16</text><text x="345.6" y="310" text-anchor="middle" fill="#8b949e" font-family="sans-serif" font-size="11">03-20</text><text x="483.3" y="310" text-anchor="middle" fill="#8b949e" font-family="sans-serif" font-size="11">03-24</text><text x="621.1" y="310" text-anchor="middle" fill="#8b949e" font-family="sans-serif" font-size="11">03-28</text>
  <text x="694.0" y="53.3" fill="#58a6ff" font-family="sans-serif" font-size="12" font-weight="bold">7.7K</text>
</svg>