<svg xmlns="http://www.w3.org/2000/svg" width="720" height="320">
  <rect width="720" height="320" fill="#0d1117" rx="8"/>
  <text x="70" y="22" fill="#c9d1d9" font-family="sans-serif" font-size="14" font-weight="bold">Total Downloads Over Time</text>
  <line x1="70" y1="270.0" x2="690" y2="270.0" stroke="#21262d" stroke-width="1"/><text x="62" y="274.0" text-anchor="end" fill="#8b949e" font-family="sans-serif" font-size="11">0</text><line x1="70" y1="210.0" x2="690" y2="210.0" stroke="#21262d" stroke-width="1"/><text x="62" y="214.0" text-anchor="end" fill="#8b949e" font-family="sans-serif" font-size="11">3.3K</text><line x1="70" y1="150.0" x2="690" y2="150.0" stroke="#21262d" stroke-width="1"/><text x="62" y="154.0" text-anchor="end" fill="#8b949e" font-family="sans-serif" font-size="11">6.7K</text><line x1="70" y1="90.0" x2="690" y2="90.0" stroke="#21262d" stroke-width="1"/><text x="62" y="94.0" text-anchor="end" fill="#8b949e" font-family="sans-serif" font-size="11">10.0K</text><line x1="70" y1="30.0" x2="690" y2="30.0" stroke="#21262d" stroke-width="1"/><text x="62" y="34.0" text-anchor="end" fill="#8b949e" font-family="sans-serif" font-size="11">13.4K</text>
  <polygon points="70.0,199.3 75.3,199.3 80.7,198.4 86.0,187.9 91.4,181.2 96.7,179.3 102.1,177.8 107.4,172.3 112.8,171.9 118.1,170.3 123.4,169.9 128.8,169.8 134.1,161.7 139.5,151.0 144.8,142.1 150.2,138.6 155.5,135.2 160.9,132.5 166.2,131.7 171.6,131.5 176.9,129.9 182.2,128.4 187.6,124.4 192.9,120.5 198.3,117.6 203.6,114.7 209.0,113.8 214.3,106.5 219.7,102.0 225.0,100.4 230.3,100.1 235.7,98.9 241.0,98.8 246.4,98.8 251.7,98.3 257.1,98.2 262.4,98.0 267.8,97.6 273.1,95.0 278.4,94.9 283.8,94.4 289.1,93.4 294.5,93.3 299.8,93.0 305.2,92.7 310.5,92.5 315.9,92.3 321.2,92.3 326.6,92.1 331.9,90.5 337.2,90.2 342.6,90.1 347.9,90.0 353.3,89.9 358.6,89.8 364.0,88.9 369.3,88.7 374.7,88.5 380.0,88.5 385.3,87.2 390.7,86.9 396.0,86.6 401.4,84.4 406.7,84.2 412.1,83.8 417.4,81.7 422.8,81.5 428.1,81.5 433.4,81.4 438.8,81.2 444.1,81.2 449.5,80.9 454.8,80.9 460.2,80.9 465.5,80.6 470.9,80.4 476.2,79.2 481.6,76.8 486.9,76.8 492.2,76.7 497.6,76.6 502.9,75.5 508.3,75.5 513.6,75.4 519.0,74.6 524.3,74.6 529.7,71.4 535.0,69.9 540.3,69.8 545.7,69.7 551.0,69.7 556.4,69.3 561.7,69.1 567.1,69.1 572.4,69.1 577.8,69.1 583.1,68.6 588.4,67.9 593.8,67.8 599.1,67.7 604.5,67.6 609.8,67.5 615.2,67.4 620.5,67.4 625.9,65.2 631.2,65.2 636.6,65.2 641.9,64.8 647.2,64.4 652.6,64.3 657.9,63.7 663.3,63.6 668.6,62.4 674.0,62.2 679.3,62.0 684.7,61.5 690.0,61.3 690.0,270.0 70.0,270.0" fill="#58a6ff" opacity="0.15"/>
  <polyline points="70.0,199.3 75.3,199.3 80.7,198.4 86.0,187.9 91.4,181.2 96.7,179.3 102.1,177.8 107.4,172.3 112.8,171.9 118.1,170.3 123.4,169.9 128.8,169.8 134.1,161.7 139.5,151.0 144.8,142.1 150.2,138.6 155.5,135.2 160.9,132.5 166.2,131.7 171.6,131.5 176.9,129.9 182.2,128.4 187.6,124.4 192.9,120.5 198.3,117.6 203.6,114.7 209.0,113.8 214.3,106.5 219.7,102.0 225.0,100.4 230.3,100.1 235.7,98.9 241.0,98.8 246.4,98.8 251.7,98.3 257.1,98.2 262.4,98.0 267.8,97.6 273.1,95.0 278.4,94.9 283.8,94.4 289.1,93.4 294.5,93.3 299.8,93.0 305.2,92.7 310.5,92.5 315.9,92.3 321.2,92.3 326.6,92.1 331.9,90.5 337.2,90.2 342.6,90.1 347.9,90.0 353.3,89.9 358.6,89.8 364.0,88.9 369.3,88.7 374.7,88.5 380.0,88.5 385.3,87.2 390.7,86.9 396.0,86.6 401.4,84.4 406.7,84.2 412.1,83.8 417.4,81.7 422.8,81.5 428.1,81.5 433.4,81.4 438.8,81.2 444.1,81.2 449.5,80.9 454.8,80.9 460.2,80.9 465.5,80.6 470.9,80.4 476.2,79.2 481.6,76.8 486.9,76.8 492.2,76.7 497.6,76.6 502.9,75.5 508.3,75.5 513.6,75.4 519.0,74.6 524.3,74.6 529.7,71.4 535.0,69.9 540.3,69.8 545.7,69.7 551.0,69.7 556.4,69.3 561.7,69.1 567.1,69.1 572.4,69.1 577.8,69.1 583.1,68.6 588.4,67.9 593.8,67.8 599.1,67.7 604.5,67.6 609.8,67.5 615.2,67.4 620.5,67.4 625.9,65.2 631.2,65.2 636.6,65.2 641.9,64.8 647.2,64.4 652.6,64.3 657.9,63.7 663.3,63.6 668.6,62.4 674.0,62.2 679.3,62.0 684.7,61.5 690.0,61.3" fill="none" stroke="#58a6ff" stroke-width="2.5" stroke-linejoin="round" stroke-linecap="round"/>
  <text x="70.0" y="310" text-anchor="middle" fill="#8b949e" font-family="sans-serif" font-size="11">03-12</text><text x="225.0" y="310" text-anchor="middle" fill="#8b949e" font-family="sans-serif" font-size="11">04-10</text><text x="380.0" y="310" text-anchor="middle" fill="#8b949e" font-family="sans-serif" font-size="11">05-09</text><text x="535.0" y="310" text-anchor="middle" fill="#8b949e" font-family="sans-serif" font-size="11">06-07</text><text x="690.0" y="310" text-anchor="middle" fill="#8b949e" font-family="sans-serif" font-size="11">07-06</text>
  <text x="694.0" y="53.3" fill="#58a6ff" font-family="sans-serif" font-size="12" font-weight="bold">11.6K</text>
</svg>