<svg xmlns="http://www.w3.org/2000/svg" width="720" height="320">
  <rect width="720" height="320" fill="#0d1117" rx="8"/>
  <text x="70" y="22" fill="#c9d1d9" font-family="sans-serif" font-size="14" font-weight="bold">Total Downloads Over Time</text>
  <line x1="70" y1="270.0" x2="690" y2="270.0" stroke="#21262d" stroke-width="1"/><text x="62" y="274.0" text-anchor="end" fill="#8b949e" font-family="sans-serif" font-size="11">0</text><line x1="70" y1="210.0" x2="690" y2="210.0" stroke="#21262d" stroke-width="1"/><text x="62" y="214.0" text-anchor="end" fill="#8b949e" font-family="sans-serif" font-size="11">3.2K</text><line x1="70" y1="150.0" x2="690" y2="150.0" stroke="#21262d" stroke-width="1"/><text x="62" y="154.0" text-anchor="end" fill="#8b949e" font-family="sans-serif" font-size="11">6.5K</text><line x1="70" y1="90.0" x2="690" y2="90.0" stroke="#21262d" stroke-width="1"/><text x="62" y="94.0" text-anchor="end" fill="#8b949e" font-family="sans-serif" font-size="11">9.7K</text><line x1="70" y1="30.0" x2="690" y2="30.0" stroke="#21262d" stroke-width="1"/><text x="62" y="34.0" text-anchor="end" fill="#8b949e" font-family="sans-serif" font-size="11">13.0K</text>
  <polygon points="70.0,197.0 76.4,197.0 82.8,196.1 89.2,185.2 95.6,178.3 102.0,176.4 108.4,174.8 114.7,169.1 121.1,168.7 127.5,167.1 133.9,166.6 140.3,166.5 146.7,158.2 153.1,147.2 159.5,137.9 165.9,134.4 172.3,130.8 178.7,128.0 185.1,127.2 191.4,127.0 197.8,125.4 204.2,123.8 210.6,119.6 217.0,115.6 223.4,112.6 229.8,109.6 236.2,108.7 242.6,101.1 249.0,96.5 255.4,94.8 261.8,94.6 268.1,93.3 274.5,93.2 280.9,93.2 287.3,92.7 293.7,92.5 300.1,92.4 306.5,91.9 312.9,89.3 319.3,89.2 325.7,88.6 332.1,87.7 338.5,87.5 344.8,87.2 351.2,87.0 357.6,86.7 364.0,86.5 370.4,86.5 376.8,86.3 383.2,84.6 389.6,84.3 396.0,84.3 402.4,84.1 408.8,84.0 415.2,84.0 421.5,82.9 427.9,82.8 434.3,82.6 440.7,82.6 447.1,81.2 453.5,80.9 459.9,80.6 466.3,78.3 472.7,78.2 479.1,77.7 485.5,75.5 491.9,75.4 498.2,75.3 504.6,75.2 511.0,75.1 517.4,75.1 523.8,74.7 530.2,74.7 536.6,74.7 543.0,74.5 549.4,74.2 555.8,72.9 562.2,70.5 568.6,70.4 574.9,70.4 581.3,70.3 587.7,69.1 594.1,69.1 600.5,69.0 606.9,68.3 613.3,68.2 619.7,64.9 626.1,63.3 632.5,63.3 638.9,63.2 645.3,63.1 651.6,62.7 658.0,62.6 664.4,62.6 670.8,62.6 677.2,62.5 683.6,62.1 690.0,61.3 690.0,270.0 70.0,270.0" fill="#58a6ff" opacity="0.15"/>
  <polyline points="70.0,197.0 76.4,197.0 82.8,196.1 89.2,185.2 95.6,178.3 102.0,176.4 108.4,174.8 114.7,169.1 121.1,168.7 127.5,167.1 133.9,166.6 140.3,166.5 146.7,158.2 153.1,147.2 159.5,137.9 165.9,134.4 172.3,130.8 178.7,128.0 185.1,127.2 191.4,127.0 197.8,125.4 204.2,123.8 210.6,119.6 217.0,115.6 223.4,112.6 229.8,109.6 236.2,108.7 242.6,101.1 249.0,96.5 255.4,94.8 261.8,94.6 268.1,93.3 274.5,93.2 280.9,93.2 287.3,92.7 293.7,92.5 300.1,92.4 306.5,91.9 312.9,89.3 319.3,89.2 325.7,88.6 332.1,87.7 338.5,87.5 344.8,87.2 351.2,87.0 357.6,86.7 364.0,86.5 370.4,86.5 376.8,86.3 383.2,84.6 389.6,84.3 396.0,84.3 402.4,84.1 408.8,84.0 415.2,84.0 421.5,82.9 427.9,82.8 434.3,82.6 440.7,82.6 447.1,81.2 453.5,80.9 459.9,80.6 466.3,78.3 472.7,78.2 479.1,77.7 485.5,75.5 491.9,75.4 498.2,75.3 504.6,75.2 511.0,75.1 517.4,75.1 523.8,74.7 530.2,74.7 536.6,74.7 543.0,74.5 549.4,74.2 555.8,72.9 562.2,70.5 568.6,70.4 574.9,70.4 581.3,70.3 587.7,69.1 594.1,69.1 600.5,69.0 606.9,68.3 613.3,68.2 619.7,64.9 626.1,63.3 632.5,63.3 638.9,63.2 645.3,63.1 651.6,62.7 658.0,62.6 664.4,62.6 670.8,62.6 677.2,62.5 683.6,62.1 690.0,61.3" fill="none" stroke="#58a6ff" stroke-width="2.5" stroke-linejoin="round" stroke-linecap="round"/>
  <text x="70.0" y="310" text-anchor="middle" fill="#8b949e" font-family="sans-serif" font-size="11">03-12</text><text x="223.4" y="310" text-anchor="middle" fill="#8b949e" font-family="sans-serif" font-size="11">04-05</text><text x="376.8" y="310" text-anchor="middle" fill="#8b949e" font-family="sans-serif" font-size="11">04-29</text><text x="530.2" y="310" text-anchor="middle" fill="#8b949e" font-family="sans-serif" font-size="11">05-23</text><text x="683.6" y="310" text-anchor="middle" fill="#8b949e" font-family="sans-serif" font-size="11">06-16</text>
  <text x="694.0" y="53.3" fill="#58a6ff" font-family="sans-serif" font-size="12" font-weight="bold">11.3K</text>
</svg>