<svg xmlns="http://www.w3.org/2000/svg" width="720" height="320">
  <rect width="720" height="320" fill="#0d1117" rx="8"/>
  <text x="70" y="22" fill="#c9d1d9" font-family="sans-serif" font-size="14" font-weight="bold">Total Downloads Over Time</text>
  <line x1="70" y1="270.0" x2="690" y2="270.0" stroke="#21262d" stroke-width="1"/><text x="62" y="274.0" text-anchor="end" fill="#8b949e" font-family="sans-serif" font-size="11">0</text><line x1="70" y1="210.0" x2="690" y2="210.0" stroke="#21262d" stroke-width="1"/><text x="62" y="214.0" text-anchor="end" fill="#8b949e" font-family="sans-serif" font-size="11">3.3K</text><line x1="70" y1="150.0" x2="690" y2="150.0" stroke="#21262d" stroke-width="1"/><text x="62" y="154.0" text-anchor="end" fill="#8b949e" font-family="sans-serif" font-size="11">6.7K</text><line x1="70" y1="90.0" x2="690" y2="90.0" stroke="#21262d" stroke-width="1"/><text x="62" y="94.0" text-anchor="end" fill="#8b949e" font-family="sans-serif" font-size="11">10.0K</text><line x1="70" y1="30.0" x2="690" y2="30.0" stroke="#21262d" stroke-width="1"/><text x="62" y="34.0" text-anchor="end" fill="#8b949e" font-family="sans-serif" font-size="11">13.3K</text>
  <polygon points="70.0,199.1 75.4,199.1 80.9,198.2 86.3,187.6 91.8,180.9 97.2,179.0 102.6,177.5 108.1,172.0 113.5,171.6 118.9,170.0 124.4,169.6 129.8,169.4 135.3,161.3 140.7,150.7 146.1,141.7 151.6,138.2 157.0,134.8 162.5,132.1 167.9,131.3 173.3,131.1 178.8,129.5 184.2,127.9 189.6,123.9 195.1,120.0 200.5,117.1 206.0,114.2 211.4,113.3 216.8,105.9 222.3,101.4 227.7,99.8 233.2,99.6 238.6,98.3 244.0,98.3 249.5,98.2 254.9,97.7 260.4,97.6 265.8,97.5 271.2,97.0 276.7,94.4 282.1,94.4 287.5,93.8 293.0,92.9 298.4,92.7 303.9,92.4 309.3,92.2 314.7,91.9 320.2,91.8 325.6,91.7 331.1,91.6 336.5,89.9 341.9,89.6 347.4,89.6 352.8,89.4 358.2,89.3 363.7,89.3 369.1,88.3 374.6,88.2 380.0,88.0 385.4,87.9 390.9,86.6 396.3,86.3 401.8,86.0 407.2,83.8 412.6,83.6 418.1,83.2 423.5,81.1 428.9,80.9 434.4,80.9 439.8,80.8 445.3,80.6 450.7,80.6 456.1,80.3 461.6,80.3 467.0,80.3 472.5,80.0 477.9,79.8 483.3,78.6 488.8,76.2 494.2,76.1 499.6,76.0 505.1,76.0 510.5,74.8 516.0,74.8 521.4,74.8 526.8,74.0 532.3,74.0 537.7,70.7 543.2,69.2 548.6,69.2 554.0,69.1 559.5,69.0 564.9,68.7 570.4,68.5 575.8,68.5 581.2,68.5 586.7,68.4 592.1,68.0 597.5,67.3 603.0,67.1 608.4,67.0 613.9,66.9 619.3,66.8 624.7,66.7 630.2,66.7 635.6,64.6 641.1,64.6 646.5,64.5 651.9,64.1 657.4,63.7 662.8,63.6 668.2,63.0 673.7,62.9 679.1,61.7 684.6,61.5 690.0,61.3 690.0,270.0 70.0,270.0" fill="#58a6ff" opacity="0.15"/>
  <polyline points="70.0,199.1 75.4,199.1 80.9,198.2 86.3,187.6 91.8,180.9 97.2,179.0 102.6,177.5 108.1,172.0 113.5,171.6 118.9,170.0 124.4,169.6 129.8,169.4 135.3,161.3 140.7,150.7 146.1,141.7 151.6,138.2 157.0,134.8 162.5,132.1 167.9,131.3 173.3,131.1 178.8,129.5 184.2,127.9 189.6,123.9 195.1,120.0 200.5,117.1 206.0,114.2 211.4,113.3 216.8,105.9 222.3,101.4 227.7,99.8 233.2,99.6 238.6,98.3 244.0,98.3 249.5,98.2 254.9,97.7 260.4,97.6 265.8,97.5 271.2,97.0 276.7,94.4 282.1,94.4 287.5,93.8 293.0,92.9 298.4,92.7 303.9,92.4 309.3,92.2 314.7,91.9 320.2,91.8 325.6,91.7 331.1,91.6 336.5,89.9 341.9,89.6 347.4,89.6 352.8,89.4 358.2,89.3 363.7,89.3 369.1,88.3 374.6,88.2 380.0,88.0 385.4,87.9 390.9,86.6 396.3,86.3 401.8,86.0 407.2,83.8 412.6,83.6 418.1,83.2 423.5,81.1 428.9,80.9 434.4,80.9 439.8,80.8 445.3,80.6 450.7,80.6 456.1,80.3 461.6,80.3 467.0,80.3 472.5,80.0 477.9,79.8 483.3,78.6 488.8,76.2 494.2,76.1 499.6,76.0 505.1,76.0 510.5,74.8 516.0,74.8 521.4,74.8 526.8,74.0 532.3,74.0 537.7,70.7 543.2,69.2 548.6,69.2 554.0,69.1 559.5,69.0 564.9,68.7 570.4,68.5 575.8,68.5 581.2,68.5 586.7,68.4 592.1,68.0 597.5,67.3 603.0,67.1 608.4,67.0 613.9,66.9 619.3,66.8 624.7,66.7 630.2,66.7 635.6,64.6 641.1,64.6 646.5,64.5 651.9,64.1 657.4,63.7 662.8,63.6 668.2,63.0 673.7,62.9 679.1,61.7 684.6,61.5 690.0,61.3" fill="none" stroke="#58a6ff" stroke-width="2.5" stroke-linejoin="round" stroke-linecap="round"/>
  <text x="70.0" y="310" text-anchor="middle" fill="#8b949e" font-family="sans-serif" font-size="11">03-12</text><text x="222.3" y="310" text-anchor="middle" fill="#8b949e" font-family="sans-serif" font-size="11">04-09</text><text x="374.6" y="310" text-anchor="middle" fill="#8b949e" font-family="sans-serif" font-size="11">05-07</text><text x="526.8" y="310" text-anchor="middle" fill="#8b949e" font-family="sans-serif" font-size="11">06-04</text><text x="679.1" y="310" text-anchor="middle" fill="#8b949e" font-family="sans-serif" font-size="11">07-02</text>
  <text x="694.0" y="53.3" fill="#58a6ff" font-family="sans-serif" font-size="12" font-weight="bold">11.6K</text>
</svg>