<svg xmlns="http://www.w3.org/2000/svg" width="720" height="320">
  <rect width="720" height="320" fill="#0d1117" rx="8"/>
  <text x="70" y="22" fill="#c9d1d9" font-family="sans-serif" font-size="14" font-weight="bold">Total Downloads Over Time</text>
  <line x1="70" y1="270.0" x2="690" y2="270.0" stroke="#21262d" stroke-width="1"/><text x="62" y="274.0" text-anchor="end" fill="#8b949e" font-family="sans-serif" font-size="11">0</text><line x1="70" y1="210.0" x2="690" y2="210.0" stroke="#21262d" stroke-width="1"/><text x="62" y="214.0" text-anchor="end" fill="#8b949e" font-family="sans-serif" font-size="11">3.4K</text><line x1="70" y1="150.0" x2="690" y2="150.0" stroke="#21262d" stroke-width="1"/><text x="62" y="154.0" text-anchor="end" fill="#8b949e" font-family="sans-serif" font-size="11">6.8K</text><line x1="70" y1="90.0" x2="690" y2="90.0" stroke="#21262d" stroke-width="1"/><text x="62" y="94.0" text-anchor="end" fill="#8b949e" font-family="sans-serif" font-size="11">10.1K</text><line x1="70" y1="30.0" x2="690" y2="30.0" stroke="#21262d" stroke-width="1"/><text x="62" y="34.0" text-anchor="end" fill="#8b949e" font-family="sans-serif" font-size="11">13.5K</text>
  <polygon points="70.0,199.9 75.1,199.9 80.2,199.0 85.2,188.5 90.3,181.9 95.4,180.1 100.5,178.5 105.6,173.1 110.7,172.8 115.7,171.2 120.8,170.7 125.9,170.6 131.0,162.6 136.1,152.0 141.1,143.1 146.2,139.7 151.3,136.4 156.4,133.6 161.5,132.9 166.6,132.7 171.6,131.1 176.7,129.5 181.8,125.6 186.9,121.7 192.0,118.9 197.0,116.0 202.1,115.1 207.2,107.8 212.3,103.3 217.4,101.8 222.5,101.5 227.5,100.3 232.6,100.2 237.7,100.2 242.8,99.7 247.9,99.6 253.0,99.4 258.0,99.0 263.1,96.4 268.2,96.4 273.3,95.8 278.4,94.9 283.4,94.7 288.5,94.4 293.6,94.2 298.7,94.0 303.8,93.8 308.9,93.7 313.9,93.6 319.0,92.0 324.1,91.7 329.2,91.6 334.3,91.5 339.3,91.4 344.4,91.3 349.5,90.3 354.6,90.2 359.7,90.0 364.8,90.0 369.8,88.7 374.9,88.4 380.0,88.1 385.1,85.9 390.2,85.8 395.2,85.3 400.3,83.2 405.4,83.1 410.5,83.0 415.6,82.9 420.7,82.8 425.7,82.8 430.8,82.5 435.9,82.4 441.0,82.4 446.1,82.2 451.1,82.0 456.2,80.8 461.3,78.4 466.4,78.4 471.5,78.3 476.6,78.2 481.6,77.1 486.7,77.1 491.8,77.0 496.9,76.3 502.0,76.2 507.0,73.0 512.1,71.5 517.2,71.5 522.3,71.4 527.4,71.3 532.5,71.0 537.5,70.8 542.6,70.8 547.7,70.8 552.8,70.7 557.9,70.3 563.0,69.6 568.0,69.5 573.1,69.3 578.2,69.2 583.3,69.2 588.4,69.1 593.4,69.0 598.5,66.9 603.6,66.9 608.7,66.9 613.8,66.5 618.9,66.1 623.9,66.0 629.0,65.4 634.1,65.3 639.2,64.1 644.3,63.9 649.3,63.7 654.4,63.2 659.5,63.0 664.6,62.8 669.7,62.2 674.8,61.7 679.8,61.4 684.9,61.4 690.0,61.3 690.0,270.0 70.0,270.0" fill="#58a6ff" opacity="0.15"/>
  <polyline points="70.0,199.9 75.1,199.9 80.2,199.0 85.2,188.5 90.3,181.9 95.4,180.1 100.5,178.5 105.6,173.1 110.7,172.8 115.7,171.2 120.8,170.7 125.9,170.6 131.0,162.6 136.1,152.0 141.1,143.1 146.2,139.7 151.3,136.4 156.4,133.6 161.5,132.9 166.6,132.7 171.6,131.1 176.7,129.5 181.8,125.6 186.9,121.7 192.0,118.9 197.0,116.0 202.1,115.1 207.2,107.8 212.3,103.3 217.4,101.8 222.5,101.5 227.5,100.3 232.6,100.2 237.7,100.2 242.8,99.7 247.9,99.6 253.0,99.4 258.0,99.0 263.1,96.4 268.2,96.4 273.3,95.8 278.4,94.9 283.4,94.7 288.5,94.4 293.6,94.2 298.7,94.0 303.8,93.8 308.9,93.7 313.9,93.6 319.0,92.0 324.1,91.7 329.2,91.6 334.3,91.5 339.3,91.4 344.4,91.3 349.5,90.3 354.6,90.2 359.7,90.0 364.8,90.0 369.8,88.7 374.9,88.4 380.0,88.1 385.1,85.9 390.2,85.8 395.2,85.3 400.3,83.2 405.4,83.1 410.5,83.0 415.6,82.9 420.7,82.8 425.7,82.8 430.8,82.5 435.9,82.4 441.0,82.4 446.1,82.2 451.1,82.0 456.2,80.8 461.3,78.4 466.4,78.4 471.5,78.3 476.6,78.2 481.6,77.1 486.7,77.1 491.8,77.0 496.9,76.3 502.0,76.2 507.0,73.0 512.1,71.5 517.2,71.5 522.3,71.4 527.4,71.3 532.5,71.0 537.5,70.8 542.6,70.8 547.7,70.8 552.8,70.7 557.9,70.3 563.0,69.6 568.0,69.5 573.1,69.3 578.2,69.2 583.3,69.2 588.4,69.1 593.4,69.0 598.5,66.9 603.6,66.9 608.7,66.9 613.8,66.5 618.9,66.1 623.9,66.0 629.0,65.4 634.1,65.3 639.2,64.1 644.3,63.9 649.3,63.7 654.4,63.2 659.5,63.0 664.6,62.8 669.7,62.2 674.8,61.7 679.8,61.4 684.9,61.4 690.0,61.3" fill="none" stroke="#58a6ff" stroke-width="2.5" stroke-linejoin="round" stroke-linecap="round"/>
  <text x="70.0" y="310" text-anchor="middle" fill="#8b949e" font-family="sans-serif" font-size="11">03-12</text><text x="222.5" y="310" text-anchor="middle" fill="#8b949e" font-family="sans-serif" font-size="11">04-11</text><text x="374.9" y="310" text-anchor="middle" fill="#8b949e" font-family="sans-serif" font-size="11">05-11</text><text x="527.4" y="310" text-anchor="middle" fill="#8b949e" font-family="sans-serif" font-size="11">06-10</text><text x="679.8" y="310" text-anchor="middle" fill="#8b949e" font-family="sans-serif" font-size="11">07-10</text>
  <text x="694.0" y="53.3" fill="#58a6ff" font-family="sans-serif" font-size="12" font-weight="bold">11.7K</text>
</svg>