<svg xmlns="http://www.w3.org/2000/svg" width="720" height="320">
  <rect width="720" height="320" fill="#0d1117" rx="8"/>
  <text x="70" y="22" fill="#c9d1d9" font-family="sans-serif" font-size="14" font-weight="bold">Total Downloads Over Time</text>
  <line x1="70" y1="270.0" x2="690" y2="270.0" stroke="#21262d" stroke-width="1"/><text x="62" y="274.0" text-anchor="end" fill="#8b949e" font-family="sans-serif" font-size="11">0</text><line x1="70" y1="210.0" x2="690" y2="210.0" stroke="#21262d" stroke-width="1"/><text x="62" y="214.0" text-anchor="end" fill="#8b949e" font-family="sans-serif" font-size="11">3.0K</text><line x1="70" y1="150.0" x2="690" y2="150.0" stroke="#21262d" stroke-width="1"/><text x="62" y="154.0" text-anchor="end" fill="#8b949e" font-family="sans-serif" font-size="11">6.1K</text><line x1="70" y1="90.0" x2="690" y2="90.0" stroke="#21262d" stroke-width="1"/><text x="62" y="94.0" text-anchor="end" fill="#8b949e" font-family="sans-serif" font-size="11">9.1K</text><line x1="70" y1="30.0" x2="690" y2="30.0" stroke="#21262d" stroke-width="1"/><text x="62" y="34.0" text-anchor="end" fill="#8b949e" font-family="sans-serif" font-size="11">12.1K</text>
  <polygon points="70.0,192.0 78.6,192.0 87.2,191.0 95.8,179.4 104.4,172.0 113.1,169.9 121.7,168.2 130.3,162.2 138.9,161.8 147.5,160.0 156.1,159.5 164.7,159.4 173.3,150.5 181.9,138.7 190.6,128.8 199.2,125.0 207.8,121.3 216.4,118.3 225.0,117.4 233.6,117.2 242.2,115.5 250.8,113.7 259.4,109.3 268.1,105.0 276.7,101.8 285.3,98.6 293.9,97.6 302.5,89.5 311.1,84.6 319.7,82.8 328.3,82.5 336.9,81.2 345.6,81.1 354.2,81.1 362.8,80.5 371.4,80.4 380.0,80.2 388.6,79.7 397.2,76.9 405.8,76.8 414.4,76.2 423.1,75.1 431.7,75.0 440.3,74.7 448.9,74.4 457.5,74.1 466.1,73.9 474.7,73.9 483.3,73.7 491.9,71.9 500.6,71.6 509.2,71.5 517.8,71.4 526.4,71.3 535.0,71.2 543.6,70.1 552.2,70.0 560.8,69.7 569.4,69.7 578.1,68.2 586.7,67.9 595.3,67.6 603.9,65.2 612.5,65.0 621.1,64.5 629.7,62.2 638.3,62.0 646.9,62.0 655.6,61.8 664.2,61.7 672.8,61.7 681.4,61.3 690.0,61.3 690.0,270.0 70.0,270.0" fill="#58a6ff" opacity="0.15"/>
  <polyline points="70.0,192.0 78.6,192.0 87.2,191.0 95.8,179.4 104.4,172.0 113.1,169.9 121.7,168.2 130.3,162.2 138.9,161.8 147.5,160.0 156.1,159.5 164.7,159.4 173.3,150.5 181.9,138.7 190.6,128.8 199.2,125.0 207.8,121.3 216.4,118.3 225.0,117.4 233.6,117.2 242.2,115.5 250.8,113.7 259.4,109.3 268.1,105.0 276.7,101.8 285.3,98.6 293.9,97.6 302.5,89.5 311.1,84.6 319.7,82.8 328.3,82.5 336.9,81.2 345.6,81.1 354.2,81.1 362.8,80.5 371.4,80.4 380.0,80.2 388.6,79.7 397.2,76.9 405.8,76.8 414.4,76.2 423.1,75.1 431.7,75.0 440.3,74.7 448.9,74.4 457.5,74.1 466.1,73.9 474.7,73.9 483.3,73.7 491.9,71.9 500.6,71.6 509.2,71.5 517.8,71.4 526.4,71.3 535.0,71.2 543.6,70.1 552.2,70.0 560.8,69.7 569.4,69.7 578.1,68.2 586.7,67.9 595.3,67.6 603.9,65.2 612.5,65.0 621.1,64.5 629.7,62.2 638.3,62.0 646.9,62.0 655.6,61.8 664.2,61.7 672.8,61.7 681.4,61.3 690.0,61.3" fill="none" stroke="#58a6ff" stroke-width="2.5" stroke-linejoin="round" stroke-linecap="round"/>
  <text x="70.0" y="310" text-anchor="middle" fill="#8b949e" font-family="sans-serif" font-size="11">03-12</text><text x="225.0" y="310" text-anchor="middle" fill="#8b949e" font-family="sans-serif" font-size="11">03-30</text><text x="380.0" y="310" text-anchor="middle" fill="#8b949e" font-family="sans-serif" font-size="11">04-17</text><text x="535.0" y="310" text-anchor="middle" fill="#8b949e" font-family="sans-serif" font-size="11">05-05</text><text x="690.0" y="310" text-anchor="middle" fill="#8b949e" font-family="sans-serif" font-size="11">05-23</text>
  <text x="694.0" y="53.3" fill="#58a6ff" font-family="sans-serif" font-size="12" font-weight="bold">10.6K</text>
</svg>