<svg xmlns="http://www.w3.org/2000/svg" width="720" height="320">
  <rect width="720" height="320" fill="#0d1117" rx="8"/>
  <text x="70" y="22" fill="#c9d1d9" font-family="sans-serif" font-size="14" font-weight="bold">Total Downloads Over Time</text>
  <line x1="70" y1="270.0" x2="690" y2="270.0" stroke="#21262d" stroke-width="1"/><text x="62" y="274.0" text-anchor="end" fill="#8b949e" font-family="sans-serif" font-size="11">0</text><line x1="70" y1="210.0" x2="690" y2="210.0" stroke="#21262d" stroke-width="1"/><text x="62" y="214.0" text-anchor="end" fill="#8b949e" font-family="sans-serif" font-size="11">3.4K</text><line x1="70" y1="150.0" x2="690" y2="150.0" stroke="#21262d" stroke-width="1"/><text x="62" y="154.0" text-anchor="end" fill="#8b949e" font-family="sans-serif" font-size="11">6.8K</text><line x1="70" y1="90.0" x2="690" y2="90.0" stroke="#21262d" stroke-width="1"/><text x="62" y="94.0" text-anchor="end" fill="#8b949e" font-family="sans-serif" font-size="11">10.3K</text><line x1="70" y1="30.0" x2="690" y2="30.0" stroke="#21262d" stroke-width="1"/><text x="62" y="34.0" text-anchor="end" fill="#8b949e" font-family="sans-serif" font-size="11">13.7K</text>
  <polygon points="70.0,200.9 74.8,200.9 79.7,200.0 84.5,189.7 89.4,183.2 94.2,181.4 99.1,179.9 103.9,174.5 108.8,174.2 113.6,172.6 118.4,172.2 123.3,172.0 128.1,164.1 133.0,153.7 137.8,145.0 142.7,141.6 147.5,138.3 152.3,135.6 157.2,134.8 162.0,134.7 166.9,133.1 171.7,131.6 176.6,127.6 181.4,123.9 186.2,121.1 191.1,118.2 195.9,117.3 200.8,110.1 205.6,105.7 210.5,104.2 215.3,104.0 220.2,102.8 225.0,102.7 229.8,102.6 234.7,102.2 239.5,102.0 244.4,101.9 249.2,101.5 254.1,99.0 258.9,98.9 263.8,98.3 268.6,97.4 273.4,97.3 278.3,97.0 283.1,96.7 288.0,96.5 292.8,96.3 297.7,96.3 302.5,96.2 307.3,94.6 312.2,94.2 317.0,94.2 321.9,94.1 326.7,94.0 331.6,93.9 336.4,92.9 341.2,92.8 346.1,92.6 350.9,92.6 355.8,91.3 360.6,91.0 365.5,90.8 370.3,88.6 375.2,88.4 380.0,88.0 384.8,85.9 389.7,85.8 394.5,85.7 399.4,85.6 404.2,85.5 409.1,85.5 413.9,85.2 418.8,85.1 423.6,85.1 428.4,84.9 433.3,84.7 438.1,83.5 443.0,81.1 447.8,81.1 452.7,81.0 457.5,81.0 462.3,79.9 467.2,79.9 472.0,79.8 476.9,79.1 481.7,79.0 486.6,75.8 491.4,74.4 496.2,74.3 501.1,74.3 505.9,74.2 510.8,73.8 515.6,73.7 520.5,73.7 525.3,73.7 530.2,73.6 535.0,73.2 539.8,72.5 544.7,72.4 549.5,72.2 554.4,72.1 559.2,72.1 564.1,72.0 568.9,71.9 573.8,69.9 578.6,69.8 583.4,69.8 588.3,69.4 593.1,69.0 598.0,68.9 602.8,68.3 607.7,68.2 612.5,67.1 617.3,66.9 622.2,66.7 627.0,66.2 631.9,66.0 636.7,65.8 641.6,65.2 646.4,64.7 651.2,64.4 656.1,64.4 660.9,64.3 665.8,62.0 670.6,61.9 675.5,61.8 680.3,61.6 685.2,61.3 690.0,61.3 690.0,270.0 70.0,270.0" fill="#58a6ff" opacity="0.15"/>
  <polyline points="70.0,200.9 74.8,200.9 79.7,200.0 84.5,189.7 89.4,183.2 94.2,181.4 99.1,179.9 103.9,174.5 108.8,174.2 113.6,172.6 118.4,172.2 123.3,172.0 128.1,164.1 133.0,153.7 137.8,145.0 142.7,141.6 147.5,138.3 152.3,135.6 157.2,134.8 162.0,134.7 166.9,133.1 171.7,131.6 176.6,127.6 181.4,123.9 186.2,121.1 191.1,118.2 195.9,117.3 200.8,110.1 205.6,105.7 210.5,104.2 215.3,104.0 220.2,102.8 225.0,102.7 229.8,102.6 234.7,102.2 239.5,102.0 244.4,101.9 249.2,101.5 254.1,99.0 258.9,98.9 263.8,98.3 268.6,97.4 273.4,97.3 278.3,97.0 283.1,96.7 288.0,96.5 292.8,96.3 297.7,96.3 302.5,96.2 307.3,94.6 312.2,94.2 317.0,94.2 321.9,94.1 326.7,94.0 331.6,93.9 336.4,92.9 341.2,92.8 346.1,92.6 350.9,92.6 355.8,91.3 360.6,91.0 365.5,90.8 370.3,88.6 375.2,88.4 380.0,88.0 384.8,85.9 389.7,85.8 394.5,85.7 399.4,85.6 404.2,85.5 409.1,85.5 413.9,85.2 418.8,85.1 423.6,85.1 428.4,84.9 433.3,84.7 438.1,83.5 443.0,81.1 447.8,81.1 452.7,81.0 457.5,81.0 462.3,79.9 467.2,79.9 472.0,79.8 476.9,79.1 481.7,79.0 486.6,75.8 491.4,74.4 496.2,74.3 501.1,74.3 505.9,74.2 510.8,73.8 515.6,73.7 520.5,73.7 525.3,73.7 530.2,73.6 535.0,73.2 539.8,72.5 544.7,72.4 549.5,72.2 554.4,72.1 559.2,72.1 564.1,72.0 568.9,71.9 573.8,69.9 578.6,69.8 583.4,69.8 588.3,69.4 593.1,69.0 598.0,68.9 602.8,68.3 607.7,68.2 612.5,67.1 617.3,66.9 622.2,66.7 627.0,66.2 631.9,66.0 636.7,65.8 641.6,65.2 646.4,64.7 651.2,64.4 656.1,64.4 660.9,64.3 665.8,62.0 670.6,61.9 675.5,61.8 680.3,61.6 685.2,61.3 690.0,61.3" fill="none" stroke="#58a6ff" stroke-width="2.5" stroke-linejoin="round" stroke-linecap="round"/>
  <text x="70.0" y="310" text-anchor="middle" fill="#8b949e" font-family="sans-serif" font-size="11">03-12</text><text x="225.0" y="310" text-anchor="middle" fill="#8b949e" font-family="sans-serif" font-size="11">04-13</text><text x="380.0" y="310" text-anchor="middle" fill="#8b949e" font-family="sans-serif" font-size="11">05-15</text><text x="535.0" y="310" text-anchor="middle" fill="#8b949e" font-family="sans-serif" font-size="11">06-16</text><text x="690.0" y="310" text-anchor="middle" fill="#8b949e" font-family="sans-serif" font-size="11">07-18</text>
  <text x="694.0" y="53.3" fill="#58a6ff" font-family="sans-serif" font-size="12" font-weight="bold">11.9K</text>
</svg>