<svg xmlns="http://www.w3.org/2000/svg" width="720" height="320">
  <rect width="720" height="320" fill="#0d1117" rx="8"/>
  <text x="70" y="22" fill="#c9d1d9" font-family="sans-serif" font-size="14" font-weight="bold">Total Downloads Over Time</text>
  <line x1="70" y1="270.0" x2="690" y2="270.0" stroke="#21262d" stroke-width="1"/><text x="62" y="274.0" text-anchor="end" fill="#8b949e" font-family="sans-serif" font-size="11">0</text><line x1="70" y1="210.0" x2="690" y2="210.0" stroke="#21262d" stroke-width="1"/><text x="62" y="214.0" text-anchor="end" fill="#8b949e" font-family="sans-serif" font-size="11">3.1K</text><line x1="70" y1="150.0" x2="690" y2="150.0" stroke="#21262d" stroke-width="1"/><text x="62" y="154.0" text-anchor="end" fill="#8b949e" font-family="sans-serif" font-size="11">6.2K</text><line x1="70" y1="90.0" x2="690" y2="90.0" stroke="#21262d" stroke-width="1"/><text x="62" y="94.0" text-anchor="end" fill="#8b949e" font-family="sans-serif" font-size="11">9.4K</text><line x1="70" y1="30.0" x2="690" y2="30.0" stroke="#21262d" stroke-width="1"/><text x="62" y="34.0" text-anchor="end" fill="#8b949e" font-family="sans-serif" font-size="11">12.5K</text>
  <polygon points="70.0,194.2 77.7,194.2 85.3,193.2 93.0,181.9 100.6,174.7 108.3,172.7 115.9,171.1 123.6,165.2 131.2,164.8 138.9,163.1 146.5,162.6 154.2,162.5 161.9,153.8 169.5,142.4 177.2,132.8 184.8,129.1 192.5,125.4 200.1,122.5 207.8,121.7 215.4,121.5 223.1,119.8 230.7,118.1 238.4,113.8 246.0,109.6 253.7,106.5 261.4,103.4 269.0,102.4 276.7,94.5 284.3,89.7 292.0,88.0 299.6,87.8 307.3,86.4 314.9,86.3 322.6,86.3 330.2,85.8 337.9,85.6 345.6,85.5 353.2,85.0 360.9,82.3 368.5,82.2 376.2,81.6 383.8,80.6 391.5,80.4 399.1,80.1 406.8,79.8 414.4,79.6 422.1,79.4 429.8,79.3 437.4,79.2 445.1,77.4 452.7,77.1 460.4,77.0 468.0,76.9 475.7,76.8 483.3,76.7 491.0,75.7 498.6,75.6 506.3,75.3 514.0,75.3 521.6,73.9 529.3,73.5 536.9,73.3 544.6,70.9 552.2,70.7 559.9,70.2 567.5,68.0 575.2,67.8 582.8,67.7 590.5,67.6 598.1,67.5 605.8,67.5 613.5,67.1 621.1,67.1 628.8,67.1 636.4,66.9 644.1,66.6 651.7,65.3 659.4,62.7 667.0,62.7 674.7,62.6 682.3,62.6 690.0,61.3 690.0,270.0 70.0,270.0" fill="#58a6ff" opacity="0.15"/>
  <polyline points="70.0,194.2 77.7,194.2 85.3,193.2 93.0,181.9 100.6,174.7 108.3,172.7 115.9,171.1 123.6,165.2 131.2,164.8 138.9,163.1 146.5,162.6 154.2,162.5 161.9,153.8 169.5,142.4 177.2,132.8 184.8,129.1 192.5,125.4 200.1,122.5 207.8,121.7 215.4,121.5 223.1,119.8 230.7,118.1 238.4,113.8 246.0,109.6 253.7,106.5 261.4,103.4 269.0,102.4 276.7,94.5 284.3,89.7 292.0,88.0 299.6,87.8 307.3,86.4 314.9,86.3 322.6,86.3 330.2,85.8 337.9,85.6 345.6,85.5 353.2,85.0 360.9,82.3 368.5,82.2 376.2,81.6 383.8,80.6 391.5,80.4 399.1,80.1 406.8,79.8 414.4,79.6 422.1,79.4 429.8,79.3 437.4,79.2 445.1,77.4 452.7,77.1 460.4,77.0 468.0,76.9 475.7,76.8 483.3,76.7 491.0,75.7 498.6,75.6 506.3,75.3 514.0,75.3 521.6,73.9 529.3,73.5 536.9,73.3 544.6,70.9 552.2,70.7 559.9,70.2 567.5,68.0 575.2,67.8 582.8,67.7 590.5,67.6 598.1,67.5 605.8,67.5 613.5,67.1 621.1,67.1 628.8,67.1 636.4,66.9 644.1,66.6 651.7,65.3 659.4,62.7 667.0,62.7 674.7,62.6 682.3,62.6 690.0,61.3" fill="none" stroke="#58a6ff" stroke-width="2.5" stroke-linejoin="round" stroke-linecap="round"/>
  <text x="70.0" y="310" text-anchor="middle" fill="#8b949e" font-family="sans-serif" font-size="11">03-12</text><text x="223.1" y="310" text-anchor="middle" fill="#8b949e" font-family="sans-serif" font-size="11">04-01</text><text x="376.2" y="310" text-anchor="middle" fill="#8b949e" font-family="sans-serif" font-size="11">04-21</text><text x="529.3" y="310" text-anchor="middle" fill="#8b949e" font-family="sans-serif" font-size="11">05-11</text><text x="682.3" y="310" text-anchor="middle" fill="#8b949e" font-family="sans-serif" font-size="11">05-31</text>
  <text x="694.0" y="53.3" fill="#58a6ff" font-family="sans-serif" font-size="12" font-weight="bold">10.9K</text>
</svg>