<svg xmlns="http://www.w3.org/2000/svg" width="720" height="320">
  <rect width="720" height="320" fill="#0d1117" rx="8"/>
  <text x="70" y="22" fill="#c9d1d9" font-family="sans-serif" font-size="14" font-weight="bold">Total Downloads Over Time</text>
  <line x1="70" y1="270.0" x2="690" y2="270.0" stroke="#21262d" stroke-width="1"/><text x="62" y="274.0" text-anchor="end" fill="#8b949e" font-family="sans-serif" font-size="11">0</text><line x1="70" y1="210.0" x2="690" y2="210.0" stroke="#21262d" stroke-width="1"/><text x="62" y="214.0" text-anchor="end" fill="#8b949e" font-family="sans-serif" font-size="11">3.4K</text><line x1="70" y1="150.0" x2="690" y2="150.0" stroke="#21262d" stroke-width="1"/><text x="62" y="154.0" text-anchor="end" fill="#8b949e" font-family="sans-serif" font-size="11">6.9K</text><line x1="70" y1="90.0" x2="690" y2="90.0" stroke="#21262d" stroke-width="1"/><text x="62" y="94.0" text-anchor="end" fill="#8b949e" font-family="sans-serif" font-size="11">10.3K</text><line x1="70" y1="30.0" x2="690" y2="30.0" stroke="#21262d" stroke-width="1"/><text x="62" y="34.0" text-anchor="end" fill="#8b949e" font-family="sans-serif" font-size="11">13.7K</text>
  <polygon points="70.0,201.0 74.7,201.0 79.5,200.1 84.2,189.8 88.9,183.3 93.7,181.5 98.4,180.0 103.1,174.6 107.9,174.3 112.6,172.7 117.3,172.3 122.1,172.2 126.8,164.3 131.5,153.9 136.3,145.2 141.0,141.8 145.7,138.5 150.5,135.8 155.2,135.1 159.9,134.9 164.7,133.3 169.4,131.8 174.1,127.9 178.9,124.1 183.6,121.3 188.3,118.5 193.1,117.6 197.8,110.4 202.5,106.0 207.3,104.5 212.0,104.2 216.7,103.0 221.5,102.9 226.2,102.9 230.9,102.4 235.6,102.3 240.4,102.2 245.1,101.7 249.8,99.2 254.6,99.2 259.3,98.6 264.0,97.7 268.8,97.5 273.5,97.3 278.2,97.0 283.0,96.8 287.7,96.6 292.4,96.6 297.2,96.5 301.9,94.8 306.6,94.5 311.4,94.5 316.1,94.4 320.8,94.3 325.6,94.2 330.3,93.2 335.0,93.1 339.8,92.9 344.5,92.9 349.2,91.6 354.0,91.3 358.7,91.1 363.4,88.9 368.2,88.7 372.9,88.3 377.6,86.2 382.4,86.1 387.1,86.0 391.8,85.9 396.6,85.8 401.3,85.8 406.0,85.5 410.8,85.5 415.5,85.5 420.2,85.2 425.0,85.0 429.7,83.8 434.4,81.5 439.2,81.4 443.9,81.3 448.6,81.3 453.4,80.2 458.1,80.2 462.8,80.1 467.6,79.4 472.3,79.4 477.0,76.2 481.8,74.7 486.5,74.7 491.2,74.6 496.0,74.5 500.7,74.2 505.4,74.0 510.2,74.0 514.9,74.0 519.6,73.9 524.4,73.5 529.1,72.8 533.8,72.7 538.5,72.6 543.3,72.5 548.0,72.4 552.7,72.3 557.5,72.3 562.2,70.2 566.9,70.2 571.7,70.1 576.4,69.7 581.1,69.4 585.9,69.2 590.6,68.7 595.3,68.6 600.1,67.4 604.8,67.2 609.5,67.0 614.3,66.5 619.0,66.4 623.7,66.1 628.5,65.5 633.2,65.1 637.9,64.8 642.7,64.7 647.4,64.7 652.1,62.4 656.9,62.3 661.6,62.2 666.3,61.9 671.1,61.7 675.8,61.7 680.5,61.4 685.3,61.3 690.0,61.3 690.0,270.0 70.0,270.0" fill="#58a6ff" opacity="0.15"/>
  <polyline points="70.0,201.0 74.7,201.0 79.5,200.1 84.2,189.8 88.9,183.3 93.7,181.5 98.4,180.0 103.1,174.6 107.9,174.3 112.6,172.7 117.3,172.3 122.1,172.2 126.8,164.3 131.5,153.9 136.3,145.2 141.0,141.8 145.7,138.5 150.5,135.8 155.2,135.1 159.9,134.9 164.7,133.3 169.4,131.8 174.1,127.9 178.9,124.1 183.6,121.3 188.3,118.5 193.1,117.6 197.8,110.4 202.5,106.0 207.3,104.5 212.0,104.2 216.7,103.0 221.5,102.9 226.2,102.9 230.9,102.4 235.6,102.3 240.4,102.2 245.1,101.7 249.8,99.2 254.6,99.2 259.3,98.6 264.0,97.7 268.8,97.5 273.5,97.3 278.2,97.0 283.0,96.8 287.7,96.6 292.4,96.6 297.2,96.5 301.9,94.8 306.6,94.5 311.4,94.5 316.1,94.4 320.8,94.3 325.6,94.2 330.3,93.2 335.0,93.1 339.8,92.9 344.5,92.9 349.2,91.6 354.0,91.3 358.7,91.1 363.4,88.9 368.2,88.7 372.9,88.3 377.6,86.2 382.4,86.1 387.1,86.0 391.8,85.9 396.6,85.8 401.3,85.8 406.0,85.5 410.8,85.5 415.5,85.5 420.2,85.2 425.0,85.0 429.7,83.8 434.4,81.5 439.2,81.4 443.9,81.3 448.6,81.3 453.4,80.2 458.1,80.2 462.8,80.1 467.6,79.4 472.3,79.4 477.0,76.2 481.8,74.7 486.5,74.7 491.2,74.6 496.0,74.5 500.7,74.2 505.4,74.0 510.2,74.0 514.9,74.0 519.6,73.9 524.4,73.5 529.1,72.8 533.8,72.7 538.5,72.6 543.3,72.5 548.0,72.4 552.7,72.3 557.5,72.3 562.2,70.2 566.9,70.2 571.7,70.1 576.4,69.7 581.1,69.4 585.9,69.2 590.6,68.7 595.3,68.6 600.1,67.4 604.8,67.2 609.5,67.0 614.3,66.5 619.0,66.4 623.7,66.1 628.5,65.5 633.2,65.1 637.9,64.8 642.7,64.7 647.4,64.7 652.1,62.4 656.9,62.3 661.6,62.2 666.3,61.9 671.1,61.7 675.8,61.7 680.5,61.4 685.3,61.3 690.0,61.3" fill="none" stroke="#58a6ff" stroke-width="2.5" stroke-linejoin="round" stroke-linecap="round"/>
  <text x="70.0" y="310" text-anchor="middle" fill="#8b949e" font-family="sans-serif" font-size="11">03-12</text><text x="221.5" y="310" text-anchor="middle" fill="#8b949e" font-family="sans-serif" font-size="11">04-13</text><text x="372.9" y="310" text-anchor="middle" fill="#8b949e" font-family="sans-serif" font-size="11">05-15</text><text x="524.4" y="310" text-anchor="middle" fill="#8b949e" font-family="sans-serif" font-size="11">06-16</text><text x="675.8" y="310" text-anchor="middle" fill="#8b949e" font-family="sans-serif" font-size="11">07-18</text>
  <text x="694.0" y="53.3" fill="#58a6ff" font-family="sans-serif" font-size="12" font-weight="bold">11.9K</text>
</svg>