<svg xmlns="http://www.w3.org/2000/svg" width="720" height="320">
  <rect width="720" height="320" fill="#0d1117" rx="8"/>
  <text x="70" y="22" fill="#c9d1d9" font-family="sans-serif" font-size="14" font-weight="bold">Total Downloads Over Time</text>
  <line x1="70" y1="270.0" x2="690" y2="270.0" stroke="#21262d" stroke-width="1"/><text x="62" y="274.0" text-anchor="end" fill="#8b949e" font-family="sans-serif" font-size="11">0</text><line x1="70" y1="210.0" x2="690" y2="210.0" stroke="#21262d" stroke-width="1"/><text x="62" y="214.0" text-anchor="end" fill="#8b949e" font-family="sans-serif" font-size="11">2.8K</text><line x1="70" y1="150.0" x2="690" y2="150.0" stroke="#21262d" stroke-width="1"/><text x="62" y="154.0" text-anchor="end" fill="#8b949e" font-family="sans-serif" font-size="11">5.5K</text><line x1="70" y1="90.0" x2="690" y2="90.0" stroke="#21262d" stroke-width="1"/><text x="62" y="94.0" text-anchor="end" fill="#8b949e" font-family="sans-serif" font-size="11">8.3K</text><line x1="70" y1="30.0" x2="690" y2="30.0" stroke="#21262d" stroke-width="1"/><text x="62" y="34.0" text-anchor="end" fill="#8b949e" font-family="sans-serif" font-size="11">11.0K</text>
  <polygon points="70.0,184.1 88.2,184.1 106.5,183.0 124.7,170.2 142.9,162.1 161.2,159.8 179.4,157.9 197.6,151.2 215.9,150.8 234.1,148.9 252.4,148.3 270.6,148.2 288.8,138.4 307.1,125.4 325.3,114.5 343.5,110.4 361.8,106.2 380.0,102.9 398.2,102.0 416.5,101.7 434.7,99.8 452.9,97.9 471.2,93.0 489.4,88.3 507.6,84.8 525.9,81.3 544.1,80.1 562.4,71.2 580.6,65.8 598.8,63.9 617.1,63.5 635.3,62.0 653.5,61.9 671.8,61.9 690.0,61.3 690.0,270.0 70.0,270.0" fill="#58a6ff" opacity="0.15"/>
  <polyline points="70.0,184.1 88.2,184.1 106.5,183.0 124.7,170.2 142.9,162.1 161.2,159.8 179.4,157.9 197.6,151.2 215.9,150.8 234.1,148.9 252.4,148.3 270.6,148.2 288.8,138.4 307.1,125.4 325.3,114.5 343.5,110.4 361.8,106.2 380.0,102.9 398.2,102.0 416.5,101.7 434.7,99.8 452.9,97.9 471.2,93.0 489.4,88.3 507.6,84.8 525.9,81.3 544.1,80.1 562.4,71.2 580.6,65.8 598.8,63.9 617.1,63.5 635.3,62.0 653.5,61.9 671.8,61.9 690.0,61.3" fill="none" stroke="#58a6ff" stroke-width="2.5" stroke-linejoin="round" stroke-linecap="round"/>
  <text x="70.0" y="310" text-anchor="middle" fill="#8b949e" font-family="sans-serif" font-size="11">03-12</text><text x="215.9" y="310" text-anchor="middle" fill="#8b949e" font-family="sans-serif" font-size="11">03-20</text><text x="361.8" y="310" text-anchor="middle" fill="#8b949e" font-family="sans-serif" font-size="11">03-28</text><text x="507.6" y="310" text-anchor="middle" fill="#8b949e" font-family="sans-serif" font-size="11">04-05</text><text x="653.5" y="310" text-anchor="middle" fill="#8b949e" font-family="sans-serif" font-size="11">04-13</text>
  <text x="694.0" y="53.3" fill="#58a6ff" font-family="sans-serif" font-size="12" font-weight="bold">9.6K</text>
</svg>