<svg xmlns="http://www.w3.org/2000/svg" width="720" height="320">
  <rect width="720" height="320" fill="#0d1117" rx="8"/>
  <text x="70" y="22" fill="#c9d1d9" font-family="sans-serif" font-size="14" font-weight="bold">Total Downloads Over Time</text>
  <line x1="70" y1="270.0" x2="690" y2="270.0" stroke="#21262d" stroke-width="1"/><text x="62" y="274.0" text-anchor="end" fill="#8b949e" font-family="sans-serif" font-size="11">0</text><line x1="70" y1="210.0" x2="690" y2="210.0" stroke="#21262d" stroke-width="1"/><text x="62" y="214.0" text-anchor="end" fill="#8b949e" font-family="sans-serif" font-size="11">2.8K</text><line x1="70" y1="150.0" x2="690" y2="150.0" stroke="#21262d" stroke-width="1"/><text x="62" y="154.0" text-anchor="end" fill="#8b949e" font-family="sans-serif" font-size="11">5.7K</text><line x1="70" y1="90.0" x2="690" y2="90.0" stroke="#21262d" stroke-width="1"/><text x="62" y="94.0" text-anchor="end" fill="#8b949e" font-family="sans-serif" font-size="11">8.5K</text><line x1="70" y1="30.0" x2="690" y2="30.0" stroke="#21262d" stroke-width="1"/><text x="62" y="34.0" text-anchor="end" fill="#8b949e" font-family="sans-serif" font-size="11">11.4K</text>
  <polygon points="70.0,186.7 84.4,186.7 98.8,185.6 113.3,173.2 127.7,165.3 142.1,163.1 156.5,161.3 170.9,154.8 185.3,154.4 199.8,152.5 214.2,152.0 228.6,151.8 243.0,142.3 257.4,129.8 271.9,119.2 286.3,115.1 300.7,111.1 315.1,107.9 329.5,107.0 344.0,106.8 358.4,104.9 372.8,103.0 387.2,98.3 401.6,93.8 416.0,90.4 430.5,86.9 444.9,85.8 459.3,77.2 473.7,71.9 488.1,70.0 502.6,69.7 517.0,68.3 531.4,68.2 545.8,68.2 560.2,67.6 574.7,67.4 589.1,67.3 603.5,66.7 617.9,63.7 632.3,63.6 646.7,63.0 661.2,61.8 675.6,61.6 690.0,61.3 690.0,270.0 70.0,270.0" fill="#58a6ff" opacity="0.15"/>
  <polyline points="70.0,186.7 84.4,186.7 98.8,185.6 113.3,173.2 127.7,165.3 142.1,163.1 156.5,161.3 170.9,154.8 185.3,154.4 199.8,152.5 214.2,152.0 228.6,151.8 243.0,142.3 257.4,129.8 271.9,119.2 286.3,115.1 300.7,111.1 315.1,107.9 329.5,107.0 344.0,106.8 358.4,104.9 372.8,103.0 387.2,98.3 401.6,93.8 416.0,90.4 430.5,86.9 444.9,85.8 459.3,77.2 473.7,71.9 488.1,70.0 502.6,69.7 517.0,68.3 531.4,68.2 545.8,68.2 560.2,67.6 574.7,67.4 589.1,67.3 603.5,66.7 617.9,63.7 632.3,63.6 646.7,63.0 661.2,61.8 675.6,61.6 690.0,61.3" fill="none" stroke="#58a6ff" stroke-width="2.5" stroke-linejoin="round" stroke-linecap="round"/>
  <text x="70.0" y="310" text-anchor="middle" fill="#8b949e" font-family="sans-serif" font-size="11">03-12</text><text x="214.2" y="310" text-anchor="middle" fill="#8b949e" font-family="sans-serif" font-size="11">03-22</text><text x="358.4" y="310" text-anchor="middle" fill="#8b949e" font-family="sans-serif" font-size="11">04-01</text><text x="502.6" y="310" text-anchor="middle" fill="#8b949e" font-family="sans-serif" font-size="11">04-11</text><text x="646.7" y="310" text-anchor="middle" fill="#8b949e" font-family="sans-serif" font-size="11">04-21</text>
  <text x="694.0" y="53.3" fill="#58a6ff" font-family="sans-serif" font-size="12" font-weight="bold">9.9K</text>
</svg>