<svg xmlns="http://www.w3.org/2000/svg" width="720" height="320">
  <rect width="720" height="320" fill="#0d1117" rx="8"/>
  <text x="70" y="22" fill="#c9d1d9" font-family="sans-serif" font-size="14" font-weight="bold">Total Downloads Over Time</text>
  <line x1="70" y1="270.0" x2="690" y2="270.0" stroke="#21262d" stroke-width="1"/><text x="62" y="274.0" text-anchor="end" fill="#8b949e" font-family="sans-serif" font-size="11">0</text><line x1="70" y1="210.0" x2="690" y2="210.0" stroke="#21262d" stroke-width="1"/><text x="62" y="214.0" text-anchor="end" fill="#8b949e" font-family="sans-serif" font-size="11">3.4K</text><line x1="70" y1="150.0" x2="690" y2="150.0" stroke="#21262d" stroke-width="1"/><text x="62" y="154.0" text-anchor="end" fill="#8b949e" font-family="sans-serif" font-size="11">6.7K</text><line x1="70" y1="90.0" x2="690" y2="90.0" stroke="#21262d" stroke-width="1"/><text x="62" y="94.0" text-anchor="end" fill="#8b949e" font-family="sans-serif" font-size="11">10.1K</text><line x1="70" y1="30.0" x2="690" y2="30.0" stroke="#21262d" stroke-width="1"/><text x="62" y="34.0" text-anchor="end" fill="#8b949e" font-family="sans-serif" font-size="11">13.4K</text>
  <polygon points="70.0,199.6 75.3,199.6 80.5,198.7 85.8,188.2 91.0,181.5 96.3,179.7 101.5,178.1 106.8,172.7 112.0,172.3 117.3,170.7 122.5,170.3 127.8,170.2 133.1,162.1 138.3,151.5 143.6,142.6 148.8,139.2 154.1,135.8 159.3,133.1 164.6,132.3 169.8,132.1 175.1,130.5 180.3,128.9 185.6,124.9 190.8,121.1 196.1,118.2 201.4,115.3 206.6,114.4 211.9,107.1 217.1,102.6 222.4,101.1 227.6,100.8 232.9,99.6 238.1,99.5 243.4,99.5 248.6,99.0 253.9,98.8 259.2,98.7 264.4,98.3 269.7,95.7 274.9,95.6 280.2,95.1 285.4,94.1 290.7,94.0 295.9,93.7 301.2,93.5 306.4,93.2 311.7,93.0 316.9,93.0 322.2,92.9 327.5,91.2 332.7,90.9 338.0,90.8 343.2,90.7 348.5,90.6 353.7,90.6 359.0,89.6 364.2,89.5 369.5,89.3 374.7,89.2 380.0,87.9 385.3,87.6 390.5,87.3 395.8,85.1 401.0,85.0 406.3,84.5 411.5,82.4 416.8,82.3 422.0,82.2 427.3,82.1 432.5,82.0 437.8,82.0 443.1,81.7 448.3,81.6 453.6,81.6 458.8,81.4 464.1,81.2 469.3,79.9 474.6,77.5 479.8,77.5 485.1,77.4 490.3,77.4 495.6,76.2 500.8,76.2 506.1,76.2 511.4,75.4 516.6,75.4 521.9,72.2 527.1,70.7 532.4,70.6 537.6,70.6 542.9,70.5 548.1,70.1 553.4,69.9 558.6,69.9 563.9,69.9 569.2,69.9 574.4,69.4 579.7,68.7 584.9,68.6 590.2,68.5 595.4,68.4 600.7,68.3 605.9,68.2 611.2,68.2 616.4,66.1 621.7,66.0 626.9,66.0 632.2,65.6 637.5,65.2 642.7,65.1 648.0,64.5 653.2,64.4 658.5,63.2 663.7,63.0 669.0,62.8 674.2,62.3 679.5,62.1 684.7,61.9 690.0,61.3 690.0,270.0 70.0,270.0" fill="#58a6ff" opacity="0.15"/>
  <polyline points="70.0,199.6 75.3,199.6 80.5,198.7 85.8,188.2 91.0,181.5 96.3,179.7 101.5,178.1 106.8,172.7 112.0,172.3 117.3,170.7 122.5,170.3 127.8,170.2 133.1,162.1 138.3,151.5 143.6,142.6 148.8,139.2 154.1,135.8 159.3,133.1 164.6,132.3 169.8,132.1 175.1,130.5 180.3,128.9 185.6,124.9 190.8,121.1 196.1,118.2 201.4,115.3 206.6,114.4 211.9,107.1 217.1,102.6 222.4,101.1 227.6,100.8 232.9,99.6 238.1,99.5 243.4,99.5 248.6,99.0 253.9,98.8 259.2,98.7 264.4,98.3 269.7,95.7 274.9,95.6 280.2,95.1 285.4,94.1 290.7,94.0 295.9,93.7 301.2,93.5 306.4,93.2 311.7,93.0 316.9,93.0 322.2,92.9 327.5,91.2 332.7,90.9 338.0,90.8 343.2,90.7 348.5,90.6 353.7,90.6 359.0,89.6 364.2,89.5 369.5,89.3 374.7,89.2 380.0,87.9 385.3,87.6 390.5,87.3 395.8,85.1 401.0,85.0 406.3,84.5 411.5,82.4 416.8,82.3 422.0,82.2 427.3,82.1 432.5,82.0 437.8,82.0 443.1,81.7 448.3,81.6 453.6,81.6 458.8,81.4 464.1,81.2 469.3,79.9 474.6,77.5 479.8,77.5 485.1,77.4 490.3,77.4 495.6,76.2 500.8,76.2 506.1,76.2 511.4,75.4 516.6,75.4 521.9,72.2 527.1,70.7 532.4,70.6 537.6,70.6 542.9,70.5 548.1,70.1 553.4,69.9 558.6,69.9 563.9,69.9 569.2,69.9 574.4,69.4 579.7,68.7 584.9,68.6 590.2,68.5 595.4,68.4 600.7,68.3 605.9,68.2 611.2,68.2 616.4,66.1 621.7,66.0 626.9,66.0 632.2,65.6 637.5,65.2 642.7,65.1 648.0,64.5 653.2,64.4 658.5,63.2 663.7,63.0 669.0,62.8 674.2,62.3 679.5,62.1 684.7,61.9 690.0,61.3" fill="none" stroke="#58a6ff" stroke-width="2.5" stroke-linejoin="round" stroke-linecap="round"/>
  <text x="70.0" y="310" text-anchor="middle" fill="#8b949e" font-family="sans-serif" font-size="11">03-12</text><text x="222.4" y="310" text-anchor="middle" fill="#8b949e" font-family="sans-serif" font-size="11">04-10</text><text x="374.7" y="310" text-anchor="middle" fill="#8b949e" font-family="sans-serif" font-size="11">05-09</text><text x="527.1" y="310" text-anchor="middle" fill="#8b949e" font-family="sans-serif" font-size="11">06-07</text><text x="679.5" y="310" text-anchor="middle" fill="#8b949e" font-family="sans-serif" font-size="11">07-06</text>
  <text x="694.0" y="53.3" fill="#58a6ff" font-family="sans-serif" font-size="12" font-weight="bold">11.7K</text>
</svg>