<svg xmlns="http://www.w3.org/2000/svg" width="720" height="320">
  <rect width="720" height="320" fill="#0d1117" rx="8"/>
  <text x="70" y="22" fill="#c9d1d9" font-family="sans-serif" font-size="14" font-weight="bold">Total Downloads Over Time</text>
  <line x1="70" y1="270.0" x2="690" y2="270.0" stroke="#21262d" stroke-width="1"/><text x="62" y="274.0" text-anchor="end" fill="#8b949e" font-family="sans-serif" font-size="11">0</text><line x1="70" y1="210.0" x2="690" y2="210.0" stroke="#21262d" stroke-width="1"/><text x="62" y="214.0" text-anchor="end" fill="#8b949e" font-family="sans-serif" font-size="11">2.9K</text><line x1="70" y1="150.0" x2="690" y2="150.0" stroke="#21262d" stroke-width="1"/><text x="62" y="154.0" text-anchor="end" fill="#8b949e" font-family="sans-serif" font-size="11">5.8K</text><line x1="70" y1="90.0" x2="690" y2="90.0" stroke="#21262d" stroke-width="1"/><text x="62" y="94.0" text-anchor="end" fill="#8b949e" font-family="sans-serif" font-size="11">8.7K</text><line x1="70" y1="30.0" x2="690" y2="30.0" stroke="#21262d" stroke-width="1"/><text x="62" y="34.0" text-anchor="end" fill="#8b949e" font-family="sans-serif" font-size="11">11.6K</text>
  <polygon points="70.0,188.6 81.1,188.6 92.1,187.6 103.2,175.4 114.3,167.7 125.4,165.6 136.4,163.8 147.5,157.5 158.6,157.1 169.6,155.2 180.7,154.7 191.8,154.6 202.9,145.3 213.9,133.0 225.0,122.7 236.1,118.8 247.1,114.8 258.2,111.7 269.3,110.8 280.4,110.6 291.4,108.7 302.5,106.9 313.6,102.3 324.6,97.9 335.7,94.5 346.8,91.2 357.9,90.1 368.9,81.7 380.0,76.5 391.1,74.7 402.1,74.4 413.2,73.0 424.3,72.9 435.4,72.9 446.4,72.3 457.5,72.1 468.6,72.0 479.6,71.5 490.7,68.5 501.8,68.4 512.9,67.8 523.9,66.7 535.0,66.5 546.1,66.2 557.1,65.9 568.2,65.6 579.3,65.4 590.4,65.3 601.4,65.2 612.5,63.3 623.6,63.0 634.6,62.9 645.7,62.7 656.8,62.6 667.9,62.6 678.9,61.4 690.0,61.3 690.0,270.0 70.0,270.0" fill="#58a6ff" opacity="0.15"/>
  <polyline points="70.0,188.6 81.1,188.6 92.1,187.6 103.2,175.4 114.3,167.7 125.4,165.6 136.4,163.8 147.5,157.5 158.6,157.1 169.6,155.2 180.7,154.7 191.8,154.6 202.9,145.3 213.9,133.0 225.0,122.7 236.1,118.8 247.1,114.8 258.2,111.7 269.3,110.8 280.4,110.6 291.4,108.7 302.5,106.9 313.6,102.3 324.6,97.9 335.7,94.5 346.8,91.2 357.9,90.1 368.9,81.7 380.0,76.5 391.1,74.7 402.1,74.4 413.2,73.0 424.3,72.9 435.4,72.9 446.4,72.3 457.5,72.1 468.6,72.0 479.6,71.5 490.7,68.5 501.8,68.4 512.9,67.8 523.9,66.7 535.0,66.5 546.1,66.2 557.1,65.9 568.2,65.6 579.3,65.4 590.4,65.3 601.4,65.2 612.5,63.3 623.6,63.0 634.6,62.9 645.7,62.7 656.8,62.6 667.9,62.6 678.9,61.4 690.0,61.3" fill="none" stroke="#58a6ff" stroke-width="2.5" stroke-linejoin="round" stroke-linecap="round"/>
  <text x="70.0" y="310" text-anchor="middle" fill="#8b949e" font-family="sans-serif" font-size="11">03-12</text><text x="225.0" y="310" text-anchor="middle" fill="#8b949e" font-family="sans-serif" font-size="11">03-26</text><text x="380.0" y="310" text-anchor="middle" fill="#8b949e" font-family="sans-serif" font-size="11">04-09</text><text x="535.0" y="310" text-anchor="middle" fill="#8b949e" font-family="sans-serif" font-size="11">04-23</text><text x="690.0" y="310" text-anchor="middle" fill="#8b949e" font-family="sans-serif" font-size="11">05-07</text>
  <text x="694.0" y="53.3" fill="#58a6ff" font-family="sans-serif" font-size="12" font-weight="bold">10.1K</text>
</svg>