<svg xmlns="http://www.w3.org/2000/svg" width="720" height="320">
  <rect width="720" height="320" fill="#0d1117" rx="8"/>
  <text x="70" y="22" fill="#c9d1d9" font-family="sans-serif" font-size="14" font-weight="bold">Total Downloads Over Time</text>
  <line x1="70" y1="270.0" x2="690" y2="270.0" stroke="#21262d" stroke-width="1"/><text x="62" y="274.0" text-anchor="end" fill="#8b949e" font-family="sans-serif" font-size="11">0</text><line x1="70" y1="210.0" x2="690" y2="210.0" stroke="#21262d" stroke-width="1"/><text x="62" y="214.0" text-anchor="end" fill="#8b949e" font-family="sans-serif" font-size="11">3.4K</text><line x1="70" y1="150.0" x2="690" y2="150.0" stroke="#21262d" stroke-width="1"/><text x="62" y="154.0" text-anchor="end" fill="#8b949e" font-family="sans-serif" font-size="11">6.9K</text><line x1="70" y1="90.0" x2="690" y2="90.0" stroke="#21262d" stroke-width="1"/><text x="62" y="94.0" text-anchor="end" fill="#8b949e" font-family="sans-serif" font-size="11">10.3K</text><line x1="70" y1="30.0" x2="690" y2="30.0" stroke="#21262d" stroke-width="1"/><text x="62" y="34.0" text-anchor="end" fill="#8b949e" font-family="sans-serif" font-size="11">13.8K</text>
  <polygon points="70.0,201.3 74.7,201.3 79.3,200.4 84.0,190.2 88.6,183.7 93.3,181.9 98.0,180.4 102.6,175.0 107.3,174.7 112.0,173.1 116.6,172.7 121.3,172.6 125.9,164.7 130.6,154.4 135.3,145.7 139.9,142.3 144.6,139.0 149.2,136.4 153.9,135.6 158.6,135.4 163.2,133.9 167.9,132.3 172.6,128.4 177.2,124.7 181.9,121.9 186.5,119.1 191.2,118.2 195.9,111.0 200.5,106.7 205.2,105.1 209.8,104.9 214.5,103.7 219.2,103.6 223.8,103.6 228.5,103.1 233.2,103.0 237.8,102.9 242.5,102.4 247.1,99.9 251.8,99.8 256.5,99.3 261.1,98.4 265.8,98.2 270.5,97.9 275.1,97.7 279.8,97.5 284.4,97.3 289.1,97.2 293.8,97.1 298.4,95.5 303.1,95.2 307.7,95.2 312.4,95.0 317.1,95.0 321.7,94.9 326.4,93.9 331.1,93.8 335.7,93.6 340.4,93.6 345.0,92.3 349.7,92.0 354.4,91.8 359.0,89.6 363.7,89.4 368.3,89.0 373.0,86.9 377.7,86.8 382.3,86.8 387.0,86.7 391.7,86.5 396.3,86.5 401.0,86.2 405.6,86.2 410.3,86.2 415.0,86.0 419.6,85.7 424.3,84.5 428.9,82.2 433.6,82.2 438.3,82.1 442.9,82.1 447.6,80.9 452.3,80.9 456.9,80.8 461.6,80.1 466.2,80.1 470.9,76.9 475.6,75.5 480.2,75.4 484.9,75.4 489.5,75.3 494.2,74.9 498.9,74.8 503.5,74.8 508.2,74.8 512.9,74.7 517.5,74.3 522.2,73.6 526.8,73.5 531.5,73.3 536.2,73.3 540.8,73.2 545.5,73.1 550.2,73.0 554.8,71.0 559.5,71.0 564.1,70.9 568.8,70.5 573.5,70.2 578.1,70.0 582.8,69.5 587.4,69.4 592.1,68.2 596.8,68.0 601.4,67.8 606.1,67.3 610.8,67.2 615.4,66.9 620.1,66.3 624.7,65.9 629.4,65.6 634.1,65.5 638.7,65.5 643.4,63.2 648.0,63.1 652.7,63.0 657.4,62.7 662.0,62.5 666.7,62.5 671.4,62.2 676.0,62.1 680.7,62.1 685.3,61.3 690.0,61.3 690.0,270.0 70.0,270.0" fill="#58a6ff" opacity="0.15"/>
  <polyline points="70.0,201.3 74.7,201.3 79.3,200.4 84.0,190.2 88.6,183.7 93.3,181.9 98.0,180.4 102.6,175.0 107.3,174.7 112.0,173.1 116.6,172.7 121.3,172.6 125.9,164.7 130.6,154.4 135.3,145.7 139.9,142.3 144.6,139.0 149.2,136.4 153.9,135.6 158.6,135.4 163.2,133.9 167.9,132.3 172.6,128.4 177.2,124.7 181.9,121.9 186.5,119.1 191.2,118.2 195.9,111.0 200.5,106.7 205.2,105.1 209.8,104.9 214.5,103.7 219.2,103.6 223.8,103.6 228.5,103.1 233.2,103.0 237.8,102.9 242.5,102.4 247.1,99.9 251.8,99.8 256.5,99.3 261.1,98.4 265.8,98.2 270.5,97.9 275.1,97.7 279.8,97.5 284.4,97.3 289.1,97.2 293.8,97.1 298.4,95.5 303.1,95.2 307.7,95.2 312.4,95.0 317.1,95.0 321.7,94.9 326.4,93.9 331.1,93.8 335.7,93.6 340.4,93.6 345.0,92.3 349.7,92.0 354.4,91.8 359.0,89.6 363.7,89.4 368.3,89.0 373.0,86.9 377.7,86.8 382.3,86.8 387.0,86.7 391.7,86.5 396.3,86.5 401.0,86.2 405.6,86.2 410.3,86.2 415.0,86.0 419.6,85.7 424.3,84.5 428.9,82.2 433.6,82.2 438.3,82.1 442.9,82.1 447.6,80.9 452.3,80.9 456.9,80.8 461.6,80.1 466.2,80.1 470.9,76.9 475.6,75.5 480.2,75.4 484.9,75.4 489.5,75.3 494.2,74.9 498.9,74.8 503.5,74.8 508.2,74.8 512.9,74.7 517.5,74.3 522.2,73.6 526.8,73.5 531.5,73.3 536.2,73.3 540.8,73.2 545.5,73.1 550.2,73.0 554.8,71.0 559.5,71.0 564.1,70.9 568.8,70.5 573.5,70.2 578.1,70.0 582.8,69.5 587.4,69.4 592.1,68.2 596.8,68.0 601.4,67.8 606.1,67.3 610.8,67.2 615.4,66.9 620.1,66.3 624.7,65.9 629.4,65.6 634.1,65.5 638.7,65.5 643.4,63.2 648.0,63.1 652.7,63.0 657.4,62.7 662.0,62.5 666.7,62.5 671.4,62.2 676.0,62.1 680.7,62.1 685.3,61.3 690.0,61.3" fill="none" stroke="#58a6ff" stroke-width="2.5" stroke-linejoin="round" stroke-linecap="round"/>
  <text x="70.0" y="310" text-anchor="middle" fill="#8b949e" font-family="sans-serif" font-size="11">03-12</text><text x="223.8" y="310" text-anchor="middle" fill="#8b949e" font-family="sans-serif" font-size="11">04-14</text><text x="377.7" y="310" text-anchor="middle" fill="#8b949e" font-family="sans-serif" font-size="11">05-17</text><text x="531.5" y="310" text-anchor="middle" fill="#8b949e" font-family="sans-serif" font-size="11">06-19</text><text x="685.3" y="310" text-anchor="middle" fill="#8b949e" font-family="sans-serif" font-size="11">07-22</text>
  <text x="694.0" y="53.3" fill="#58a6ff" font-family="sans-serif" font-size="12" font-weight="bold">12.0K</text>
</svg>