<svg xmlns="http://www.w3.org/2000/svg" width="720" height="320">
  <rect width="720" height="320" fill="#0d1117" rx="8"/>
  <text x="70" y="22" fill="#c9d1d9" font-family="sans-serif" font-size="14" font-weight="bold">Total Downloads Over Time</text>
  <line x1="70" y1="270.0" x2="690" y2="270.0" stroke="#21262d" stroke-width="1"/><text x="62" y="274.0" text-anchor="end" fill="#8b949e" font-family="sans-serif" font-size="11">0</text><line x1="70" y1="210.0" x2="690" y2="210.0" stroke="#21262d" stroke-width="1"/><text x="62" y="214.0" text-anchor="end" fill="#8b949e" font-family="sans-serif" font-size="11">3.1K</text><line x1="70" y1="150.0" x2="690" y2="150.0" stroke="#21262d" stroke-width="1"/><text x="62" y="154.0" text-anchor="end" fill="#8b949e" font-family="sans-serif" font-size="11">6.2K</text><line x1="70" y1="90.0" x2="690" y2="90.0" stroke="#21262d" stroke-width="1"/><text x="62" y="94.0" text-anchor="end" fill="#8b949e" font-family="sans-serif" font-size="11">9.3K</text><line x1="70" y1="30.0" x2="690" y2="30.0" stroke="#21262d" stroke-width="1"/><text x="62" y="34.0" text-anchor="end" fill="#8b949e" font-family="sans-serif" font-size="11">12.4K</text>
  <polygon points="70.0,193.7 77.9,193.7 85.9,192.7 93.8,181.3 101.8,174.1 109.7,172.1 117.7,170.4 125.6,164.5 133.6,164.1 141.5,162.4 149.5,161.9 157.4,161.7 165.4,153.0 173.3,141.5 181.3,131.8 189.2,128.1 197.2,124.5 205.1,121.5 213.1,120.7 221.0,120.5 229.0,118.8 236.9,117.0 244.9,112.7 252.8,108.6 260.8,105.4 268.7,102.3 276.7,101.3 284.6,93.4 292.6,88.5 300.5,86.8 308.5,86.5 316.4,85.2 324.4,85.1 332.3,85.1 340.3,84.6 348.2,84.4 356.2,84.3 364.1,83.8 372.1,81.0 380.0,80.9 387.9,80.3 395.9,79.3 403.8,79.1 411.8,78.8 419.7,78.6 427.7,78.3 435.6,78.1 443.6,78.0 451.5,77.9 459.5,76.2 467.4,75.8 475.4,75.7 483.3,75.6 491.3,75.5 499.2,75.4 507.2,74.4 515.1,74.3 523.1,74.0 531.0,74.0 539.0,72.6 546.9,72.2 554.9,72.0 562.8,69.5 570.8,69.4 578.7,68.9 586.7,66.6 594.6,66.4 602.6,66.4 610.5,66.3 618.5,66.1 626.4,66.1 634.4,65.8 642.3,65.8 650.3,65.8 658.2,65.5 666.2,65.2 674.1,63.9 682.1,61.3 690.0,61.3 690.0,270.0 70.0,270.0" fill="#58a6ff" opacity="0.15"/>
  <polyline points="70.0,193.7 77.9,193.7 85.9,192.7 93.8,181.3 101.8,174.1 109.7,172.1 117.7,170.4 125.6,164.5 133.6,164.1 141.5,162.4 149.5,161.9 157.4,161.7 165.4,153.0 173.3,141.5 181.3,131.8 189.2,128.1 197.2,124.5 205.1,121.5 213.1,120.7 221.0,120.5 229.0,118.8 236.9,117.0 244.9,112.7 252.8,108.6 260.8,105.4 268.7,102.3 276.7,101.3 284.6,93.4 292.6,88.5 300.5,86.8 308.5,86.5 316.4,85.2 324.4,85.1 332.3,85.1 340.3,84.6 348.2,84.4 356.2,84.3 364.1,83.8 372.1,81.0 380.0,80.9 387.9,80.3 395.9,79.3 403.8,79.1 411.8,78.8 419.7,78.6 427.7,78.3 435.6,78.1 443.6,78.0 451.5,77.9 459.5,76.2 467.4,75.8 475.4,75.7 483.3,75.6 491.3,75.5 499.2,75.4 507.2,74.4 515.1,74.3 523.1,74.0 531.0,74.0 539.0,72.6 546.9,72.2 554.9,72.0 562.8,69.5 570.8,69.4 578.7,68.9 586.7,66.6 594.6,66.4 602.6,66.4 610.5,66.3 618.5,66.1 626.4,66.1 634.4,65.8 642.3,65.8 650.3,65.8 658.2,65.5 666.2,65.2 674.1,63.9 682.1,61.3 690.0,61.3" fill="none" stroke="#58a6ff" stroke-width="2.5" stroke-linejoin="round" stroke-linecap="round"/>
  <text x="70.0" y="310" text-anchor="middle" fill="#8b949e" font-family="sans-serif" font-size="11">03-12</text><text x="221.0" y="310" text-anchor="middle" fill="#8b949e" font-family="sans-serif" font-size="11">03-31</text><text x="372.1" y="310" text-anchor="middle" fill="#8b949e" font-family="sans-serif" font-size="11">04-19</text><text x="523.1" y="310" text-anchor="middle" fill="#8b949e" font-family="sans-serif" font-size="11">05-08</text><text x="674.1" y="310" text-anchor="middle" fill="#8b949e" font-family="sans-serif" font-size="11">05-27</text>
  <text x="694.0" y="53.3" fill="#58a6ff" font-family="sans-serif" font-size="12" font-weight="bold">10.8K</text>
</svg>