<svg xmlns="http://www.w3.org/2000/svg" width="720" height="320">
  <rect width="720" height="320" fill="#0d1117" rx="8"/>
  <text x="70" y="22" fill="#c9d1d9" font-family="sans-serif" font-size="14" font-weight="bold">Total Downloads Over Time</text>
  <line x1="70" y1="270.0" x2="690" y2="270.0" stroke="#21262d" stroke-width="1"/><text x="62" y="274.0" text-anchor="end" fill="#8b949e" font-family="sans-serif" font-size="11">0</text><line x1="70" y1="210.0" x2="690" y2="210.0" stroke="#21262d" stroke-width="1"/><text x="62" y="214.0" text-anchor="end" fill="#8b949e" font-family="sans-serif" font-size="11">2.4K</text><line x1="70" y1="150.0" x2="690" y2="150.0" stroke="#21262d" stroke-width="1"/><text x="62" y="154.0" text-anchor="end" fill="#8b949e" font-family="sans-serif" font-size="11">4.8K</text><line x1="70" y1="90.0" x2="690" y2="90.0" stroke="#21262d" stroke-width="1"/><text x="62" y="94.0" text-anchor="end" fill="#8b949e" font-family="sans-serif" font-size="11">7.2K</text><line x1="70" y1="30.0" x2="690" y2="30.0" stroke="#21262d" stroke-width="1"/><text x="62" y="34.0" text-anchor="end" fill="#8b949e" font-family="sans-serif" font-size="11">9.6K</text>
  <polygon points="70.0,171.3 97.0,171.3 123.9,170.0 150.9,155.3 177.8,146.0 204.8,143.4 231.7,141.2 258.7,133.6 285.7,133.1 312.6,130.9 339.6,130.3 366.5,130.1 393.5,118.8 420.4,103.9 447.4,91.4 474.3,86.6 501.3,81.9 528.3,78.1 555.2,77.0 582.2,76.7 609.1,74.5 636.1,72.3 663.0,66.7 690.0,61.3 690.0,270.0 70.0,270.0" fill="#58a6ff" opacity="0.15"/>
  <polyline points="70.0,171.3 97.0,171.3 123.9,170.0 150.9,155.3 177.8,146.0 204.8,143.4 231.7,141.2 258.7,133.6 285.7,133.1 312.6,130.9 339.6,130.3 366.5,130.1 393.5,118.8 420.4,103.9 447.4,91.4 474.3,86.6 501.3,81.9 528.3,78.1 555.2,77.0 582.2,76.7 609.1,74.5 636.1,72.3 663.0,66.7 690.0,61.3" fill="none" stroke="#58a6ff" stroke-width="2.5" stroke-linejoin="round" stroke-linecap="round"/>
  <text x="70.0" y="310" text-anchor="middle" fill="#8b949e" font-family="sans-serif" font-size="11">03-12</text><text x="204.8" y="310" text-anchor="middle" fill="#8b949e" font-family="sans-serif" font-size="11">03-17</text><text x="339.6" y="310" text-anchor="middle" fill="#8b949e" font-family="sans-serif" font-size="11">03-22</text><text x="474.3" y="310" text-anchor="middle" fill="#8b949e" font-family="sans-serif" font-size="11">03-27</text><text x="609.1" y="310" text-anchor="middle" fill="#8b949e" font-family="sans-serif" font-size="11">04-01</text>
  <text x="694.0" y="53.3" fill="#58a6ff" font-family="sans-serif" font-size="12" font-weight="bold">8.3K</text>
</svg>