<svg xmlns="http://www.w3.org/2000/svg" width="720" height="320">
  <rect width="720" height="320" fill="#0d1117" rx="8"/>
  <text x="70" y="22" fill="#c9d1d9" font-family="sans-serif" font-size="14" font-weight="bold">Total Downloads Over Time</text>
  <line x1="70" y1="270.0" x2="690" y2="270.0" stroke="#21262d" stroke-width="1"/><text x="62" y="274.0" text-anchor="end" fill="#8b949e" font-family="sans-serif" font-size="11">0</text><line x1="70" y1="210.0" x2="690" y2="210.0" stroke="#21262d" stroke-width="1"/><text x="62" y="214.0" text-anchor="end" fill="#8b949e" font-family="sans-serif" font-size="11">3.4K</text><line x1="70" y1="150.0" x2="690" y2="150.0" stroke="#21262d" stroke-width="1"/><text x="62" y="154.0" text-anchor="end" fill="#8b949e" font-family="sans-serif" font-size="11">6.8K</text><line x1="70" y1="90.0" x2="690" y2="90.0" stroke="#21262d" stroke-width="1"/><text x="62" y="94.0" text-anchor="end" fill="#8b949e" font-family="sans-serif" font-size="11">10.3K</text><line x1="70" y1="30.0" x2="690" y2="30.0" stroke="#21262d" stroke-width="1"/><text x="62" y="34.0" text-anchor="end" fill="#8b949e" font-family="sans-serif" font-size="11">13.7K</text>
  <polygon points="70.0,200.8 74.9,200.8 79.8,199.9 84.8,189.6 89.7,183.1 94.6,181.3 99.5,179.7 104.4,174.4 109.4,174.0 114.3,172.5 119.2,172.0 124.1,171.9 129.0,164.0 134.0,153.6 138.9,144.8 143.8,141.4 148.7,138.1 153.7,135.4 158.6,134.7 163.5,134.5 168.4,132.9 173.3,131.4 178.3,127.5 183.2,123.7 188.1,120.9 193.0,118.0 197.9,117.1 202.9,109.9 207.8,105.5 212.7,104.0 217.6,103.8 222.5,102.5 227.5,102.5 232.4,102.4 237.3,101.9 242.2,101.8 247.1,101.7 252.1,101.2 257.0,98.7 261.9,98.6 266.8,98.1 271.7,97.2 276.7,97.0 281.6,96.8 286.5,96.5 291.4,96.3 296.3,96.1 301.3,96.1 306.2,95.9 311.1,94.3 316.0,94.0 321.0,94.0 325.9,93.8 330.8,93.8 335.7,93.7 340.6,92.7 345.6,92.6 350.5,92.4 355.4,92.4 360.3,91.1 365.2,90.8 370.2,90.5 375.1,88.3 380.0,88.2 384.9,87.8 389.8,85.7 394.8,85.5 399.7,85.5 404.6,85.4 409.5,85.3 414.4,85.3 419.4,84.9 424.3,84.9 429.2,84.9 434.1,84.7 439.0,84.4 444.0,83.2 448.9,80.9 453.8,80.9 458.7,80.8 463.7,80.8 468.6,79.6 473.5,79.6 478.4,79.5 483.3,78.8 488.3,78.8 493.2,75.6 498.1,74.1 503.0,74.1 507.9,74.0 512.9,73.9 517.8,73.6 522.7,73.4 527.6,73.4 532.5,73.4 537.5,73.4 542.4,72.9 547.3,72.2 552.2,72.1 557.1,72.0 562.1,71.9 567.0,71.8 571.9,71.7 576.8,71.7 581.7,69.6 586.7,69.6 591.6,69.5 596.5,69.1 601.4,68.8 606.3,68.7 611.3,68.1 616.2,68.0 621.1,66.8 626.0,66.6 631.0,66.4 635.9,65.9 640.8,65.8 645.7,65.5 650.6,64.9 655.6,64.5 660.5,64.2 665.4,64.1 670.3,64.1 675.2,61.8 680.2,61.7 685.1,61.6 690.0,61.3 690.0,270.0 70.0,270.0" fill="#58a6ff" opacity="0.15"/>
  <polyline points="70.0,200.8 74.9,200.8 79.8,199.9 84.8,189.6 89.7,183.1 94.6,181.3 99.5,179.7 104.4,174.4 109.4,174.0 114.3,172.5 119.2,172.0 124.1,171.9 129.0,164.0 134.0,153.6 138.9,144.8 143.8,141.4 148.7,138.1 153.7,135.4 158.6,134.7 163.5,134.5 168.4,132.9 173.3,131.4 178.3,127.5 183.2,123.7 188.1,120.9 193.0,118.0 197.9,117.1 202.9,109.9 207.8,105.5 212.7,104.0 217.6,103.8 222.5,102.5 227.5,102.5 232.4,102.4 237.3,101.9 242.2,101.8 247.1,101.7 252.1,101.2 257.0,98.7 261.9,98.6 266.8,98.1 271.7,97.2 276.7,97.0 281.6,96.8 286.5,96.5 291.4,96.3 296.3,96.1 301.3,96.1 306.2,95.9 311.1,94.3 316.0,94.0 321.0,94.0 325.9,93.8 330.8,93.8 335.7,93.7 340.6,92.7 345.6,92.6 350.5,92.4 355.4,92.4 360.3,91.1 365.2,90.8 370.2,90.5 375.1,88.3 380.0,88.2 384.9,87.8 389.8,85.7 394.8,85.5 399.7,85.5 404.6,85.4 409.5,85.3 414.4,85.3 419.4,84.9 424.3,84.9 429.2,84.9 434.1,84.7 439.0,84.4 444.0,83.2 448.9,80.9 453.8,80.9 458.7,80.8 463.7,80.8 468.6,79.6 473.5,79.6 478.4,79.5 483.3,78.8 488.3,78.8 493.2,75.6 498.1,74.1 503.0,74.1 507.9,74.0 512.9,73.9 517.8,73.6 522.7,73.4 527.6,73.4 532.5,73.4 537.5,73.4 542.4,72.9 547.3,72.2 552.2,72.1 557.1,72.0 562.1,71.9 567.0,71.8 571.9,71.7 576.8,71.7 581.7,69.6 586.7,69.6 591.6,69.5 596.5,69.1 601.4,68.8 606.3,68.7 611.3,68.1 616.2,68.0 621.1,66.8 626.0,66.6 631.0,66.4 635.9,65.9 640.8,65.8 645.7,65.5 650.6,64.9 655.6,64.5 660.5,64.2 665.4,64.1 670.3,64.1 675.2,61.8 680.2,61.7 685.1,61.6 690.0,61.3" fill="none" stroke="#58a6ff" stroke-width="2.5" stroke-linejoin="round" stroke-linecap="round"/>
  <text x="70.0" y="310" text-anchor="middle" fill="#8b949e" font-family="sans-serif" font-size="11">03-12</text><text x="222.5" y="310" text-anchor="middle" fill="#8b949e" font-family="sans-serif" font-size="11">04-12</text><text x="375.1" y="310" text-anchor="middle" fill="#8b949e" font-family="sans-serif" font-size="11">05-13</text><text x="527.6" y="310" text-anchor="middle" fill="#8b949e" font-family="sans-serif" font-size="11">06-13</text><text x="680.2" y="310" text-anchor="middle" fill="#8b949e" font-family="sans-serif" font-size="11">07-14</text>
  <text x="694.0" y="53.3" fill="#58a6ff" font-family="sans-serif" font-size="12" font-weight="bold">11.9K</text>
</svg>