<svg xmlns="http://www.w3.org/2000/svg" width="720" height="320">
  <rect width="720" height="320" fill="#0d1117" rx="8"/>
  <text x="70" y="22" fill="#c9d1d9" font-family="sans-serif" font-size="14" font-weight="bold">Total Downloads Over Time</text>
  <line x1="70" y1="270.0" x2="690" y2="270.0" stroke="#21262d" stroke-width="1"/><text x="62" y="274.0" text-anchor="end" fill="#8b949e" font-family="sans-serif" font-size="11">0</text><line x1="70" y1="210.0" x2="690" y2="210.0" stroke="#21262d" stroke-width="1"/><text x="62" y="214.0" text-anchor="end" fill="#8b949e" font-family="sans-serif" font-size="11">2.8K</text><line x1="70" y1="150.0" x2="690" y2="150.0" stroke="#21262d" stroke-width="1"/><text x="62" y="154.0" text-anchor="end" fill="#8b949e" font-family="sans-serif" font-size="11">5.7K</text><line x1="70" y1="90.0" x2="690" y2="90.0" stroke="#21262d" stroke-width="1"/><text x="62" y="94.0" text-anchor="end" fill="#8b949e" font-family="sans-serif" font-size="11">8.5K</text><line x1="70" y1="30.0" x2="690" y2="30.0" stroke="#21262d" stroke-width="1"/><text x="62" y="34.0" text-anchor="end" fill="#8b949e" font-family="sans-serif" font-size="11">11.4K</text>
  <polygon points="70.0,186.8 84.1,186.8 98.2,185.7 112.3,173.3 126.4,165.4 140.5,163.2 154.5,161.4 168.6,154.9 182.7,154.6 196.8,152.7 210.9,152.1 225.0,152.0 239.1,142.5 253.2,129.9 267.3,119.4 281.4,115.3 295.5,111.3 309.5,108.1 323.6,107.2 337.7,107.0 351.8,105.1 365.9,103.3 380.0,98.5 394.1,94.0 408.2,90.6 422.3,87.2 436.4,86.1 450.5,77.4 464.5,72.2 478.6,70.3 492.7,70.0 506.8,68.5 520.9,68.4 535.0,68.4 549.1,67.8 563.2,67.7 577.3,67.5 591.4,67.0 605.5,64.0 619.5,63.9 633.6,63.2 647.7,62.1 661.8,61.9 675.9,61.6 690.0,61.3 690.0,270.0 70.0,270.0" fill="#58a6ff" opacity="0.15"/>
  <polyline points="70.0,186.8 84.1,186.8 98.2,185.7 112.3,173.3 126.4,165.4 140.5,163.2 154.5,161.4 168.6,154.9 182.7,154.6 196.8,152.7 210.9,152.1 225.0,152.0 239.1,142.5 253.2,129.9 267.3,119.4 281.4,115.3 295.5,111.3 309.5,108.1 323.6,107.2 337.7,107.0 351.8,105.1 365.9,103.3 380.0,98.5 394.1,94.0 408.2,90.6 422.3,87.2 436.4,86.1 450.5,77.4 464.5,72.2 478.6,70.3 492.7,70.0 506.8,68.5 520.9,68.4 535.0,68.4 549.1,67.8 563.2,67.7 577.3,67.5 591.4,67.0 605.5,64.0 619.5,63.9 633.6,63.2 647.7,62.1 661.8,61.9 675.9,61.6 690.0,61.3" fill="none" stroke="#58a6ff" stroke-width="2.5" stroke-linejoin="round" stroke-linecap="round"/>
  <text x="70.0" y="310" text-anchor="middle" fill="#8b949e" font-family="sans-serif" font-size="11">03-12</text><text x="225.0" y="310" text-anchor="middle" fill="#8b949e" font-family="sans-serif" font-size="11">03-23</text><text x="380.0" y="310" text-anchor="middle" fill="#8b949e" font-family="sans-serif" font-size="11">04-03</text><text x="535.0" y="310" text-anchor="middle" fill="#8b949e" font-family="sans-serif" font-size="11">04-14</text><text x="690.0" y="310" text-anchor="middle" fill="#8b949e" font-family="sans-serif" font-size="11">04-25</text>
  <text x="694.0" y="53.3" fill="#58a6ff" font-family="sans-serif" font-size="12" font-weight="bold">9.9K</text>
</svg>