<svg xmlns="http://www.w3.org/2000/svg" width="720" height="320">
  <rect width="720" height="320" fill="#0d1117" rx="8"/>
  <text x="70" y="22" fill="#c9d1d9" font-family="sans-serif" font-size="14" font-weight="bold">Total Downloads Over Time</text>
  <line x1="70" y1="270.0" x2="690" y2="270.0" stroke="#21262d" stroke-width="1"/><text x="62" y="274.0" text-anchor="end" fill="#8b949e" font-family="sans-serif" font-size="11">0</text><line x1="70" y1="210.0" x2="690" y2="210.0" stroke="#21262d" stroke-width="1"/><text x="62" y="214.0" text-anchor="end" fill="#8b949e" font-family="sans-serif" font-size="11">3.4K</text><line x1="70" y1="150.0" x2="690" y2="150.0" stroke="#21262d" stroke-width="1"/><text x="62" y="154.0" text-anchor="end" fill="#8b949e" font-family="sans-serif" font-size="11">6.8K</text><line x1="70" y1="90.0" x2="690" y2="90.0" stroke="#21262d" stroke-width="1"/><text x="62" y="94.0" text-anchor="end" fill="#8b949e" font-family="sans-serif" font-size="11">10.2K</text><line x1="70" y1="30.0" x2="690" y2="30.0" stroke="#21262d" stroke-width="1"/><text x="62" y="34.0" text-anchor="end" fill="#8b949e" font-family="sans-serif" font-size="11">13.7K</text>
  <polygon points="70.0,200.7 75.0,200.7 80.0,199.8 85.0,189.5 90.0,182.9 95.0,181.1 100.0,179.6 105.0,174.2 110.0,173.9 115.0,172.3 120.0,171.9 125.0,171.7 130.0,163.8 135.0,153.4 140.0,144.6 145.0,141.2 150.0,137.9 155.0,135.2 160.0,134.4 165.0,134.3 170.0,132.7 175.0,131.2 180.0,127.2 185.0,123.4 190.0,120.6 195.0,117.8 200.0,116.9 205.0,109.7 210.0,105.3 215.0,103.7 220.0,103.5 225.0,102.3 230.0,102.2 235.0,102.2 240.0,101.7 245.0,101.5 250.0,101.4 255.0,101.0 260.0,98.4 265.0,98.4 270.0,97.8 275.0,96.9 280.0,96.7 285.0,96.5 290.0,96.2 295.0,96.0 300.0,95.8 305.0,95.8 310.0,95.7 315.0,94.0 320.0,93.7 325.0,93.7 330.0,93.5 335.0,93.5 340.0,93.4 345.0,92.4 350.0,92.3 355.0,92.1 360.0,92.1 365.0,90.8 370.0,90.5 375.0,90.2 380.0,88.0 385.0,87.9 390.0,87.4 395.0,85.4 400.0,85.2 405.0,85.2 410.0,85.1 415.0,85.0 420.0,85.0 425.0,84.6 430.0,84.6 435.0,84.6 440.0,84.4 445.0,84.1 450.0,82.9 455.0,80.6 460.0,80.6 465.0,80.5 470.0,80.5 475.0,79.3 480.0,79.3 485.0,79.2 490.0,78.5 495.0,78.5 500.0,75.3 505.0,73.8 510.0,73.8 515.0,73.7 520.0,73.6 525.0,73.3 530.0,73.1 535.0,73.1 540.0,73.1 545.0,73.0 550.0,72.6 555.0,71.9 560.0,71.8 565.0,71.7 570.0,71.6 575.0,71.5 580.0,71.4 585.0,71.4 590.0,69.3 595.0,69.2 600.0,69.2 605.0,68.8 610.0,68.5 615.0,68.3 620.0,67.8 625.0,67.6 630.0,66.5 635.0,66.3 640.0,66.1 645.0,65.6 650.0,65.4 655.0,65.2 660.0,64.6 665.0,64.1 670.0,63.8 675.0,63.8 680.0,63.7 685.0,61.4 690.0,61.3 690.0,270.0 70.0,270.0" fill="#58a6ff" opacity="0.15"/>
  <polyline points="70.0,200.7 75.0,200.7 80.0,199.8 85.0,189.5 90.0,182.9 95.0,181.1 100.0,179.6 105.0,174.2 110.0,173.9 115.0,172.3 120.0,171.9 125.0,171.7 130.0,163.8 135.0,153.4 140.0,144.6 145.0,141.2 150.0,137.9 155.0,135.2 160.0,134.4 165.0,134.3 170.0,132.7 175.0,131.2 180.0,127.2 185.0,123.4 190.0,120.6 195.0,117.8 200.0,116.9 205.0,109.7 210.0,105.3 215.0,103.7 220.0,103.5 225.0,102.3 230.0,102.2 235.0,102.2 240.0,101.7 245.0,101.5 250.0,101.4 255.0,101.0 260.0,98.4 265.0,98.4 270.0,97.8 275.0,96.9 280.0,96.7 285.0,96.5 290.0,96.2 295.0,96.0 300.0,95.8 305.0,95.8 310.0,95.7 315.0,94.0 320.0,93.7 325.0,93.7 330.0,93.5 335.0,93.5 340.0,93.4 345.0,92.4 350.0,92.3 355.0,92.1 360.0,92.1 365.0,90.8 370.0,90.5 375.0,90.2 380.0,88.0 385.0,87.9 390.0,87.4 395.0,85.4 400.0,85.2 405.0,85.2 410.0,85.1 415.0,85.0 420.0,85.0 425.0,84.6 430.0,84.6 435.0,84.6 440.0,84.4 445.0,84.1 450.0,82.9 455.0,80.6 460.0,80.6 465.0,80.5 470.0,80.5 475.0,79.3 480.0,79.3 485.0,79.2 490.0,78.5 495.0,78.5 500.0,75.3 505.0,73.8 510.0,73.8 515.0,73.7 520.0,73.6 525.0,73.3 530.0,73.1 535.0,73.1 540.0,73.1 545.0,73.0 550.0,72.6 555.0,71.9 560.0,71.8 565.0,71.7 570.0,71.6 575.0,71.5 580.0,71.4 585.0,71.4 590.0,69.3 595.0,69.2 600.0,69.2 605.0,68.8 610.0,68.5 615.0,68.3 620.0,67.8 625.0,67.6 630.0,66.5 635.0,66.3 640.0,66.1 645.0,65.6 650.0,65.4 655.0,65.2 660.0,64.6 665.0,64.1 670.0,63.8 675.0,63.8 680.0,63.7 685.0,61.4 690.0,61.3" fill="none" stroke="#58a6ff" stroke-width="2.5" stroke-linejoin="round" stroke-linecap="round"/>
  <text x="70.0" y="310" text-anchor="middle" fill="#8b949e" font-family="sans-serif" font-size="11">03-12</text><text x="225.0" y="310" text-anchor="middle" fill="#8b949e" font-family="sans-serif" font-size="11">04-12</text><text x="380.0" y="310" text-anchor="middle" fill="#8b949e" font-family="sans-serif" font-size="11">05-13</text><text x="535.0" y="310" text-anchor="middle" fill="#8b949e" font-family="sans-serif" font-size="11">06-13</text><text x="690.0" y="310" text-anchor="middle" fill="#8b949e" font-family="sans-serif" font-size="11">07-14</text>
  <text x="694.0" y="53.3" fill="#58a6ff" font-family="sans-serif" font-size="12" font-weight="bold">11.9K</text>
</svg>