<svg xmlns="http://www.w3.org/2000/svg" width="720" height="320">
  <rect width="720" height="320" fill="#0d1117" rx="8"/>
  <text x="70" y="22" fill="#c9d1d9" font-family="sans-serif" font-size="14" font-weight="bold">Total Downloads Over Time</text>
  <line x1="70" y1="270.0" x2="690" y2="270.0" stroke="#21262d" stroke-width="1"/><text x="62" y="274.0" text-anchor="end" fill="#8b949e" font-family="sans-serif" font-size="11">0</text><line x1="70" y1="210.0" x2="690" y2="210.0" stroke="#21262d" stroke-width="1"/><text x="62" y="214.0" text-anchor="end" fill="#8b949e" font-family="sans-serif" font-size="11">3.0K</text><line x1="70" y1="150.0" x2="690" y2="150.0" stroke="#21262d" stroke-width="1"/><text x="62" y="154.0" text-anchor="end" fill="#8b949e" font-family="sans-serif" font-size="11">6.1K</text><line x1="70" y1="90.0" x2="690" y2="90.0" stroke="#21262d" stroke-width="1"/><text x="62" y="94.0" text-anchor="end" fill="#8b949e" font-family="sans-serif" font-size="11">9.1K</text><line x1="70" y1="30.0" x2="690" y2="30.0" stroke="#21262d" stroke-width="1"/><text x="62" y="34.0" text-anchor="end" fill="#8b949e" font-family="sans-serif" font-size="11">12.2K</text>
  <polygon points="70.0,192.2 78.3,192.2 86.5,191.2 94.8,179.6 103.1,172.3 111.3,170.2 119.6,168.5 127.9,162.4 136.1,162.1 144.4,160.3 152.7,159.8 160.9,159.7 169.2,150.8 177.5,139.1 185.7,129.2 194.0,125.4 202.3,121.7 210.5,118.7 218.8,117.8 227.1,117.6 235.3,115.9 243.6,114.1 251.9,109.7 260.1,105.5 268.4,102.3 276.7,99.1 284.9,98.1 293.2,90.0 301.5,85.0 309.7,83.3 318.0,83.0 326.3,81.7 334.5,81.6 342.8,81.5 351.1,81.0 359.3,80.9 367.6,80.7 375.9,80.2 384.1,77.4 392.4,77.3 400.7,76.7 408.9,75.6 417.2,75.5 425.5,75.2 433.7,74.9 442.0,74.6 450.3,74.4 458.5,74.4 466.8,74.2 475.1,72.4 483.3,72.1 491.6,72.0 499.9,71.9 508.1,71.8 516.4,71.7 524.7,70.6 532.9,70.5 541.2,70.3 549.5,70.2 557.7,68.8 566.0,68.4 574.3,68.1 582.5,65.7 590.8,65.5 599.1,65.0 607.3,62.7 615.6,62.5 623.9,62.5 632.1,62.4 640.4,62.2 648.7,62.2 656.9,61.9 665.2,61.8 673.5,61.8 681.7,61.6 690.0,61.3 690.0,270.0 70.0,270.0" fill="#58a6ff" opacity="0.15"/>
  <polyline points="70.0,192.2 78.3,192.2 86.5,191.2 94.8,179.6 103.1,172.3 111.3,170.2 119.6,168.5 127.9,162.4 136.1,162.1 144.4,160.3 152.7,159.8 160.9,159.7 169.2,150.8 177.5,139.1 185.7,129.2 194.0,125.4 202.3,121.7 210.5,118.7 218.8,117.8 227.1,117.6 235.3,115.9 243.6,114.1 251.9,109.7 260.1,105.5 268.4,102.3 276.7,99.1 284.9,98.1 293.2,90.0 301.5,85.0 309.7,83.3 318.0,83.0 326.3,81.7 334.5,81.6 342.8,81.5 351.1,81.0 359.3,80.9 367.6,80.7 375.9,80.2 384.1,77.4 392.4,77.3 400.7,76.7 408.9,75.6 417.2,75.5 425.5,75.2 433.7,74.9 442.0,74.6 450.3,74.4 458.5,74.4 466.8,74.2 475.1,72.4 483.3,72.1 491.6,72.0 499.9,71.9 508.1,71.8 516.4,71.7 524.7,70.6 532.9,70.5 541.2,70.3 549.5,70.2 557.7,68.8 566.0,68.4 574.3,68.1 582.5,65.7 590.8,65.5 599.1,65.0 607.3,62.7 615.6,62.5 623.9,62.5 632.1,62.4 640.4,62.2 648.7,62.2 656.9,61.9 665.2,61.8 673.5,61.8 681.7,61.6 690.0,61.3" fill="none" stroke="#58a6ff" stroke-width="2.5" stroke-linejoin="round" stroke-linecap="round"/>
  <text x="70.0" y="310" text-anchor="middle" fill="#8b949e" font-family="sans-serif" font-size="11">03-12</text><text x="218.8" y="310" text-anchor="middle" fill="#8b949e" font-family="sans-serif" font-size="11">03-30</text><text x="367.6" y="310" text-anchor="middle" fill="#8b949e" font-family="sans-serif" font-size="11">04-17</text><text x="516.4" y="310" text-anchor="middle" fill="#8b949e" font-family="sans-serif" font-size="11">05-05</text><text x="665.2" y="310" text-anchor="middle" fill="#8b949e" font-family="sans-serif" font-size="11">05-23</text>
  <text x="694.0" y="53.3" fill="#58a6ff" font-family="sans-serif" font-size="12" font-weight="bold">10.6K</text>
</svg>