<svg xmlns="http://www.w3.org/2000/svg" width="720" height="320">
  <rect width="720" height="320" fill="#0d1117" rx="8"/>
  <text x="70" y="22" fill="#c9d1d9" font-family="sans-serif" font-size="14" font-weight="bold">Total Downloads Over Time</text>
  <line x1="70" y1="270.0" x2="690" y2="270.0" stroke="#21262d" stroke-width="1"/><text x="62" y="274.0" text-anchor="end" fill="#8b949e" font-family="sans-serif" font-size="11">0</text><line x1="70" y1="210.0" x2="690" y2="210.0" stroke="#21262d" stroke-width="1"/><text x="62" y="214.0" text-anchor="end" fill="#8b949e" font-family="sans-serif" font-size="11">3.2K</text><line x1="70" y1="150.0" x2="690" y2="150.0" stroke="#21262d" stroke-width="1"/><text x="62" y="154.0" text-anchor="end" fill="#8b949e" font-family="sans-serif" font-size="11">6.5K</text><line x1="70" y1="90.0" x2="690" y2="90.0" stroke="#21262d" stroke-width="1"/><text x="62" y="94.0" text-anchor="end" fill="#8b949e" font-family="sans-serif" font-size="11">9.7K</text><line x1="70" y1="30.0" x2="690" y2="30.0" stroke="#21262d" stroke-width="1"/><text x="62" y="34.0" text-anchor="end" fill="#8b949e" font-family="sans-serif" font-size="11">13.0K</text>
  <polygon points="70.0,197.1 76.3,197.0 82.7,196.1 89.0,185.2 95.3,178.3 101.6,176.4 108.0,174.8 114.3,169.1 120.6,168.8 126.9,167.1 133.3,166.7 139.6,166.5 145.9,158.2 152.2,147.2 158.6,138.0 164.9,134.4 171.2,130.9 177.6,128.1 183.9,127.3 190.2,127.1 196.5,125.5 202.9,123.8 209.2,119.7 215.5,115.7 221.8,112.7 228.2,109.7 234.5,108.8 240.8,101.2 247.1,96.6 253.5,94.9 259.8,94.7 266.1,93.4 272.4,93.3 278.8,93.3 285.1,92.8 291.4,92.6 297.8,92.5 304.1,92.0 310.4,89.4 316.7,89.3 323.1,88.7 329.4,87.8 335.7,87.6 342.0,87.3 348.4,87.1 354.7,86.8 361.0,86.6 367.3,86.6 373.7,86.4 380.0,84.7 386.3,84.4 392.7,84.4 399.0,84.2 405.3,84.1 411.6,84.1 418.0,83.0 424.3,82.9 430.6,82.7 436.9,82.7 443.3,81.3 449.6,81.0 455.9,80.7 462.2,78.4 468.6,78.3 474.9,77.8 481.2,75.6 487.6,75.5 493.9,75.4 500.2,75.3 506.5,75.2 512.9,75.2 519.2,74.8 525.5,74.8 531.8,74.8 538.2,74.6 544.5,74.3 550.8,73.1 557.1,70.6 563.5,70.6 569.8,70.5 576.1,70.4 582.4,69.2 588.8,69.2 595.1,69.1 601.4,68.4 607.8,68.4 614.1,65.0 620.4,63.4 626.7,63.4 633.1,63.3 639.4,63.2 645.7,62.9 652.0,62.7 658.4,62.7 664.7,62.7 671.0,62.6 677.3,62.2 683.7,61.4 690.0,61.3 690.0,270.0 70.0,270.0" fill="#58a6ff" opacity="0.15"/>
  <polyline points="70.0,197.1 76.3,197.0 82.7,196.1 89.0,185.2 95.3,178.3 101.6,176.4 108.0,174.8 114.3,169.1 120.6,168.8 126.9,167.1 133.3,166.7 139.6,166.5 145.9,158.2 152.2,147.2 158.6,138.0 164.9,134.4 171.2,130.9 177.6,128.1 183.9,127.3 190.2,127.1 196.5,125.5 202.9,123.8 209.2,119.7 215.5,115.7 221.8,112.7 228.2,109.7 234.5,108.8 240.8,101.2 247.1,96.6 253.5,94.9 259.8,94.7 266.1,93.4 272.4,93.3 278.8,93.3 285.1,92.8 291.4,92.6 297.8,92.5 304.1,92.0 310.4,89.4 316.7,89.3 323.1,88.7 329.4,87.8 335.7,87.6 342.0,87.3 348.4,87.1 354.7,86.8 361.0,86.6 367.3,86.6 373.7,86.4 380.0,84.7 386.3,84.4 392.7,84.4 399.0,84.2 405.3,84.1 411.6,84.1 418.0,83.0 424.3,82.9 430.6,82.7 436.9,82.7 443.3,81.3 449.6,81.0 455.9,80.7 462.2,78.4 468.6,78.3 474.9,77.8 481.2,75.6 487.6,75.5 493.9,75.4 500.2,75.3 506.5,75.2 512.9,75.2 519.2,74.8 525.5,74.8 531.8,74.8 538.2,74.6 544.5,74.3 550.8,73.1 557.1,70.6 563.5,70.6 569.8,70.5 576.1,70.4 582.4,69.2 588.8,69.2 595.1,69.1 601.4,68.4 607.8,68.4 614.1,65.0 620.4,63.4 626.7,63.4 633.1,63.3 639.4,63.2 645.7,62.9 652.0,62.7 658.4,62.7 664.7,62.7 671.0,62.6 677.3,62.2 683.7,61.4 690.0,61.3" fill="none" stroke="#58a6ff" stroke-width="2.5" stroke-linejoin="round" stroke-linecap="round"/>
  <text x="70.0" y="310" text-anchor="middle" fill="#8b949e" font-family="sans-serif" font-size="11">03-12</text><text x="221.8" y="310" text-anchor="middle" fill="#8b949e" font-family="sans-serif" font-size="11">04-05</text><text x="373.7" y="310" text-anchor="middle" fill="#8b949e" font-family="sans-serif" font-size="11">04-29</text><text x="525.5" y="310" text-anchor="middle" fill="#8b949e" font-family="sans-serif" font-size="11">05-23</text><text x="677.3" y="310" text-anchor="middle" fill="#8b949e" font-family="sans-serif" font-size="11">06-16</text>
  <text x="694.0" y="53.3" fill="#58a6ff" font-family="sans-serif" font-size="12" font-weight="bold">11.3K</text>
</svg>