<svg xmlns="http://www.w3.org/2000/svg" width="720" height="320">
  <rect width="720" height="320" fill="#0d1117" rx="8"/>
  <text x="70" y="22" fill="#c9d1d9" font-family="sans-serif" font-size="14" font-weight="bold">Total Downloads Over Time</text>
  <line x1="70" y1="270.0" x2="690" y2="270.0" stroke="#21262d" stroke-width="1"/><text x="62" y="274.0" text-anchor="end" fill="#8b949e" font-family="sans-serif" font-size="11">0</text><line x1="70" y1="210.0" x2="690" y2="210.0" stroke="#21262d" stroke-width="1"/><text x="62" y="214.0" text-anchor="end" fill="#8b949e" font-family="sans-serif" font-size="11">2.8K</text><line x1="70" y1="150.0" x2="690" y2="150.0" stroke="#21262d" stroke-width="1"/><text x="62" y="154.0" text-anchor="end" fill="#8b949e" font-family="sans-serif" font-size="11">5.7K</text><line x1="70" y1="90.0" x2="690" y2="90.0" stroke="#21262d" stroke-width="1"/><text x="62" y="94.0" text-anchor="end" fill="#8b949e" font-family="sans-serif" font-size="11">8.5K</text><line x1="70" y1="30.0" x2="690" y2="30.0" stroke="#21262d" stroke-width="1"/><text x="62" y="34.0" text-anchor="end" fill="#8b949e" font-family="sans-serif" font-size="11">11.3K</text>
  <polygon points="70.0,186.5 85.1,186.5 100.2,185.4 115.4,172.9 130.5,165.0 145.6,162.8 160.7,161.0 175.9,154.5 191.0,154.1 206.1,152.2 221.2,151.7 236.3,151.5 251.5,142.0 266.6,129.4 281.7,118.8 296.8,114.7 312.0,110.7 327.1,107.5 342.2,106.6 357.3,106.4 372.4,104.5 387.6,102.6 402.7,97.9 417.8,93.3 432.9,89.9 448.0,86.5 463.2,85.4 478.3,76.7 493.4,71.4 508.5,69.5 523.7,69.2 538.8,67.8 553.9,67.7 569.0,67.6 584.1,67.0 599.3,66.9 614.4,66.7 629.5,66.2 644.6,63.2 659.8,63.1 674.9,62.4 690.0,61.3 690.0,270.0 70.0,270.0" fill="#58a6ff" opacity="0.15"/>
  <polyline points="70.0,186.5 85.1,186.5 100.2,185.4 115.4,172.9 130.5,165.0 145.6,162.8 160.7,161.0 175.9,154.5 191.0,154.1 206.1,152.2 221.2,151.7 236.3,151.5 251.5,142.0 266.6,129.4 281.7,118.8 296.8,114.7 312.0,110.7 327.1,107.5 342.2,106.6 357.3,106.4 372.4,104.5 387.6,102.6 402.7,97.9 417.8,93.3 432.9,89.9 448.0,86.5 463.2,85.4 478.3,76.7 493.4,71.4 508.5,69.5 523.7,69.2 538.8,67.8 553.9,67.7 569.0,67.6 584.1,67.0 599.3,66.9 614.4,66.7 629.5,66.2 644.6,63.2 659.8,63.1 674.9,62.4 690.0,61.3" fill="none" stroke="#58a6ff" stroke-width="2.5" stroke-linejoin="round" stroke-linecap="round"/>
  <text x="70.0" y="310" text-anchor="middle" fill="#8b949e" font-family="sans-serif" font-size="11">03-12</text><text x="221.2" y="310" text-anchor="middle" fill="#8b949e" font-family="sans-serif" font-size="11">03-22</text><text x="372.4" y="310" text-anchor="middle" fill="#8b949e" font-family="sans-serif" font-size="11">04-01</text><text x="523.7" y="310" text-anchor="middle" fill="#8b949e" font-family="sans-serif" font-size="11">04-11</text><text x="674.9" y="310" text-anchor="middle" fill="#8b949e" font-family="sans-serif" font-size="11">04-21</text>
  <text x="694.0" y="53.3" fill="#58a6ff" font-family="sans-serif" font-size="12" font-weight="bold">9.9K</text>
</svg>