<svg xmlns="http://www.w3.org/2000/svg" width="720" height="320">
  <rect width="720" height="320" fill="#0d1117" rx="8"/>
  <text x="70" y="22" fill="#c9d1d9" font-family="sans-serif" font-size="14" font-weight="bold">Total Downloads Over Time</text>
  <line x1="70" y1="270.0" x2="690" y2="270.0" stroke="#21262d" stroke-width="1"/><text x="62" y="274.0" text-anchor="end" fill="#8b949e" font-family="sans-serif" font-size="11">0</text><line x1="70" y1="210.0" x2="690" y2="210.0" stroke="#21262d" stroke-width="1"/><text x="62" y="214.0" text-anchor="end" fill="#8b949e" font-family="sans-serif" font-size="11">3.1K</text><line x1="70" y1="150.0" x2="690" y2="150.0" stroke="#21262d" stroke-width="1"/><text x="62" y="154.0" text-anchor="end" fill="#8b949e" font-family="sans-serif" font-size="11">6.2K</text><line x1="70" y1="90.0" x2="690" y2="90.0" stroke="#21262d" stroke-width="1"/><text x="62" y="94.0" text-anchor="end" fill="#8b949e" font-family="sans-serif" font-size="11">9.3K</text><line x1="70" y1="30.0" x2="690" y2="30.0" stroke="#21262d" stroke-width="1"/><text x="62" y="34.0" text-anchor="end" fill="#8b949e" font-family="sans-serif" font-size="11">12.4K</text>
  <polygon points="70.0,193.7 78.1,193.7 86.1,192.7 94.2,181.3 102.2,174.1 110.3,172.1 118.3,170.4 126.4,164.4 134.4,164.1 142.5,162.4 150.5,161.9 158.6,161.7 166.6,153.0 174.7,141.5 182.7,131.8 190.8,128.1 198.8,124.4 206.9,121.5 214.9,120.7 223.0,120.5 231.0,118.7 239.1,117.0 247.1,112.7 255.2,108.5 263.2,105.4 271.3,102.3 279.4,101.3 287.4,93.4 295.5,88.5 303.5,86.8 311.6,86.5 319.6,85.2 327.7,85.1 335.7,85.1 343.8,84.5 351.8,84.4 359.9,84.3 367.9,83.8 376.0,81.0 384.0,80.9 392.1,80.3 400.1,79.3 408.2,79.1 416.2,78.8 424.3,78.6 432.3,78.3 440.4,78.1 448.4,78.0 456.5,77.9 464.5,76.1 472.6,75.8 480.6,75.7 488.7,75.6 496.8,75.5 504.8,75.4 512.9,74.4 520.9,74.2 529.0,74.0 537.0,74.0 545.1,72.5 553.1,72.2 561.2,71.9 569.2,69.5 577.3,69.4 585.3,68.9 593.4,66.6 601.4,66.4 609.5,66.4 617.5,66.3 625.6,66.1 633.6,66.1 641.7,65.8 649.7,65.7 657.8,65.7 665.8,65.5 673.9,65.2 681.9,63.9 690.0,61.3 690.0,270.0 70.0,270.0" fill="#58a6ff" opacity="0.15"/>
  <polyline points="70.0,193.7 78.1,193.7 86.1,192.7 94.2,181.3 102.2,174.1 110.3,172.1 118.3,170.4 126.4,164.4 134.4,164.1 142.5,162.4 150.5,161.9 158.6,161.7 166.6,153.0 174.7,141.5 182.7,131.8 190.8,128.1 198.8,124.4 206.9,121.5 214.9,120.7 223.0,120.5 231.0,118.7 239.1,117.0 247.1,112.7 255.2,108.5 263.2,105.4 271.3,102.3 279.4,101.3 287.4,93.4 295.5,88.5 303.5,86.8 311.6,86.5 319.6,85.2 327.7,85.1 335.7,85.1 343.8,84.5 351.8,84.4 359.9,84.3 367.9,83.8 376.0,81.0 384.0,80.9 392.1,80.3 400.1,79.3 408.2,79.1 416.2,78.8 424.3,78.6 432.3,78.3 440.4,78.1 448.4,78.0 456.5,77.9 464.5,76.1 472.6,75.8 480.6,75.7 488.7,75.6 496.8,75.5 504.8,75.4 512.9,74.4 520.9,74.2 529.0,74.0 537.0,74.0 545.1,72.5 553.1,72.2 561.2,71.9 569.2,69.5 577.3,69.4 585.3,68.9 593.4,66.6 601.4,66.4 609.5,66.4 617.5,66.3 625.6,66.1 633.6,66.1 641.7,65.8 649.7,65.7 657.8,65.7 665.8,65.5 673.9,65.2 681.9,63.9 690.0,61.3" fill="none" stroke="#58a6ff" stroke-width="2.5" stroke-linejoin="round" stroke-linecap="round"/>
  <text x="70.0" y="310" text-anchor="middle" fill="#8b949e" font-family="sans-serif" font-size="11">03-12</text><text x="223.0" y="310" text-anchor="middle" fill="#8b949e" font-family="sans-serif" font-size="11">03-31</text><text x="376.0" y="310" text-anchor="middle" fill="#8b949e" font-family="sans-serif" font-size="11">04-19</text><text x="529.0" y="310" text-anchor="middle" fill="#8b949e" font-family="sans-serif" font-size="11">05-08</text><text x="681.9" y="310" text-anchor="middle" fill="#8b949e" font-family="sans-serif" font-size="11">05-27</text>
  <text x="694.0" y="53.3" fill="#58a6ff" font-family="sans-serif" font-size="12" font-weight="bold">10.8K</text>
</svg>