<svg xmlns="http://www.w3.org/2000/svg" width="720" height="320">
  <rect width="720" height="320" fill="#0d1117" rx="8"/>
  <text x="70" y="22" fill="#c9d1d9" font-family="sans-serif" font-size="14" font-weight="bold">Total Downloads Over Time</text>
  <line x1="70" y1="270.0" x2="690" y2="270.0" stroke="#21262d" stroke-width="1"/><text x="62" y="274.0" text-anchor="end" fill="#8b949e" font-family="sans-serif" font-size="11">0</text><line x1="70" y1="210.0" x2="690" y2="210.0" stroke="#21262d" stroke-width="1"/><text x="62" y="214.0" text-anchor="end" fill="#8b949e" font-family="sans-serif" font-size="11">2.7K</text><line x1="70" y1="150.0" x2="690" y2="150.0" stroke="#21262d" stroke-width="1"/><text x="62" y="154.0" text-anchor="end" fill="#8b949e" font-family="sans-serif" font-size="11">5.4K</text><line x1="70" y1="90.0" x2="690" y2="90.0" stroke="#21262d" stroke-width="1"/><text x="62" y="94.0" text-anchor="end" fill="#8b949e" font-family="sans-serif" font-size="11">8.2K</text><line x1="70" y1="30.0" x2="690" y2="30.0" stroke="#21262d" stroke-width="1"/><text x="62" y="34.0" text-anchor="end" fill="#8b949e" font-family="sans-serif" font-size="11">10.9K</text>
  <polygon points="70.0,183.2 90.7,183.2 111.3,182.0 132.0,169.1 152.7,160.9 173.3,158.6 194.0,156.7 214.7,149.9 235.3,149.5 256.0,147.6 276.7,147.0 297.3,146.8 318.0,136.9 338.7,123.9 359.3,112.8 380.0,108.6 400.7,104.4 421.3,101.1 442.0,100.1 462.7,99.9 483.3,97.9 504.0,96.0 524.7,91.1 545.3,86.3 566.0,82.8 586.7,79.2 607.3,78.1 628.0,69.1 648.7,63.6 669.3,61.6 690.0,61.3 690.0,270.0 70.0,270.0" fill="#58a6ff" opacity="0.15"/>
  <polyline points="70.0,183.2 90.7,183.2 111.3,182.0 132.0,169.1 152.7,160.9 173.3,158.6 194.0,156.7 214.7,149.9 235.3,149.5 256.0,147.6 276.7,147.0 297.3,146.8 318.0,136.9 338.7,123.9 359.3,112.8 380.0,108.6 400.7,104.4 421.3,101.1 442.0,100.1 462.7,99.9 483.3,97.9 504.0,96.0 524.7,91.1 545.3,86.3 566.0,82.8 586.7,79.2 607.3,78.1 628.0,69.1 648.7,63.6 669.3,61.6 690.0,61.3" fill="none" stroke="#58a6ff" stroke-width="2.5" stroke-linejoin="round" stroke-linecap="round"/>
  <text x="70.0" y="310" text-anchor="middle" fill="#8b949e" font-family="sans-serif" font-size="11">03-12</text><text x="214.7" y="310" text-anchor="middle" fill="#8b949e" font-family="sans-serif" font-size="11">03-19</text><text x="359.3" y="310" text-anchor="middle" fill="#8b949e" font-family="sans-serif" font-size="11">03-26</text><text x="504.0" y="310" text-anchor="middle" fill="#8b949e" font-family="sans-serif" font-size="11">04-02</text><text x="648.7" y="310" text-anchor="middle" fill="#8b949e" font-family="sans-serif" font-size="11">04-09</text>
  <text x="694.0" y="53.3" fill="#58a6ff" font-family="sans-serif" font-size="12" font-weight="bold">9.5K</text>
</svg>