<svg xmlns="http://www.w3.org/2000/svg" width="720" height="320">
  <rect width="720" height="320" fill="#0d1117" rx="8"/>
  <text x="70" y="22" fill="#c9d1d9" font-family="sans-serif" font-size="14" font-weight="bold">Total Downloads Over Time</text>
  <line x1="70" y1="270.0" x2="690" y2="270.0" stroke="#21262d" stroke-width="1"/><text x="62" y="274.0" text-anchor="end" fill="#8b949e" font-family="sans-serif" font-size="11">0</text><line x1="70" y1="210.0" x2="690" y2="210.0" stroke="#21262d" stroke-width="1"/><text x="62" y="214.0" text-anchor="end" fill="#8b949e" font-family="sans-serif" font-size="11">2.5K</text><line x1="70" y1="150.0" x2="690" y2="150.0" stroke="#21262d" stroke-width="1"/><text x="62" y="154.0" text-anchor="end" fill="#8b949e" font-family="sans-serif" font-size="11">5.0K</text><line x1="70" y1="90.0" x2="690" y2="90.0" stroke="#21262d" stroke-width="1"/><text x="62" y="94.0" text-anchor="end" fill="#8b949e" font-family="sans-serif" font-size="11">7.5K</text><line x1="70" y1="30.0" x2="690" y2="30.0" stroke="#21262d" stroke-width="1"/><text x="62" y="34.0" text-anchor="end" fill="#8b949e" font-family="sans-serif" font-size="11">10.0K</text>
  <polygon points="70.0,175.0 94.8,175.0 119.6,173.8 144.4,159.6 169.2,150.6 194.0,148.1 218.8,146.0 243.6,138.6 268.4,138.2 293.2,136.0 318.0,135.5 342.8,135.3 367.6,124.4 392.4,110.1 417.2,98.1 442.0,93.5 466.8,88.9 491.6,85.2 516.4,84.2 541.2,83.9 566.0,81.8 590.8,79.7 615.6,74.3 640.4,69.1 665.2,65.2 690.0,61.3 690.0,270.0 70.0,270.0" fill="#58a6ff" opacity="0.15"/>
  <polyline points="70.0,175.0 94.8,175.0 119.6,173.8 144.4,159.6 169.2,150.6 194.0,148.1 218.8,146.0 243.6,138.6 268.4,138.2 293.2,136.0 318.0,135.5 342.8,135.3 367.6,124.4 392.4,110.1 417.2,98.1 442.0,93.5 466.8,88.9 491.6,85.2 516.4,84.2 541.2,83.9 566.0,81.8 590.8,79.7 615.6,74.3 640.4,69.1 665.2,65.2 690.0,61.3" fill="none" stroke="#58a6ff" stroke-width="2.5" stroke-linejoin="round" stroke-linecap="round"/>
  <text x="70.0" y="310" text-anchor="middle" fill="#8b949e" font-family="sans-serif" font-size="11">03-12</text><text x="218.8" y="310" text-anchor="middle" fill="#8b949e" font-family="sans-serif" font-size="11">03-18</text><text x="367.6" y="310" text-anchor="middle" fill="#8b949e" font-family="sans-serif" font-size="11">03-24</text><text x="516.4" y="310" text-anchor="middle" fill="#8b949e" font-family="sans-serif" font-size="11">03-30</text><text x="665.2" y="310" text-anchor="middle" fill="#8b949e" font-family="sans-serif" font-size="11">04-05</text>
  <text x="694.0" y="53.3" fill="#58a6ff" font-family="sans-serif" font-size="12" font-weight="bold">8.7K</text>
</svg>