<svg xmlns="http://www.w3.org/2000/svg" width="720" height="320">
  <rect width="720" height="320" fill="#0d1117" rx="8"/>
  <text x="70" y="22" fill="#c9d1d9" font-family="sans-serif" font-size="14" font-weight="bold">Total Downloads Over Time</text>
  <line x1="70" y1="270.0" x2="690" y2="270.0" stroke="#21262d" stroke-width="1"/><text x="62" y="274.0" text-anchor="end" fill="#8b949e" font-family="sans-serif" font-size="11">0</text><line x1="70" y1="210.0" x2="690" y2="210.0" stroke="#21262d" stroke-width="1"/><text x="62" y="214.0" text-anchor="end" fill="#8b949e" font-family="sans-serif" font-size="11">2.2K</text><line x1="70" y1="150.0" x2="690" y2="150.0" stroke="#21262d" stroke-width="1"/><text x="62" y="154.0" text-anchor="end" fill="#8b949e" font-family="sans-serif" font-size="11">4.5K</text><line x1="70" y1="90.0" x2="690" y2="90.0" stroke="#21262d" stroke-width="1"/><text x="62" y="94.0" text-anchor="end" fill="#8b949e" font-family="sans-serif" font-size="11">6.7K</text><line x1="70" y1="30.0" x2="690" y2="30.0" stroke="#21262d" stroke-width="1"/><text x="62" y="34.0" text-anchor="end" fill="#8b949e" font-family="sans-serif" font-size="11">9.0K</text>
  <polygon points="70.0,164.7 101.0,164.7 132.0,163.3 163.0,147.6 194.0,137.7 225.0,134.9 256.0,132.6 287.0,124.4 318.0,123.9 349.0,121.5 380.0,120.8 411.0,120.6 442.0,108.6 473.0,92.7 504.0,79.4 535.0,74.3 566.0,69.2 597.0,65.1 628.0,63.9 659.0,63.7 690.0,61.3 690.0,270.0 70.0,270.0" fill="#58a6ff" opacity="0.15"/>
  <polyline points="70.0,164.7 101.0,164.7 132.0,163.3 163.0,147.6 194.0,137.7 225.0,134.9 256.0,132.6 287.0,124.4 318.0,123.9 349.0,121.5 380.0,120.8 411.0,120.6 442.0,108.6 473.0,92.7 504.0,79.4 535.0,74.3 566.0,69.2 597.0,65.1 628.0,63.9 659.0,63.7 690.0,61.3" fill="none" stroke="#58a6ff" stroke-width="2.5" stroke-linejoin="round" stroke-linecap="round"/>
  <text x="70.0" y="310" text-anchor="middle" fill="#8b949e" font-family="sans-serif" font-size="11">03-12</text><text x="225.0" y="310" text-anchor="middle" fill="#8b949e" font-family="sans-serif" font-size="11">03-17</text><text x="380.0" y="310" text-anchor="middle" fill="#8b949e" font-family="sans-serif" font-size="11">03-22</text><text x="535.0" y="310" text-anchor="middle" fill="#8b949e" font-family="sans-serif" font-size="11">03-27</text><text x="690.0" y="310" text-anchor="middle" fill="#8b949e" font-family="sans-serif" font-size="11">04-01</text>
  <text x="694.0" y="53.3" fill="#58a6ff" font-family="sans-serif" font-size="12" font-weight="bold">7.8K</text>
</svg>