<svg xmlns="http://www.w3.org/2000/svg" width="720" height="320">
  <rect width="720" height="320" fill="#0d1117" rx="8"/>
  <text x="70" y="22" fill="#c9d1d9" font-family="sans-serif" font-size="14" font-weight="bold">Total Downloads Over Time</text>
  <line x1="70" y1="270.0" x2="690" y2="270.0" stroke="#21262d" stroke-width="1"/><text x="62" y="274.0" text-anchor="end" fill="#8b949e" font-family="sans-serif" font-size="11">0</text><line x1="70" y1="210.0" x2="690" y2="210.0" stroke="#21262d" stroke-width="1"/><text x="62" y="214.0" text-anchor="end" fill="#8b949e" font-family="sans-serif" font-size="11">2.9K</text><line x1="70" y1="150.0" x2="690" y2="150.0" stroke="#21262d" stroke-width="1"/><text x="62" y="154.0" text-anchor="end" fill="#8b949e" font-family="sans-serif" font-size="11">5.9K</text><line x1="70" y1="90.0" x2="690" y2="90.0" stroke="#21262d" stroke-width="1"/><text x="62" y="94.0" text-anchor="end" fill="#8b949e" font-family="sans-serif" font-size="11">8.8K</text><line x1="70" y1="30.0" x2="690" y2="30.0" stroke="#21262d" stroke-width="1"/><text x="62" y="34.0" text-anchor="end" fill="#8b949e" font-family="sans-serif" font-size="11">11.8K</text>
  <polygon points="70.0,189.6 80.2,189.6 90.3,188.5 100.5,176.5 110.7,168.9 120.8,166.8 131.0,165.0 141.1,158.8 151.3,158.4 161.5,156.6 171.6,156.1 181.8,155.9 192.0,146.7 202.1,134.6 212.3,124.4 222.5,120.5 232.6,116.6 242.8,113.5 253.0,112.6 263.1,112.4 273.3,110.6 283.4,108.8 293.6,104.3 303.8,99.9 313.9,96.6 324.1,93.3 334.3,92.2 344.4,83.9 354.6,78.8 364.8,77.0 374.9,76.7 385.1,75.3 395.2,75.2 405.4,75.2 415.6,74.6 425.7,74.4 435.9,74.3 446.1,73.8 456.2,70.8 466.4,70.7 476.6,70.1 486.7,69.1 496.9,68.9 507.0,68.5 517.2,68.3 527.4,68.0 537.5,67.8 547.7,67.7 557.9,67.6 568.0,65.7 578.2,65.4 588.4,65.3 598.5,65.2 608.7,65.1 618.9,65.0 629.0,63.9 639.2,63.7 649.3,63.5 659.5,63.4 669.7,61.9 679.8,61.6 690.0,61.3 690.0,270.0 70.0,270.0" fill="#58a6ff" opacity="0.15"/>
  <polyline points="70.0,189.6 80.2,189.6 90.3,188.5 100.5,176.5 110.7,168.9 120.8,166.8 131.0,165.0 141.1,158.8 151.3,158.4 161.5,156.6 171.6,156.1 181.8,155.9 192.0,146.7 202.1,134.6 212.3,124.4 222.5,120.5 232.6,116.6 242.8,113.5 253.0,112.6 263.1,112.4 273.3,110.6 283.4,108.8 293.6,104.3 303.8,99.9 313.9,96.6 324.1,93.3 334.3,92.2 344.4,83.9 354.6,78.8 364.8,77.0 374.9,76.7 385.1,75.3 395.2,75.2 405.4,75.2 415.6,74.6 425.7,74.4 435.9,74.3 446.1,73.8 456.2,70.8 466.4,70.7 476.6,70.1 486.7,69.1 496.9,68.9 507.0,68.5 517.2,68.3 527.4,68.0 537.5,67.8 547.7,67.7 557.9,67.6 568.0,65.7 578.2,65.4 588.4,65.3 598.5,65.2 608.7,65.1 618.9,65.0 629.0,63.9 639.2,63.7 649.3,63.5 659.5,63.4 669.7,61.9 679.8,61.6 690.0,61.3" fill="none" stroke="#58a6ff" stroke-width="2.5" stroke-linejoin="round" stroke-linecap="round"/>
  <text x="70.0" y="310" text-anchor="middle" fill="#8b949e" font-family="sans-serif" font-size="11">03-12</text><text x="222.5" y="310" text-anchor="middle" fill="#8b949e" font-family="sans-serif" font-size="11">03-27</text><text x="374.9" y="310" text-anchor="middle" fill="#8b949e" font-family="sans-serif" font-size="11">04-11</text><text x="527.4" y="310" text-anchor="middle" fill="#8b949e" font-family="sans-serif" font-size="11">04-26</text><text x="679.8" y="310" text-anchor="middle" fill="#8b949e" font-family="sans-serif" font-size="11">05-11</text>
  <text x="694.0" y="53.3" fill="#58a6ff" font-family="sans-serif" font-size="12" font-weight="bold">10.2K</text>
</svg>