<svg xmlns="http://www.w3.org/2000/svg" width="720" height="320">
  <rect width="720" height="320" fill="#0d1117" rx="8"/>
  <text x="70" y="22" fill="#c9d1d9" font-family="sans-serif" font-size="14" font-weight="bold">Total Downloads Over Time</text>
  <line x1="70" y1="270.0" x2="690" y2="270.0" stroke="#21262d" stroke-width="1"/><text x="62" y="274.0" text-anchor="end" fill="#8b949e" font-family="sans-serif" font-size="11">0</text><line x1="70" y1="210.0" x2="690" y2="210.0" stroke="#21262d" stroke-width="1"/><text x="62" y="214.0" text-anchor="end" fill="#8b949e" font-family="sans-serif" font-size="11">2.9K</text><line x1="70" y1="150.0" x2="690" y2="150.0" stroke="#21262d" stroke-width="1"/><text x="62" y="154.0" text-anchor="end" fill="#8b949e" font-family="sans-serif" font-size="11">5.8K</text><line x1="70" y1="90.0" x2="690" y2="90.0" stroke="#21262d" stroke-width="1"/><text x="62" y="94.0" text-anchor="end" fill="#8b949e" font-family="sans-serif" font-size="11">8.6K</text><line x1="70" y1="30.0" x2="690" y2="30.0" stroke="#21262d" stroke-width="1"/><text x="62" y="34.0" text-anchor="end" fill="#8b949e" font-family="sans-serif" font-size="11">11.5K</text>
  <polygon points="70.0,187.8 82.7,187.8 95.3,186.8 108.0,174.5 120.6,166.7 133.3,164.6 145.9,162.8 158.6,156.4 171.2,156.0 183.9,154.1 196.5,153.6 209.2,153.5 221.8,144.1 234.5,131.7 247.1,121.3 259.8,117.3 272.4,113.3 285.1,110.1 297.8,109.2 310.4,109.0 323.1,107.2 335.7,105.3 348.4,100.7 361.0,96.2 373.7,92.8 386.3,89.5 399.0,88.4 411.6,79.9 424.3,74.6 436.9,72.8 449.6,72.5 462.2,71.1 474.9,71.0 487.6,70.9 500.2,70.3 512.9,70.2 525.5,70.1 538.2,69.5 550.8,66.5 563.5,66.4 576.1,65.8 588.8,64.7 601.4,64.5 614.1,64.2 626.7,63.9 639.4,63.6 652.0,63.4 664.7,63.3 677.3,63.2 690.0,61.3 690.0,270.0 70.0,270.0" fill="#58a6ff" opacity="0.15"/>
  <polyline points="70.0,187.8 82.7,187.8 95.3,186.8 108.0,174.5 120.6,166.7 133.3,164.6 145.9,162.8 158.6,156.4 171.2,156.0 183.9,154.1 196.5,153.6 209.2,153.5 221.8,144.1 234.5,131.7 247.1,121.3 259.8,117.3 272.4,113.3 285.1,110.1 297.8,109.2 310.4,109.0 323.1,107.2 335.7,105.3 348.4,100.7 361.0,96.2 373.7,92.8 386.3,89.5 399.0,88.4 411.6,79.9 424.3,74.6 436.9,72.8 449.6,72.5 462.2,71.1 474.9,71.0 487.6,70.9 500.2,70.3 512.9,70.2 525.5,70.1 538.2,69.5 550.8,66.5 563.5,66.4 576.1,65.8 588.8,64.7 601.4,64.5 614.1,64.2 626.7,63.9 639.4,63.6 652.0,63.4 664.7,63.3 677.3,63.2 690.0,61.3" fill="none" stroke="#58a6ff" stroke-width="2.5" stroke-linejoin="round" stroke-linecap="round"/>
  <text x="70.0" y="310" text-anchor="middle" fill="#8b949e" font-family="sans-serif" font-size="11">03-12</text><text x="221.8" y="310" text-anchor="middle" fill="#8b949e" font-family="sans-serif" font-size="11">03-24</text><text x="373.7" y="310" text-anchor="middle" fill="#8b949e" font-family="sans-serif" font-size="11">04-05</text><text x="525.5" y="310" text-anchor="middle" fill="#8b949e" font-family="sans-serif" font-size="11">04-17</text><text x="677.3" y="310" text-anchor="middle" fill="#8b949e" font-family="sans-serif" font-size="11">04-29</text>
  <text x="694.0" y="53.3" fill="#58a6ff" font-family="sans-serif" font-size="12" font-weight="bold">10.0K</text>
</svg>