<svg xmlns="http://www.w3.org/2000/svg" width="720" height="320">
  <rect width="720" height="320" fill="#0d1117" rx="8"/>
  <text x="70" y="22" fill="#c9d1d9" font-family="sans-serif" font-size="14" font-weight="bold">Total Downloads Over Time</text>
  <line x1="70" y1="270.0" x2="690" y2="270.0" stroke="#21262d" stroke-width="1"/><text x="62" y="274.0" text-anchor="end" fill="#8b949e" font-family="sans-serif" font-size="11">0</text><line x1="70" y1="210.0" x2="690" y2="210.0" stroke="#21262d" stroke-width="1"/><text x="62" y="214.0" text-anchor="end" fill="#8b949e" font-family="sans-serif" font-size="11">1.5K</text><line x1="70" y1="150.0" x2="690" y2="150.0" stroke="#21262d" stroke-width="1"/><text x="62" y="154.0" text-anchor="end" fill="#8b949e" font-family="sans-serif" font-size="11">2.9K</text><line x1="70" y1="90.0" x2="690" y2="90.0" stroke="#21262d" stroke-width="1"/><text x="62" y="94.0" text-anchor="end" fill="#8b949e" font-family="sans-serif" font-size="11">4.4K</text><line x1="70" y1="30.0" x2="690" y2="30.0" stroke="#21262d" stroke-width="1"/><text x="62" y="34.0" text-anchor="end" fill="#8b949e" font-family="sans-serif" font-size="11">5.8K</text>
  <polygon points="70.0,107.3 194.0,107.3 318.0,105.2 442.0,80.9 566.0,65.6 690.0,61.3 690.0,270.0 70.0,270.0" fill="#58a6ff" opacity="0.15"/>
  <polyline points="70.0,107.3 194.0,107.3 318.0,105.2 442.0,80.9 566.0,65.6 690.0,61.3" fill="none" stroke="#58a6ff" stroke-width="2.5" stroke-linejoin="round" stroke-linecap="round"/>
  <text x="70.0" y="310" text-anchor="middle" fill="#8b949e" font-family="sans-serif" font-size="11">03-12</text><text x="194.0" y="310" text-anchor="middle" fill="#8b949e" font-family="sans-serif" font-size="11">03-13</text><text x="318.0" y="310" text-anchor="middle" fill="#8b949e" font-family="sans-serif" font-size="11">03-14</text><text x="442.0" y="310" text-anchor="middle" fill="#8b949e" font-family="sans-serif" font-size="11">03-15</text><text x="566.0" y="310" text-anchor="middle" fill="#8b949e" font-family="sans-serif" font-size="11">03-16</text><text x="690.0" y="310" text-anchor="middle" fill="#8b949e" font-family="sans-serif" font-size="11">03-17</text>
  <text x="694.0" y="53.3" fill="#58a6ff" font-family="sans-serif" font-size="12" font-weight="bold">5.1K</text>
</svg>