<svg xmlns="http://www.w3.org/2000/svg" width="720" height="320">
  <rect width="720" height="320" fill="#0d1117" rx="8"/>
  <text x="70" y="22" fill="#c9d1d9" font-family="sans-serif" font-size="14" font-weight="bold">Total Downloads Over Time</text>
  <line x1="70" y1="270.0" x2="690" y2="270.0" stroke="#21262d" stroke-width="1"/><text x="62" y="274.0" text-anchor="end" fill="#8b949e" font-family="sans-serif" font-size="11">0</text><line x1="70" y1="210.0" x2="690" y2="210.0" stroke="#21262d" stroke-width="1"/><text x="62" y="214.0" text-anchor="end" fill="#8b949e" font-family="sans-serif" font-size="11">2.8K</text><line x1="70" y1="150.0" x2="690" y2="150.0" stroke="#21262d" stroke-width="1"/><text x="62" y="154.0" text-anchor="end" fill="#8b949e" font-family="sans-serif" font-size="11">5.5K</text><line x1="70" y1="90.0" x2="690" y2="90.0" stroke="#21262d" stroke-width="1"/><text x="62" y="94.0" text-anchor="end" fill="#8b949e" font-family="sans-serif" font-size="11">8.3K</text><line x1="70" y1="30.0" x2="690" y2="30.0" stroke="#21262d" stroke-width="1"/><text x="62" y="34.0" text-anchor="end" fill="#8b949e" font-family="sans-serif" font-size="11">11.0K</text>
  <polygon points="70.0,184.2 87.2,184.2 104.4,183.1 121.7,170.3 138.9,162.2 156.1,160.0 173.3,158.1 190.6,151.4 207.8,151.0 225.0,149.0 242.2,148.5 259.4,148.3 276.7,138.6 293.9,125.6 311.1,114.7 328.3,110.6 345.6,106.5 362.8,103.2 380.0,102.2 397.2,102.0 414.4,100.0 431.7,98.1 448.9,93.3 466.1,88.6 483.3,85.1 500.6,81.6 517.8,80.4 535.0,71.5 552.2,66.1 569.4,64.2 586.7,63.8 603.9,62.3 621.1,62.2 638.3,62.2 655.6,61.6 672.8,61.5 690.0,61.3 690.0,270.0 70.0,270.0" fill="#58a6ff" opacity="0.15"/>
  <polyline points="70.0,184.2 87.2,184.2 104.4,183.1 121.7,170.3 138.9,162.2 156.1,160.0 173.3,158.1 190.6,151.4 207.8,151.0 225.0,149.0 242.2,148.5 259.4,148.3 276.7,138.6 293.9,125.6 311.1,114.7 328.3,110.6 345.6,106.5 362.8,103.2 380.0,102.2 397.2,102.0 414.4,100.0 431.7,98.1 448.9,93.3 466.1,88.6 483.3,85.1 500.6,81.6 517.8,80.4 535.0,71.5 552.2,66.1 569.4,64.2 586.7,63.8 603.9,62.3 621.1,62.2 638.3,62.2 655.6,61.6 672.8,61.5 690.0,61.3" fill="none" stroke="#58a6ff" stroke-width="2.5" stroke-linejoin="round" stroke-linecap="round"/>
  <text x="70.0" y="310" text-anchor="middle" fill="#8b949e" font-family="sans-serif" font-size="11">03-12</text><text x="225.0" y="310" text-anchor="middle" fill="#8b949e" font-family="sans-serif" font-size="11">03-21</text><text x="380.0" y="310" text-anchor="middle" fill="#8b949e" font-family="sans-serif" font-size="11">03-30</text><text x="535.0" y="310" text-anchor="middle" fill="#8b949e" font-family="sans-serif" font-size="11">04-08</text><text x="690.0" y="310" text-anchor="middle" fill="#8b949e" font-family="sans-serif" font-size="11">04-17</text>
  <text x="694.0" y="53.3" fill="#58a6ff" font-family="sans-serif" font-size="12" font-weight="bold">9.6K</text>
</svg>