<svg xmlns="http://www.w3.org/2000/svg" width="720" height="320">
  <rect width="720" height="320" fill="#0d1117" rx="8"/>
  <text x="70" y="22" fill="#c9d1d9" font-family="sans-serif" font-size="14" font-weight="bold">Total Downloads Over Time</text>
  <line x1="70" y1="270.0" x2="690" y2="270.0" stroke="#21262d" stroke-width="1"/><text x="62" y="274.0" text-anchor="end" fill="#8b949e" font-family="sans-serif" font-size="11">0</text><line x1="70" y1="210.0" x2="690" y2="210.0" stroke="#21262d" stroke-width="1"/><text x="62" y="214.0" text-anchor="end" fill="#8b949e" font-family="sans-serif" font-size="11">2.8K</text><line x1="70" y1="150.0" x2="690" y2="150.0" stroke="#21262d" stroke-width="1"/><text x="62" y="154.0" text-anchor="end" fill="#8b949e" font-family="sans-serif" font-size="11">5.6K</text><line x1="70" y1="90.0" x2="690" y2="90.0" stroke="#21262d" stroke-width="1"/><text x="62" y="94.0" text-anchor="end" fill="#8b949e" font-family="sans-serif" font-size="11">8.4K</text><line x1="70" y1="30.0" x2="690" y2="30.0" stroke="#21262d" stroke-width="1"/><text x="62" y="34.0" text-anchor="end" fill="#8b949e" font-family="sans-serif" font-size="11">11.2K</text>
  <polygon points="70.0,185.8 85.9,185.7 101.8,184.7 117.7,172.1 133.6,164.1 149.5,161.9 165.4,160.1 181.3,153.5 197.2,153.1 213.1,151.2 229.0,150.7 244.9,150.5 260.8,140.9 276.7,128.2 292.6,117.5 308.5,113.4 324.4,109.4 340.3,106.1 356.2,105.2 372.1,105.0 387.9,103.1 403.8,101.2 419.7,96.4 435.6,91.8 451.5,88.4 467.4,84.9 483.3,83.8 499.2,75.1 515.1,69.7 531.0,67.8 546.9,67.5 562.8,66.0 578.7,65.9 594.6,65.9 610.5,65.3 626.4,65.2 642.3,65.0 658.2,64.5 674.1,61.4 690.0,61.3 690.0,270.0 70.0,270.0" fill="#58a6ff" opacity="0.15"/>
  <polyline points="70.0,185.8 85.9,185.7 101.8,184.7 117.7,172.1 133.6,164.1 149.5,161.9 165.4,160.1 181.3,153.5 197.2,153.1 213.1,151.2 229.0,150.7 244.9,150.5 260.8,140.9 276.7,128.2 292.6,117.5 308.5,113.4 324.4,109.4 340.3,106.1 356.2,105.2 372.1,105.0 387.9,103.1 403.8,101.2 419.7,96.4 435.6,91.8 451.5,88.4 467.4,84.9 483.3,83.8 499.2,75.1 515.1,69.7 531.0,67.8 546.9,67.5 562.8,66.0 578.7,65.9 594.6,65.9 610.5,65.3 626.4,65.2 642.3,65.0 658.2,64.5 674.1,61.4 690.0,61.3" fill="none" stroke="#58a6ff" stroke-width="2.5" stroke-linejoin="round" stroke-linecap="round"/>
  <text x="70.0" y="310" text-anchor="middle" fill="#8b949e" font-family="sans-serif" font-size="11">03-12</text><text x="213.1" y="310" text-anchor="middle" fill="#8b949e" font-family="sans-serif" font-size="11">03-21</text><text x="356.2" y="310" text-anchor="middle" fill="#8b949e" font-family="sans-serif" font-size="11">03-30</text><text x="499.2" y="310" text-anchor="middle" fill="#8b949e" font-family="sans-serif" font-size="11">04-08</text><text x="642.3" y="310" text-anchor="middle" fill="#8b949e" font-family="sans-serif" font-size="11">04-17</text>
  <text x="694.0" y="53.3" fill="#58a6ff" font-family="sans-serif" font-size="12" font-weight="bold">9.8K</text>
</svg>