<svg xmlns="http://www.w3.org/2000/svg" width="720" height="320">
  <rect width="720" height="320" fill="#0d1117" rx="8"/>
  <text x="70" y="22" fill="#c9d1d9" font-family="sans-serif" font-size="14" font-weight="bold">Total Downloads Over Time</text>
  <line x1="70" y1="270.0" x2="690" y2="270.0" stroke="#21262d" stroke-width="1"/><text x="62" y="274.0" text-anchor="end" fill="#8b949e" font-family="sans-serif" font-size="11">0</text><line x1="70" y1="210.0" x2="690" y2="210.0" stroke="#21262d" stroke-width="1"/><text x="62" y="214.0" text-anchor="end" fill="#8b949e" font-family="sans-serif" font-size="11">3.1K</text><line x1="70" y1="150.0" x2="690" y2="150.0" stroke="#21262d" stroke-width="1"/><text x="62" y="154.0" text-anchor="end" fill="#8b949e" font-family="sans-serif" font-size="11">6.3K</text><line x1="70" y1="90.0" x2="690" y2="90.0" stroke="#21262d" stroke-width="1"/><text x="62" y="94.0" text-anchor="end" fill="#8b949e" font-family="sans-serif" font-size="11">9.4K</text><line x1="70" y1="30.0" x2="690" y2="30.0" stroke="#21262d" stroke-width="1"/><text x="62" y="34.0" text-anchor="end" fill="#8b949e" font-family="sans-serif" font-size="11">12.5K</text>
  <polygon points="70.0,194.5 77.3,194.5 84.6,193.5 91.9,182.3 99.2,175.1 106.5,173.1 113.8,171.5 121.1,165.6 128.4,165.3 135.6,163.5 142.9,163.1 150.2,162.9 157.5,154.3 164.8,142.9 172.1,133.3 179.4,129.7 186.7,126.1 194.0,123.1 201.3,122.3 208.6,122.1 215.9,120.4 223.2,118.7 230.5,114.4 237.8,110.3 245.1,107.2 252.4,104.1 259.6,103.1 266.9,95.3 274.2,90.5 281.5,88.8 288.8,88.5 296.1,87.2 303.4,87.1 310.7,87.1 318.0,86.6 325.3,86.4 332.6,86.3 339.9,85.8 347.2,83.1 354.5,83.0 361.8,82.4 369.1,81.4 376.4,81.2 383.6,80.9 390.9,80.7 398.2,80.4 405.5,80.2 412.8,80.1 420.1,80.0 427.4,78.3 434.7,77.9 442.0,77.9 449.3,77.7 456.6,77.6 463.9,77.6 471.2,76.5 478.5,76.4 485.8,76.2 493.1,76.1 500.4,74.7 507.6,74.4 514.9,74.1 522.2,71.7 529.5,71.6 536.8,71.1 544.1,68.8 551.4,68.7 558.7,68.6 566.0,68.5 573.3,68.4 580.6,68.4 587.9,68.0 595.2,68.0 602.5,68.0 609.8,67.7 617.1,67.5 624.4,66.2 631.6,63.6 638.9,63.6 646.2,63.5 653.5,63.5 660.8,62.2 668.1,62.2 675.4,62.1 682.7,61.3 690.0,61.3 690.0,270.0 70.0,270.0" fill="#58a6ff" opacity="0.15"/>
  <polyline points="70.0,194.5 77.3,194.5 84.6,193.5 91.9,182.3 99.2,175.1 106.5,173.1 113.8,171.5 121.1,165.6 128.4,165.3 135.6,163.5 142.9,163.1 150.2,162.9 157.5,154.3 164.8,142.9 172.1,133.3 179.4,129.7 186.7,126.1 194.0,123.1 201.3,122.3 208.6,122.1 215.9,120.4 223.2,118.7 230.5,114.4 237.8,110.3 245.1,107.2 252.4,104.1 259.6,103.1 266.9,95.3 274.2,90.5 281.5,88.8 288.8,88.5 296.1,87.2 303.4,87.1 310.7,87.1 318.0,86.6 325.3,86.4 332.6,86.3 339.9,85.8 347.2,83.1 354.5,83.0 361.8,82.4 369.1,81.4 376.4,81.2 383.6,80.9 390.9,80.7 398.2,80.4 405.5,80.2 412.8,80.1 420.1,80.0 427.4,78.3 434.7,77.9 442.0,77.9 449.3,77.7 456.6,77.6 463.9,77.6 471.2,76.5 478.5,76.4 485.8,76.2 493.1,76.1 500.4,74.7 507.6,74.4 514.9,74.1 522.2,71.7 529.5,71.6 536.8,71.1 544.1,68.8 551.4,68.7 558.7,68.6 566.0,68.5 573.3,68.4 580.6,68.4 587.9,68.0 595.2,68.0 602.5,68.0 609.8,67.7 617.1,67.5 624.4,66.2 631.6,63.6 638.9,63.6 646.2,63.5 653.5,63.5 660.8,62.2 668.1,62.2 675.4,62.1 682.7,61.3 690.0,61.3" fill="none" stroke="#58a6ff" stroke-width="2.5" stroke-linejoin="round" stroke-linecap="round"/>
  <text x="70.0" y="310" text-anchor="middle" fill="#8b949e" font-family="sans-serif" font-size="11">03-12</text><text x="223.2" y="310" text-anchor="middle" fill="#8b949e" font-family="sans-serif" font-size="11">04-02</text><text x="376.4" y="310" text-anchor="middle" fill="#8b949e" font-family="sans-serif" font-size="11">04-23</text><text x="529.5" y="310" text-anchor="middle" fill="#8b949e" font-family="sans-serif" font-size="11">05-14</text><text x="682.7" y="310" text-anchor="middle" fill="#8b949e" font-family="sans-serif" font-size="11">06-04</text>
  <text x="694.0" y="53.3" fill="#58a6ff" font-family="sans-serif" font-size="12" font-weight="bold">10.9K</text>
</svg>