<svg xmlns="http://www.w3.org/2000/svg" width="720" height="320">
  <rect width="720" height="320" fill="#0d1117" rx="8"/>
  <text x="70" y="22" fill="#c9d1d9" font-family="sans-serif" font-size="14" font-weight="bold">Total Downloads Over Time</text>
  <line x1="70" y1="270.0" x2="690" y2="270.0" stroke="#21262d" stroke-width="1"/><text x="62" y="274.0" text-anchor="end" fill="#8b949e" font-family="sans-serif" font-size="11">0</text><line x1="70" y1="210.0" x2="690" y2="210.0" stroke="#21262d" stroke-width="1"/><text x="62" y="214.0" text-anchor="end" fill="#8b949e" font-family="sans-serif" font-size="11">3.4K</text><line x1="70" y1="150.0" x2="690" y2="150.0" stroke="#21262d" stroke-width="1"/><text x="62" y="154.0" text-anchor="end" fill="#8b949e" font-family="sans-serif" font-size="11">6.8K</text><line x1="70" y1="90.0" x2="690" y2="90.0" stroke="#21262d" stroke-width="1"/><text x="62" y="94.0" text-anchor="end" fill="#8b949e" font-family="sans-serif" font-size="11">10.2K</text><line x1="70" y1="30.0" x2="690" y2="30.0" stroke="#21262d" stroke-width="1"/><text x="62" y="34.0" text-anchor="end" fill="#8b949e" font-family="sans-serif" font-size="11">13.7K</text>
  <polygon points="70.0,200.7 75.0,200.7 79.9,199.8 84.9,189.5 89.8,183.0 94.8,181.1 99.8,179.6 104.7,174.2 109.7,173.9 114.6,172.3 119.6,171.9 124.6,171.8 129.5,163.9 134.5,153.4 139.4,144.6 144.4,141.3 149.4,137.9 154.3,135.3 159.3,134.5 164.2,134.3 169.2,132.8 174.2,131.2 179.1,127.3 184.1,123.5 189.0,120.7 194.0,117.8 199.0,116.9 203.9,109.7 208.9,105.3 213.8,103.8 218.8,103.5 223.8,102.3 228.7,102.2 233.7,102.2 238.6,101.7 243.6,101.6 248.6,101.5 253.5,101.0 258.5,98.5 263.4,98.4 268.4,97.9 273.4,97.0 278.3,96.8 283.3,96.5 288.2,96.3 293.2,96.1 298.2,95.9 303.1,95.8 308.1,95.7 313.0,94.1 318.0,93.8 323.0,93.7 327.9,93.6 332.9,93.5 337.8,93.4 342.8,92.5 347.8,92.4 352.7,92.2 357.7,92.1 362.6,90.8 367.6,90.5 372.6,90.3 377.5,88.1 382.5,87.9 387.4,87.5 392.4,85.4 397.4,85.3 402.3,85.2 407.3,85.1 412.2,85.0 417.2,85.0 422.2,84.7 427.1,84.7 432.1,84.7 437.0,84.4 442.0,84.2 447.0,83.0 451.9,80.6 456.9,80.6 461.8,80.5 466.8,80.5 471.8,79.4 476.7,79.4 481.7,79.3 486.6,78.6 491.6,78.5 496.6,75.3 501.5,73.9 506.5,73.8 511.4,73.8 516.4,73.7 521.4,73.3 526.3,73.2 531.3,73.1 536.2,73.1 541.2,73.1 546.2,72.7 551.1,71.9 556.1,71.8 561.0,71.7 566.0,71.6 571.0,71.5 575.9,71.4 580.9,71.4 585.8,69.3 590.8,69.3 595.8,69.3 600.7,68.9 605.7,68.5 610.6,68.4 615.6,67.8 620.6,67.7 625.5,66.5 630.5,66.4 635.4,66.1 640.4,65.6 645.4,65.5 650.3,65.3 655.3,64.7 660.2,64.2 665.2,63.9 670.2,63.9 675.1,63.8 680.1,61.5 685.0,61.4 690.0,61.3 690.0,270.0 70.0,270.0" fill="#58a6ff" opacity="0.15"/>
  <polyline points="70.0,200.7 75.0,200.7 79.9,199.8 84.9,189.5 89.8,183.0 94.8,181.1 99.8,179.6 104.7,174.2 109.7,173.9 114.6,172.3 119.6,171.9 124.6,171.8 129.5,163.9 134.5,153.4 139.4,144.6 144.4,141.3 149.4,137.9 154.3,135.3 159.3,134.5 164.2,134.3 169.2,132.8 174.2,131.2 179.1,127.3 184.1,123.5 189.0,120.7 194.0,117.8 199.0,116.9 203.9,109.7 208.9,105.3 213.8,103.8 218.8,103.5 223.8,102.3 228.7,102.2 233.7,102.2 238.6,101.7 243.6,101.6 248.6,101.5 253.5,101.0 258.5,98.5 263.4,98.4 268.4,97.9 273.4,97.0 278.3,96.8 283.3,96.5 288.2,96.3 293.2,96.1 298.2,95.9 303.1,95.8 308.1,95.7 313.0,94.1 318.0,93.8 323.0,93.7 327.9,93.6 332.9,93.5 337.8,93.4 342.8,92.5 347.8,92.4 352.7,92.2 357.7,92.1 362.6,90.8 367.6,90.5 372.6,90.3 377.5,88.1 382.5,87.9 387.4,87.5 392.4,85.4 397.4,85.3 402.3,85.2 407.3,85.1 412.2,85.0 417.2,85.0 422.2,84.7 427.1,84.7 432.1,84.7 437.0,84.4 442.0,84.2 447.0,83.0 451.9,80.6 456.9,80.6 461.8,80.5 466.8,80.5 471.8,79.4 476.7,79.4 481.7,79.3 486.6,78.6 491.6,78.5 496.6,75.3 501.5,73.9 506.5,73.8 511.4,73.8 516.4,73.7 521.4,73.3 526.3,73.2 531.3,73.1 536.2,73.1 541.2,73.1 546.2,72.7 551.1,71.9 556.1,71.8 561.0,71.7 566.0,71.6 571.0,71.5 575.9,71.4 580.9,71.4 585.8,69.3 590.8,69.3 595.8,69.3 600.7,68.9 605.7,68.5 610.6,68.4 615.6,67.8 620.6,67.7 625.5,66.5 630.5,66.4 635.4,66.1 640.4,65.6 645.4,65.5 650.3,65.3 655.3,64.7 660.2,64.2 665.2,63.9 670.2,63.9 675.1,63.8 680.1,61.5 685.0,61.4 690.0,61.3" fill="none" stroke="#58a6ff" stroke-width="2.5" stroke-linejoin="round" stroke-linecap="round"/>
  <text x="70.0" y="310" text-anchor="middle" fill="#8b949e" font-family="sans-serif" font-size="11">03-12</text><text x="223.8" y="310" text-anchor="middle" fill="#8b949e" font-family="sans-serif" font-size="11">04-12</text><text x="377.5" y="310" text-anchor="middle" fill="#8b949e" font-family="sans-serif" font-size="11">05-13</text><text x="531.3" y="310" text-anchor="middle" fill="#8b949e" font-family="sans-serif" font-size="11">06-13</text><text x="685.0" y="310" text-anchor="middle" fill="#8b949e" font-family="sans-serif" font-size="11">07-14</text>
  <text x="694.0" y="53.3" fill="#58a6ff" font-family="sans-serif" font-size="12" font-weight="bold">11.9K</text>
</svg>