<svg xmlns="http://www.w3.org/2000/svg" width="720" height="320">
  <rect width="720" height="320" fill="#0d1117" rx="8"/>
  <text x="70" y="22" fill="#c9d1d9" font-family="sans-serif" font-size="14" font-weight="bold">Total Downloads Over Time</text>
  <line x1="70" y1="270.0" x2="690" y2="270.0" stroke="#21262d" stroke-width="1"/><text x="62" y="274.0" text-anchor="end" fill="#8b949e" font-family="sans-serif" font-size="11">0</text><line x1="70" y1="210.0" x2="690" y2="210.0" stroke="#21262d" stroke-width="1"/><text x="62" y="214.0" text-anchor="end" fill="#8b949e" font-family="sans-serif" font-size="11">3.2K</text><line x1="70" y1="150.0" x2="690" y2="150.0" stroke="#21262d" stroke-width="1"/><text x="62" y="154.0" text-anchor="end" fill="#8b949e" font-family="sans-serif" font-size="11">6.4K</text><line x1="70" y1="90.0" x2="690" y2="90.0" stroke="#21262d" stroke-width="1"/><text x="62" y="94.0" text-anchor="end" fill="#8b949e" font-family="sans-serif" font-size="11">9.7K</text><line x1="70" y1="30.0" x2="690" y2="30.0" stroke="#21262d" stroke-width="1"/><text x="62" y="34.0" text-anchor="end" fill="#8b949e" font-family="sans-serif" font-size="11">12.9K</text>
  <polygon points="70.0,196.6 76.6,196.6 83.2,195.6 89.8,184.7 96.4,177.7 103.0,175.8 109.6,174.2 116.2,168.5 122.8,168.1 129.4,166.5 136.0,166.0 142.6,165.9 149.1,157.5 155.7,146.4 162.3,137.1 168.9,133.5 175.5,130.0 182.1,127.2 188.7,126.3 195.3,126.2 201.9,124.5 208.5,122.9 215.1,118.7 221.7,114.7 228.3,111.7 234.9,108.7 241.5,107.7 248.1,100.1 254.7,95.4 261.3,93.8 267.9,93.5 274.5,92.2 281.1,92.1 287.7,92.1 294.3,91.6 300.9,91.5 307.4,91.3 314.0,90.9 320.6,88.2 327.2,88.1 333.8,87.5 340.4,86.6 347.0,86.4 353.6,86.1 360.2,85.8 366.8,85.6 373.4,85.4 380.0,85.3 386.6,85.2 393.2,83.5 399.8,83.2 406.4,83.1 413.0,83.0 419.6,82.9 426.2,82.8 432.8,81.8 439.4,81.7 446.0,81.5 452.6,81.4 459.1,80.1 465.7,79.7 472.3,79.5 478.9,77.2 485.5,77.0 492.1,76.5 498.7,74.3 505.3,74.2 511.9,74.1 518.5,74.0 525.1,73.9 531.7,73.9 538.3,73.5 544.9,73.5 551.5,73.5 558.1,73.3 564.7,73.0 571.3,71.8 577.9,69.3 584.5,69.2 591.1,69.1 597.7,69.1 604.3,67.9 610.9,67.9 617.4,67.8 624.0,67.0 630.6,67.0 637.2,63.6 643.8,62.1 650.4,62.0 657.0,62.0 663.6,61.9 670.2,61.5 676.8,61.3 683.4,61.3 690.0,61.3 690.0,270.0 70.0,270.0" fill="#58a6ff" opacity="0.15"/>
  <polyline points="70.0,196.6 76.6,196.6 83.2,195.6 89.8,184.7 96.4,177.7 103.0,175.8 109.6,174.2 116.2,168.5 122.8,168.1 129.4,166.5 136.0,166.0 142.6,165.9 149.1,157.5 155.7,146.4 162.3,137.1 168.9,133.5 175.5,130.0 182.1,127.2 188.7,126.3 195.3,126.2 201.9,124.5 208.5,122.9 215.1,118.7 221.7,114.7 228.3,111.7 234.9,108.7 241.5,107.7 248.1,100.1 254.7,95.4 261.3,93.8 267.9,93.5 274.5,92.2 281.1,92.1 287.7,92.1 294.3,91.6 300.9,91.5 307.4,91.3 314.0,90.9 320.6,88.2 327.2,88.1 333.8,87.5 340.4,86.6 347.0,86.4 353.6,86.1 360.2,85.8 366.8,85.6 373.4,85.4 380.0,85.3 386.6,85.2 393.2,83.5 399.8,83.2 406.4,83.1 413.0,83.0 419.6,82.9 426.2,82.8 432.8,81.8 439.4,81.7 446.0,81.5 452.6,81.4 459.1,80.1 465.7,79.7 472.3,79.5 478.9,77.2 485.5,77.0 492.1,76.5 498.7,74.3 505.3,74.2 511.9,74.1 518.5,74.0 525.1,73.9 531.7,73.9 538.3,73.5 544.9,73.5 551.5,73.5 558.1,73.3 564.7,73.0 571.3,71.8 577.9,69.3 584.5,69.2 591.1,69.1 597.7,69.1 604.3,67.9 610.9,67.9 617.4,67.8 624.0,67.0 630.6,67.0 637.2,63.6 643.8,62.1 650.4,62.0 657.0,62.0 663.6,61.9 670.2,61.5 676.8,61.3 683.4,61.3 690.0,61.3" fill="none" stroke="#58a6ff" stroke-width="2.5" stroke-linejoin="round" stroke-linecap="round"/>
  <text x="70.0" y="310" text-anchor="middle" fill="#8b949e" font-family="sans-serif" font-size="11">03-12</text><text x="221.7" y="310" text-anchor="middle" fill="#8b949e" font-family="sans-serif" font-size="11">04-04</text><text x="373.4" y="310" text-anchor="middle" fill="#8b949e" font-family="sans-serif" font-size="11">04-27</text><text x="525.1" y="310" text-anchor="middle" fill="#8b949e" font-family="sans-serif" font-size="11">05-20</text><text x="676.8" y="310" text-anchor="middle" fill="#8b949e" font-family="sans-serif" font-size="11">06-12</text>
  <text x="694.0" y="53.3" fill="#58a6ff" font-family="sans-serif" font-size="12" font-weight="bold">11.2K</text>
</svg>