<svg xmlns="http://www.w3.org/2000/svg" width="720" height="320">
  <rect width="720" height="320" fill="#0d1117" rx="8"/>
  <text x="70" y="22" fill="#c9d1d9" font-family="sans-serif" font-size="14" font-weight="bold">Total Downloads Over Time</text>
  <line x1="70" y1="270.0" x2="690" y2="270.0" stroke="#21262d" stroke-width="1"/><text x="62" y="274.0" text-anchor="end" fill="#8b949e" font-family="sans-serif" font-size="11">0</text><line x1="70" y1="210.0" x2="690" y2="210.0" stroke="#21262d" stroke-width="1"/><text x="62" y="214.0" text-anchor="end" fill="#8b949e" font-family="sans-serif" font-size="11">3.0K</text><line x1="70" y1="150.0" x2="690" y2="150.0" stroke="#21262d" stroke-width="1"/><text x="62" y="154.0" text-anchor="end" fill="#8b949e" font-family="sans-serif" font-size="11">6.1K</text><line x1="70" y1="90.0" x2="690" y2="90.0" stroke="#21262d" stroke-width="1"/><text x="62" y="94.0" text-anchor="end" fill="#8b949e" font-family="sans-serif" font-size="11">9.1K</text><line x1="70" y1="30.0" x2="690" y2="30.0" stroke="#21262d" stroke-width="1"/><text x="62" y="34.0" text-anchor="end" fill="#8b949e" font-family="sans-serif" font-size="11">12.1K</text>
  <polygon points="70.0,192.0 78.7,192.0 87.5,191.0 96.2,179.3 104.9,172.0 113.7,169.9 122.4,168.2 131.1,162.1 139.9,161.8 148.6,160.0 157.3,159.5 166.1,159.4 174.8,150.5 183.5,138.7 192.3,128.8 201.0,125.0 209.7,121.3 218.5,118.3 227.2,117.4 235.9,117.2 244.6,115.4 253.4,113.7 262.1,109.3 270.8,105.0 279.6,101.8 288.3,98.6 297.0,97.6 305.8,89.5 314.5,84.5 323.2,82.8 332.0,82.5 340.7,81.2 349.4,81.1 358.2,81.0 366.9,80.5 375.6,80.4 384.4,80.2 393.1,79.7 401.8,76.9 410.6,76.8 419.3,76.2 428.0,75.1 436.8,75.0 445.5,74.6 454.2,74.4 463.0,74.1 471.7,73.9 480.4,73.8 489.2,73.7 497.9,71.9 506.6,71.6 515.4,71.5 524.1,71.4 532.8,71.3 541.5,71.2 550.3,70.1 559.0,70.0 567.7,69.7 576.5,69.7 585.2,68.2 593.9,67.9 602.7,67.6 611.4,65.1 620.1,65.0 628.9,64.5 637.6,62.2 646.3,62.0 655.1,61.9 663.8,61.8 672.5,61.7 681.3,61.7 690.0,61.3 690.0,270.0 70.0,270.0" fill="#58a6ff" opacity="0.15"/>
  <polyline points="70.0,192.0 78.7,192.0 87.5,191.0 96.2,179.3 104.9,172.0 113.7,169.9 122.4,168.2 131.1,162.1 139.9,161.8 148.6,160.0 157.3,159.5 166.1,159.4 174.8,150.5 183.5,138.7 192.3,128.8 201.0,125.0 209.7,121.3 218.5,118.3 227.2,117.4 235.9,117.2 244.6,115.4 253.4,113.7 262.1,109.3 270.8,105.0 279.6,101.8 288.3,98.6 297.0,97.6 305.8,89.5 314.5,84.5 323.2,82.8 332.0,82.5 340.7,81.2 349.4,81.1 358.2,81.0 366.9,80.5 375.6,80.4 384.4,80.2 393.1,79.7 401.8,76.9 410.6,76.8 419.3,76.2 428.0,75.1 436.8,75.0 445.5,74.6 454.2,74.4 463.0,74.1 471.7,73.9 480.4,73.8 489.2,73.7 497.9,71.9 506.6,71.6 515.4,71.5 524.1,71.4 532.8,71.3 541.5,71.2 550.3,70.1 559.0,70.0 567.7,69.7 576.5,69.7 585.2,68.2 593.9,67.9 602.7,67.6 611.4,65.1 620.1,65.0 628.9,64.5 637.6,62.2 646.3,62.0 655.1,61.9 663.8,61.8 672.5,61.7 681.3,61.7 690.0,61.3" fill="none" stroke="#58a6ff" stroke-width="2.5" stroke-linejoin="round" stroke-linecap="round"/>
  <text x="70.0" y="310" text-anchor="middle" fill="#8b949e" font-family="sans-serif" font-size="11">03-12</text><text x="218.5" y="310" text-anchor="middle" fill="#8b949e" font-family="sans-serif" font-size="11">03-29</text><text x="366.9" y="310" text-anchor="middle" fill="#8b949e" font-family="sans-serif" font-size="11">04-15</text><text x="515.4" y="310" text-anchor="middle" fill="#8b949e" font-family="sans-serif" font-size="11">05-02</text><text x="663.8" y="310" text-anchor="middle" fill="#8b949e" font-family="sans-serif" font-size="11">05-19</text>
  <text x="694.0" y="53.3" fill="#58a6ff" font-family="sans-serif" font-size="12" font-weight="bold">10.6K</text>
</svg>