<svg xmlns="http://www.w3.org/2000/svg" width="720" height="320">
  <rect width="720" height="320" fill="#0d1117" rx="8"/>
  <text x="70" y="22" fill="#c9d1d9" font-family="sans-serif" font-size="14" font-weight="bold">Total Downloads Over Time</text>
  <line x1="70" y1="270.0" x2="690" y2="270.0" stroke="#21262d" stroke-width="1"/><text x="62" y="274.0" text-anchor="end" fill="#8b949e" font-family="sans-serif" font-size="11">0</text><line x1="70" y1="210.0" x2="690" y2="210.0" stroke="#21262d" stroke-width="1"/><text x="62" y="214.0" text-anchor="end" fill="#8b949e" font-family="sans-serif" font-size="11">2.6K</text><line x1="70" y1="150.0" x2="690" y2="150.0" stroke="#21262d" stroke-width="1"/><text x="62" y="154.0" text-anchor="end" fill="#8b949e" font-family="sans-serif" font-size="11">5.2K</text><line x1="70" y1="90.0" x2="690" y2="90.0" stroke="#21262d" stroke-width="1"/><text x="62" y="94.0" text-anchor="end" fill="#8b949e" font-family="sans-serif" font-size="11">7.9K</text><line x1="70" y1="30.0" x2="690" y2="30.0" stroke="#21262d" stroke-width="1"/><text x="62" y="34.0" text-anchor="end" fill="#8b949e" font-family="sans-serif" font-size="11">10.5K</text>
  <polygon points="70.0,179.8 93.0,179.8 115.9,178.6 138.9,165.2 161.9,156.7 184.8,154.3 207.8,152.3 230.7,145.3 253.7,144.9 276.7,142.8 299.6,142.3 322.6,142.1 345.6,131.8 368.5,118.2 391.5,106.7 414.4,102.4 437.4,98.0 460.4,94.6 483.3,93.6 506.3,93.3 529.3,91.3 552.2,89.3 575.2,84.2 598.1,79.2 621.1,75.6 644.1,71.8 667.0,70.7 690.0,61.3 690.0,270.0 70.0,270.0" fill="#58a6ff" opacity="0.15"/>
  <polyline points="70.0,179.8 93.0,179.8 115.9,178.6 138.9,165.2 161.9,156.7 184.8,154.3 207.8,152.3 230.7,145.3 253.7,144.9 276.7,142.8 299.6,142.3 322.6,142.1 345.6,131.8 368.5,118.2 391.5,106.7 414.4,102.4 437.4,98.0 460.4,94.6 483.3,93.6 506.3,93.3 529.3,91.3 552.2,89.3 575.2,84.2 598.1,79.2 621.1,75.6 644.1,71.8 667.0,70.7 690.0,61.3" fill="none" stroke="#58a6ff" stroke-width="2.5" stroke-linejoin="round" stroke-linecap="round"/>
  <text x="70.0" y="310" text-anchor="middle" fill="#8b949e" font-family="sans-serif" font-size="11">03-12</text><text x="207.8" y="310" text-anchor="middle" fill="#8b949e" font-family="sans-serif" font-size="11">03-18</text><text x="345.6" y="310" text-anchor="middle" fill="#8b949e" font-family="sans-serif" font-size="11">03-24</text><text x="483.3" y="310" text-anchor="middle" fill="#8b949e" font-family="sans-serif" font-size="11">03-30</text><text x="621.1" y="310" text-anchor="middle" fill="#8b949e" font-family="sans-serif" font-size="11">04-05</text>
  <text x="694.0" y="53.3" fill="#58a6ff" font-family="sans-serif" font-size="12" font-weight="bold">9.1K</text>
</svg>