<svg xmlns="http://www.w3.org/2000/svg" width="720" height="320">
  <rect width="720" height="320" fill="#0d1117" rx="8"/>
  <text x="70" y="22" fill="#c9d1d9" font-family="sans-serif" font-size="14" font-weight="bold">Total Downloads Over Time</text>
  <line x1="70" y1="270.0" x2="690" y2="270.0" stroke="#21262d" stroke-width="1"/><text x="62" y="274.0" text-anchor="end" fill="#8b949e" font-family="sans-serif" font-size="11">0</text><line x1="70" y1="210.0" x2="690" y2="210.0" stroke="#21262d" stroke-width="1"/><text x="62" y="214.0" text-anchor="end" fill="#8b949e" font-family="sans-serif" font-size="11">3.2K</text><line x1="70" y1="150.0" x2="690" y2="150.0" stroke="#21262d" stroke-width="1"/><text x="62" y="154.0" text-anchor="end" fill="#8b949e" font-family="sans-serif" font-size="11">6.5K</text><line x1="70" y1="90.0" x2="690" y2="90.0" stroke="#21262d" stroke-width="1"/><text x="62" y="94.0" text-anchor="end" fill="#8b949e" font-family="sans-serif" font-size="11">9.7K</text><line x1="70" y1="30.0" x2="690" y2="30.0" stroke="#21262d" stroke-width="1"/><text x="62" y="34.0" text-anchor="end" fill="#8b949e" font-family="sans-serif" font-size="11">13.0K</text>
  <polygon points="70.0,197.2 76.1,197.2 82.3,196.2 88.4,185.4 94.6,178.5 100.7,176.6 106.8,175.0 113.0,169.3 119.1,168.9 125.2,167.3 131.4,166.8 137.5,166.7 143.7,158.4 149.8,147.4 155.9,138.2 162.1,134.6 168.2,131.1 174.4,128.3 180.5,127.5 186.6,127.3 192.8,125.7 198.9,124.0 205.0,119.9 211.2,115.9 217.3,113.0 223.5,110.0 229.6,109.0 235.7,101.5 241.9,96.8 248.0,95.2 254.2,94.9 260.3,93.7 266.4,93.6 272.6,93.6 278.7,93.0 284.9,92.9 291.0,92.8 297.1,92.3 303.3,89.7 309.4,89.6 315.5,89.0 321.7,88.0 327.8,87.9 334.0,87.6 340.1,87.3 346.2,87.1 352.4,86.9 358.5,86.8 364.7,86.7 370.8,85.0 376.9,84.7 383.1,84.6 389.2,84.5 395.3,84.4 401.5,84.3 407.6,83.3 413.8,83.2 419.9,83.0 426.0,83.0 432.2,81.6 438.3,81.3 444.5,81.0 450.6,78.7 456.7,78.6 462.9,78.1 469.0,75.9 475.1,75.7 481.3,75.7 487.4,75.6 493.6,75.5 499.7,75.5 505.8,75.1 512.0,75.1 518.1,75.1 524.3,74.9 530.4,74.6 536.5,73.3 542.7,70.9 548.8,70.9 555.0,70.8 561.1,70.7 567.2,69.5 573.4,69.5 579.5,69.4 585.6,68.7 591.8,68.7 597.9,65.3 604.1,63.7 610.2,63.7 616.3,63.6 622.5,63.5 628.6,63.2 634.8,63.0 640.9,63.0 647.0,63.0 653.2,62.9 659.3,62.5 665.4,61.7 671.6,61.6 677.7,61.5 683.9,61.4 690.0,61.3 690.0,270.0 70.0,270.0" fill="#58a6ff" opacity="0.15"/>
  <polyline points="70.0,197.2 76.1,197.2 82.3,196.2 88.4,185.4 94.6,178.5 100.7,176.6 106.8,175.0 113.0,169.3 119.1,168.9 125.2,167.3 131.4,166.8 137.5,166.7 143.7,158.4 149.8,147.4 155.9,138.2 162.1,134.6 168.2,131.1 174.4,128.3 180.5,127.5 186.6,127.3 192.8,125.7 198.9,124.0 205.0,119.9 211.2,115.9 217.3,113.0 223.5,110.0 229.6,109.0 235.7,101.5 241.9,96.8 248.0,95.2 254.2,94.9 260.3,93.7 266.4,93.6 272.6,93.6 278.7,93.0 284.9,92.9 291.0,92.8 297.1,92.3 303.3,89.7 309.4,89.6 315.5,89.0 321.7,88.0 327.8,87.9 334.0,87.6 340.1,87.3 346.2,87.1 352.4,86.9 358.5,86.8 364.7,86.7 370.8,85.0 376.9,84.7 383.1,84.6 389.2,84.5 395.3,84.4 401.5,84.3 407.6,83.3 413.8,83.2 419.9,83.0 426.0,83.0 432.2,81.6 438.3,81.3 444.5,81.0 450.6,78.7 456.7,78.6 462.9,78.1 469.0,75.9 475.1,75.7 481.3,75.7 487.4,75.6 493.6,75.5 499.7,75.5 505.8,75.1 512.0,75.1 518.1,75.1 524.3,74.9 530.4,74.6 536.5,73.3 542.7,70.9 548.8,70.9 555.0,70.8 561.1,70.7 567.2,69.5 573.4,69.5 579.5,69.4 585.6,68.7 591.8,68.7 597.9,65.3 604.1,63.7 610.2,63.7 616.3,63.6 622.5,63.5 628.6,63.2 634.8,63.0 640.9,63.0 647.0,63.0 653.2,62.9 659.3,62.5 665.4,61.7 671.6,61.6 677.7,61.5 683.9,61.4 690.0,61.3" fill="none" stroke="#58a6ff" stroke-width="2.5" stroke-linejoin="round" stroke-linecap="round"/>
  <text x="70.0" y="310" text-anchor="middle" fill="#8b949e" font-family="sans-serif" font-size="11">03-12</text><text x="223.5" y="310" text-anchor="middle" fill="#8b949e" font-family="sans-serif" font-size="11">04-06</text><text x="376.9" y="310" text-anchor="middle" fill="#8b949e" font-family="sans-serif" font-size="11">05-01</text><text x="530.4" y="310" text-anchor="middle" fill="#8b949e" font-family="sans-serif" font-size="11">05-26</text><text x="683.9" y="310" text-anchor="middle" fill="#8b949e" font-family="sans-serif" font-size="11">06-20</text>
  <text x="694.0" y="53.3" fill="#58a6ff" font-family="sans-serif" font-size="12" font-weight="bold">11.3K</text>
</svg>