<svg xmlns="http://www.w3.org/2000/svg" width="720" height="320">
  <rect width="720" height="320" fill="#0d1117" rx="8"/>
  <text x="70" y="22" fill="#c9d1d9" font-family="sans-serif" font-size="14" font-weight="bold">Total Downloads Over Time</text>
  <line x1="70" y1="270.0" x2="690" y2="270.0" stroke="#21262d" stroke-width="1"/><text x="62" y="274.0" text-anchor="end" fill="#8b949e" font-family="sans-serif" font-size="11">0</text><line x1="70" y1="210.0" x2="690" y2="210.0" stroke="#21262d" stroke-width="1"/><text x="62" y="214.0" text-anchor="end" fill="#8b949e" font-family="sans-serif" font-size="11">3.0K</text><line x1="70" y1="150.0" x2="690" y2="150.0" stroke="#21262d" stroke-width="1"/><text x="62" y="154.0" text-anchor="end" fill="#8b949e" font-family="sans-serif" font-size="11">6.0K</text><line x1="70" y1="90.0" x2="690" y2="90.0" stroke="#21262d" stroke-width="1"/><text x="62" y="94.0" text-anchor="end" fill="#8b949e" font-family="sans-serif" font-size="11">8.9K</text><line x1="70" y1="30.0" x2="690" y2="30.0" stroke="#21262d" stroke-width="1"/><text x="62" y="34.0" text-anchor="end" fill="#8b949e" font-family="sans-serif" font-size="11">11.9K</text>
  <polygon points="70.0,190.6 79.8,190.6 89.7,189.6 99.5,177.7 109.4,170.2 119.2,168.1 129.0,166.4 138.9,160.2 148.7,159.8 158.6,158.0 168.4,157.5 178.3,157.4 188.1,148.3 197.9,136.4 207.8,126.3 217.6,122.4 227.5,118.6 237.3,115.5 247.1,114.7 257.0,114.5 266.8,112.7 276.7,110.9 286.5,106.4 296.3,102.1 306.2,98.8 316.0,95.6 325.9,94.5 335.7,86.3 345.6,81.2 355.4,79.4 365.2,79.2 375.1,77.8 384.9,77.7 394.8,77.7 404.6,77.1 414.4,76.9 424.3,76.8 434.1,76.3 444.0,73.4 453.8,73.3 463.7,72.7 473.5,71.6 483.3,71.5 493.2,71.1 503.0,70.9 512.9,70.6 522.7,70.4 532.5,70.3 542.4,70.2 552.2,68.4 562.1,68.0 571.9,67.9 581.7,67.8 591.6,67.7 601.4,67.6 611.3,66.5 621.1,66.4 631.0,66.1 640.8,66.1 650.6,64.6 660.5,64.3 670.3,64.0 680.2,61.5 690.0,61.3 690.0,270.0 70.0,270.0" fill="#58a6ff" opacity="0.15"/>
  <polyline points="70.0,190.6 79.8,190.6 89.7,189.6 99.5,177.7 109.4,170.2 119.2,168.1 129.0,166.4 138.9,160.2 148.7,159.8 158.6,158.0 168.4,157.5 178.3,157.4 188.1,148.3 197.9,136.4 207.8,126.3 217.6,122.4 227.5,118.6 237.3,115.5 247.1,114.7 257.0,114.5 266.8,112.7 276.7,110.9 286.5,106.4 296.3,102.1 306.2,98.8 316.0,95.6 325.9,94.5 335.7,86.3 345.6,81.2 355.4,79.4 365.2,79.2 375.1,77.8 384.9,77.7 394.8,77.7 404.6,77.1 414.4,76.9 424.3,76.8 434.1,76.3 444.0,73.4 453.8,73.3 463.7,72.7 473.5,71.6 483.3,71.5 493.2,71.1 503.0,70.9 512.9,70.6 522.7,70.4 532.5,70.3 542.4,70.2 552.2,68.4 562.1,68.0 571.9,67.9 581.7,67.8 591.6,67.7 601.4,67.6 611.3,66.5 621.1,66.4 631.0,66.1 640.8,66.1 650.6,64.6 660.5,64.3 670.3,64.0 680.2,61.5 690.0,61.3" fill="none" stroke="#58a6ff" stroke-width="2.5" stroke-linejoin="round" stroke-linecap="round"/>
  <text x="70.0" y="310" text-anchor="middle" fill="#8b949e" font-family="sans-serif" font-size="11">03-12</text><text x="217.6" y="310" text-anchor="middle" fill="#8b949e" font-family="sans-serif" font-size="11">03-27</text><text x="365.2" y="310" text-anchor="middle" fill="#8b949e" font-family="sans-serif" font-size="11">04-11</text><text x="512.9" y="310" text-anchor="middle" fill="#8b949e" font-family="sans-serif" font-size="11">04-26</text><text x="660.5" y="310" text-anchor="middle" fill="#8b949e" font-family="sans-serif" font-size="11">05-11</text>
  <text x="694.0" y="53.3" fill="#58a6ff" font-family="sans-serif" font-size="12" font-weight="bold">10.4K</text>
</svg>