<svg xmlns="http://www.w3.org/2000/svg" width="720" height="320">
  <rect width="720" height="320" fill="#0d1117" rx="8"/>
  <text x="70" y="22" fill="#c9d1d9" font-family="sans-serif" font-size="14" font-weight="bold">Total Downloads Over Time</text>
  <line x1="70" y1="270.0" x2="690" y2="270.0" stroke="#21262d" stroke-width="1"/><text x="62" y="274.0" text-anchor="end" fill="#8b949e" font-family="sans-serif" font-size="11">0</text><line x1="70" y1="210.0" x2="690" y2="210.0" stroke="#21262d" stroke-width="1"/><text x="62" y="214.0" text-anchor="end" fill="#8b949e" font-family="sans-serif" font-size="11">3.0K</text><line x1="70" y1="150.0" x2="690" y2="150.0" stroke="#21262d" stroke-width="1"/><text x="62" y="154.0" text-anchor="end" fill="#8b949e" font-family="sans-serif" font-size="11">6.0K</text><line x1="70" y1="90.0" x2="690" y2="90.0" stroke="#21262d" stroke-width="1"/><text x="62" y="94.0" text-anchor="end" fill="#8b949e" font-family="sans-serif" font-size="11">9.0K</text><line x1="70" y1="30.0" x2="690" y2="30.0" stroke="#21262d" stroke-width="1"/><text x="62" y="34.0" text-anchor="end" fill="#8b949e" font-family="sans-serif" font-size="11">11.9K</text>
  <polygon points="70.0,190.8 79.7,190.8 89.4,189.8 99.1,177.9 108.8,170.5 118.4,168.4 128.1,166.6 137.8,160.5 147.5,160.1 157.2,158.3 166.9,157.8 176.6,157.7 186.2,148.6 195.9,136.7 205.6,126.6 215.3,122.8 225.0,119.0 234.7,115.9 244.4,115.0 254.1,114.8 263.8,113.0 273.4,111.3 283.1,106.8 292.8,102.5 302.5,99.2 312.2,96.0 321.9,94.9 331.6,86.7 341.2,81.7 350.9,79.9 360.6,79.6 370.3,78.2 380.0,78.1 389.7,78.1 399.4,77.6 409.1,77.4 418.8,77.3 428.4,76.8 438.1,73.9 447.8,73.8 457.5,73.2 467.2,72.1 476.9,71.9 486.6,71.6 496.2,71.3 505.9,71.1 515.6,70.9 525.3,70.8 535.0,70.7 544.7,68.8 554.4,68.5 564.1,68.4 573.8,68.3 583.4,68.2 593.1,68.1 602.8,67.0 612.5,66.9 622.2,66.6 631.9,66.6 641.6,65.1 651.2,64.8 660.9,64.5 670.6,62.0 680.3,61.8 690.0,61.3 690.0,270.0 70.0,270.0" fill="#58a6ff" opacity="0.15"/>
  <polyline points="70.0,190.8 79.7,190.8 89.4,189.8 99.1,177.9 108.8,170.5 118.4,168.4 128.1,166.6 137.8,160.5 147.5,160.1 157.2,158.3 166.9,157.8 176.6,157.7 186.2,148.6 195.9,136.7 205.6,126.6 215.3,122.8 225.0,119.0 234.7,115.9 244.4,115.0 254.1,114.8 263.8,113.0 273.4,111.3 283.1,106.8 292.8,102.5 302.5,99.2 312.2,96.0 321.9,94.9 331.6,86.7 341.2,81.7 350.9,79.9 360.6,79.6 370.3,78.2 380.0,78.1 389.7,78.1 399.4,77.6 409.1,77.4 418.8,77.3 428.4,76.8 438.1,73.9 447.8,73.8 457.5,73.2 467.2,72.1 476.9,71.9 486.6,71.6 496.2,71.3 505.9,71.1 515.6,70.9 525.3,70.8 535.0,70.7 544.7,68.8 554.4,68.5 564.1,68.4 573.8,68.3 583.4,68.2 593.1,68.1 602.8,67.0 612.5,66.9 622.2,66.6 631.9,66.6 641.6,65.1 651.2,64.8 660.9,64.5 670.6,62.0 680.3,61.8 690.0,61.3" fill="none" stroke="#58a6ff" stroke-width="2.5" stroke-linejoin="round" stroke-linecap="round"/>
  <text x="70.0" y="310" text-anchor="middle" fill="#8b949e" font-family="sans-serif" font-size="11">03-12</text><text x="225.0" y="310" text-anchor="middle" fill="#8b949e" font-family="sans-serif" font-size="11">03-28</text><text x="380.0" y="310" text-anchor="middle" fill="#8b949e" font-family="sans-serif" font-size="11">04-13</text><text x="535.0" y="310" text-anchor="middle" fill="#8b949e" font-family="sans-serif" font-size="11">04-29</text><text x="690.0" y="310" text-anchor="middle" fill="#8b949e" font-family="sans-serif" font-size="11">05-15</text>
  <text x="694.0" y="53.3" fill="#58a6ff" font-family="sans-serif" font-size="12" font-weight="bold">10.4K</text>
</svg>