<svg xmlns="http://www.w3.org/2000/svg" width="720" height="320">
  <rect width="720" height="320" fill="#0d1117" rx="8"/>
  <text x="70" y="22" fill="#c9d1d9" font-family="sans-serif" font-size="14" font-weight="bold">Total Downloads Over Time</text>
  <line x1="70" y1="270.0" x2="690" y2="270.0" stroke="#21262d" stroke-width="1"/><text x="62" y="274.0" text-anchor="end" fill="#8b949e" font-family="sans-serif" font-size="11">0</text><line x1="70" y1="210.0" x2="690" y2="210.0" stroke="#21262d" stroke-width="1"/><text x="62" y="214.0" text-anchor="end" fill="#8b949e" font-family="sans-serif" font-size="11">3.2K</text><line x1="70" y1="150.0" x2="690" y2="150.0" stroke="#21262d" stroke-width="1"/><text x="62" y="154.0" text-anchor="end" fill="#8b949e" font-family="sans-serif" font-size="11">6.4K</text><line x1="70" y1="90.0" x2="690" y2="90.0" stroke="#21262d" stroke-width="1"/><text x="62" y="94.0" text-anchor="end" fill="#8b949e" font-family="sans-serif" font-size="11">9.7K</text><line x1="70" y1="30.0" x2="690" y2="30.0" stroke="#21262d" stroke-width="1"/><text x="62" y="34.0" text-anchor="end" fill="#8b949e" font-family="sans-serif" font-size="11">12.9K</text>
  <polygon points="70.0,196.5 76.8,196.5 83.6,195.5 90.4,184.6 97.3,177.7 104.1,175.7 110.9,174.1 117.7,168.4 124.5,168.0 131.3,166.4 138.1,165.9 144.9,165.8 151.8,157.4 158.6,146.3 165.4,137.0 172.2,133.4 179.0,129.9 185.8,127.0 192.6,126.2 199.5,126.0 206.3,124.4 213.1,122.7 219.9,118.6 226.7,114.5 233.5,111.5 240.3,108.5 247.1,107.6 254.0,99.9 260.8,95.3 267.6,93.6 274.4,93.4 281.2,92.1 288.0,92.0 294.8,92.0 301.6,91.4 308.5,91.3 315.3,91.2 322.1,90.7 328.9,88.0 335.7,87.9 342.5,87.4 349.3,86.4 356.2,86.2 363.0,85.9 369.8,85.7 376.6,85.4 383.4,85.3 390.2,85.2 397.0,85.1 403.8,83.4 410.7,83.0 417.5,83.0 424.3,82.8 431.1,82.7 437.9,82.7 444.7,81.6 451.5,81.5 458.4,81.3 465.2,81.3 472.0,79.9 478.8,79.6 485.6,79.3 492.4,77.0 499.2,76.8 506.0,76.4 512.9,74.2 519.7,74.0 526.5,74.0 533.3,73.8 540.1,73.7 546.9,73.7 553.7,73.4 560.5,73.3 567.4,73.3 574.2,73.1 581.0,72.8 587.8,71.6 594.6,69.1 601.4,69.1 608.2,69.0 615.1,68.9 621.9,67.7 628.7,67.7 635.5,67.6 642.3,66.9 649.1,66.8 655.9,63.4 662.7,61.9 669.6,61.8 676.4,61.8 683.2,61.7 690.0,61.3 690.0,270.0 70.0,270.0" fill="#58a6ff" opacity="0.15"/>
  <polyline points="70.0,196.5 76.8,196.5 83.6,195.5 90.4,184.6 97.3,177.7 104.1,175.7 110.9,174.1 117.7,168.4 124.5,168.0 131.3,166.4 138.1,165.9 144.9,165.8 151.8,157.4 158.6,146.3 165.4,137.0 172.2,133.4 179.0,129.9 185.8,127.0 192.6,126.2 199.5,126.0 206.3,124.4 213.1,122.7 219.9,118.6 226.7,114.5 233.5,111.5 240.3,108.5 247.1,107.6 254.0,99.9 260.8,95.3 267.6,93.6 274.4,93.4 281.2,92.1 288.0,92.0 294.8,92.0 301.6,91.4 308.5,91.3 315.3,91.2 322.1,90.7 328.9,88.0 335.7,87.9 342.5,87.4 349.3,86.4 356.2,86.2 363.0,85.9 369.8,85.7 376.6,85.4 383.4,85.3 390.2,85.2 397.0,85.1 403.8,83.4 410.7,83.0 417.5,83.0 424.3,82.8 431.1,82.7 437.9,82.7 444.7,81.6 451.5,81.5 458.4,81.3 465.2,81.3 472.0,79.9 478.8,79.6 485.6,79.3 492.4,77.0 499.2,76.8 506.0,76.4 512.9,74.2 519.7,74.0 526.5,74.0 533.3,73.8 540.1,73.7 546.9,73.7 553.7,73.4 560.5,73.3 567.4,73.3 574.2,73.1 581.0,72.8 587.8,71.6 594.6,69.1 601.4,69.1 608.2,69.0 615.1,68.9 621.9,67.7 628.7,67.7 635.5,67.6 642.3,66.9 649.1,66.8 655.9,63.4 662.7,61.9 669.6,61.8 676.4,61.8 683.2,61.7 690.0,61.3" fill="none" stroke="#58a6ff" stroke-width="2.5" stroke-linejoin="round" stroke-linecap="round"/>
  <text x="70.0" y="310" text-anchor="middle" fill="#8b949e" font-family="sans-serif" font-size="11">03-12</text><text x="219.9" y="310" text-anchor="middle" fill="#8b949e" font-family="sans-serif" font-size="11">04-03</text><text x="369.8" y="310" text-anchor="middle" fill="#8b949e" font-family="sans-serif" font-size="11">04-25</text><text x="519.7" y="310" text-anchor="middle" fill="#8b949e" font-family="sans-serif" font-size="11">05-17</text><text x="669.6" y="310" text-anchor="middle" fill="#8b949e" font-family="sans-serif" font-size="11">06-08</text>
  <text x="694.0" y="53.3" fill="#58a6ff" font-family="sans-serif" font-size="12" font-weight="bold">11.2K</text>
</svg>