<svg xmlns="http://www.w3.org/2000/svg" width="720" height="320">
  <rect width="720" height="320" fill="#0d1117" rx="8"/>
  <text x="70" y="22" fill="#c9d1d9" font-family="sans-serif" font-size="14" font-weight="bold">Total Downloads Over Time</text>
  <line x1="70" y1="270.0" x2="690" y2="270.0" stroke="#21262d" stroke-width="1"/><text x="62" y="274.0" text-anchor="end" fill="#8b949e" font-family="sans-serif" font-size="11">0</text><line x1="70" y1="210.0" x2="690" y2="210.0" stroke="#21262d" stroke-width="1"/><text x="62" y="214.0" text-anchor="end" fill="#8b949e" font-family="sans-serif" font-size="11">3.4K</text><line x1="70" y1="150.0" x2="690" y2="150.0" stroke="#21262d" stroke-width="1"/><text x="62" y="154.0" text-anchor="end" fill="#8b949e" font-family="sans-serif" font-size="11">6.9K</text><line x1="70" y1="90.0" x2="690" y2="90.0" stroke="#21262d" stroke-width="1"/><text x="62" y="94.0" text-anchor="end" fill="#8b949e" font-family="sans-serif" font-size="11">10.3K</text><line x1="70" y1="30.0" x2="690" y2="30.0" stroke="#21262d" stroke-width="1"/><text x="62" y="34.0" text-anchor="end" fill="#8b949e" font-family="sans-serif" font-size="11">13.7K</text>
  <polygon points="70.0,201.0 74.8,201.0 79.6,200.1 84.4,189.8 89.2,183.3 94.0,181.5 98.8,180.0 103.6,174.6 108.4,174.3 113.3,172.7 118.1,172.3 122.9,172.2 127.7,164.3 132.5,153.9 137.3,145.1 142.1,141.8 146.9,138.5 151.7,135.8 156.5,135.0 161.3,134.9 166.1,133.3 170.9,131.8 175.7,127.8 180.5,124.1 185.3,121.3 190.2,118.4 195.0,117.5 199.8,110.4 204.6,106.0 209.4,104.4 214.2,104.2 219.0,103.0 223.8,102.9 228.6,102.9 233.4,102.4 238.2,102.3 243.0,102.1 247.8,101.7 252.6,99.2 257.4,99.1 262.2,98.6 267.1,97.6 271.9,97.5 276.7,97.2 281.5,97.0 286.3,96.7 291.1,96.6 295.9,96.5 300.7,96.4 305.5,94.8 310.3,94.5 315.1,94.4 319.9,94.3 324.7,94.2 329.5,94.1 334.3,93.2 339.1,93.1 344.0,92.9 348.8,92.8 353.6,91.5 358.4,91.2 363.2,91.0 368.0,88.8 372.8,88.7 377.6,88.2 382.4,86.2 387.2,86.0 392.0,86.0 396.8,85.9 401.6,85.7 406.4,85.7 411.2,85.4 416.0,85.4 420.9,85.4 425.7,85.2 430.5,84.9 435.3,83.7 440.1,81.4 444.9,81.4 449.7,81.3 454.5,81.3 459.3,80.1 464.1,80.1 468.9,80.0 473.7,79.3 478.5,79.3 483.3,76.1 488.1,74.6 492.9,74.6 497.8,74.5 502.6,74.4 507.4,74.1 512.2,73.9 517.0,73.9 521.8,73.9 526.6,73.9 531.4,73.4 536.2,72.7 541.0,72.6 545.8,72.5 550.6,72.4 555.4,72.3 560.2,72.2 565.0,72.2 569.8,70.1 574.7,70.1 579.5,70.1 584.3,69.7 589.1,69.3 593.9,69.2 598.7,68.6 603.5,68.5 608.3,67.3 613.1,67.2 617.9,66.9 622.7,66.4 627.5,66.3 632.3,66.1 637.1,65.5 641.9,65.0 646.7,64.7 651.6,64.7 656.4,64.6 661.2,62.3 666.0,62.2 670.8,62.1 675.6,61.8 680.4,61.6 685.2,61.6 690.0,61.3 690.0,270.0 70.0,270.0" fill="#58a6ff" opacity="0.15"/>
  <polyline points="70.0,201.0 74.8,201.0 79.6,200.1 84.4,189.8 89.2,183.3 94.0,181.5 98.8,180.0 103.6,174.6 108.4,174.3 113.3,172.7 118.1,172.3 122.9,172.2 127.7,164.3 132.5,153.9 137.3,145.1 142.1,141.8 146.9,138.5 151.7,135.8 156.5,135.0 161.3,134.9 166.1,133.3 170.9,131.8 175.7,127.8 180.5,124.1 185.3,121.3 190.2,118.4 195.0,117.5 199.8,110.4 204.6,106.0 209.4,104.4 214.2,104.2 219.0,103.0 223.8,102.9 228.6,102.9 233.4,102.4 238.2,102.3 243.0,102.1 247.8,101.7 252.6,99.2 257.4,99.1 262.2,98.6 267.1,97.6 271.9,97.5 276.7,97.2 281.5,97.0 286.3,96.7 291.1,96.6 295.9,96.5 300.7,96.4 305.5,94.8 310.3,94.5 315.1,94.4 319.9,94.3 324.7,94.2 329.5,94.1 334.3,93.2 339.1,93.1 344.0,92.9 348.8,92.8 353.6,91.5 358.4,91.2 363.2,91.0 368.0,88.8 372.8,88.7 377.6,88.2 382.4,86.2 387.2,86.0 392.0,86.0 396.8,85.9 401.6,85.7 406.4,85.7 411.2,85.4 416.0,85.4 420.9,85.4 425.7,85.2 430.5,84.9 435.3,83.7 440.1,81.4 444.9,81.4 449.7,81.3 454.5,81.3 459.3,80.1 464.1,80.1 468.9,80.0 473.7,79.3 478.5,79.3 483.3,76.1 488.1,74.6 492.9,74.6 497.8,74.5 502.6,74.4 507.4,74.1 512.2,73.9 517.0,73.9 521.8,73.9 526.6,73.9 531.4,73.4 536.2,72.7 541.0,72.6 545.8,72.5 550.6,72.4 555.4,72.3 560.2,72.2 565.0,72.2 569.8,70.1 574.7,70.1 579.5,70.1 584.3,69.7 589.1,69.3 593.9,69.2 598.7,68.6 603.5,68.5 608.3,67.3 613.1,67.2 617.9,66.9 622.7,66.4 627.5,66.3 632.3,66.1 637.1,65.5 641.9,65.0 646.7,64.7 651.6,64.7 656.4,64.6 661.2,62.3 666.0,62.2 670.8,62.1 675.6,61.8 680.4,61.6 685.2,61.6 690.0,61.3" fill="none" stroke="#58a6ff" stroke-width="2.5" stroke-linejoin="round" stroke-linecap="round"/>
  <text x="70.0" y="310" text-anchor="middle" fill="#8b949e" font-family="sans-serif" font-size="11">03-12</text><text x="223.8" y="310" text-anchor="middle" fill="#8b949e" font-family="sans-serif" font-size="11">04-13</text><text x="377.6" y="310" text-anchor="middle" fill="#8b949e" font-family="sans-serif" font-size="11">05-15</text><text x="531.4" y="310" text-anchor="middle" fill="#8b949e" font-family="sans-serif" font-size="11">06-16</text><text x="685.2" y="310" text-anchor="middle" fill="#8b949e" font-family="sans-serif" font-size="11">07-18</text>
  <text x="694.0" y="53.3" fill="#58a6ff" font-family="sans-serif" font-size="12" font-weight="bold">11.9K</text>
</svg>