<svg xmlns="http://www.w3.org/2000/svg" width="720" height="320">
  <rect width="720" height="320" fill="#0d1117" rx="8"/>
  <text x="70" y="22" fill="#c9d1d9" font-family="sans-serif" font-size="14" font-weight="bold">Total Downloads Over Time</text>
  <line x1="70" y1="270.0" x2="690" y2="270.0" stroke="#21262d" stroke-width="1"/><text x="62" y="274.0" text-anchor="end" fill="#8b949e" font-family="sans-serif" font-size="11">0</text><line x1="70" y1="210.0" x2="690" y2="210.0" stroke="#21262d" stroke-width="1"/><text x="62" y="214.0" text-anchor="end" fill="#8b949e" font-family="sans-serif" font-size="11">3.2K</text><line x1="70" y1="150.0" x2="690" y2="150.0" stroke="#21262d" stroke-width="1"/><text x="62" y="154.0" text-anchor="end" fill="#8b949e" font-family="sans-serif" font-size="11">6.4K</text><line x1="70" y1="90.0" x2="690" y2="90.0" stroke="#21262d" stroke-width="1"/><text x="62" y="94.0" text-anchor="end" fill="#8b949e" font-family="sans-serif" font-size="11">9.7K</text><line x1="70" y1="30.0" x2="690" y2="30.0" stroke="#21262d" stroke-width="1"/><text x="62" y="34.0" text-anchor="end" fill="#8b949e" font-family="sans-serif" font-size="11">12.9K</text>
  <polygon points="70.0,196.6 76.7,196.6 83.5,195.6 90.2,184.7 97.0,177.7 103.7,175.8 110.4,174.2 117.2,168.5 123.9,168.1 130.7,166.4 137.4,166.0 144.1,165.8 150.9,157.5 157.6,146.4 164.3,137.1 171.1,133.5 177.8,130.0 184.6,127.2 191.3,126.3 198.0,126.1 204.8,124.5 211.5,122.8 218.3,118.7 225.0,114.7 231.7,111.7 238.5,108.7 245.2,107.7 252.0,100.1 258.7,95.4 265.4,93.8 272.2,93.5 278.9,92.2 285.7,92.1 292.4,92.1 299.1,91.6 305.9,91.5 312.6,91.3 319.3,90.8 326.1,88.2 332.8,88.1 339.6,87.5 346.3,86.5 353.0,86.4 359.8,86.1 366.5,85.8 373.3,85.6 380.0,85.4 386.7,85.3 393.5,85.2 400.2,83.5 407.0,83.2 413.7,83.1 420.4,83.0 427.2,82.9 433.9,82.8 440.7,81.8 447.4,81.7 454.1,81.5 460.9,81.4 467.6,80.0 474.3,79.7 481.1,79.5 487.8,77.1 494.6,77.0 501.3,76.5 508.0,74.3 514.8,74.2 521.5,74.1 528.3,74.0 535.0,73.9 541.7,73.9 548.5,73.5 555.2,73.5 562.0,73.5 568.7,73.3 575.4,73.0 582.2,71.7 588.9,69.2 595.7,69.2 602.4,69.1 609.1,69.1 615.9,67.9 622.6,67.9 629.3,67.8 636.1,67.0 642.8,67.0 649.6,63.6 656.3,62.0 663.0,62.0 669.8,61.9 676.5,61.8 683.3,61.5 690.0,61.3 690.0,270.0 70.0,270.0" fill="#58a6ff" opacity="0.15"/>
  <polyline points="70.0,196.6 76.7,196.6 83.5,195.6 90.2,184.7 97.0,177.7 103.7,175.8 110.4,174.2 117.2,168.5 123.9,168.1 130.7,166.4 137.4,166.0 144.1,165.8 150.9,157.5 157.6,146.4 164.3,137.1 171.1,133.5 177.8,130.0 184.6,127.2 191.3,126.3 198.0,126.1 204.8,124.5 211.5,122.8 218.3,118.7 225.0,114.7 231.7,111.7 238.5,108.7 245.2,107.7 252.0,100.1 258.7,95.4 265.4,93.8 272.2,93.5 278.9,92.2 285.7,92.1 292.4,92.1 299.1,91.6 305.9,91.5 312.6,91.3 319.3,90.8 326.1,88.2 332.8,88.1 339.6,87.5 346.3,86.5 353.0,86.4 359.8,86.1 366.5,85.8 373.3,85.6 380.0,85.4 386.7,85.3 393.5,85.2 400.2,83.5 407.0,83.2 413.7,83.1 420.4,83.0 427.2,82.9 433.9,82.8 440.7,81.8 447.4,81.7 454.1,81.5 460.9,81.4 467.6,80.0 474.3,79.7 481.1,79.5 487.8,77.1 494.6,77.0 501.3,76.5 508.0,74.3 514.8,74.2 521.5,74.1 528.3,74.0 535.0,73.9 541.7,73.9 548.5,73.5 555.2,73.5 562.0,73.5 568.7,73.3 575.4,73.0 582.2,71.7 588.9,69.2 595.7,69.2 602.4,69.1 609.1,69.1 615.9,67.9 622.6,67.9 629.3,67.8 636.1,67.0 642.8,67.0 649.6,63.6 656.3,62.0 663.0,62.0 669.8,61.9 676.5,61.8 683.3,61.5 690.0,61.3" fill="none" stroke="#58a6ff" stroke-width="2.5" stroke-linejoin="round" stroke-linecap="round"/>
  <text x="70.0" y="310" text-anchor="middle" fill="#8b949e" font-family="sans-serif" font-size="11">03-12</text><text x="225.0" y="310" text-anchor="middle" fill="#8b949e" font-family="sans-serif" font-size="11">04-04</text><text x="380.0" y="310" text-anchor="middle" fill="#8b949e" font-family="sans-serif" font-size="11">04-27</text><text x="535.0" y="310" text-anchor="middle" fill="#8b949e" font-family="sans-serif" font-size="11">05-20</text><text x="690.0" y="310" text-anchor="middle" fill="#8b949e" font-family="sans-serif" font-size="11">06-12</text>
  <text x="694.0" y="53.3" fill="#58a6ff" font-family="sans-serif" font-size="12" font-weight="bold">11.2K</text>
</svg>