<svg xmlns="http://www.w3.org/2000/svg" width="720" height="320">
  <rect width="720" height="320" fill="#0d1117" rx="8"/>
  <text x="70" y="22" fill="#c9d1d9" font-family="sans-serif" font-size="14" font-weight="bold">Total Downloads Over Time</text>
  <line x1="70" y1="270.0" x2="690" y2="270.0" stroke="#21262d" stroke-width="1"/><text x="62" y="274.0" text-anchor="end" fill="#8b949e" font-family="sans-serif" font-size="11">0</text><line x1="70" y1="210.0" x2="690" y2="210.0" stroke="#21262d" stroke-width="1"/><text x="62" y="214.0" text-anchor="end" fill="#8b949e" font-family="sans-serif" font-size="11">3.2K</text><line x1="70" y1="150.0" x2="690" y2="150.0" stroke="#21262d" stroke-width="1"/><text x="62" y="154.0" text-anchor="end" fill="#8b949e" font-family="sans-serif" font-size="11">6.4K</text><line x1="70" y1="90.0" x2="690" y2="90.0" stroke="#21262d" stroke-width="1"/><text x="62" y="94.0" text-anchor="end" fill="#8b949e" font-family="sans-serif" font-size="11">9.6K</text><line x1="70" y1="30.0" x2="690" y2="30.0" stroke="#21262d" stroke-width="1"/><text x="62" y="34.0" text-anchor="end" fill="#8b949e" font-family="sans-serif" font-size="11">12.9K</text>
  <polygon points="70.0,196.4 76.9,196.4 83.8,195.4 90.7,184.4 97.6,177.5 104.4,175.5 111.3,173.9 118.2,168.2 125.1,167.9 132.0,166.2 138.9,165.7 145.8,165.6 152.7,157.2 159.6,146.1 166.4,136.7 173.3,133.2 180.2,129.6 187.1,126.8 194.0,126.0 200.9,125.8 207.8,124.1 214.7,122.5 221.6,118.3 228.4,114.3 235.3,111.3 242.2,108.2 249.1,107.3 256.0,99.6 262.9,94.9 269.8,93.3 276.7,93.0 283.6,91.8 290.4,91.7 297.3,91.6 304.2,91.1 311.1,91.0 318.0,90.9 324.9,90.4 331.8,87.7 338.7,87.6 345.6,87.1 352.4,86.1 359.3,85.9 366.2,85.6 373.1,85.4 380.0,85.1 386.9,84.9 393.8,84.8 400.7,84.7 407.6,83.0 414.4,82.7 421.3,82.6 428.2,82.5 435.1,82.4 442.0,82.3 448.9,81.3 455.8,81.2 462.7,81.0 469.6,80.9 476.4,79.5 483.3,79.2 490.2,79.0 497.1,76.6 504.0,76.5 510.9,76.0 517.8,73.8 524.7,73.6 531.6,73.6 538.4,73.5 545.3,73.4 552.2,73.4 559.1,73.0 566.0,73.0 572.9,73.0 579.8,72.7 586.7,72.5 593.6,71.2 600.4,68.7 607.3,68.7 614.2,68.6 621.1,68.6 628.0,67.4 634.9,67.4 641.8,67.3 648.7,66.5 655.6,66.5 662.4,63.1 669.3,61.5 676.2,61.5 683.1,61.4 690.0,61.3 690.0,270.0 70.0,270.0" fill="#58a6ff" opacity="0.15"/>
  <polyline points="70.0,196.4 76.9,196.4 83.8,195.4 90.7,184.4 97.6,177.5 104.4,175.5 111.3,173.9 118.2,168.2 125.1,167.9 132.0,166.2 138.9,165.7 145.8,165.6 152.7,157.2 159.6,146.1 166.4,136.7 173.3,133.2 180.2,129.6 187.1,126.8 194.0,126.0 200.9,125.8 207.8,124.1 214.7,122.5 221.6,118.3 228.4,114.3 235.3,111.3 242.2,108.2 249.1,107.3 256.0,99.6 262.9,94.9 269.8,93.3 276.7,93.0 283.6,91.8 290.4,91.7 297.3,91.6 304.2,91.1 311.1,91.0 318.0,90.9 324.9,90.4 331.8,87.7 338.7,87.6 345.6,87.1 352.4,86.1 359.3,85.9 366.2,85.6 373.1,85.4 380.0,85.1 386.9,84.9 393.8,84.8 400.7,84.7 407.6,83.0 414.4,82.7 421.3,82.6 428.2,82.5 435.1,82.4 442.0,82.3 448.9,81.3 455.8,81.2 462.7,81.0 469.6,80.9 476.4,79.5 483.3,79.2 490.2,79.0 497.1,76.6 504.0,76.5 510.9,76.0 517.8,73.8 524.7,73.6 531.6,73.6 538.4,73.5 545.3,73.4 552.2,73.4 559.1,73.0 566.0,73.0 572.9,73.0 579.8,72.7 586.7,72.5 593.6,71.2 600.4,68.7 607.3,68.7 614.2,68.6 621.1,68.6 628.0,67.4 634.9,67.4 641.8,67.3 648.7,66.5 655.6,66.5 662.4,63.1 669.3,61.5 676.2,61.5 683.1,61.4 690.0,61.3" fill="none" stroke="#58a6ff" stroke-width="2.5" stroke-linejoin="round" stroke-linecap="round"/>
  <text x="70.0" y="310" text-anchor="middle" fill="#8b949e" font-family="sans-serif" font-size="11">03-12</text><text x="221.6" y="310" text-anchor="middle" fill="#8b949e" font-family="sans-serif" font-size="11">04-03</text><text x="373.1" y="310" text-anchor="middle" fill="#8b949e" font-family="sans-serif" font-size="11">04-25</text><text x="524.7" y="310" text-anchor="middle" fill="#8b949e" font-family="sans-serif" font-size="11">05-17</text><text x="676.2" y="310" text-anchor="middle" fill="#8b949e" font-family="sans-serif" font-size="11">06-08</text>
  <text x="694.0" y="53.3" fill="#58a6ff" font-family="sans-serif" font-size="12" font-weight="bold">11.2K</text>
</svg>