<svg xmlns="http://www.w3.org/2000/svg" width="720" height="320">
  <rect width="720" height="320" fill="#0d1117" rx="8"/>
  <text x="70" y="22" fill="#c9d1d9" font-family="sans-serif" font-size="14" font-weight="bold">Total Downloads Over Time</text>
  <line x1="70" y1="270.0" x2="690" y2="270.0" stroke="#21262d" stroke-width="1"/><text x="62" y="274.0" text-anchor="end" fill="#8b949e" font-family="sans-serif" font-size="11">0</text><line x1="70" y1="210.0" x2="690" y2="210.0" stroke="#21262d" stroke-width="1"/><text x="62" y="214.0" text-anchor="end" fill="#8b949e" font-family="sans-serif" font-size="11">2.8K</text><line x1="70" y1="150.0" x2="690" y2="150.0" stroke="#21262d" stroke-width="1"/><text x="62" y="154.0" text-anchor="end" fill="#8b949e" font-family="sans-serif" font-size="11">5.7K</text><line x1="70" y1="90.0" x2="690" y2="90.0" stroke="#21262d" stroke-width="1"/><text x="62" y="94.0" text-anchor="end" fill="#8b949e" font-family="sans-serif" font-size="11">8.5K</text><line x1="70" y1="30.0" x2="690" y2="30.0" stroke="#21262d" stroke-width="1"/><text x="62" y="34.0" text-anchor="end" fill="#8b949e" font-family="sans-serif" font-size="11">11.3K</text>
  <polygon points="70.0,186.6 84.8,186.5 99.5,185.5 114.3,173.0 129.0,165.1 143.8,162.9 158.6,161.1 173.3,154.6 188.1,154.2 202.9,152.3 217.6,151.8 232.4,151.6 247.1,142.1 261.9,129.5 276.7,118.9 291.4,114.9 306.2,110.9 321.0,107.7 335.7,106.7 350.5,106.5 365.2,104.6 380.0,102.8 394.8,98.0 409.5,93.5 424.3,90.1 439.0,86.6 453.8,85.5 468.6,76.9 483.3,71.6 498.1,69.7 512.9,69.4 527.6,67.9 542.4,67.8 557.1,67.8 571.9,67.2 586.7,67.1 601.4,66.9 616.2,66.4 631.0,63.4 645.7,63.3 660.5,62.6 675.2,61.5 690.0,61.3 690.0,270.0 70.0,270.0" fill="#58a6ff" opacity="0.15"/>
  <polyline points="70.0,186.6 84.8,186.5 99.5,185.5 114.3,173.0 129.0,165.1 143.8,162.9 158.6,161.1 173.3,154.6 188.1,154.2 202.9,152.3 217.6,151.8 232.4,151.6 247.1,142.1 261.9,129.5 276.7,118.9 291.4,114.9 306.2,110.9 321.0,107.7 335.7,106.7 350.5,106.5 365.2,104.6 380.0,102.8 394.8,98.0 409.5,93.5 424.3,90.1 439.0,86.6 453.8,85.5 468.6,76.9 483.3,71.6 498.1,69.7 512.9,69.4 527.6,67.9 542.4,67.8 557.1,67.8 571.9,67.2 586.7,67.1 601.4,66.9 616.2,66.4 631.0,63.4 645.7,63.3 660.5,62.6 675.2,61.5 690.0,61.3" fill="none" stroke="#58a6ff" stroke-width="2.5" stroke-linejoin="round" stroke-linecap="round"/>
  <text x="70.0" y="310" text-anchor="middle" fill="#8b949e" font-family="sans-serif" font-size="11">03-12</text><text x="217.6" y="310" text-anchor="middle" fill="#8b949e" font-family="sans-serif" font-size="11">03-22</text><text x="365.2" y="310" text-anchor="middle" fill="#8b949e" font-family="sans-serif" font-size="11">04-01</text><text x="512.9" y="310" text-anchor="middle" fill="#8b949e" font-family="sans-serif" font-size="11">04-11</text><text x="660.5" y="310" text-anchor="middle" fill="#8b949e" font-family="sans-serif" font-size="11">04-21</text>
  <text x="694.0" y="53.3" fill="#58a6ff" font-family="sans-serif" font-size="12" font-weight="bold">9.9K</text>
</svg>