<svg xmlns="http://www.w3.org/2000/svg" width="720" height="320">
  <rect width="720" height="320" fill="#0d1117" rx="8"/>
  <text x="70" y="22" fill="#c9d1d9" font-family="sans-serif" font-size="14" font-weight="bold">Total Downloads Over Time</text>
  <line x1="70" y1="270.0" x2="690" y2="270.0" stroke="#21262d" stroke-width="1"/><text x="62" y="274.0" text-anchor="end" fill="#8b949e" font-family="sans-serif" font-size="11">0</text><line x1="70" y1="210.0" x2="690" y2="210.0" stroke="#21262d" stroke-width="1"/><text x="62" y="214.0" text-anchor="end" fill="#8b949e" font-family="sans-serif" font-size="11">3.2K</text><line x1="70" y1="150.0" x2="690" y2="150.0" stroke="#21262d" stroke-width="1"/><text x="62" y="154.0" text-anchor="end" fill="#8b949e" font-family="sans-serif" font-size="11">6.4K</text><line x1="70" y1="90.0" x2="690" y2="90.0" stroke="#21262d" stroke-width="1"/><text x="62" y="94.0" text-anchor="end" fill="#8b949e" font-family="sans-serif" font-size="11">9.6K</text><line x1="70" y1="30.0" x2="690" y2="30.0" stroke="#21262d" stroke-width="1"/><text x="62" y="34.0" text-anchor="end" fill="#8b949e" font-family="sans-serif" font-size="11">12.8K</text>
  <polygon points="70.0,196.3 77.1,196.3 84.3,195.3 91.4,184.4 98.5,177.4 105.6,175.5 112.8,173.8 119.9,168.1 127.0,167.8 134.1,166.1 141.3,165.6 148.4,165.5 155.5,157.1 162.6,146.0 169.8,136.6 176.9,133.0 184.0,129.5 191.1,126.6 198.3,125.8 205.4,125.6 212.5,124.0 219.7,122.3 226.8,118.1 233.9,114.1 241.0,111.1 248.2,108.1 255.3,107.1 262.4,99.5 269.5,94.8 276.7,93.1 283.8,92.9 290.9,91.6 298.0,91.5 305.2,91.5 312.3,90.9 319.4,90.8 326.6,90.7 333.7,90.2 340.8,87.5 347.9,87.4 355.1,86.9 362.2,85.9 369.3,85.7 376.4,85.4 383.6,85.2 390.7,84.9 397.8,84.7 404.9,84.7 412.1,84.6 419.2,82.8 426.3,82.5 433.4,82.4 440.6,82.3 447.7,82.2 454.8,82.1 462.0,81.1 469.1,81.0 476.2,80.8 483.3,80.7 490.5,79.4 497.6,79.0 504.7,78.8 511.8,76.4 519.0,76.3 526.1,75.8 533.2,73.6 540.3,73.5 547.5,73.4 554.6,73.3 561.7,73.2 568.9,73.2 576.0,72.8 583.1,72.8 590.2,72.8 597.4,72.6 604.5,72.3 611.6,71.0 618.7,68.5 625.9,68.5 633.0,68.4 640.1,68.4 647.2,67.2 654.4,67.2 661.5,67.1 668.6,66.3 675.7,66.3 682.9,62.9 690.0,61.3 690.0,270.0 70.0,270.0" fill="#58a6ff" opacity="0.15"/>
  <polyline points="70.0,196.3 77.1,196.3 84.3,195.3 91.4,184.4 98.5,177.4 105.6,175.5 112.8,173.8 119.9,168.1 127.0,167.8 134.1,166.1 141.3,165.6 148.4,165.5 155.5,157.1 162.6,146.0 169.8,136.6 176.9,133.0 184.0,129.5 191.1,126.6 198.3,125.8 205.4,125.6 212.5,124.0 219.7,122.3 226.8,118.1 233.9,114.1 241.0,111.1 248.2,108.1 255.3,107.1 262.4,99.5 269.5,94.8 276.7,93.1 283.8,92.9 290.9,91.6 298.0,91.5 305.2,91.5 312.3,90.9 319.4,90.8 326.6,90.7 333.7,90.2 340.8,87.5 347.9,87.4 355.1,86.9 362.2,85.9 369.3,85.7 376.4,85.4 383.6,85.2 390.7,84.9 397.8,84.7 404.9,84.7 412.1,84.6 419.2,82.8 426.3,82.5 433.4,82.4 440.6,82.3 447.7,82.2 454.8,82.1 462.0,81.1 469.1,81.0 476.2,80.8 483.3,80.7 490.5,79.4 497.6,79.0 504.7,78.8 511.8,76.4 519.0,76.3 526.1,75.8 533.2,73.6 540.3,73.5 547.5,73.4 554.6,73.3 561.7,73.2 568.9,73.2 576.0,72.8 583.1,72.8 590.2,72.8 597.4,72.6 604.5,72.3 611.6,71.0 618.7,68.5 625.9,68.5 633.0,68.4 640.1,68.4 647.2,67.2 654.4,67.2 661.5,67.1 668.6,66.3 675.7,66.3 682.9,62.9 690.0,61.3" fill="none" stroke="#58a6ff" stroke-width="2.5" stroke-linejoin="round" stroke-linecap="round"/>
  <text x="70.0" y="310" text-anchor="middle" fill="#8b949e" font-family="sans-serif" font-size="11">03-12</text><text x="219.7" y="310" text-anchor="middle" fill="#8b949e" font-family="sans-serif" font-size="11">04-02</text><text x="369.3" y="310" text-anchor="middle" fill="#8b949e" font-family="sans-serif" font-size="11">04-23</text><text x="519.0" y="310" text-anchor="middle" fill="#8b949e" font-family="sans-serif" font-size="11">05-14</text><text x="668.6" y="310" text-anchor="middle" fill="#8b949e" font-family="sans-serif" font-size="11">06-04</text>
  <text x="694.0" y="53.3" fill="#58a6ff" font-family="sans-serif" font-size="12" font-weight="bold">11.2K</text>
</svg>