<svg xmlns="http://www.w3.org/2000/svg" width="720" height="320">
  <rect width="720" height="320" fill="#0d1117" rx="8"/>
  <text x="70" y="22" fill="#c9d1d9" font-family="sans-serif" font-size="14" font-weight="bold">Total Downloads Over Time</text>
  <line x1="70" y1="270.0" x2="690" y2="270.0" stroke="#21262d" stroke-width="1"/><text x="62" y="274.0" text-anchor="end" fill="#8b949e" font-family="sans-serif" font-size="11">0</text><line x1="70" y1="210.0" x2="690" y2="210.0" stroke="#21262d" stroke-width="1"/><text x="62" y="214.0" text-anchor="end" fill="#8b949e" font-family="sans-serif" font-size="11">2.8K</text><line x1="70" y1="150.0" x2="690" y2="150.0" stroke="#21262d" stroke-width="1"/><text x="62" y="154.0" text-anchor="end" fill="#8b949e" font-family="sans-serif" font-size="11">5.6K</text><line x1="70" y1="90.0" x2="690" y2="90.0" stroke="#21262d" stroke-width="1"/><text x="62" y="94.0" text-anchor="end" fill="#8b949e" font-family="sans-serif" font-size="11">8.5K</text><line x1="70" y1="30.0" x2="690" y2="30.0" stroke="#21262d" stroke-width="1"/><text x="62" y="34.0" text-anchor="end" fill="#8b949e" font-family="sans-serif" font-size="11">11.3K</text>
  <polygon points="70.0,186.0 85.5,186.0 101.0,184.9 116.5,172.4 132.0,164.5 147.5,162.3 163.0,160.4 178.5,153.9 194.0,153.5 209.5,151.6 225.0,151.1 240.5,150.9 256.0,141.3 271.5,128.6 287.0,118.0 302.5,113.9 318.0,109.9 333.5,106.6 349.0,105.7 364.5,105.5 380.0,103.6 395.5,101.7 411.0,96.9 426.5,92.4 442.0,88.9 457.5,85.5 473.0,84.4 488.5,75.7 504.0,70.3 519.5,68.4 535.0,68.1 550.5,66.7 566.0,66.6 581.5,66.5 597.0,65.9 612.5,65.8 628.0,65.6 643.5,65.1 659.0,62.0 674.5,61.9 690.0,61.3 690.0,270.0 70.0,270.0" fill="#58a6ff" opacity="0.15"/>
  <polyline points="70.0,186.0 85.5,186.0 101.0,184.9 116.5,172.4 132.0,164.5 147.5,162.3 163.0,160.4 178.5,153.9 194.0,153.5 209.5,151.6 225.0,151.1 240.5,150.9 256.0,141.3 271.5,128.6 287.0,118.0 302.5,113.9 318.0,109.9 333.5,106.6 349.0,105.7 364.5,105.5 380.0,103.6 395.5,101.7 411.0,96.9 426.5,92.4 442.0,88.9 457.5,85.5 473.0,84.4 488.5,75.7 504.0,70.3 519.5,68.4 535.0,68.1 550.5,66.7 566.0,66.6 581.5,66.5 597.0,65.9 612.5,65.8 628.0,65.6 643.5,65.1 659.0,62.0 674.5,61.9 690.0,61.3" fill="none" stroke="#58a6ff" stroke-width="2.5" stroke-linejoin="round" stroke-linecap="round"/>
  <text x="70.0" y="310" text-anchor="middle" fill="#8b949e" font-family="sans-serif" font-size="11">03-12</text><text x="225.0" y="310" text-anchor="middle" fill="#8b949e" font-family="sans-serif" font-size="11">03-22</text><text x="380.0" y="310" text-anchor="middle" fill="#8b949e" font-family="sans-serif" font-size="11">04-01</text><text x="535.0" y="310" text-anchor="middle" fill="#8b949e" font-family="sans-serif" font-size="11">04-11</text><text x="690.0" y="310" text-anchor="middle" fill="#8b949e" font-family="sans-serif" font-size="11">04-21</text>
  <text x="694.0" y="53.3" fill="#58a6ff" font-family="sans-serif" font-size="12" font-weight="bold">9.8K</text>
</svg>