<svg xmlns="http://www.w3.org/2000/svg" width="720" height="320">
  <rect width="720" height="320" fill="#0d1117" rx="8"/>
  <text x="70" y="22" fill="#c9d1d9" font-family="sans-serif" font-size="14" font-weight="bold">Total Downloads Over Time</text>
  <line x1="70" y1="270.0" x2="690" y2="270.0" stroke="#21262d" stroke-width="1"/><text x="62" y="274.0" text-anchor="end" fill="#8b949e" font-family="sans-serif" font-size="11">0</text><line x1="70" y1="210.0" x2="690" y2="210.0" stroke="#21262d" stroke-width="1"/><text x="62" y="214.0" text-anchor="end" fill="#8b949e" font-family="sans-serif" font-size="11">3.4K</text><line x1="70" y1="150.0" x2="690" y2="150.0" stroke="#21262d" stroke-width="1"/><text x="62" y="154.0" text-anchor="end" fill="#8b949e" font-family="sans-serif" font-size="11">6.7K</text><line x1="70" y1="90.0" x2="690" y2="90.0" stroke="#21262d" stroke-width="1"/><text x="62" y="94.0" text-anchor="end" fill="#8b949e" font-family="sans-serif" font-size="11">10.1K</text><line x1="70" y1="30.0" x2="690" y2="30.0" stroke="#21262d" stroke-width="1"/><text x="62" y="34.0" text-anchor="end" fill="#8b949e" font-family="sans-serif" font-size="11">13.4K</text>
  <polygon points="70.0,199.4 75.3,199.4 80.6,198.5 85.9,187.9 91.2,181.3 96.5,179.4 101.8,177.9 107.1,172.4 112.4,172.0 117.7,170.4 123.0,170.0 128.3,169.9 133.6,161.8 138.9,151.2 144.2,142.2 149.5,138.8 154.8,135.4 160.1,132.7 165.4,131.9 170.7,131.7 176.0,130.1 181.3,128.5 186.6,124.5 191.9,120.7 197.2,117.8 202.5,114.9 207.8,113.9 213.1,106.6 218.4,102.1 223.7,100.6 229.0,100.3 234.3,99.1 239.6,99.0 244.9,99.0 250.2,98.5 255.5,98.3 260.8,98.2 266.1,97.7 271.4,95.2 276.7,95.1 282.0,94.6 287.3,93.6 292.6,93.4 297.9,93.2 303.2,92.9 308.5,92.7 313.8,92.5 319.1,92.4 324.4,92.3 329.7,90.7 335.0,90.4 340.3,90.3 345.6,90.2 350.9,90.1 356.2,90.0 361.5,89.0 366.8,88.9 372.1,88.7 377.4,88.7 382.6,87.4 387.9,87.1 393.2,86.8 398.5,84.6 403.8,84.4 409.1,84.0 414.4,81.9 419.7,81.7 425.0,81.7 430.3,81.6 435.6,81.4 440.9,81.4 446.2,81.1 451.5,81.1 456.8,81.1 462.1,80.8 467.4,80.6 472.7,79.4 478.0,77.0 483.3,77.0 488.6,76.9 493.9,76.8 499.2,75.7 504.5,75.7 509.8,75.6 515.1,74.8 520.4,74.8 525.7,71.6 531.0,70.1 536.3,70.0 541.6,70.0 546.9,69.9 552.2,69.5 557.5,69.3 562.8,69.3 568.1,69.3 573.4,69.3 578.7,68.8 584.0,68.1 589.3,68.0 594.6,67.9 599.9,67.8 605.2,67.7 610.5,67.6 615.8,67.6 621.1,65.5 626.4,65.4 631.7,65.4 637.0,65.0 642.3,64.6 647.6,64.5 652.9,63.9 658.2,63.8 663.5,62.6 668.8,62.4 674.1,62.2 679.4,61.7 684.7,61.5 690.0,61.3 690.0,270.0 70.0,270.0" fill="#58a6ff" opacity="0.15"/>
  <polyline points="70.0,199.4 75.3,199.4 80.6,198.5 85.9,187.9 91.2,181.3 96.5,179.4 101.8,177.9 107.1,172.4 112.4,172.0 117.7,170.4 123.0,170.0 128.3,169.9 133.6,161.8 138.9,151.2 144.2,142.2 149.5,138.8 154.8,135.4 160.1,132.7 165.4,131.9 170.7,131.7 176.0,130.1 181.3,128.5 186.6,124.5 191.9,120.7 197.2,117.8 202.5,114.9 207.8,113.9 213.1,106.6 218.4,102.1 223.7,100.6 229.0,100.3 234.3,99.1 239.6,99.0 244.9,99.0 250.2,98.5 255.5,98.3 260.8,98.2 266.1,97.7 271.4,95.2 276.7,95.1 282.0,94.6 287.3,93.6 292.6,93.4 297.9,93.2 303.2,92.9 308.5,92.7 313.8,92.5 319.1,92.4 324.4,92.3 329.7,90.7 335.0,90.4 340.3,90.3 345.6,90.2 350.9,90.1 356.2,90.0 361.5,89.0 366.8,88.9 372.1,88.7 377.4,88.7 382.6,87.4 387.9,87.1 393.2,86.8 398.5,84.6 403.8,84.4 409.1,84.0 414.4,81.9 419.7,81.7 425.0,81.7 430.3,81.6 435.6,81.4 440.9,81.4 446.2,81.1 451.5,81.1 456.8,81.1 462.1,80.8 467.4,80.6 472.7,79.4 478.0,77.0 483.3,77.0 488.6,76.9 493.9,76.8 499.2,75.7 504.5,75.7 509.8,75.6 515.1,74.8 520.4,74.8 525.7,71.6 531.0,70.1 536.3,70.0 541.6,70.0 546.9,69.9 552.2,69.5 557.5,69.3 562.8,69.3 568.1,69.3 573.4,69.3 578.7,68.8 584.0,68.1 589.3,68.0 594.6,67.9 599.9,67.8 605.2,67.7 610.5,67.6 615.8,67.6 621.1,65.5 626.4,65.4 631.7,65.4 637.0,65.0 642.3,64.6 647.6,64.5 652.9,63.9 658.2,63.8 663.5,62.6 668.8,62.4 674.1,62.2 679.4,61.7 684.7,61.5 690.0,61.3" fill="none" stroke="#58a6ff" stroke-width="2.5" stroke-linejoin="round" stroke-linecap="round"/>
  <text x="70.0" y="310" text-anchor="middle" fill="#8b949e" font-family="sans-serif" font-size="11">03-12</text><text x="223.7" y="310" text-anchor="middle" fill="#8b949e" font-family="sans-serif" font-size="11">04-10</text><text x="377.4" y="310" text-anchor="middle" fill="#8b949e" font-family="sans-serif" font-size="11">05-09</text><text x="531.0" y="310" text-anchor="middle" fill="#8b949e" font-family="sans-serif" font-size="11">06-07</text><text x="684.7" y="310" text-anchor="middle" fill="#8b949e" font-family="sans-serif" font-size="11">07-06</text>
  <text x="694.0" y="53.3" fill="#58a6ff" font-family="sans-serif" font-size="12" font-weight="bold">11.7K</text>
</svg>