<svg xmlns="http://www.w3.org/2000/svg" width="720" height="320">
  <rect width="720" height="320" fill="#0d1117" rx="8"/>
  <text x="70" y="22" fill="#c9d1d9" font-family="sans-serif" font-size="14" font-weight="bold">Total Downloads Over Time</text>
  <line x1="70" y1="270.0" x2="690" y2="270.0" stroke="#21262d" stroke-width="1"/><text x="62" y="274.0" text-anchor="end" fill="#8b949e" font-family="sans-serif" font-size="11">0</text><line x1="70" y1="210.0" x2="690" y2="210.0" stroke="#21262d" stroke-width="1"/><text x="62" y="214.0" text-anchor="end" fill="#8b949e" font-family="sans-serif" font-size="11">2.9K</text><line x1="70" y1="150.0" x2="690" y2="150.0" stroke="#21262d" stroke-width="1"/><text x="62" y="154.0" text-anchor="end" fill="#8b949e" font-family="sans-serif" font-size="11">5.8K</text><line x1="70" y1="90.0" x2="690" y2="90.0" stroke="#21262d" stroke-width="1"/><text x="62" y="94.0" text-anchor="end" fill="#8b949e" font-family="sans-serif" font-size="11">8.7K</text><line x1="70" y1="30.0" x2="690" y2="30.0" stroke="#21262d" stroke-width="1"/><text x="62" y="34.0" text-anchor="end" fill="#8b949e" font-family="sans-serif" font-size="11">11.5K</text>
  <polygon points="70.0,188.0 82.4,188.0 94.8,186.9 107.2,174.7 119.6,166.9 132.0,164.8 144.4,163.0 156.8,156.6 169.2,156.2 181.6,154.3 194.0,153.8 206.4,153.7 218.8,144.3 231.2,131.9 243.6,121.5 256.0,117.6 268.4,113.6 280.8,110.4 293.2,109.5 305.6,109.3 318.0,107.5 330.4,105.6 342.8,101.0 355.2,96.5 367.6,93.2 380.0,89.8 392.4,88.7 404.8,80.2 417.2,75.0 429.6,73.1 442.0,72.8 454.4,71.4 466.8,71.3 479.2,71.3 491.6,70.7 504.0,70.6 516.4,70.4 528.8,69.9 541.2,66.9 553.6,66.8 566.0,66.2 578.4,65.1 590.8,64.9 603.2,64.5 615.6,64.3 628.0,64.0 640.4,63.8 652.8,63.7 665.2,63.6 677.6,61.7 690.0,61.3 690.0,270.0 70.0,270.0" fill="#58a6ff" opacity="0.15"/>
  <polyline points="70.0,188.0 82.4,188.0 94.8,186.9 107.2,174.7 119.6,166.9 132.0,164.8 144.4,163.0 156.8,156.6 169.2,156.2 181.6,154.3 194.0,153.8 206.4,153.7 218.8,144.3 231.2,131.9 243.6,121.5 256.0,117.6 268.4,113.6 280.8,110.4 293.2,109.5 305.6,109.3 318.0,107.5 330.4,105.6 342.8,101.0 355.2,96.5 367.6,93.2 380.0,89.8 392.4,88.7 404.8,80.2 417.2,75.0 429.6,73.1 442.0,72.8 454.4,71.4 466.8,71.3 479.2,71.3 491.6,70.7 504.0,70.6 516.4,70.4 528.8,69.9 541.2,66.9 553.6,66.8 566.0,66.2 578.4,65.1 590.8,64.9 603.2,64.5 615.6,64.3 628.0,64.0 640.4,63.8 652.8,63.7 665.2,63.6 677.6,61.7 690.0,61.3" fill="none" stroke="#58a6ff" stroke-width="2.5" stroke-linejoin="round" stroke-linecap="round"/>
  <text x="70.0" y="310" text-anchor="middle" fill="#8b949e" font-family="sans-serif" font-size="11">03-12</text><text x="218.8" y="310" text-anchor="middle" fill="#8b949e" font-family="sans-serif" font-size="11">03-24</text><text x="367.6" y="310" text-anchor="middle" fill="#8b949e" font-family="sans-serif" font-size="11">04-05</text><text x="516.4" y="310" text-anchor="middle" fill="#8b949e" font-family="sans-serif" font-size="11">04-17</text><text x="665.2" y="310" text-anchor="middle" fill="#8b949e" font-family="sans-serif" font-size="11">04-29</text>
  <text x="694.0" y="53.3" fill="#58a6ff" font-family="sans-serif" font-size="12" font-weight="bold">10.0K</text>
</svg>