<svg xmlns="http://www.w3.org/2000/svg" width="720" height="320">
  <rect width="720" height="320" fill="#0d1117" rx="8"/>
  <text x="70" y="22" fill="#c9d1d9" font-family="sans-serif" font-size="14" font-weight="bold">Total Downloads Over Time</text>
  <line x1="70" y1="270.0" x2="690" y2="270.0" stroke="#21262d" stroke-width="1"/><text x="62" y="274.0" text-anchor="end" fill="#8b949e" font-family="sans-serif" font-size="11">0</text><line x1="70" y1="210.0" x2="690" y2="210.0" stroke="#21262d" stroke-width="1"/><text x="62" y="214.0" text-anchor="end" fill="#8b949e" font-family="sans-serif" font-size="11">2.9K</text><line x1="70" y1="150.0" x2="690" y2="150.0" stroke="#21262d" stroke-width="1"/><text x="62" y="154.0" text-anchor="end" fill="#8b949e" font-family="sans-serif" font-size="11">5.8K</text><line x1="70" y1="90.0" x2="690" y2="90.0" stroke="#21262d" stroke-width="1"/><text x="62" y="94.0" text-anchor="end" fill="#8b949e" font-family="sans-serif" font-size="11">8.7K</text><line x1="70" y1="30.0" x2="690" y2="30.0" stroke="#21262d" stroke-width="1"/><text x="62" y="34.0" text-anchor="end" fill="#8b949e" font-family="sans-serif" font-size="11">11.6K</text>
  <polygon points="70.0,188.7 80.7,188.7 91.4,187.7 102.1,175.6 112.8,167.9 123.4,165.7 134.1,164.0 144.8,157.6 155.5,157.3 166.2,155.4 176.9,154.9 187.6,154.7 198.3,145.5 209.0,133.2 219.7,122.9 230.3,119.0 241.0,115.0 251.7,111.9 262.4,111.0 273.1,110.8 283.8,109.0 294.5,107.2 305.2,102.5 315.9,98.1 326.6,94.8 337.2,91.5 347.9,90.4 358.6,82.0 369.3,76.8 380.0,75.0 390.7,74.7 401.4,73.3 412.1,73.2 422.8,73.1 433.4,72.6 444.1,72.4 454.8,72.3 465.5,71.7 476.2,68.8 486.9,68.7 497.6,68.1 508.3,67.0 519.0,66.8 529.7,66.5 540.3,66.2 551.0,65.9 561.7,65.7 572.4,65.6 583.1,65.5 593.8,63.6 604.5,63.2 615.2,63.2 625.9,63.0 636.6,62.9 647.2,62.8 657.9,61.7 668.6,61.6 679.3,61.3 690.0,61.3 690.0,270.0 70.0,270.0" fill="#58a6ff" opacity="0.15"/>
  <polyline points="70.0,188.7 80.7,188.7 91.4,187.7 102.1,175.6 112.8,167.9 123.4,165.7 134.1,164.0 144.8,157.6 155.5,157.3 166.2,155.4 176.9,154.9 187.6,154.7 198.3,145.5 209.0,133.2 219.7,122.9 230.3,119.0 241.0,115.0 251.7,111.9 262.4,111.0 273.1,110.8 283.8,109.0 294.5,107.2 305.2,102.5 315.9,98.1 326.6,94.8 337.2,91.5 347.9,90.4 358.6,82.0 369.3,76.8 380.0,75.0 390.7,74.7 401.4,73.3 412.1,73.2 422.8,73.1 433.4,72.6 444.1,72.4 454.8,72.3 465.5,71.7 476.2,68.8 486.9,68.7 497.6,68.1 508.3,67.0 519.0,66.8 529.7,66.5 540.3,66.2 551.0,65.9 561.7,65.7 572.4,65.6 583.1,65.5 593.8,63.6 604.5,63.2 615.2,63.2 625.9,63.0 636.6,62.9 647.2,62.8 657.9,61.7 668.6,61.6 679.3,61.3 690.0,61.3" fill="none" stroke="#58a6ff" stroke-width="2.5" stroke-linejoin="round" stroke-linecap="round"/>
  <text x="70.0" y="310" text-anchor="middle" fill="#8b949e" font-family="sans-serif" font-size="11">03-12</text><text x="219.7" y="310" text-anchor="middle" fill="#8b949e" font-family="sans-serif" font-size="11">03-26</text><text x="369.3" y="310" text-anchor="middle" fill="#8b949e" font-family="sans-serif" font-size="11">04-09</text><text x="519.0" y="310" text-anchor="middle" fill="#8b949e" font-family="sans-serif" font-size="11">04-23</text><text x="668.6" y="310" text-anchor="middle" fill="#8b949e" font-family="sans-serif" font-size="11">05-07</text>
  <text x="694.0" y="53.3" fill="#58a6ff" font-family="sans-serif" font-size="12" font-weight="bold">10.1K</text>
</svg>