<svg xmlns="http://www.w3.org/2000/svg" width="720" height="320">
  <rect width="720" height="320" fill="#0d1117" rx="8"/>
  <text x="70" y="22" fill="#c9d1d9" font-family="sans-serif" font-size="14" font-weight="bold">Total Downloads Over Time</text>
  <line x1="70" y1="270.0" x2="690" y2="270.0" stroke="#21262d" stroke-width="1"/><text x="62" y="274.0" text-anchor="end" fill="#8b949e" font-family="sans-serif" font-size="11">0</text><line x1="70" y1="210.0" x2="690" y2="210.0" stroke="#21262d" stroke-width="1"/><text x="62" y="214.0" text-anchor="end" fill="#8b949e" font-family="sans-serif" font-size="11">3.1K</text><line x1="70" y1="150.0" x2="690" y2="150.0" stroke="#21262d" stroke-width="1"/><text x="62" y="154.0" text-anchor="end" fill="#8b949e" font-family="sans-serif" font-size="11">6.1K</text><line x1="70" y1="90.0" x2="690" y2="90.0" stroke="#21262d" stroke-width="1"/><text x="62" y="94.0" text-anchor="end" fill="#8b949e" font-family="sans-serif" font-size="11">9.2K</text><line x1="70" y1="30.0" x2="690" y2="30.0" stroke="#21262d" stroke-width="1"/><text x="62" y="34.0" text-anchor="end" fill="#8b949e" font-family="sans-serif" font-size="11">12.2K</text>
  <polygon points="70.0,192.7 78.2,192.7 86.3,191.7 94.5,180.2 102.6,172.9 110.8,170.8 118.9,169.1 127.1,163.1 135.3,162.8 143.4,161.0 151.6,160.5 159.7,160.4 167.9,151.5 176.1,139.9 184.2,130.1 192.4,126.3 200.5,122.6 208.7,119.6 216.8,118.8 225.0,118.6 233.2,116.8 241.3,115.1 249.5,110.7 257.6,106.5 265.8,103.3 273.9,100.2 282.1,99.2 290.3,91.1 298.4,86.2 306.6,84.5 314.7,84.2 322.9,82.9 331.1,82.8 339.2,82.7 347.4,82.2 355.5,82.1 363.7,81.9 371.8,81.4 380.0,78.6 388.2,78.5 396.3,77.9 404.5,76.9 412.6,76.7 420.8,76.4 428.9,76.1 437.1,75.9 445.3,75.7 453.4,75.6 461.6,75.5 469.7,73.7 477.9,73.3 486.1,73.3 494.2,73.1 502.4,73.0 510.5,73.0 518.7,71.9 526.8,71.8 535.0,71.5 543.2,71.5 551.3,70.0 559.5,69.7 567.6,69.4 575.8,67.0 583.9,66.8 592.1,66.3 600.3,64.0 608.4,63.9 616.6,63.8 624.7,63.7 632.9,63.6 641.1,63.6 649.2,63.2 657.4,63.2 665.5,63.2 673.7,62.9 681.8,62.6 690.0,61.3 690.0,270.0 70.0,270.0" fill="#58a6ff" opacity="0.15"/>
  <polyline points="70.0,192.7 78.2,192.7 86.3,191.7 94.5,180.2 102.6,172.9 110.8,170.8 118.9,169.1 127.1,163.1 135.3,162.8 143.4,161.0 151.6,160.5 159.7,160.4 167.9,151.5 176.1,139.9 184.2,130.1 192.4,126.3 200.5,122.6 208.7,119.6 216.8,118.8 225.0,118.6 233.2,116.8 241.3,115.1 249.5,110.7 257.6,106.5 265.8,103.3 273.9,100.2 282.1,99.2 290.3,91.1 298.4,86.2 306.6,84.5 314.7,84.2 322.9,82.9 331.1,82.8 339.2,82.7 347.4,82.2 355.5,82.1 363.7,81.9 371.8,81.4 380.0,78.6 388.2,78.5 396.3,77.9 404.5,76.9 412.6,76.7 420.8,76.4 428.9,76.1 437.1,75.9 445.3,75.7 453.4,75.6 461.6,75.5 469.7,73.7 477.9,73.3 486.1,73.3 494.2,73.1 502.4,73.0 510.5,73.0 518.7,71.9 526.8,71.8 535.0,71.5 543.2,71.5 551.3,70.0 559.5,69.7 567.6,69.4 575.8,67.0 583.9,66.8 592.1,66.3 600.3,64.0 608.4,63.9 616.6,63.8 624.7,63.7 632.9,63.6 641.1,63.6 649.2,63.2 657.4,63.2 665.5,63.2 673.7,62.9 681.8,62.6 690.0,61.3" fill="none" stroke="#58a6ff" stroke-width="2.5" stroke-linejoin="round" stroke-linecap="round"/>
  <text x="70.0" y="310" text-anchor="middle" fill="#8b949e" font-family="sans-serif" font-size="11">03-12</text><text x="225.0" y="310" text-anchor="middle" fill="#8b949e" font-family="sans-serif" font-size="11">03-31</text><text x="380.0" y="310" text-anchor="middle" fill="#8b949e" font-family="sans-serif" font-size="11">04-19</text><text x="535.0" y="310" text-anchor="middle" fill="#8b949e" font-family="sans-serif" font-size="11">05-08</text><text x="690.0" y="310" text-anchor="middle" fill="#8b949e" font-family="sans-serif" font-size="11">05-27</text>
  <text x="694.0" y="53.3" fill="#58a6ff" font-family="sans-serif" font-size="12" font-weight="bold">10.6K</text>
</svg>