<svg xmlns="http://www.w3.org/2000/svg" width="720" height="320">
  <rect width="720" height="320" fill="#0d1117" rx="8"/>
  <text x="70" y="22" fill="#c9d1d9" font-family="sans-serif" font-size="14" font-weight="bold">Total Downloads Over Time</text>
  <line x1="70" y1="270.0" x2="690" y2="270.0" stroke="#21262d" stroke-width="1"/><text x="62" y="274.0" text-anchor="end" fill="#8b949e" font-family="sans-serif" font-size="11">0</text><line x1="70" y1="210.0" x2="690" y2="210.0" stroke="#21262d" stroke-width="1"/><text x="62" y="214.0" text-anchor="end" fill="#8b949e" font-family="sans-serif" font-size="11">3.0K</text><line x1="70" y1="150.0" x2="690" y2="150.0" stroke="#21262d" stroke-width="1"/><text x="62" y="154.0" text-anchor="end" fill="#8b949e" font-family="sans-serif" font-size="11">6.1K</text><line x1="70" y1="90.0" x2="690" y2="90.0" stroke="#21262d" stroke-width="1"/><text x="62" y="94.0" text-anchor="end" fill="#8b949e" font-family="sans-serif" font-size="11">9.1K</text><line x1="70" y1="30.0" x2="690" y2="30.0" stroke="#21262d" stroke-width="1"/><text x="62" y="34.0" text-anchor="end" fill="#8b949e" font-family="sans-serif" font-size="11">12.1K</text>
  <polygon points="70.0,191.8 79.1,191.8 88.2,190.8 97.4,179.1 106.5,171.7 115.6,169.7 124.7,168.0 133.8,161.9 142.9,161.5 152.1,159.7 161.2,159.3 170.3,159.1 179.4,150.2 188.5,138.4 197.6,128.5 206.8,124.7 215.9,120.9 225.0,117.9 234.1,117.0 243.2,116.8 252.4,115.1 261.5,113.3 270.6,108.9 279.7,104.6 288.8,101.4 297.9,98.2 307.1,97.2 316.2,89.1 325.3,84.1 334.4,82.3 343.5,82.1 352.6,80.7 361.8,80.6 370.9,80.6 380.0,80.0 389.1,79.9 398.2,79.7 407.4,79.2 416.5,76.4 425.6,76.3 434.7,75.7 443.8,74.6 452.9,74.5 462.1,74.2 471.2,73.9 480.3,73.6 489.4,73.4 498.5,73.4 507.6,73.2 516.8,71.4 525.9,71.1 535.0,71.0 544.1,70.9 553.2,70.8 562.4,70.7 571.5,69.6 580.6,69.5 589.7,69.2 598.8,69.2 607.9,67.7 617.1,67.4 626.2,67.1 635.3,64.6 644.4,64.5 653.5,64.0 662.6,61.6 671.8,61.5 680.9,61.4 690.0,61.3 690.0,270.0 70.0,270.0" fill="#58a6ff" opacity="0.15"/>
  <polyline points="70.0,191.8 79.1,191.8 88.2,190.8 97.4,179.1 106.5,171.7 115.6,169.7 124.7,168.0 133.8,161.9 142.9,161.5 152.1,159.7 161.2,159.3 170.3,159.1 179.4,150.2 188.5,138.4 197.6,128.5 206.8,124.7 215.9,120.9 225.0,117.9 234.1,117.0 243.2,116.8 252.4,115.1 261.5,113.3 270.6,108.9 279.7,104.6 288.8,101.4 297.9,98.2 307.1,97.2 316.2,89.1 325.3,84.1 334.4,82.3 343.5,82.1 352.6,80.7 361.8,80.6 370.9,80.6 380.0,80.0 389.1,79.9 398.2,79.7 407.4,79.2 416.5,76.4 425.6,76.3 434.7,75.7 443.8,74.6 452.9,74.5 462.1,74.2 471.2,73.9 480.3,73.6 489.4,73.4 498.5,73.4 507.6,73.2 516.8,71.4 525.9,71.1 535.0,71.0 544.1,70.9 553.2,70.8 562.4,70.7 571.5,69.6 580.6,69.5 589.7,69.2 598.8,69.2 607.9,67.7 617.1,67.4 626.2,67.1 635.3,64.6 644.4,64.5 653.5,64.0 662.6,61.6 671.8,61.5 680.9,61.4 690.0,61.3" fill="none" stroke="#58a6ff" stroke-width="2.5" stroke-linejoin="round" stroke-linecap="round"/>
  <text x="70.0" y="310" text-anchor="middle" fill="#8b949e" font-family="sans-serif" font-size="11">03-12</text><text x="225.0" y="310" text-anchor="middle" fill="#8b949e" font-family="sans-serif" font-size="11">03-29</text><text x="380.0" y="310" text-anchor="middle" fill="#8b949e" font-family="sans-serif" font-size="11">04-15</text><text x="535.0" y="310" text-anchor="middle" fill="#8b949e" font-family="sans-serif" font-size="11">05-02</text><text x="690.0" y="310" text-anchor="middle" fill="#8b949e" font-family="sans-serif" font-size="11">05-19</text>
  <text x="694.0" y="53.3" fill="#58a6ff" font-family="sans-serif" font-size="12" font-weight="bold">10.5K</text>
</svg>