<svg xmlns="http://www.w3.org/2000/svg" width="720" height="320">
  <rect width="720" height="320" fill="#0d1117" rx="8"/>
  <text x="70" y="22" fill="#c9d1d9" font-family="sans-serif" font-size="14" font-weight="bold">Total Downloads Over Time</text>
  <line x1="70" y1="270.0" x2="690" y2="270.0" stroke="#21262d" stroke-width="1"/><text x="62" y="274.0" text-anchor="end" fill="#8b949e" font-family="sans-serif" font-size="11">0</text><line x1="70" y1="210.0" x2="690" y2="210.0" stroke="#21262d" stroke-width="1"/><text x="62" y="214.0" text-anchor="end" fill="#8b949e" font-family="sans-serif" font-size="11">3.3K</text><line x1="70" y1="150.0" x2="690" y2="150.0" stroke="#21262d" stroke-width="1"/><text x="62" y="154.0" text-anchor="end" fill="#8b949e" font-family="sans-serif" font-size="11">6.6K</text><line x1="70" y1="90.0" x2="690" y2="90.0" stroke="#21262d" stroke-width="1"/><text x="62" y="94.0" text-anchor="end" fill="#8b949e" font-family="sans-serif" font-size="11">9.9K</text><line x1="70" y1="30.0" x2="690" y2="30.0" stroke="#21262d" stroke-width="1"/><text x="62" y="34.0" text-anchor="end" fill="#8b949e" font-family="sans-serif" font-size="11">13.1K</text>
  <polygon points="70.0,198.0 76.0,198.0 81.9,197.0 87.9,186.3 93.8,179.5 99.8,177.6 105.8,176.0 111.7,170.4 117.7,170.1 123.7,168.4 129.6,168.0 135.6,167.8 141.5,159.6 147.5,148.8 153.5,139.6 159.4,136.1 165.4,132.6 171.3,129.9 177.3,129.1 183.3,128.9 189.2,127.3 195.2,125.6 201.2,121.6 207.1,117.6 213.1,114.7 219.0,111.7 225.0,110.8 231.0,103.3 236.9,98.7 242.9,97.1 248.8,96.9 254.8,95.6 260.8,95.5 266.7,95.5 272.7,95.0 278.7,94.8 284.6,94.7 290.6,94.2 296.5,91.6 302.5,91.5 308.5,91.0 314.4,90.0 320.4,89.9 326.3,89.6 332.3,89.3 338.3,89.1 344.2,88.9 350.2,88.8 356.2,88.7 362.1,87.0 368.1,86.7 374.0,86.7 380.0,86.5 386.0,86.4 391.9,86.4 397.9,85.4 403.8,85.3 409.8,85.0 415.8,85.0 421.7,83.6 427.7,83.3 433.7,83.1 439.6,80.8 445.6,80.7 451.5,80.2 457.5,78.0 463.5,77.9 469.4,77.8 475.4,77.7 481.3,77.6 487.3,77.6 493.3,77.3 499.2,77.2 505.2,77.2 511.2,77.0 517.1,76.7 523.1,75.5 529.0,73.1 535.0,73.0 541.0,72.9 546.9,72.9 552.9,71.7 558.8,71.7 564.8,71.6 570.8,70.9 576.7,70.9 582.7,67.5 588.7,66.0 594.6,66.0 600.6,65.9 606.5,65.8 612.5,65.4 618.5,65.3 624.4,65.3 630.4,65.3 636.3,65.2 642.3,64.8 648.3,64.0 654.2,63.9 660.2,63.8 666.2,63.7 672.1,63.6 678.1,63.5 684.0,63.5 690.0,61.3 690.0,270.0 70.0,270.0" fill="#58a6ff" opacity="0.15"/>
  <polyline points="70.0,198.0 76.0,198.0 81.9,197.0 87.9,186.3 93.8,179.5 99.8,177.6 105.8,176.0 111.7,170.4 117.7,170.1 123.7,168.4 129.6,168.0 135.6,167.8 141.5,159.6 147.5,148.8 153.5,139.6 159.4,136.1 165.4,132.6 171.3,129.9 177.3,129.1 183.3,128.9 189.2,127.3 195.2,125.6 201.2,121.6 207.1,117.6 213.1,114.7 219.0,111.7 225.0,110.8 231.0,103.3 236.9,98.7 242.9,97.1 248.8,96.9 254.8,95.6 260.8,95.5 266.7,95.5 272.7,95.0 278.7,94.8 284.6,94.7 290.6,94.2 296.5,91.6 302.5,91.5 308.5,91.0 314.4,90.0 320.4,89.9 326.3,89.6 332.3,89.3 338.3,89.1 344.2,88.9 350.2,88.8 356.2,88.7 362.1,87.0 368.1,86.7 374.0,86.7 380.0,86.5 386.0,86.4 391.9,86.4 397.9,85.4 403.8,85.3 409.8,85.0 415.8,85.0 421.7,83.6 427.7,83.3 433.7,83.1 439.6,80.8 445.6,80.7 451.5,80.2 457.5,78.0 463.5,77.9 469.4,77.8 475.4,77.7 481.3,77.6 487.3,77.6 493.3,77.3 499.2,77.2 505.2,77.2 511.2,77.0 517.1,76.7 523.1,75.5 529.0,73.1 535.0,73.0 541.0,72.9 546.9,72.9 552.9,71.7 558.8,71.7 564.8,71.6 570.8,70.9 576.7,70.9 582.7,67.5 588.7,66.0 594.6,66.0 600.6,65.9 606.5,65.8 612.5,65.4 618.5,65.3 624.4,65.3 630.4,65.3 636.3,65.2 642.3,64.8 648.3,64.0 654.2,63.9 660.2,63.8 666.2,63.7 672.1,63.6 678.1,63.5 684.0,63.5 690.0,61.3" fill="none" stroke="#58a6ff" stroke-width="2.5" stroke-linejoin="round" stroke-linecap="round"/>
  <text x="70.0" y="310" text-anchor="middle" fill="#8b949e" font-family="sans-serif" font-size="11">03-12</text><text x="225.0" y="310" text-anchor="middle" fill="#8b949e" font-family="sans-serif" font-size="11">04-07</text><text x="380.0" y="310" text-anchor="middle" fill="#8b949e" font-family="sans-serif" font-size="11">05-03</text><text x="535.0" y="310" text-anchor="middle" fill="#8b949e" font-family="sans-serif" font-size="11">05-29</text><text x="690.0" y="310" text-anchor="middle" fill="#8b949e" font-family="sans-serif" font-size="11">06-24</text>
  <text x="694.0" y="53.3" fill="#58a6ff" font-family="sans-serif" font-size="12" font-weight="bold">11.4K</text>
</svg>