<svg xmlns="http://www.w3.org/2000/svg" width="720" height="320">
  <rect width="720" height="320" fill="#0d1117" rx="8"/>
  <text x="70" y="22" fill="#c9d1d9" font-family="sans-serif" font-size="14" font-weight="bold">Total Downloads Over Time</text>
  <line x1="70" y1="270.0" x2="690" y2="270.0" stroke="#21262d" stroke-width="1"/><text x="62" y="274.0" text-anchor="end" fill="#8b949e" font-family="sans-serif" font-size="11">0</text><line x1="70" y1="210.0" x2="690" y2="210.0" stroke="#21262d" stroke-width="1"/><text x="62" y="214.0" text-anchor="end" fill="#8b949e" font-family="sans-serif" font-size="11">3.4K</text><line x1="70" y1="150.0" x2="690" y2="150.0" stroke="#21262d" stroke-width="1"/><text x="62" y="154.0" text-anchor="end" fill="#8b949e" font-family="sans-serif" font-size="11">6.9K</text><line x1="70" y1="90.0" x2="690" y2="90.0" stroke="#21262d" stroke-width="1"/><text x="62" y="94.0" text-anchor="end" fill="#8b949e" font-family="sans-serif" font-size="11">10.3K</text><line x1="70" y1="30.0" x2="690" y2="30.0" stroke="#21262d" stroke-width="1"/><text x="62" y="34.0" text-anchor="end" fill="#8b949e" font-family="sans-serif" font-size="11">13.8K</text>
  <polygon points="70.0,201.4 74.6,201.4 79.3,200.5 83.9,190.2 88.5,183.8 93.1,182.0 97.8,180.4 102.4,175.1 107.0,174.8 111.6,173.2 116.3,172.8 120.9,172.7 125.5,164.8 130.1,154.5 134.8,145.8 139.4,142.5 144.0,139.1 148.7,136.5 153.3,135.7 157.9,135.6 162.5,134.0 167.2,132.5 171.8,128.6 176.4,124.8 181.0,122.0 185.7,119.2 190.3,118.3 194.9,111.2 199.6,106.8 204.2,105.3 208.8,105.1 213.4,103.9 218.1,103.8 222.7,103.8 227.3,103.3 231.9,103.1 236.6,103.0 241.2,102.6 245.8,100.1 250.4,100.0 255.1,99.5 259.7,98.5 264.3,98.4 269.0,98.1 273.6,97.9 278.2,97.7 282.8,97.5 287.5,97.4 292.1,97.3 296.7,95.7 301.3,95.4 306.0,95.3 310.6,95.2 315.2,95.1 319.9,95.1 324.5,94.1 329.1,94.0 333.7,93.8 338.4,93.8 343.0,92.5 347.6,92.2 352.2,91.9 356.9,89.8 361.5,89.6 366.1,89.2 370.7,87.1 375.4,87.0 380.0,86.9 384.6,86.8 389.3,86.7 393.9,86.7 398.5,86.4 403.1,86.4 407.8,86.4 412.4,86.1 417.0,85.9 421.6,84.7 426.3,82.4 430.9,82.4 435.5,82.3 440.1,82.3 444.8,81.1 449.4,81.1 454.0,81.0 458.7,80.3 463.3,80.3 467.9,77.1 472.5,75.7 477.2,75.6 481.8,75.6 486.4,75.5 491.0,75.1 495.7,75.0 500.3,74.9 504.9,74.9 509.6,74.9 514.2,74.5 518.8,73.8 523.4,73.7 528.1,73.5 532.7,73.5 537.3,73.4 541.9,73.3 546.6,73.2 551.2,71.2 555.8,71.2 560.4,71.1 565.1,70.7 569.7,70.4 574.3,70.2 579.0,69.7 583.6,69.6 588.2,68.4 592.8,68.2 597.5,68.0 602.1,67.5 606.7,67.4 611.3,67.2 616.0,66.5 620.6,66.1 625.2,65.8 629.9,65.7 634.5,65.7 639.1,63.4 643.7,63.3 648.4,63.2 653.0,62.9 657.6,62.7 662.2,62.7 666.9,62.4 671.5,62.3 676.1,62.3 680.7,61.5 685.4,61.5 690.0,61.3 690.0,270.0 70.0,270.0" fill="#58a6ff" opacity="0.15"/>
  <polyline points="70.0,201.4 74.6,201.4 79.3,200.5 83.9,190.2 88.5,183.8 93.1,182.0 97.8,180.4 102.4,175.1 107.0,174.8 111.6,173.2 116.3,172.8 120.9,172.7 125.5,164.8 130.1,154.5 134.8,145.8 139.4,142.5 144.0,139.1 148.7,136.5 153.3,135.7 157.9,135.6 162.5,134.0 167.2,132.5 171.8,128.6 176.4,124.8 181.0,122.0 185.7,119.2 190.3,118.3 194.9,111.2 199.6,106.8 204.2,105.3 208.8,105.1 213.4,103.9 218.1,103.8 222.7,103.8 227.3,103.3 231.9,103.1 236.6,103.0 241.2,102.6 245.8,100.1 250.4,100.0 255.1,99.5 259.7,98.5 264.3,98.4 269.0,98.1 273.6,97.9 278.2,97.7 282.8,97.5 287.5,97.4 292.1,97.3 296.7,95.7 301.3,95.4 306.0,95.3 310.6,95.2 315.2,95.1 319.9,95.1 324.5,94.1 329.1,94.0 333.7,93.8 338.4,93.8 343.0,92.5 347.6,92.2 352.2,91.9 356.9,89.8 361.5,89.6 366.1,89.2 370.7,87.1 375.4,87.0 380.0,86.9 384.6,86.8 389.3,86.7 393.9,86.7 398.5,86.4 403.1,86.4 407.8,86.4 412.4,86.1 417.0,85.9 421.6,84.7 426.3,82.4 430.9,82.4 435.5,82.3 440.1,82.3 444.8,81.1 449.4,81.1 454.0,81.0 458.7,80.3 463.3,80.3 467.9,77.1 472.5,75.7 477.2,75.6 481.8,75.6 486.4,75.5 491.0,75.1 495.7,75.0 500.3,74.9 504.9,74.9 509.6,74.9 514.2,74.5 518.8,73.8 523.4,73.7 528.1,73.5 532.7,73.5 537.3,73.4 541.9,73.3 546.6,73.2 551.2,71.2 555.8,71.2 560.4,71.1 565.1,70.7 569.7,70.4 574.3,70.2 579.0,69.7 583.6,69.6 588.2,68.4 592.8,68.2 597.5,68.0 602.1,67.5 606.7,67.4 611.3,67.2 616.0,66.5 620.6,66.1 625.2,65.8 629.9,65.7 634.5,65.7 639.1,63.4 643.7,63.3 648.4,63.2 653.0,62.9 657.6,62.7 662.2,62.7 666.9,62.4 671.5,62.3 676.1,62.3 680.7,61.5 685.4,61.5 690.0,61.3" fill="none" stroke="#58a6ff" stroke-width="2.5" stroke-linejoin="round" stroke-linecap="round"/>
  <text x="70.0" y="310" text-anchor="middle" fill="#8b949e" font-family="sans-serif" font-size="11">03-12</text><text x="222.7" y="310" text-anchor="middle" fill="#8b949e" font-family="sans-serif" font-size="11">04-14</text><text x="375.4" y="310" text-anchor="middle" fill="#8b949e" font-family="sans-serif" font-size="11">05-17</text><text x="528.1" y="310" text-anchor="middle" fill="#8b949e" font-family="sans-serif" font-size="11">06-19</text><text x="680.7" y="310" text-anchor="middle" fill="#8b949e" font-family="sans-serif" font-size="11">07-22</text>
  <text x="694.0" y="53.3" fill="#58a6ff" font-family="sans-serif" font-size="12" font-weight="bold">12.0K</text>
</svg>