<svg xmlns="http://www.w3.org/2000/svg" width="720" height="320">
  <rect width="720" height="320" fill="#0d1117" rx="8"/>
  <text x="70" y="22" fill="#c9d1d9" font-family="sans-serif" font-size="14" font-weight="bold">Total Downloads Over Time</text>
  <line x1="70" y1="270.0" x2="690" y2="270.0" stroke="#21262d" stroke-width="1"/><text x="62" y="274.0" text-anchor="end" fill="#8b949e" font-family="sans-serif" font-size="11">0</text><line x1="70" y1="210.0" x2="690" y2="210.0" stroke="#21262d" stroke-width="1"/><text x="62" y="214.0" text-anchor="end" fill="#8b949e" font-family="sans-serif" font-size="11">3.3K</text><line x1="70" y1="150.0" x2="690" y2="150.0" stroke="#21262d" stroke-width="1"/><text x="62" y="154.0" text-anchor="end" fill="#8b949e" font-family="sans-serif" font-size="11">6.6K</text><line x1="70" y1="90.0" x2="690" y2="90.0" stroke="#21262d" stroke-width="1"/><text x="62" y="94.0" text-anchor="end" fill="#8b949e" font-family="sans-serif" font-size="11">9.9K</text><line x1="70" y1="30.0" x2="690" y2="30.0" stroke="#21262d" stroke-width="1"/><text x="62" y="34.0" text-anchor="end" fill="#8b949e" font-family="sans-serif" font-size="11">13.2K</text>
  <polygon points="70.0,198.5 75.6,198.5 81.3,197.6 86.9,186.9 92.5,180.2 98.2,178.3 103.8,176.7 109.5,171.1 115.1,170.8 120.7,169.2 126.4,168.7 132.0,168.6 137.6,160.4 143.3,149.7 148.9,140.6 154.5,137.1 160.2,133.7 165.8,130.9 171.5,130.1 177.1,129.9 182.7,128.3 188.4,126.7 194.0,122.7 199.6,118.8 205.3,115.9 210.9,112.9 216.5,112.0 222.2,104.6 227.8,100.0 233.5,98.4 239.1,98.2 244.7,96.9 250.4,96.8 256.0,96.8 261.6,96.3 267.3,96.2 272.9,96.0 278.5,95.6 284.2,93.0 289.8,92.9 295.5,92.3 301.1,91.4 306.7,91.2 312.4,90.9 318.0,90.7 323.6,90.5 329.3,90.3 334.9,90.2 340.5,90.1 346.2,88.4 351.8,88.1 357.5,88.0 363.1,87.9 368.7,87.8 374.4,87.8 380.0,86.8 385.6,86.7 391.3,86.4 396.9,86.4 402.5,85.1 408.2,84.7 413.8,84.5 419.5,82.2 425.1,82.1 430.7,81.6 436.4,79.5 442.0,79.3 447.6,79.3 453.3,79.2 458.9,79.1 464.5,79.1 470.2,78.7 475.8,78.7 481.5,78.7 487.1,78.5 492.7,78.2 498.4,77.0 504.0,74.5 509.6,74.5 515.3,74.4 520.9,74.4 526.5,73.2 532.2,73.2 537.8,73.1 543.5,72.4 549.1,72.4 554.7,69.1 560.4,67.5 566.0,67.5 571.6,67.4 577.3,67.3 582.9,67.0 588.5,66.8 594.2,66.8 599.8,66.8 605.5,66.7 611.1,66.3 616.7,65.6 622.4,65.5 628.0,65.3 633.6,65.2 639.3,65.1 644.9,65.0 650.5,65.0 656.2,62.9 661.8,62.8 667.5,62.8 673.1,62.4 678.7,62.0 684.4,61.9 690.0,61.3 690.0,270.0 70.0,270.0" fill="#58a6ff" opacity="0.15"/>
  <polyline points="70.0,198.5 75.6,198.5 81.3,197.6 86.9,186.9 92.5,180.2 98.2,178.3 103.8,176.7 109.5,171.1 115.1,170.8 120.7,169.2 126.4,168.7 132.0,168.6 137.6,160.4 143.3,149.7 148.9,140.6 154.5,137.1 160.2,133.7 165.8,130.9 171.5,130.1 177.1,129.9 182.7,128.3 188.4,126.7 194.0,122.7 199.6,118.8 205.3,115.9 210.9,112.9 216.5,112.0 222.2,104.6 227.8,100.0 233.5,98.4 239.1,98.2 244.7,96.9 250.4,96.8 256.0,96.8 261.6,96.3 267.3,96.2 272.9,96.0 278.5,95.6 284.2,93.0 289.8,92.9 295.5,92.3 301.1,91.4 306.7,91.2 312.4,90.9 318.0,90.7 323.6,90.5 329.3,90.3 334.9,90.2 340.5,90.1 346.2,88.4 351.8,88.1 357.5,88.0 363.1,87.9 368.7,87.8 374.4,87.8 380.0,86.8 385.6,86.7 391.3,86.4 396.9,86.4 402.5,85.1 408.2,84.7 413.8,84.5 419.5,82.2 425.1,82.1 430.7,81.6 436.4,79.5 442.0,79.3 447.6,79.3 453.3,79.2 458.9,79.1 464.5,79.1 470.2,78.7 475.8,78.7 481.5,78.7 487.1,78.5 492.7,78.2 498.4,77.0 504.0,74.5 509.6,74.5 515.3,74.4 520.9,74.4 526.5,73.2 532.2,73.2 537.8,73.1 543.5,72.4 549.1,72.4 554.7,69.1 560.4,67.5 566.0,67.5 571.6,67.4 577.3,67.3 582.9,67.0 588.5,66.8 594.2,66.8 599.8,66.8 605.5,66.7 611.1,66.3 616.7,65.6 622.4,65.5 628.0,65.3 633.6,65.2 639.3,65.1 644.9,65.0 650.5,65.0 656.2,62.9 661.8,62.8 667.5,62.8 673.1,62.4 678.7,62.0 684.4,61.9 690.0,61.3" fill="none" stroke="#58a6ff" stroke-width="2.5" stroke-linejoin="round" stroke-linecap="round"/>
  <text x="70.0" y="310" text-anchor="middle" fill="#8b949e" font-family="sans-serif" font-size="11">03-12</text><text x="222.2" y="310" text-anchor="middle" fill="#8b949e" font-family="sans-serif" font-size="11">04-08</text><text x="374.4" y="310" text-anchor="middle" fill="#8b949e" font-family="sans-serif" font-size="11">05-05</text><text x="526.5" y="310" text-anchor="middle" fill="#8b949e" font-family="sans-serif" font-size="11">06-01</text><text x="678.7" y="310" text-anchor="middle" fill="#8b949e" font-family="sans-serif" font-size="11">06-28</text>
  <text x="694.0" y="53.3" fill="#58a6ff" font-family="sans-serif" font-size="12" font-weight="bold">11.5K</text>
</svg>