<svg xmlns="http://www.w3.org/2000/svg" width="720" height="320">
  <rect width="720" height="320" fill="#0d1117" rx="8"/>
  <text x="70" y="22" fill="#c9d1d9" font-family="sans-serif" font-size="14" font-weight="bold">Total Downloads Over Time</text>
  <line x1="70" y1="270.0" x2="690" y2="270.0" stroke="#21262d" stroke-width="1"/><text x="62" y="274.0" text-anchor="end" fill="#8b949e" font-family="sans-serif" font-size="11">0</text><line x1="70" y1="210.0" x2="690" y2="210.0" stroke="#21262d" stroke-width="1"/><text x="62" y="214.0" text-anchor="end" fill="#8b949e" font-family="sans-serif" font-size="11">3.0K</text><line x1="70" y1="150.0" x2="690" y2="150.0" stroke="#21262d" stroke-width="1"/><text x="62" y="154.0" text-anchor="end" fill="#8b949e" font-family="sans-serif" font-size="11">6.1K</text><line x1="70" y1="90.0" x2="690" y2="90.0" stroke="#21262d" stroke-width="1"/><text x="62" y="94.0" text-anchor="end" fill="#8b949e" font-family="sans-serif" font-size="11">9.1K</text><line x1="70" y1="30.0" x2="690" y2="30.0" stroke="#21262d" stroke-width="1"/><text x="62" y="34.0" text-anchor="end" fill="#8b949e" font-family="sans-serif" font-size="11">12.1K</text>
  <polygon points="70.0,191.9 79.0,191.8 88.0,190.8 97.0,179.2 105.9,171.8 114.9,169.8 123.9,168.0 132.9,161.9 141.9,161.6 150.9,159.8 159.9,159.3 168.8,159.2 177.8,150.3 186.8,138.5 195.8,128.6 204.8,124.8 213.8,121.0 222.8,118.0 231.7,117.1 240.7,116.9 249.7,115.2 258.7,113.4 267.7,109.0 276.7,104.7 285.7,101.5 294.6,98.3 303.6,97.3 312.6,89.2 321.6,84.2 330.6,82.5 339.6,82.2 348.6,80.8 357.5,80.7 366.5,80.7 375.5,80.1 384.5,80.0 393.5,79.9 402.5,79.4 411.4,76.5 420.4,76.4 429.4,75.8 438.4,74.8 447.4,74.6 456.4,74.3 465.4,74.0 474.3,73.8 483.3,73.6 492.3,73.5 501.3,73.4 510.3,71.5 519.3,71.2 528.3,71.1 537.2,71.0 546.2,70.9 555.2,70.8 564.2,69.7 573.2,69.6 582.2,69.4 591.2,69.3 600.1,67.9 609.1,67.5 618.1,67.2 627.1,64.8 636.1,64.6 645.1,64.1 654.1,61.8 663.0,61.6 672.0,61.6 681.0,61.4 690.0,61.3 690.0,270.0 70.0,270.0" fill="#58a6ff" opacity="0.15"/>
  <polyline points="70.0,191.9 79.0,191.8 88.0,190.8 97.0,179.2 105.9,171.8 114.9,169.8 123.9,168.0 132.9,161.9 141.9,161.6 150.9,159.8 159.9,159.3 168.8,159.2 177.8,150.3 186.8,138.5 195.8,128.6 204.8,124.8 213.8,121.0 222.8,118.0 231.7,117.1 240.7,116.9 249.7,115.2 258.7,113.4 267.7,109.0 276.7,104.7 285.7,101.5 294.6,98.3 303.6,97.3 312.6,89.2 321.6,84.2 330.6,82.5 339.6,82.2 348.6,80.8 357.5,80.7 366.5,80.7 375.5,80.1 384.5,80.0 393.5,79.9 402.5,79.4 411.4,76.5 420.4,76.4 429.4,75.8 438.4,74.8 447.4,74.6 456.4,74.3 465.4,74.0 474.3,73.8 483.3,73.6 492.3,73.5 501.3,73.4 510.3,71.5 519.3,71.2 528.3,71.1 537.2,71.0 546.2,70.9 555.2,70.8 564.2,69.7 573.2,69.6 582.2,69.4 591.2,69.3 600.1,67.9 609.1,67.5 618.1,67.2 627.1,64.8 636.1,64.6 645.1,64.1 654.1,61.8 663.0,61.6 672.0,61.6 681.0,61.4 690.0,61.3" fill="none" stroke="#58a6ff" stroke-width="2.5" stroke-linejoin="round" stroke-linecap="round"/>
  <text x="70.0" y="310" text-anchor="middle" fill="#8b949e" font-family="sans-serif" font-size="11">03-12</text><text x="222.8" y="310" text-anchor="middle" fill="#8b949e" font-family="sans-serif" font-size="11">03-29</text><text x="375.5" y="310" text-anchor="middle" fill="#8b949e" font-family="sans-serif" font-size="11">04-15</text><text x="528.3" y="310" text-anchor="middle" fill="#8b949e" font-family="sans-serif" font-size="11">05-02</text><text x="681.0" y="310" text-anchor="middle" fill="#8b949e" font-family="sans-serif" font-size="11">05-19</text>
  <text x="694.0" y="53.3" fill="#58a6ff" font-family="sans-serif" font-size="12" font-weight="bold">10.5K</text>
</svg>