<svg xmlns="http://www.w3.org/2000/svg" width="720" height="320">
  <rect width="720" height="320" fill="#0d1117" rx="8"/>
  <text x="70" y="22" fill="#c9d1d9" font-family="sans-serif" font-size="14" font-weight="bold">Total Downloads Over Time</text>
  <line x1="70" y1="270.0" x2="690" y2="270.0" stroke="#21262d" stroke-width="1"/><text x="62" y="274.0" text-anchor="end" fill="#8b949e" font-family="sans-serif" font-size="11">0</text><line x1="70" y1="210.0" x2="690" y2="210.0" stroke="#21262d" stroke-width="1"/><text x="62" y="214.0" text-anchor="end" fill="#8b949e" font-family="sans-serif" font-size="11">3.3K</text><line x1="70" y1="150.0" x2="690" y2="150.0" stroke="#21262d" stroke-width="1"/><text x="62" y="154.0" text-anchor="end" fill="#8b949e" font-family="sans-serif" font-size="11">6.6K</text><line x1="70" y1="90.0" x2="690" y2="90.0" stroke="#21262d" stroke-width="1"/><text x="62" y="94.0" text-anchor="end" fill="#8b949e" font-family="sans-serif" font-size="11">9.9K</text><line x1="70" y1="30.0" x2="690" y2="30.0" stroke="#21262d" stroke-width="1"/><text x="62" y="34.0" text-anchor="end" fill="#8b949e" font-family="sans-serif" font-size="11">13.1K</text>
  <polygon points="70.0,198.0 75.9,198.0 81.8,197.0 87.7,186.3 93.6,179.5 99.5,177.6 105.4,176.0 111.3,170.4 117.2,170.1 123.1,168.4 129.0,168.0 135.0,167.8 140.9,159.6 146.8,148.8 152.7,139.6 158.6,136.1 164.5,132.7 170.4,129.9 176.3,129.1 182.2,128.9 188.1,127.3 194.0,125.7 199.9,121.6 205.8,117.7 211.7,114.7 217.6,111.8 223.5,110.8 229.4,103.3 235.3,98.7 241.2,97.1 247.1,96.9 253.0,95.6 259.0,95.5 264.9,95.5 270.8,95.0 276.7,94.9 282.6,94.7 288.5,94.3 294.4,91.7 300.3,91.6 306.2,91.0 312.1,90.1 318.0,89.9 323.9,89.6 329.8,89.4 335.7,89.1 341.6,88.9 347.5,88.9 353.4,88.8 359.3,87.1 365.2,86.7 371.1,86.7 377.0,86.6 383.0,86.5 388.9,86.4 394.8,85.4 400.7,85.3 406.6,85.1 412.5,85.0 418.4,83.7 424.3,83.4 430.2,83.1 436.1,80.8 442.0,80.7 447.9,80.2 453.8,78.1 459.7,77.9 465.6,77.9 471.5,77.8 477.4,77.6 483.3,77.6 489.2,77.3 495.1,77.3 501.0,77.3 507.0,77.0 512.9,76.8 518.8,75.5 524.7,73.1 530.6,73.1 536.5,73.0 542.4,73.0 548.3,71.8 554.2,71.8 560.1,71.7 566.0,70.9 571.9,70.9 577.8,67.6 583.7,66.0 589.6,66.0 595.5,65.9 601.4,65.8 607.3,65.5 613.2,65.3 619.1,65.3 625.0,65.3 631.0,65.2 636.9,64.8 642.8,64.0 648.7,63.9 654.6,63.8 660.5,63.7 666.4,63.6 672.3,63.5 678.2,63.5 684.1,61.3 690.0,61.3 690.0,270.0 70.0,270.0" fill="#58a6ff" opacity="0.15"/>
  <polyline points="70.0,198.0 75.9,198.0 81.8,197.0 87.7,186.3 93.6,179.5 99.5,177.6 105.4,176.0 111.3,170.4 117.2,170.1 123.1,168.4 129.0,168.0 135.0,167.8 140.9,159.6 146.8,148.8 152.7,139.6 158.6,136.1 164.5,132.7 170.4,129.9 176.3,129.1 182.2,128.9 188.1,127.3 194.0,125.7 199.9,121.6 205.8,117.7 211.7,114.7 217.6,111.8 223.5,110.8 229.4,103.3 235.3,98.7 241.2,97.1 247.1,96.9 253.0,95.6 259.0,95.5 264.9,95.5 270.8,95.0 276.7,94.9 282.6,94.7 288.5,94.3 294.4,91.7 300.3,91.6 306.2,91.0 312.1,90.1 318.0,89.9 323.9,89.6 329.8,89.4 335.7,89.1 341.6,88.9 347.5,88.9 353.4,88.8 359.3,87.1 365.2,86.7 371.1,86.7 377.0,86.6 383.0,86.5 388.9,86.4 394.8,85.4 400.7,85.3 406.6,85.1 412.5,85.0 418.4,83.7 424.3,83.4 430.2,83.1 436.1,80.8 442.0,80.7 447.9,80.2 453.8,78.1 459.7,77.9 465.6,77.9 471.5,77.8 477.4,77.6 483.3,77.6 489.2,77.3 495.1,77.3 501.0,77.3 507.0,77.0 512.9,76.8 518.8,75.5 524.7,73.1 530.6,73.1 536.5,73.0 542.4,73.0 548.3,71.8 554.2,71.8 560.1,71.7 566.0,70.9 571.9,70.9 577.8,67.6 583.7,66.0 589.6,66.0 595.5,65.9 601.4,65.8 607.3,65.5 613.2,65.3 619.1,65.3 625.0,65.3 631.0,65.2 636.9,64.8 642.8,64.0 648.7,63.9 654.6,63.8 660.5,63.7 666.4,63.6 672.3,63.5 678.2,63.5 684.1,61.3 690.0,61.3" fill="none" stroke="#58a6ff" stroke-width="2.5" stroke-linejoin="round" stroke-linecap="round"/>
  <text x="70.0" y="310" text-anchor="middle" fill="#8b949e" font-family="sans-serif" font-size="11">03-12</text><text x="223.5" y="310" text-anchor="middle" fill="#8b949e" font-family="sans-serif" font-size="11">04-07</text><text x="377.0" y="310" text-anchor="middle" fill="#8b949e" font-family="sans-serif" font-size="11">05-03</text><text x="530.6" y="310" text-anchor="middle" fill="#8b949e" font-family="sans-serif" font-size="11">05-29</text><text x="684.1" y="310" text-anchor="middle" fill="#8b949e" font-family="sans-serif" font-size="11">06-24</text>
  <text x="694.0" y="53.3" fill="#58a6ff" font-family="sans-serif" font-size="12" font-weight="bold">11.4K</text>
</svg>