<svg xmlns="http://www.w3.org/2000/svg" width="720" height="320">
  <rect width="720" height="320" fill="#0d1117" rx="8"/>
  <text x="70" y="22" fill="#c9d1d9" font-family="sans-serif" font-size="14" font-weight="bold">Total Downloads Over Time</text>
  <line x1="70" y1="270.0" x2="690" y2="270.0" stroke="#21262d" stroke-width="1"/><text x="62" y="274.0" text-anchor="end" fill="#8b949e" font-family="sans-serif" font-size="11">0</text><line x1="70" y1="210.0" x2="690" y2="210.0" stroke="#21262d" stroke-width="1"/><text x="62" y="214.0" text-anchor="end" fill="#8b949e" font-family="sans-serif" font-size="11">3.2K</text><line x1="70" y1="150.0" x2="690" y2="150.0" stroke="#21262d" stroke-width="1"/><text x="62" y="154.0" text-anchor="end" fill="#8b949e" font-family="sans-serif" font-size="11">6.4K</text><line x1="70" y1="90.0" x2="690" y2="90.0" stroke="#21262d" stroke-width="1"/><text x="62" y="94.0" text-anchor="end" fill="#8b949e" font-family="sans-serif" font-size="11">9.7K</text><line x1="70" y1="30.0" x2="690" y2="30.0" stroke="#21262d" stroke-width="1"/><text x="62" y="34.0" text-anchor="end" fill="#8b949e" font-family="sans-serif" font-size="11">12.9K</text>
  <polygon points="70.0,196.6 76.7,196.6 83.3,195.6 90.0,184.7 96.7,177.7 103.3,175.8 110.0,174.2 116.7,168.5 123.3,168.1 130.0,166.5 136.7,166.0 143.3,165.9 150.0,157.5 156.7,146.4 163.3,137.1 170.0,133.5 176.7,130.0 183.3,127.2 190.0,126.3 196.7,126.2 203.3,124.5 210.0,122.9 216.7,118.7 223.3,114.7 230.0,111.7 236.7,108.7 243.3,107.7 250.0,100.1 256.7,95.4 263.3,93.8 270.0,93.5 276.7,92.2 283.3,92.1 290.0,92.1 296.7,91.6 303.3,91.5 310.0,91.3 316.7,90.9 323.3,88.2 330.0,88.1 336.7,87.5 343.3,86.6 350.0,86.4 356.7,86.1 363.3,85.8 370.0,85.6 376.7,85.4 383.3,85.3 390.0,85.2 396.7,83.5 403.3,83.2 410.0,83.1 416.7,83.0 423.3,82.9 430.0,82.8 436.7,81.8 443.3,81.7 450.0,81.5 456.7,81.4 463.3,80.1 470.0,79.7 476.7,79.5 483.3,77.2 490.0,77.0 496.7,76.5 503.3,74.3 510.0,74.2 516.7,74.1 523.3,74.0 530.0,73.9 536.7,73.9 543.3,73.5 550.0,73.5 556.7,73.5 563.3,73.3 570.0,73.0 576.7,71.8 583.3,69.3 590.0,69.2 596.7,69.1 603.3,69.1 610.0,67.9 616.7,67.9 623.3,67.8 630.0,67.0 636.7,67.0 643.3,63.6 650.0,62.1 656.7,62.0 663.3,62.0 670.0,61.9 676.7,61.5 683.3,61.3 690.0,61.3 690.0,270.0 70.0,270.0" fill="#58a6ff" opacity="0.15"/>
  <polyline points="70.0,196.6 76.7,196.6 83.3,195.6 90.0,184.7 96.7,177.7 103.3,175.8 110.0,174.2 116.7,168.5 123.3,168.1 130.0,166.5 136.7,166.0 143.3,165.9 150.0,157.5 156.7,146.4 163.3,137.1 170.0,133.5 176.7,130.0 183.3,127.2 190.0,126.3 196.7,126.2 203.3,124.5 210.0,122.9 216.7,118.7 223.3,114.7 230.0,111.7 236.7,108.7 243.3,107.7 250.0,100.1 256.7,95.4 263.3,93.8 270.0,93.5 276.7,92.2 283.3,92.1 290.0,92.1 296.7,91.6 303.3,91.5 310.0,91.3 316.7,90.9 323.3,88.2 330.0,88.1 336.7,87.5 343.3,86.6 350.0,86.4 356.7,86.1 363.3,85.8 370.0,85.6 376.7,85.4 383.3,85.3 390.0,85.2 396.7,83.5 403.3,83.2 410.0,83.1 416.7,83.0 423.3,82.9 430.0,82.8 436.7,81.8 443.3,81.7 450.0,81.5 456.7,81.4 463.3,80.1 470.0,79.7 476.7,79.5 483.3,77.2 490.0,77.0 496.7,76.5 503.3,74.3 510.0,74.2 516.7,74.1 523.3,74.0 530.0,73.9 536.7,73.9 543.3,73.5 550.0,73.5 556.7,73.5 563.3,73.3 570.0,73.0 576.7,71.8 583.3,69.3 590.0,69.2 596.7,69.1 603.3,69.1 610.0,67.9 616.7,67.9 623.3,67.8 630.0,67.0 636.7,67.0 643.3,63.6 650.0,62.1 656.7,62.0 663.3,62.0 670.0,61.9 676.7,61.5 683.3,61.3 690.0,61.3" fill="none" stroke="#58a6ff" stroke-width="2.5" stroke-linejoin="round" stroke-linecap="round"/>
  <text x="70.0" y="310" text-anchor="middle" fill="#8b949e" font-family="sans-serif" font-size="11">03-12</text><text x="223.3" y="310" text-anchor="middle" fill="#8b949e" font-family="sans-serif" font-size="11">04-04</text><text x="376.7" y="310" text-anchor="middle" fill="#8b949e" font-family="sans-serif" font-size="11">04-27</text><text x="530.0" y="310" text-anchor="middle" fill="#8b949e" font-family="sans-serif" font-size="11">05-20</text><text x="683.3" y="310" text-anchor="middle" fill="#8b949e" font-family="sans-serif" font-size="11">06-12</text>
  <text x="694.0" y="53.3" fill="#58a6ff" font-family="sans-serif" font-size="12" font-weight="bold">11.2K</text>
</svg>