<svg xmlns="http://www.w3.org/2000/svg" width="720" height="320">
  <rect width="720" height="320" fill="#0d1117" rx="8"/>
  <text x="70" y="22" fill="#c9d1d9" font-family="sans-serif" font-size="14" font-weight="bold">Total Downloads Over Time</text>
  <line x1="70" y1="270.0" x2="690" y2="270.0" stroke="#21262d" stroke-width="1"/><text x="62" y="274.0" text-anchor="end" fill="#8b949e" font-family="sans-serif" font-size="11">0</text><line x1="70" y1="210.0" x2="690" y2="210.0" stroke="#21262d" stroke-width="1"/><text x="62" y="214.0" text-anchor="end" fill="#8b949e" font-family="sans-serif" font-size="11">3.3K</text><line x1="70" y1="150.0" x2="690" y2="150.0" stroke="#21262d" stroke-width="1"/><text x="62" y="154.0" text-anchor="end" fill="#8b949e" font-family="sans-serif" font-size="11">6.6K</text><line x1="70" y1="90.0" x2="690" y2="90.0" stroke="#21262d" stroke-width="1"/><text x="62" y="94.0" text-anchor="end" fill="#8b949e" font-family="sans-serif" font-size="11">9.9K</text><line x1="70" y1="30.0" x2="690" y2="30.0" stroke="#21262d" stroke-width="1"/><text x="62" y="34.0" text-anchor="end" fill="#8b949e" font-family="sans-serif" font-size="11">13.1K</text>
  <polygon points="70.0,198.0 75.8,198.0 81.7,197.0 87.5,186.3 93.4,179.5 99.2,177.6 105.1,176.0 110.9,170.4 116.8,170.1 122.6,168.4 128.5,168.0 134.3,167.9 140.2,159.6 146.0,148.8 151.9,139.6 157.7,136.2 163.6,132.7 169.4,129.9 175.3,129.1 181.1,128.9 187.0,127.3 192.8,125.7 198.7,121.6 204.5,117.7 210.4,114.7 216.2,111.8 222.1,110.8 227.9,103.4 233.8,98.8 239.6,97.2 245.5,96.9 251.3,95.7 257.2,95.6 263.0,95.5 268.9,95.0 274.7,94.9 280.6,94.8 286.4,94.3 292.3,91.7 298.1,91.6 304.0,91.1 309.8,90.1 315.7,89.9 321.5,89.6 327.4,89.4 333.2,89.2 339.1,89.0 344.9,88.9 350.8,88.8 356.6,87.1 362.5,86.8 368.3,86.7 374.2,86.6 380.0,86.5 385.8,86.4 391.7,85.4 397.5,85.3 403.4,85.1 409.2,85.1 415.1,83.7 420.9,83.4 426.8,83.1 432.6,80.9 438.5,80.7 444.3,80.3 450.2,78.1 456.0,77.9 461.9,77.9 467.7,77.8 473.6,77.7 479.4,77.7 485.3,77.3 491.1,77.3 497.0,77.3 502.8,77.1 508.7,76.8 514.5,75.6 520.4,73.1 526.2,73.1 532.1,73.0 537.9,73.0 543.8,71.8 549.6,71.8 555.5,71.7 561.3,70.9 567.2,70.9 573.0,67.6 578.9,66.1 584.7,66.0 590.6,66.0 596.4,65.9 602.3,65.5 608.1,65.3 614.0,65.3 619.8,65.3 625.7,65.3 631.5,64.8 637.4,64.1 643.2,64.0 649.1,63.8 654.9,63.8 660.8,63.7 666.6,63.6 672.5,63.5 678.3,61.4 684.2,61.3 690.0,61.3 690.0,270.0 70.0,270.0" fill="#58a6ff" opacity="0.15"/>
  <polyline points="70.0,198.0 75.8,198.0 81.7,197.0 87.5,186.3 93.4,179.5 99.2,177.6 105.1,176.0 110.9,170.4 116.8,170.1 122.6,168.4 128.5,168.0 134.3,167.9 140.2,159.6 146.0,148.8 151.9,139.6 157.7,136.2 163.6,132.7 169.4,129.9 175.3,129.1 181.1,128.9 187.0,127.3 192.8,125.7 198.7,121.6 204.5,117.7 210.4,114.7 216.2,111.8 222.1,110.8 227.9,103.4 233.8,98.8 239.6,97.2 245.5,96.9 251.3,95.7 257.2,95.6 263.0,95.5 268.9,95.0 274.7,94.9 280.6,94.8 286.4,94.3 292.3,91.7 298.1,91.6 304.0,91.1 309.8,90.1 315.7,89.9 321.5,89.6 327.4,89.4 333.2,89.2 339.1,89.0 344.9,88.9 350.8,88.8 356.6,87.1 362.5,86.8 368.3,86.7 374.2,86.6 380.0,86.5 385.8,86.4 391.7,85.4 397.5,85.3 403.4,85.1 409.2,85.1 415.1,83.7 420.9,83.4 426.8,83.1 432.6,80.9 438.5,80.7 444.3,80.3 450.2,78.1 456.0,77.9 461.9,77.9 467.7,77.8 473.6,77.7 479.4,77.7 485.3,77.3 491.1,77.3 497.0,77.3 502.8,77.1 508.7,76.8 514.5,75.6 520.4,73.1 526.2,73.1 532.1,73.0 537.9,73.0 543.8,71.8 549.6,71.8 555.5,71.7 561.3,70.9 567.2,70.9 573.0,67.6 578.9,66.1 584.7,66.0 590.6,66.0 596.4,65.9 602.3,65.5 608.1,65.3 614.0,65.3 619.8,65.3 625.7,65.3 631.5,64.8 637.4,64.1 643.2,64.0 649.1,63.8 654.9,63.8 660.8,63.7 666.6,63.6 672.5,63.5 678.3,61.4 684.2,61.3 690.0,61.3" fill="none" stroke="#58a6ff" stroke-width="2.5" stroke-linejoin="round" stroke-linecap="round"/>
  <text x="70.0" y="310" text-anchor="middle" fill="#8b949e" font-family="sans-serif" font-size="11">03-12</text><text x="222.1" y="310" text-anchor="middle" fill="#8b949e" font-family="sans-serif" font-size="11">04-07</text><text x="374.2" y="310" text-anchor="middle" fill="#8b949e" font-family="sans-serif" font-size="11">05-03</text><text x="526.2" y="310" text-anchor="middle" fill="#8b949e" font-family="sans-serif" font-size="11">05-29</text><text x="678.3" y="310" text-anchor="middle" fill="#8b949e" font-family="sans-serif" font-size="11">06-24</text>
  <text x="694.0" y="53.3" fill="#58a6ff" font-family="sans-serif" font-size="12" font-weight="bold">11.4K</text>
</svg>