<svg xmlns="http://www.w3.org/2000/svg" width="720" height="320">
  <rect width="720" height="320" fill="#0d1117" rx="8"/>
  <text x="70" y="22" fill="#c9d1d9" font-family="sans-serif" font-size="14" font-weight="bold">Total Downloads Over Time</text>
  <line x1="70" y1="270.0" x2="690" y2="270.0" stroke="#21262d" stroke-width="1"/><text x="62" y="274.0" text-anchor="end" fill="#8b949e" font-family="sans-serif" font-size="11">0</text><line x1="70" y1="210.0" x2="690" y2="210.0" stroke="#21262d" stroke-width="1"/><text x="62" y="214.0" text-anchor="end" fill="#8b949e" font-family="sans-serif" font-size="11">3.4K</text><line x1="70" y1="150.0" x2="690" y2="150.0" stroke="#21262d" stroke-width="1"/><text x="62" y="154.0" text-anchor="end" fill="#8b949e" font-family="sans-serif" font-size="11">6.9K</text><line x1="70" y1="90.0" x2="690" y2="90.0" stroke="#21262d" stroke-width="1"/><text x="62" y="94.0" text-anchor="end" fill="#8b949e" font-family="sans-serif" font-size="11">10.3K</text><line x1="70" y1="30.0" x2="690" y2="30.0" stroke="#21262d" stroke-width="1"/><text x="62" y="34.0" text-anchor="end" fill="#8b949e" font-family="sans-serif" font-size="11">13.7K</text>
  <polygon points="70.0,201.0 74.8,201.0 79.5,200.1 84.3,189.8 89.1,183.3 93.8,181.5 98.6,180.0 103.4,174.6 108.2,174.3 112.9,172.7 117.7,172.3 122.5,172.2 127.2,164.3 132.0,153.9 136.8,145.2 141.5,141.8 146.3,138.5 151.1,135.8 155.8,135.1 160.6,134.9 165.4,133.3 170.2,131.8 174.9,127.9 179.7,124.1 184.5,121.3 189.2,118.5 194.0,117.6 198.8,110.4 203.5,106.0 208.3,104.5 213.1,104.2 217.8,103.0 222.6,102.9 227.4,102.9 232.2,102.4 236.9,102.3 241.7,102.2 246.5,101.7 251.2,99.2 256.0,99.2 260.8,98.6 265.5,97.7 270.3,97.5 275.1,97.3 279.8,97.0 284.6,96.8 289.4,96.6 294.2,96.6 298.9,96.5 303.7,94.8 308.5,94.5 313.2,94.5 318.0,94.4 322.8,94.3 327.5,94.2 332.3,93.2 337.1,93.1 341.8,92.9 346.6,92.9 351.4,91.6 356.2,91.3 360.9,91.1 365.7,88.9 370.5,88.7 375.2,88.3 380.0,86.2 384.8,86.1 389.5,86.0 394.3,85.9 399.1,85.8 403.8,85.8 408.6,85.5 413.4,85.5 418.2,85.5 422.9,85.2 427.7,85.0 432.5,83.8 437.2,81.5 442.0,81.4 446.8,81.3 451.5,81.3 456.3,80.2 461.1,80.2 465.8,80.1 470.6,79.4 475.4,79.4 480.2,76.2 484.9,74.7 489.7,74.7 494.5,74.6 499.2,74.5 504.0,74.2 508.8,74.0 513.5,74.0 518.3,74.0 523.1,73.9 527.8,73.5 532.6,72.8 537.4,72.7 542.2,72.6 546.9,72.5 551.7,72.4 556.5,72.3 561.2,72.3 566.0,70.2 570.8,70.2 575.5,70.1 580.3,69.7 585.1,69.4 589.8,69.2 594.6,68.7 599.4,68.6 604.2,67.4 608.9,67.2 613.7,67.0 618.5,66.5 623.2,66.4 628.0,66.1 632.8,65.5 637.5,65.1 642.3,64.8 647.1,64.7 651.8,64.7 656.6,62.4 661.4,62.3 666.2,62.2 670.9,61.9 675.7,61.7 680.5,61.7 685.2,61.4 690.0,61.3 690.0,270.0 70.0,270.0" fill="#58a6ff" opacity="0.15"/>
  <polyline points="70.0,201.0 74.8,201.0 79.5,200.1 84.3,189.8 89.1,183.3 93.8,181.5 98.6,180.0 103.4,174.6 108.2,174.3 112.9,172.7 117.7,172.3 122.5,172.2 127.2,164.3 132.0,153.9 136.8,145.2 141.5,141.8 146.3,138.5 151.1,135.8 155.8,135.1 160.6,134.9 165.4,133.3 170.2,131.8 174.9,127.9 179.7,124.1 184.5,121.3 189.2,118.5 194.0,117.6 198.8,110.4 203.5,106.0 208.3,104.5 213.1,104.2 217.8,103.0 222.6,102.9 227.4,102.9 232.2,102.4 236.9,102.3 241.7,102.2 246.5,101.7 251.2,99.2 256.0,99.2 260.8,98.6 265.5,97.7 270.3,97.5 275.1,97.3 279.8,97.0 284.6,96.8 289.4,96.6 294.2,96.6 298.9,96.5 303.7,94.8 308.5,94.5 313.2,94.5 318.0,94.4 322.8,94.3 327.5,94.2 332.3,93.2 337.1,93.1 341.8,92.9 346.6,92.9 351.4,91.6 356.2,91.3 360.9,91.1 365.7,88.9 370.5,88.7 375.2,88.3 380.0,86.2 384.8,86.1 389.5,86.0 394.3,85.9 399.1,85.8 403.8,85.8 408.6,85.5 413.4,85.5 418.2,85.5 422.9,85.2 427.7,85.0 432.5,83.8 437.2,81.5 442.0,81.4 446.8,81.3 451.5,81.3 456.3,80.2 461.1,80.2 465.8,80.1 470.6,79.4 475.4,79.4 480.2,76.2 484.9,74.7 489.7,74.7 494.5,74.6 499.2,74.5 504.0,74.2 508.8,74.0 513.5,74.0 518.3,74.0 523.1,73.9 527.8,73.5 532.6,72.8 537.4,72.7 542.2,72.6 546.9,72.5 551.7,72.4 556.5,72.3 561.2,72.3 566.0,70.2 570.8,70.2 575.5,70.1 580.3,69.7 585.1,69.4 589.8,69.2 594.6,68.7 599.4,68.6 604.2,67.4 608.9,67.2 613.7,67.0 618.5,66.5 623.2,66.4 628.0,66.1 632.8,65.5 637.5,65.1 642.3,64.8 647.1,64.7 651.8,64.7 656.6,62.4 661.4,62.3 666.2,62.2 670.9,61.9 675.7,61.7 680.5,61.7 685.2,61.4 690.0,61.3" fill="none" stroke="#58a6ff" stroke-width="2.5" stroke-linejoin="round" stroke-linecap="round"/>
  <text x="70.0" y="310" text-anchor="middle" fill="#8b949e" font-family="sans-serif" font-size="11">03-12</text><text x="222.6" y="310" text-anchor="middle" fill="#8b949e" font-family="sans-serif" font-size="11">04-13</text><text x="375.2" y="310" text-anchor="middle" fill="#8b949e" font-family="sans-serif" font-size="11">05-15</text><text x="527.8" y="310" text-anchor="middle" fill="#8b949e" font-family="sans-serif" font-size="11">06-16</text><text x="680.5" y="310" text-anchor="middle" fill="#8b949e" font-family="sans-serif" font-size="11">07-18</text>
  <text x="694.0" y="53.3" fill="#58a6ff" font-family="sans-serif" font-size="12" font-weight="bold">11.9K</text>
</svg>