<svg xmlns="http://www.w3.org/2000/svg" width="720" height="320">
  <rect width="720" height="320" fill="#0d1117" rx="8"/>
  <text x="70" y="22" fill="#c9d1d9" font-family="sans-serif" font-size="14" font-weight="bold">Total Downloads Over Time</text>
  <line x1="70" y1="270.0" x2="690" y2="270.0" stroke="#21262d" stroke-width="1"/><text x="62" y="274.0" text-anchor="end" fill="#8b949e" font-family="sans-serif" font-size="11">0</text><line x1="70" y1="210.0" x2="690" y2="210.0" stroke="#21262d" stroke-width="1"/><text x="62" y="214.0" text-anchor="end" fill="#8b949e" font-family="sans-serif" font-size="11">3.2K</text><line x1="70" y1="150.0" x2="690" y2="150.0" stroke="#21262d" stroke-width="1"/><text x="62" y="154.0" text-anchor="end" fill="#8b949e" font-family="sans-serif" font-size="11">6.4K</text><line x1="70" y1="90.0" x2="690" y2="90.0" stroke="#21262d" stroke-width="1"/><text x="62" y="94.0" text-anchor="end" fill="#8b949e" font-family="sans-serif" font-size="11">9.6K</text><line x1="70" y1="30.0" x2="690" y2="30.0" stroke="#21262d" stroke-width="1"/><text x="62" y="34.0" text-anchor="end" fill="#8b949e" font-family="sans-serif" font-size="11">12.8K</text>
  <polygon points="70.0,196.4 77.0,196.3 83.9,195.4 90.9,184.4 97.9,177.4 104.8,175.5 111.8,173.9 118.8,168.1 125.7,167.8 132.7,166.1 139.7,165.7 146.6,165.5 153.6,157.1 160.6,146.0 167.5,136.7 174.5,133.1 181.5,129.6 188.4,126.7 195.4,125.9 202.4,125.7 209.3,124.0 216.3,122.4 223.3,118.2 230.2,114.2 237.2,111.2 244.2,108.2 251.1,107.2 258.1,99.6 265.1,94.9 272.0,93.2 279.0,93.0 286.0,91.7 292.9,91.6 299.9,91.6 306.9,91.0 313.8,90.9 320.8,90.8 327.8,90.3 334.7,87.6 341.7,87.5 348.7,87.0 355.6,86.0 362.6,85.8 369.6,85.5 376.5,85.3 383.5,85.0 390.4,84.8 397.4,84.8 404.4,84.7 411.3,82.9 418.3,82.6 425.3,82.5 432.2,82.4 439.2,82.3 446.2,82.2 453.1,81.2 460.1,81.1 467.1,80.9 474.0,80.8 481.0,79.5 488.0,79.1 494.9,78.9 501.9,76.5 508.9,76.4 515.8,75.9 522.8,73.7 529.8,73.6 536.7,73.5 543.7,73.4 550.7,73.3 557.6,73.3 564.6,72.9 571.6,72.9 578.5,72.9 585.5,72.7 592.5,72.4 599.4,71.1 606.4,68.6 613.4,68.6 620.3,68.5 627.3,68.5 634.3,67.3 641.2,67.3 648.2,67.2 655.2,66.4 662.1,66.4 669.1,63.0 676.1,61.4 683.0,61.4 690.0,61.3 690.0,270.0 70.0,270.0" fill="#58a6ff" opacity="0.15"/>
  <polyline points="70.0,196.4 77.0,196.3 83.9,195.4 90.9,184.4 97.9,177.4 104.8,175.5 111.8,173.9 118.8,168.1 125.7,167.8 132.7,166.1 139.7,165.7 146.6,165.5 153.6,157.1 160.6,146.0 167.5,136.7 174.5,133.1 181.5,129.6 188.4,126.7 195.4,125.9 202.4,125.7 209.3,124.0 216.3,122.4 223.3,118.2 230.2,114.2 237.2,111.2 244.2,108.2 251.1,107.2 258.1,99.6 265.1,94.9 272.0,93.2 279.0,93.0 286.0,91.7 292.9,91.6 299.9,91.6 306.9,91.0 313.8,90.9 320.8,90.8 327.8,90.3 334.7,87.6 341.7,87.5 348.7,87.0 355.6,86.0 362.6,85.8 369.6,85.5 376.5,85.3 383.5,85.0 390.4,84.8 397.4,84.8 404.4,84.7 411.3,82.9 418.3,82.6 425.3,82.5 432.2,82.4 439.2,82.3 446.2,82.2 453.1,81.2 460.1,81.1 467.1,80.9 474.0,80.8 481.0,79.5 488.0,79.1 494.9,78.9 501.9,76.5 508.9,76.4 515.8,75.9 522.8,73.7 529.8,73.6 536.7,73.5 543.7,73.4 550.7,73.3 557.6,73.3 564.6,72.9 571.6,72.9 578.5,72.9 585.5,72.7 592.5,72.4 599.4,71.1 606.4,68.6 613.4,68.6 620.3,68.5 627.3,68.5 634.3,67.3 641.2,67.3 648.2,67.2 655.2,66.4 662.1,66.4 669.1,63.0 676.1,61.4 683.0,61.4 690.0,61.3" fill="none" stroke="#58a6ff" stroke-width="2.5" stroke-linejoin="round" stroke-linecap="round"/>
  <text x="70.0" y="310" text-anchor="middle" fill="#8b949e" font-family="sans-serif" font-size="11">03-12</text><text x="223.3" y="310" text-anchor="middle" fill="#8b949e" font-family="sans-serif" font-size="11">04-03</text><text x="376.5" y="310" text-anchor="middle" fill="#8b949e" font-family="sans-serif" font-size="11">04-25</text><text x="529.8" y="310" text-anchor="middle" fill="#8b949e" font-family="sans-serif" font-size="11">05-17</text><text x="683.0" y="310" text-anchor="middle" fill="#8b949e" font-family="sans-serif" font-size="11">06-08</text>
  <text x="694.0" y="53.3" fill="#58a6ff" font-family="sans-serif" font-size="12" font-weight="bold">11.2K</text>
</svg>