<svg xmlns="http://www.w3.org/2000/svg" width="720" height="320">
  <rect width="720" height="320" fill="#0d1117" rx="8"/>
  <text x="70" y="22" fill="#c9d1d9" font-family="sans-serif" font-size="14" font-weight="bold">Total Downloads Over Time</text>
  <line x1="70" y1="270.0" x2="690" y2="270.0" stroke="#21262d" stroke-width="1"/><text x="62" y="274.0" text-anchor="end" fill="#8b949e" font-family="sans-serif" font-size="11">0</text><line x1="70" y1="210.0" x2="690" y2="210.0" stroke="#21262d" stroke-width="1"/><text x="62" y="214.0" text-anchor="end" fill="#8b949e" font-family="sans-serif" font-size="11">2.9K</text><line x1="70" y1="150.0" x2="690" y2="150.0" stroke="#21262d" stroke-width="1"/><text x="62" y="154.0" text-anchor="end" fill="#8b949e" font-family="sans-serif" font-size="11">5.8K</text><line x1="70" y1="90.0" x2="690" y2="90.0" stroke="#21262d" stroke-width="1"/><text x="62" y="94.0" text-anchor="end" fill="#8b949e" font-family="sans-serif" font-size="11">8.7K</text><line x1="70" y1="30.0" x2="690" y2="30.0" stroke="#21262d" stroke-width="1"/><text x="62" y="34.0" text-anchor="end" fill="#8b949e" font-family="sans-serif" font-size="11">11.5K</text>
  <polygon points="70.0,188.0 82.2,188.0 94.3,186.9 106.5,174.7 118.6,167.0 130.8,164.8 142.9,163.0 155.1,156.6 167.3,156.2 179.4,154.4 191.6,153.9 203.7,153.7 215.9,144.3 228.0,132.0 240.2,121.6 252.4,117.6 264.5,113.6 276.7,110.5 288.8,109.6 301.0,109.4 313.1,107.5 325.3,105.7 337.5,101.0 349.6,96.6 361.8,93.2 373.9,89.8 386.1,88.8 398.2,80.2 410.4,75.0 422.5,73.2 434.7,72.9 446.9,71.5 459.0,71.4 471.2,71.3 483.3,70.8 495.5,70.6 507.6,70.5 519.8,69.9 532.0,67.0 544.1,66.9 556.3,66.2 568.4,65.1 580.6,64.9 592.7,64.6 604.9,64.3 617.1,64.1 629.2,63.9 641.4,63.8 653.5,63.7 665.7,61.7 677.8,61.4 690.0,61.3 690.0,270.0 70.0,270.0" fill="#58a6ff" opacity="0.15"/>
  <polyline points="70.0,188.0 82.2,188.0 94.3,186.9 106.5,174.7 118.6,167.0 130.8,164.8 142.9,163.0 155.1,156.6 167.3,156.2 179.4,154.4 191.6,153.9 203.7,153.7 215.9,144.3 228.0,132.0 240.2,121.6 252.4,117.6 264.5,113.6 276.7,110.5 288.8,109.6 301.0,109.4 313.1,107.5 325.3,105.7 337.5,101.0 349.6,96.6 361.8,93.2 373.9,89.8 386.1,88.8 398.2,80.2 410.4,75.0 422.5,73.2 434.7,72.9 446.9,71.5 459.0,71.4 471.2,71.3 483.3,70.8 495.5,70.6 507.6,70.5 519.8,69.9 532.0,67.0 544.1,66.9 556.3,66.2 568.4,65.1 580.6,64.9 592.7,64.6 604.9,64.3 617.1,64.1 629.2,63.9 641.4,63.8 653.5,63.7 665.7,61.7 677.8,61.4 690.0,61.3" fill="none" stroke="#58a6ff" stroke-width="2.5" stroke-linejoin="round" stroke-linecap="round"/>
  <text x="70.0" y="310" text-anchor="middle" fill="#8b949e" font-family="sans-serif" font-size="11">03-12</text><text x="215.9" y="310" text-anchor="middle" fill="#8b949e" font-family="sans-serif" font-size="11">03-24</text><text x="361.8" y="310" text-anchor="middle" fill="#8b949e" font-family="sans-serif" font-size="11">04-05</text><text x="507.6" y="310" text-anchor="middle" fill="#8b949e" font-family="sans-serif" font-size="11">04-17</text><text x="653.5" y="310" text-anchor="middle" fill="#8b949e" font-family="sans-serif" font-size="11">04-29</text>
  <text x="694.0" y="53.3" fill="#58a6ff" font-family="sans-serif" font-size="12" font-weight="bold">10.0K</text>
</svg>