<svg xmlns="http://www.w3.org/2000/svg" width="720" height="320">
  <rect width="720" height="320" fill="#0d1117" rx="8"/>
  <text x="70" y="22" fill="#c9d1d9" font-family="sans-serif" font-size="14" font-weight="bold">Total Downloads Over Time</text>
  <line x1="70" y1="270.0" x2="690" y2="270.0" stroke="#21262d" stroke-width="1"/><text x="62" y="274.0" text-anchor="end" fill="#8b949e" font-family="sans-serif" font-size="11">0</text><line x1="70" y1="210.0" x2="690" y2="210.0" stroke="#21262d" stroke-width="1"/><text x="62" y="214.0" text-anchor="end" fill="#8b949e" font-family="sans-serif" font-size="11">2.8K</text><line x1="70" y1="150.0" x2="690" y2="150.0" stroke="#21262d" stroke-width="1"/><text x="62" y="154.0" text-anchor="end" fill="#8b949e" font-family="sans-serif" font-size="11">5.7K</text><line x1="70" y1="90.0" x2="690" y2="90.0" stroke="#21262d" stroke-width="1"/><text x="62" y="94.0" text-anchor="end" fill="#8b949e" font-family="sans-serif" font-size="11">8.5K</text><line x1="70" y1="30.0" x2="690" y2="30.0" stroke="#21262d" stroke-width="1"/><text x="62" y="34.0" text-anchor="end" fill="#8b949e" font-family="sans-serif" font-size="11">11.4K</text>
  <polygon points="70.0,186.9 83.8,186.9 97.6,185.8 111.3,173.4 125.1,165.6 138.9,163.4 152.7,161.6 166.4,155.1 180.2,154.7 194.0,152.8 207.8,152.3 221.6,152.1 235.3,142.6 249.1,130.1 262.9,119.6 276.7,115.5 290.4,111.5 304.2,108.3 318.0,107.4 331.8,107.2 345.6,105.3 359.3,103.5 373.1,98.8 386.9,94.2 400.7,90.8 414.4,87.4 428.2,86.3 442.0,77.7 455.8,72.4 469.6,70.6 483.3,70.3 497.1,68.8 510.9,68.7 524.7,68.7 538.4,68.1 552.2,67.9 566.0,67.8 579.8,67.2 593.6,64.2 607.3,64.1 621.1,63.5 634.9,62.4 648.7,62.2 662.4,61.9 676.2,61.6 690.0,61.3 690.0,270.0 70.0,270.0" fill="#58a6ff" opacity="0.15"/>
  <polyline points="70.0,186.9 83.8,186.9 97.6,185.8 111.3,173.4 125.1,165.6 138.9,163.4 152.7,161.6 166.4,155.1 180.2,154.7 194.0,152.8 207.8,152.3 221.6,152.1 235.3,142.6 249.1,130.1 262.9,119.6 276.7,115.5 290.4,111.5 304.2,108.3 318.0,107.4 331.8,107.2 345.6,105.3 359.3,103.5 373.1,98.8 386.9,94.2 400.7,90.8 414.4,87.4 428.2,86.3 442.0,77.7 455.8,72.4 469.6,70.6 483.3,70.3 497.1,68.8 510.9,68.7 524.7,68.7 538.4,68.1 552.2,67.9 566.0,67.8 579.8,67.2 593.6,64.2 607.3,64.1 621.1,63.5 634.9,62.4 648.7,62.2 662.4,61.9 676.2,61.6 690.0,61.3" fill="none" stroke="#58a6ff" stroke-width="2.5" stroke-linejoin="round" stroke-linecap="round"/>
  <text x="70.0" y="310" text-anchor="middle" fill="#8b949e" font-family="sans-serif" font-size="11">03-12</text><text x="221.6" y="310" text-anchor="middle" fill="#8b949e" font-family="sans-serif" font-size="11">03-23</text><text x="373.1" y="310" text-anchor="middle" fill="#8b949e" font-family="sans-serif" font-size="11">04-03</text><text x="524.7" y="310" text-anchor="middle" fill="#8b949e" font-family="sans-serif" font-size="11">04-14</text><text x="676.2" y="310" text-anchor="middle" fill="#8b949e" font-family="sans-serif" font-size="11">04-25</text>
  <text x="694.0" y="53.3" fill="#58a6ff" font-family="sans-serif" font-size="12" font-weight="bold">9.9K</text>
</svg>