<svg xmlns="http://www.w3.org/2000/svg" width="720" height="320">
  <rect width="720" height="320" fill="#0d1117" rx="8"/>
  <text x="70" y="22" fill="#c9d1d9" font-family="sans-serif" font-size="14" font-weight="bold">Total Downloads Over Time</text>
  <line x1="70" y1="270.0" x2="690" y2="270.0" stroke="#21262d" stroke-width="1"/><text x="62" y="274.0" text-anchor="end" fill="#8b949e" font-family="sans-serif" font-size="11">0</text><line x1="70" y1="210.0" x2="690" y2="210.0" stroke="#21262d" stroke-width="1"/><text x="62" y="214.0" text-anchor="end" fill="#8b949e" font-family="sans-serif" font-size="11">3.4K</text><line x1="70" y1="150.0" x2="690" y2="150.0" stroke="#21262d" stroke-width="1"/><text x="62" y="154.0" text-anchor="end" fill="#8b949e" font-family="sans-serif" font-size="11">6.8K</text><line x1="70" y1="90.0" x2="690" y2="90.0" stroke="#21262d" stroke-width="1"/><text x="62" y="94.0" text-anchor="end" fill="#8b949e" font-family="sans-serif" font-size="11">10.3K</text><line x1="70" y1="30.0" x2="690" y2="30.0" stroke="#21262d" stroke-width="1"/><text x="62" y="34.0" text-anchor="end" fill="#8b949e" font-family="sans-serif" font-size="11">13.7K</text>
  <polygon points="70.0,200.9 74.9,200.9 79.8,200.0 84.6,189.7 89.5,183.2 94.4,181.4 99.3,179.8 104.2,174.5 109.1,174.1 113.9,172.6 118.8,172.2 123.7,172.0 128.6,164.1 133.5,153.7 138.3,144.9 143.2,141.6 148.1,138.3 153.0,135.6 157.9,134.8 162.8,134.7 167.6,133.1 172.5,131.6 177.4,127.6 182.3,123.9 187.2,121.0 192.0,118.2 196.9,117.3 201.8,110.1 206.7,105.7 211.6,104.2 216.5,103.9 221.3,102.7 226.2,102.7 231.1,102.6 236.0,102.1 240.9,102.0 245.7,101.9 250.6,101.4 255.5,98.9 260.4,98.8 265.3,98.3 270.2,97.4 275.0,97.2 279.9,97.0 284.8,96.7 289.7,96.5 294.6,96.3 299.4,96.3 304.3,96.2 309.2,94.5 314.1,94.2 319.0,94.2 323.9,94.0 328.7,94.0 333.6,93.9 338.5,92.9 343.4,92.8 348.3,92.6 353.1,92.6 358.0,91.3 362.9,91.0 367.8,90.7 372.7,88.5 377.6,88.4 382.4,88.0 387.3,85.9 392.2,85.7 397.1,85.7 402.0,85.6 406.9,85.5 411.7,85.5 416.6,85.1 421.5,85.1 426.4,85.1 431.3,84.9 436.1,84.7 441.0,83.5 445.9,81.1 450.8,81.1 455.7,81.0 460.6,81.0 465.4,79.8 470.3,79.8 475.2,79.8 480.1,79.0 485.0,79.0 489.8,75.8 494.7,74.4 499.6,74.3 504.5,74.3 509.4,74.2 514.3,73.8 519.1,73.7 524.0,73.6 528.9,73.6 533.8,73.6 538.7,73.2 543.5,72.4 548.4,72.3 553.3,72.2 558.2,72.1 563.1,72.0 568.0,71.9 572.8,71.9 577.7,69.9 582.6,69.8 587.5,69.8 592.4,69.4 597.2,69.0 602.1,68.9 607.0,68.3 611.9,68.2 616.8,67.1 621.7,66.9 626.5,66.6 631.4,66.2 636.3,66.0 641.2,65.8 646.1,65.2 650.9,64.7 655.8,64.4 660.7,64.4 665.6,64.3 670.5,62.0 675.4,61.9 680.2,61.8 685.1,61.5 690.0,61.3 690.0,270.0 70.0,270.0" fill="#58a6ff" opacity="0.15"/>
  <polyline points="70.0,200.9 74.9,200.9 79.8,200.0 84.6,189.7 89.5,183.2 94.4,181.4 99.3,179.8 104.2,174.5 109.1,174.1 113.9,172.6 118.8,172.2 123.7,172.0 128.6,164.1 133.5,153.7 138.3,144.9 143.2,141.6 148.1,138.3 153.0,135.6 157.9,134.8 162.8,134.7 167.6,133.1 172.5,131.6 177.4,127.6 182.3,123.9 187.2,121.0 192.0,118.2 196.9,117.3 201.8,110.1 206.7,105.7 211.6,104.2 216.5,103.9 221.3,102.7 226.2,102.7 231.1,102.6 236.0,102.1 240.9,102.0 245.7,101.9 250.6,101.4 255.5,98.9 260.4,98.8 265.3,98.3 270.2,97.4 275.0,97.2 279.9,97.0 284.8,96.7 289.7,96.5 294.6,96.3 299.4,96.3 304.3,96.2 309.2,94.5 314.1,94.2 319.0,94.2 323.9,94.0 328.7,94.0 333.6,93.9 338.5,92.9 343.4,92.8 348.3,92.6 353.1,92.6 358.0,91.3 362.9,91.0 367.8,90.7 372.7,88.5 377.6,88.4 382.4,88.0 387.3,85.9 392.2,85.7 397.1,85.7 402.0,85.6 406.9,85.5 411.7,85.5 416.6,85.1 421.5,85.1 426.4,85.1 431.3,84.9 436.1,84.7 441.0,83.5 445.9,81.1 450.8,81.1 455.7,81.0 460.6,81.0 465.4,79.8 470.3,79.8 475.2,79.8 480.1,79.0 485.0,79.0 489.8,75.8 494.7,74.4 499.6,74.3 504.5,74.3 509.4,74.2 514.3,73.8 519.1,73.7 524.0,73.6 528.9,73.6 533.8,73.6 538.7,73.2 543.5,72.4 548.4,72.3 553.3,72.2 558.2,72.1 563.1,72.0 568.0,71.9 572.8,71.9 577.7,69.9 582.6,69.8 587.5,69.8 592.4,69.4 597.2,69.0 602.1,68.9 607.0,68.3 611.9,68.2 616.8,67.1 621.7,66.9 626.5,66.6 631.4,66.2 636.3,66.0 641.2,65.8 646.1,65.2 650.9,64.7 655.8,64.4 660.7,64.4 665.6,64.3 670.5,62.0 675.4,61.9 680.2,61.8 685.1,61.5 690.0,61.3" fill="none" stroke="#58a6ff" stroke-width="2.5" stroke-linejoin="round" stroke-linecap="round"/>
  <text x="70.0" y="310" text-anchor="middle" fill="#8b949e" font-family="sans-serif" font-size="11">03-12</text><text x="221.3" y="310" text-anchor="middle" fill="#8b949e" font-family="sans-serif" font-size="11">04-12</text><text x="372.7" y="310" text-anchor="middle" fill="#8b949e" font-family="sans-serif" font-size="11">05-13</text><text x="524.0" y="310" text-anchor="middle" fill="#8b949e" font-family="sans-serif" font-size="11">06-13</text><text x="675.4" y="310" text-anchor="middle" fill="#8b949e" font-family="sans-serif" font-size="11">07-14</text>
  <text x="694.0" y="53.3" fill="#58a6ff" font-family="sans-serif" font-size="12" font-weight="bold">11.9K</text>
</svg>