<svg xmlns="http://www.w3.org/2000/svg" width="720" height="320">
  <rect width="720" height="320" fill="#0d1117" rx="8"/>
  <text x="70" y="22" fill="#c9d1d9" font-family="sans-serif" font-size="14" font-weight="bold">Total Downloads Over Time</text>
  <line x1="70" y1="270.0" x2="690" y2="270.0" stroke="#21262d" stroke-width="1"/><text x="62" y="274.0" text-anchor="end" fill="#8b949e" font-family="sans-serif" font-size="11">0</text><line x1="70" y1="210.0" x2="690" y2="210.0" stroke="#21262d" stroke-width="1"/><text x="62" y="214.0" text-anchor="end" fill="#8b949e" font-family="sans-serif" font-size="11">2.9K</text><line x1="70" y1="150.0" x2="690" y2="150.0" stroke="#21262d" stroke-width="1"/><text x="62" y="154.0" text-anchor="end" fill="#8b949e" font-family="sans-serif" font-size="11">5.8K</text><line x1="70" y1="90.0" x2="690" y2="90.0" stroke="#21262d" stroke-width="1"/><text x="62" y="94.0" text-anchor="end" fill="#8b949e" font-family="sans-serif" font-size="11">8.7K</text><line x1="70" y1="30.0" x2="690" y2="30.0" stroke="#21262d" stroke-width="1"/><text x="62" y="34.0" text-anchor="end" fill="#8b949e" font-family="sans-serif" font-size="11">11.5K</text>
  <polygon points="70.0,188.1 81.9,188.0 93.8,187.0 105.8,174.8 117.7,167.0 129.6,164.9 141.5,163.1 153.5,156.7 165.4,156.3 177.3,154.4 189.2,153.9 201.2,153.8 213.1,144.4 225.0,132.1 236.9,121.7 248.8,117.7 260.8,113.8 272.7,110.6 284.6,109.7 296.5,109.5 308.5,107.6 320.4,105.8 332.3,101.1 344.2,96.7 356.2,93.3 368.1,90.0 380.0,88.9 391.9,80.4 403.8,75.2 415.8,73.3 427.7,73.0 439.6,71.6 451.5,71.5 463.5,71.5 475.4,70.9 487.3,70.8 499.2,70.6 511.2,70.1 523.1,67.1 535.0,67.0 546.9,66.4 558.8,65.3 570.8,65.1 582.7,64.8 594.6,64.5 606.5,64.2 618.5,64.0 630.4,63.9 642.3,63.8 654.2,61.9 666.2,61.5 678.1,61.4 690.0,61.3 690.0,270.0 70.0,270.0" fill="#58a6ff" opacity="0.15"/>
  <polyline points="70.0,188.1 81.9,188.0 93.8,187.0 105.8,174.8 117.7,167.0 129.6,164.9 141.5,163.1 153.5,156.7 165.4,156.3 177.3,154.4 189.2,153.9 201.2,153.8 213.1,144.4 225.0,132.1 236.9,121.7 248.8,117.7 260.8,113.8 272.7,110.6 284.6,109.7 296.5,109.5 308.5,107.6 320.4,105.8 332.3,101.1 344.2,96.7 356.2,93.3 368.1,90.0 380.0,88.9 391.9,80.4 403.8,75.2 415.8,73.3 427.7,73.0 439.6,71.6 451.5,71.5 463.5,71.5 475.4,70.9 487.3,70.8 499.2,70.6 511.2,70.1 523.1,67.1 535.0,67.0 546.9,66.4 558.8,65.3 570.8,65.1 582.7,64.8 594.6,64.5 606.5,64.2 618.5,64.0 630.4,63.9 642.3,63.8 654.2,61.9 666.2,61.5 678.1,61.4 690.0,61.3" fill="none" stroke="#58a6ff" stroke-width="2.5" stroke-linejoin="round" stroke-linecap="round"/>
  <text x="70.0" y="310" text-anchor="middle" fill="#8b949e" font-family="sans-serif" font-size="11">03-12</text><text x="225.0" y="310" text-anchor="middle" fill="#8b949e" font-family="sans-serif" font-size="11">03-25</text><text x="380.0" y="310" text-anchor="middle" fill="#8b949e" font-family="sans-serif" font-size="11">04-07</text><text x="535.0" y="310" text-anchor="middle" fill="#8b949e" font-family="sans-serif" font-size="11">04-20</text><text x="690.0" y="310" text-anchor="middle" fill="#8b949e" font-family="sans-serif" font-size="11">05-03</text>
  <text x="694.0" y="53.3" fill="#58a6ff" font-family="sans-serif" font-size="12" font-weight="bold">10.0K</text>
</svg>