<svg xmlns="http://www.w3.org/2000/svg" width="720" height="320">
  <rect width="720" height="320" fill="#0d1117" rx="8"/>
  <text x="70" y="22" fill="#c9d1d9" font-family="sans-serif" font-size="14" font-weight="bold">Total Downloads Over Time</text>
  <line x1="70" y1="270.0" x2="690" y2="270.0" stroke="#21262d" stroke-width="1"/><text x="62" y="274.0" text-anchor="end" fill="#8b949e" font-family="sans-serif" font-size="11">0</text><line x1="70" y1="210.0" x2="690" y2="210.0" stroke="#21262d" stroke-width="1"/><text x="62" y="214.0" text-anchor="end" fill="#8b949e" font-family="sans-serif" font-size="11">2.9K</text><line x1="70" y1="150.0" x2="690" y2="150.0" stroke="#21262d" stroke-width="1"/><text x="62" y="154.0" text-anchor="end" fill="#8b949e" font-family="sans-serif" font-size="11">5.8K</text><line x1="70" y1="90.0" x2="690" y2="90.0" stroke="#21262d" stroke-width="1"/><text x="62" y="94.0" text-anchor="end" fill="#8b949e" font-family="sans-serif" font-size="11">8.7K</text><line x1="70" y1="30.0" x2="690" y2="30.0" stroke="#21262d" stroke-width="1"/><text x="62" y="34.0" text-anchor="end" fill="#8b949e" font-family="sans-serif" font-size="11">11.6K</text>
  <polygon points="70.0,188.7 80.9,188.7 91.8,187.7 102.6,175.5 113.5,167.9 124.4,165.7 135.3,163.9 146.1,157.6 157.0,157.2 167.9,155.4 178.8,154.9 189.6,154.7 200.5,145.4 211.4,133.2 222.3,122.9 233.2,118.9 244.0,115.0 254.9,111.9 265.8,111.0 276.7,110.8 287.5,108.9 298.4,107.1 309.3,102.5 320.2,98.1 331.1,94.8 341.9,91.4 352.8,90.3 363.7,81.9 374.6,76.7 385.4,74.9 396.3,74.6 407.2,73.2 418.1,73.1 428.9,73.1 439.8,72.5 450.7,72.4 461.6,72.2 472.5,71.7 483.3,68.7 494.2,68.6 505.1,68.0 516.0,66.9 526.8,66.7 537.7,66.4 548.6,66.1 559.5,65.9 570.4,65.7 581.2,65.6 592.1,65.5 603.0,63.6 613.9,63.2 624.7,63.1 635.6,63.0 646.5,62.9 657.4,62.8 668.2,61.7 679.1,61.6 690.0,61.3 690.0,270.0 70.0,270.0" fill="#58a6ff" opacity="0.15"/>
  <polyline points="70.0,188.7 80.9,188.7 91.8,187.7 102.6,175.5 113.5,167.9 124.4,165.7 135.3,163.9 146.1,157.6 157.0,157.2 167.9,155.4 178.8,154.9 189.6,154.7 200.5,145.4 211.4,133.2 222.3,122.9 233.2,118.9 244.0,115.0 254.9,111.9 265.8,111.0 276.7,110.8 287.5,108.9 298.4,107.1 309.3,102.5 320.2,98.1 331.1,94.8 341.9,91.4 352.8,90.3 363.7,81.9 374.6,76.7 385.4,74.9 396.3,74.6 407.2,73.2 418.1,73.1 428.9,73.1 439.8,72.5 450.7,72.4 461.6,72.2 472.5,71.7 483.3,68.7 494.2,68.6 505.1,68.0 516.0,66.9 526.8,66.7 537.7,66.4 548.6,66.1 559.5,65.9 570.4,65.7 581.2,65.6 592.1,65.5 603.0,63.6 613.9,63.2 624.7,63.1 635.6,63.0 646.5,62.9 657.4,62.8 668.2,61.7 679.1,61.6 690.0,61.3" fill="none" stroke="#58a6ff" stroke-width="2.5" stroke-linejoin="round" stroke-linecap="round"/>
  <text x="70.0" y="310" text-anchor="middle" fill="#8b949e" font-family="sans-serif" font-size="11">03-12</text><text x="222.3" y="310" text-anchor="middle" fill="#8b949e" font-family="sans-serif" font-size="11">03-26</text><text x="374.6" y="310" text-anchor="middle" fill="#8b949e" font-family="sans-serif" font-size="11">04-09</text><text x="526.8" y="310" text-anchor="middle" fill="#8b949e" font-family="sans-serif" font-size="11">04-23</text><text x="679.1" y="310" text-anchor="middle" fill="#8b949e" font-family="sans-serif" font-size="11">05-07</text>
  <text x="694.0" y="53.3" fill="#58a6ff" font-family="sans-serif" font-size="12" font-weight="bold">10.1K</text>
</svg>