<svg xmlns="http://www.w3.org/2000/svg" width="720" height="320">
  <rect width="720" height="320" fill="#0d1117" rx="8"/>
  <text x="70" y="22" fill="#c9d1d9" font-family="sans-serif" font-size="14" font-weight="bold">Total Downloads Over Time</text>
  <line x1="70" y1="270.0" x2="690" y2="270.0" stroke="#21262d" stroke-width="1"/><text x="62" y="274.0" text-anchor="end" fill="#8b949e" font-family="sans-serif" font-size="11">0</text><line x1="70" y1="210.0" x2="690" y2="210.0" stroke="#21262d" stroke-width="1"/><text x="62" y="214.0" text-anchor="end" fill="#8b949e" font-family="sans-serif" font-size="11">2.9K</text><line x1="70" y1="150.0" x2="690" y2="150.0" stroke="#21262d" stroke-width="1"/><text x="62" y="154.0" text-anchor="end" fill="#8b949e" font-family="sans-serif" font-size="11">5.8K</text><line x1="70" y1="90.0" x2="690" y2="90.0" stroke="#21262d" stroke-width="1"/><text x="62" y="94.0" text-anchor="end" fill="#8b949e" font-family="sans-serif" font-size="11">8.7K</text><line x1="70" y1="30.0" x2="690" y2="30.0" stroke="#21262d" stroke-width="1"/><text x="62" y="34.0" text-anchor="end" fill="#8b949e" font-family="sans-serif" font-size="11">11.6K</text>
  <polygon points="70.0,188.1 81.7,188.1 93.4,187.0 105.1,174.8 116.8,167.1 128.5,164.9 140.2,163.1 151.9,156.7 163.6,156.4 175.3,154.5 187.0,154.0 198.7,153.8 210.4,144.5 222.1,132.2 233.8,121.7 245.5,117.8 257.2,113.8 268.9,110.7 280.6,109.8 292.3,109.6 304.0,107.7 315.7,105.9 327.4,101.2 339.1,96.8 350.8,93.4 362.5,90.0 374.2,89.0 385.8,80.5 397.5,75.3 409.2,73.4 420.9,73.1 432.6,71.7 444.3,71.6 456.0,71.6 467.7,71.0 479.4,70.9 491.1,70.7 502.8,70.2 514.5,67.2 526.2,67.1 537.9,66.5 549.6,65.4 561.3,65.2 573.0,64.9 584.7,64.6 596.4,64.3 608.1,64.1 619.8,64.0 631.5,63.9 643.2,62.0 654.9,61.6 666.6,61.6 678.3,61.4 690.0,61.3 690.0,270.0 70.0,270.0" fill="#58a6ff" opacity="0.15"/>
  <polyline points="70.0,188.1 81.7,188.1 93.4,187.0 105.1,174.8 116.8,167.1 128.5,164.9 140.2,163.1 151.9,156.7 163.6,156.4 175.3,154.5 187.0,154.0 198.7,153.8 210.4,144.5 222.1,132.2 233.8,121.7 245.5,117.8 257.2,113.8 268.9,110.7 280.6,109.8 292.3,109.6 304.0,107.7 315.7,105.9 327.4,101.2 339.1,96.8 350.8,93.4 362.5,90.0 374.2,89.0 385.8,80.5 397.5,75.3 409.2,73.4 420.9,73.1 432.6,71.7 444.3,71.6 456.0,71.6 467.7,71.0 479.4,70.9 491.1,70.7 502.8,70.2 514.5,67.2 526.2,67.1 537.9,66.5 549.6,65.4 561.3,65.2 573.0,64.9 584.7,64.6 596.4,64.3 608.1,64.1 619.8,64.0 631.5,63.9 643.2,62.0 654.9,61.6 666.6,61.6 678.3,61.4 690.0,61.3" fill="none" stroke="#58a6ff" stroke-width="2.5" stroke-linejoin="round" stroke-linecap="round"/>
  <text x="70.0" y="310" text-anchor="middle" fill="#8b949e" font-family="sans-serif" font-size="11">03-12</text><text x="222.1" y="310" text-anchor="middle" fill="#8b949e" font-family="sans-serif" font-size="11">03-25</text><text x="374.2" y="310" text-anchor="middle" fill="#8b949e" font-family="sans-serif" font-size="11">04-07</text><text x="526.2" y="310" text-anchor="middle" fill="#8b949e" font-family="sans-serif" font-size="11">04-20</text><text x="678.3" y="310" text-anchor="middle" fill="#8b949e" font-family="sans-serif" font-size="11">05-03</text>
  <text x="694.0" y="53.3" fill="#58a6ff" font-family="sans-serif" font-size="12" font-weight="bold">10.0K</text>
</svg>