<svg xmlns="http://www.w3.org/2000/svg" width="720" height="320">
  <rect width="720" height="320" fill="#0d1117" rx="8"/>
  <text x="70" y="22" fill="#c9d1d9" font-family="sans-serif" font-size="14" font-weight="bold">Total Downloads Over Time</text>
  <line x1="70" y1="270.0" x2="690" y2="270.0" stroke="#21262d" stroke-width="1"/><text x="62" y="274.0" text-anchor="end" fill="#8b949e" font-family="sans-serif" font-size="11">0</text><line x1="70" y1="210.0" x2="690" y2="210.0" stroke="#21262d" stroke-width="1"/><text x="62" y="214.0" text-anchor="end" fill="#8b949e" font-family="sans-serif" font-size="11">3.3K</text><line x1="70" y1="150.0" x2="690" y2="150.0" stroke="#21262d" stroke-width="1"/><text x="62" y="154.0" text-anchor="end" fill="#8b949e" font-family="sans-serif" font-size="11">6.7K</text><line x1="70" y1="90.0" x2="690" y2="90.0" stroke="#21262d" stroke-width="1"/><text x="62" y="94.0" text-anchor="end" fill="#8b949e" font-family="sans-serif" font-size="11">10.0K</text><line x1="70" y1="30.0" x2="690" y2="30.0" stroke="#21262d" stroke-width="1"/><text x="62" y="34.0" text-anchor="end" fill="#8b949e" font-family="sans-serif" font-size="11">13.3K</text>
  <polygon points="70.0,199.0 75.5,198.9 81.1,198.0 86.6,187.4 92.1,180.7 97.7,178.9 103.2,177.3 108.8,171.8 114.3,171.4 119.8,169.8 125.4,169.4 130.9,169.2 136.4,161.1 142.0,150.4 147.5,141.4 153.0,138.0 158.6,134.5 164.1,131.8 169.6,131.0 175.2,130.8 180.7,129.2 186.2,127.6 191.8,123.6 197.3,119.7 202.9,116.8 208.4,113.9 213.9,113.0 219.5,105.6 225.0,101.1 230.5,99.5 236.1,99.2 241.6,98.0 247.1,97.9 252.7,97.9 258.2,97.4 263.8,97.3 269.3,97.1 274.8,96.7 280.4,94.1 285.9,94.0 291.4,93.5 297.0,92.5 302.5,92.3 308.0,92.1 313.6,91.8 319.1,91.6 324.6,91.4 330.2,91.3 335.7,91.2 341.2,89.6 346.8,89.2 352.3,89.2 357.9,89.1 363.4,89.0 368.9,88.9 374.5,87.9 380.0,87.8 385.5,87.6 391.1,87.6 396.6,86.2 402.1,85.9 407.7,85.7 413.2,83.4 418.8,83.3 424.3,82.8 429.8,80.7 435.4,80.5 440.9,80.5 446.4,80.4 452.0,80.3 457.5,80.3 463.0,79.9 468.6,79.9 474.1,79.9 479.6,79.7 485.2,79.4 490.7,78.2 496.2,75.8 501.8,75.8 507.3,75.7 512.9,75.6 518.4,74.5 523.9,74.5 529.5,74.4 535.0,73.6 540.5,73.6 546.1,70.3 551.6,68.8 557.1,68.8 562.7,68.7 568.2,68.6 573.8,68.3 579.3,68.1 584.8,68.1 590.4,68.1 595.9,68.0 601.4,67.6 607.0,66.9 612.5,66.7 618.0,66.6 623.6,66.5 629.1,66.4 634.6,66.3 640.2,66.3 645.7,64.2 651.2,64.2 656.8,64.1 662.3,63.7 667.9,63.3 673.4,63.2 678.9,62.6 684.5,62.5 690.0,61.3 690.0,270.0 70.0,270.0" fill="#58a6ff" opacity="0.15"/>
  <polyline points="70.0,199.0 75.5,198.9 81.1,198.0 86.6,187.4 92.1,180.7 97.7,178.9 103.2,177.3 108.8,171.8 114.3,171.4 119.8,169.8 125.4,169.4 130.9,169.2 136.4,161.1 142.0,150.4 147.5,141.4 153.0,138.0 158.6,134.5 164.1,131.8 169.6,131.0 175.2,130.8 180.7,129.2 186.2,127.6 191.8,123.6 197.3,119.7 202.9,116.8 208.4,113.9 213.9,113.0 219.5,105.6 225.0,101.1 230.5,99.5 236.1,99.2 241.6,98.0 247.1,97.9 252.7,97.9 258.2,97.4 263.8,97.3 269.3,97.1 274.8,96.7 280.4,94.1 285.9,94.0 291.4,93.5 297.0,92.5 302.5,92.3 308.0,92.1 313.6,91.8 319.1,91.6 324.6,91.4 330.2,91.3 335.7,91.2 341.2,89.6 346.8,89.2 352.3,89.2 357.9,89.1 363.4,89.0 368.9,88.9 374.5,87.9 380.0,87.8 385.5,87.6 391.1,87.6 396.6,86.2 402.1,85.9 407.7,85.7 413.2,83.4 418.8,83.3 424.3,82.8 429.8,80.7 435.4,80.5 440.9,80.5 446.4,80.4 452.0,80.3 457.5,80.3 463.0,79.9 468.6,79.9 474.1,79.9 479.6,79.7 485.2,79.4 490.7,78.2 496.2,75.8 501.8,75.8 507.3,75.7 512.9,75.6 518.4,74.5 523.9,74.5 529.5,74.4 535.0,73.6 540.5,73.6 546.1,70.3 551.6,68.8 557.1,68.8 562.7,68.7 568.2,68.6 573.8,68.3 579.3,68.1 584.8,68.1 590.4,68.1 595.9,68.0 601.4,67.6 607.0,66.9 612.5,66.7 618.0,66.6 623.6,66.5 629.1,66.4 634.6,66.3 640.2,66.3 645.7,64.2 651.2,64.2 656.8,64.1 662.3,63.7 667.9,63.3 673.4,63.2 678.9,62.6 684.5,62.5 690.0,61.3" fill="none" stroke="#58a6ff" stroke-width="2.5" stroke-linejoin="round" stroke-linecap="round"/>
  <text x="70.0" y="310" text-anchor="middle" fill="#8b949e" font-family="sans-serif" font-size="11">03-12</text><text x="225.0" y="310" text-anchor="middle" fill="#8b949e" font-family="sans-serif" font-size="11">04-09</text><text x="380.0" y="310" text-anchor="middle" fill="#8b949e" font-family="sans-serif" font-size="11">05-07</text><text x="535.0" y="310" text-anchor="middle" fill="#8b949e" font-family="sans-serif" font-size="11">06-04</text><text x="690.0" y="310" text-anchor="middle" fill="#8b949e" font-family="sans-serif" font-size="11">07-02</text>
  <text x="694.0" y="53.3" fill="#58a6ff" font-family="sans-serif" font-size="12" font-weight="bold">11.6K</text>
</svg>