<svg xmlns="http://www.w3.org/2000/svg" width="720" height="320">
  <rect width="720" height="320" fill="#0d1117" rx="8"/>
  <text x="70" y="22" fill="#c9d1d9" font-family="sans-serif" font-size="14" font-weight="bold">Total Downloads Over Time</text>
  <line x1="70" y1="270.0" x2="690" y2="270.0" stroke="#21262d" stroke-width="1"/><text x="62" y="274.0" text-anchor="end" fill="#8b949e" font-family="sans-serif" font-size="11">0</text><line x1="70" y1="210.0" x2="690" y2="210.0" stroke="#21262d" stroke-width="1"/><text x="62" y="214.0" text-anchor="end" fill="#8b949e" font-family="sans-serif" font-size="11">3.2K</text><line x1="70" y1="150.0" x2="690" y2="150.0" stroke="#21262d" stroke-width="1"/><text x="62" y="154.0" text-anchor="end" fill="#8b949e" font-family="sans-serif" font-size="11">6.4K</text><line x1="70" y1="90.0" x2="690" y2="90.0" stroke="#21262d" stroke-width="1"/><text x="62" y="94.0" text-anchor="end" fill="#8b949e" font-family="sans-serif" font-size="11">9.6K</text><line x1="70" y1="30.0" x2="690" y2="30.0" stroke="#21262d" stroke-width="1"/><text x="62" y="34.0" text-anchor="end" fill="#8b949e" font-family="sans-serif" font-size="11">12.8K</text>
  <polygon points="70.0,196.3 77.0,196.3 84.1,195.4 91.1,184.4 98.2,177.4 105.2,175.5 112.3,173.8 119.3,168.1 126.4,167.8 133.4,166.1 140.5,165.6 147.5,165.5 154.5,157.1 161.6,146.0 168.6,136.6 175.7,133.1 182.7,129.5 189.8,126.7 196.8,125.8 203.9,125.7 210.9,124.0 218.0,122.3 225.0,118.2 232.0,114.1 239.1,111.1 246.1,108.1 253.2,107.1 260.2,99.5 267.3,94.8 274.3,93.2 281.4,92.9 288.4,91.6 295.5,91.5 302.5,91.5 309.5,91.0 316.6,90.8 323.6,90.7 330.7,90.2 337.7,87.6 344.8,87.5 351.8,86.9 358.9,85.9 365.9,85.7 373.0,85.4 380.0,85.2 387.0,85.0 394.1,84.8 401.1,84.7 408.2,84.6 415.2,82.9 422.3,82.5 429.3,82.5 436.4,82.3 443.4,82.3 450.5,82.2 457.5,81.1 464.5,81.0 471.6,80.8 478.6,80.8 485.7,79.4 492.7,79.1 499.8,78.8 506.8,76.5 513.9,76.3 520.9,75.9 528.0,73.7 535.0,73.5 542.0,73.4 549.1,73.3 556.1,73.2 563.2,73.2 570.2,72.9 577.3,72.8 584.3,72.8 591.4,72.6 598.4,72.3 605.5,71.1 612.5,68.6 619.5,68.5 626.6,68.4 633.6,68.4 640.7,67.2 647.7,67.2 654.8,67.1 661.8,66.3 668.9,66.3 675.9,62.9 683.0,61.3 690.0,61.3 690.0,270.0 70.0,270.0" fill="#58a6ff" opacity="0.15"/>
  <polyline points="70.0,196.3 77.0,196.3 84.1,195.4 91.1,184.4 98.2,177.4 105.2,175.5 112.3,173.8 119.3,168.1 126.4,167.8 133.4,166.1 140.5,165.6 147.5,165.5 154.5,157.1 161.6,146.0 168.6,136.6 175.7,133.1 182.7,129.5 189.8,126.7 196.8,125.8 203.9,125.7 210.9,124.0 218.0,122.3 225.0,118.2 232.0,114.1 239.1,111.1 246.1,108.1 253.2,107.1 260.2,99.5 267.3,94.8 274.3,93.2 281.4,92.9 288.4,91.6 295.5,91.5 302.5,91.5 309.5,91.0 316.6,90.8 323.6,90.7 330.7,90.2 337.7,87.6 344.8,87.5 351.8,86.9 358.9,85.9 365.9,85.7 373.0,85.4 380.0,85.2 387.0,85.0 394.1,84.8 401.1,84.7 408.2,84.6 415.2,82.9 422.3,82.5 429.3,82.5 436.4,82.3 443.4,82.3 450.5,82.2 457.5,81.1 464.5,81.0 471.6,80.8 478.6,80.8 485.7,79.4 492.7,79.1 499.8,78.8 506.8,76.5 513.9,76.3 520.9,75.9 528.0,73.7 535.0,73.5 542.0,73.4 549.1,73.3 556.1,73.2 563.2,73.2 570.2,72.9 577.3,72.8 584.3,72.8 591.4,72.6 598.4,72.3 605.5,71.1 612.5,68.6 619.5,68.5 626.6,68.4 633.6,68.4 640.7,67.2 647.7,67.2 654.8,67.1 661.8,66.3 668.9,66.3 675.9,62.9 683.0,61.3 690.0,61.3" fill="none" stroke="#58a6ff" stroke-width="2.5" stroke-linejoin="round" stroke-linecap="round"/>
  <text x="70.0" y="310" text-anchor="middle" fill="#8b949e" font-family="sans-serif" font-size="11">03-12</text><text x="225.0" y="310" text-anchor="middle" fill="#8b949e" font-family="sans-serif" font-size="11">04-03</text><text x="380.0" y="310" text-anchor="middle" fill="#8b949e" font-family="sans-serif" font-size="11">04-25</text><text x="535.0" y="310" text-anchor="middle" fill="#8b949e" font-family="sans-serif" font-size="11">05-17</text><text x="690.0" y="310" text-anchor="middle" fill="#8b949e" font-family="sans-serif" font-size="11">06-08</text>
  <text x="694.0" y="53.3" fill="#58a6ff" font-family="sans-serif" font-size="12" font-weight="bold">11.2K</text>
</svg>