<svg xmlns="http://www.w3.org/2000/svg" width="720" height="320">
  <rect width="720" height="320" fill="#0d1117" rx="8"/>
  <text x="70" y="22" fill="#c9d1d9" font-family="sans-serif" font-size="14" font-weight="bold">Total Downloads Over Time</text>
  <line x1="70" y1="270.0" x2="690" y2="270.0" stroke="#21262d" stroke-width="1"/><text x="62" y="274.0" text-anchor="end" fill="#8b949e" font-family="sans-serif" font-size="11">0</text><line x1="70" y1="210.0" x2="690" y2="210.0" stroke="#21262d" stroke-width="1"/><text x="62" y="214.0" text-anchor="end" fill="#8b949e" font-family="sans-serif" font-size="11">3.0K</text><line x1="70" y1="150.0" x2="690" y2="150.0" stroke="#21262d" stroke-width="1"/><text x="62" y="154.0" text-anchor="end" fill="#8b949e" font-family="sans-serif" font-size="11">6.1K</text><line x1="70" y1="90.0" x2="690" y2="90.0" stroke="#21262d" stroke-width="1"/><text x="62" y="94.0" text-anchor="end" fill="#8b949e" font-family="sans-serif" font-size="11">9.1K</text><line x1="70" y1="30.0" x2="690" y2="30.0" stroke="#21262d" stroke-width="1"/><text x="62" y="34.0" text-anchor="end" fill="#8b949e" font-family="sans-serif" font-size="11">12.1K</text>
  <polygon points="70.0,191.9 78.9,191.8 87.7,190.8 96.6,179.2 105.4,171.8 114.3,169.8 123.1,168.0 132.0,161.9 140.9,161.6 149.7,159.8 158.6,159.3 167.4,159.2 176.3,150.3 185.1,138.5 194.0,128.6 202.9,124.8 211.7,121.0 220.6,118.0 229.4,117.1 238.3,116.9 247.1,115.2 256.0,113.4 264.9,109.0 273.7,104.7 282.6,101.5 291.4,98.3 300.3,97.3 309.1,89.2 318.0,84.2 326.9,82.5 335.7,82.2 344.6,80.8 353.4,80.7 362.3,80.7 371.1,80.1 380.0,80.0 388.9,79.9 397.7,79.4 406.6,76.5 415.4,76.4 424.3,75.8 433.1,74.8 442.0,74.6 450.9,74.3 459.7,74.0 468.6,73.8 477.4,73.6 486.3,73.5 495.1,73.4 504.0,71.5 512.9,71.2 521.7,71.1 530.6,71.0 539.4,70.9 548.3,70.8 557.1,69.7 566.0,69.6 574.9,69.4 583.7,69.3 592.6,67.9 601.4,67.5 610.3,67.2 619.1,64.8 628.0,64.6 636.9,64.1 645.7,61.8 654.6,61.6 663.4,61.6 672.3,61.4 681.1,61.3 690.0,61.3 690.0,270.0 70.0,270.0" fill="#58a6ff" opacity="0.15"/>
  <polyline points="70.0,191.9 78.9,191.8 87.7,190.8 96.6,179.2 105.4,171.8 114.3,169.8 123.1,168.0 132.0,161.9 140.9,161.6 149.7,159.8 158.6,159.3 167.4,159.2 176.3,150.3 185.1,138.5 194.0,128.6 202.9,124.8 211.7,121.0 220.6,118.0 229.4,117.1 238.3,116.9 247.1,115.2 256.0,113.4 264.9,109.0 273.7,104.7 282.6,101.5 291.4,98.3 300.3,97.3 309.1,89.2 318.0,84.2 326.9,82.5 335.7,82.2 344.6,80.8 353.4,80.7 362.3,80.7 371.1,80.1 380.0,80.0 388.9,79.9 397.7,79.4 406.6,76.5 415.4,76.4 424.3,75.8 433.1,74.8 442.0,74.6 450.9,74.3 459.7,74.0 468.6,73.8 477.4,73.6 486.3,73.5 495.1,73.4 504.0,71.5 512.9,71.2 521.7,71.1 530.6,71.0 539.4,70.9 548.3,70.8 557.1,69.7 566.0,69.6 574.9,69.4 583.7,69.3 592.6,67.9 601.4,67.5 610.3,67.2 619.1,64.8 628.0,64.6 636.9,64.1 645.7,61.8 654.6,61.6 663.4,61.6 672.3,61.4 681.1,61.3 690.0,61.3" fill="none" stroke="#58a6ff" stroke-width="2.5" stroke-linejoin="round" stroke-linecap="round"/>
  <text x="70.0" y="310" text-anchor="middle" fill="#8b949e" font-family="sans-serif" font-size="11">03-12</text><text x="220.6" y="310" text-anchor="middle" fill="#8b949e" font-family="sans-serif" font-size="11">03-29</text><text x="371.1" y="310" text-anchor="middle" fill="#8b949e" font-family="sans-serif" font-size="11">04-15</text><text x="521.7" y="310" text-anchor="middle" fill="#8b949e" font-family="sans-serif" font-size="11">05-02</text><text x="672.3" y="310" text-anchor="middle" fill="#8b949e" font-family="sans-serif" font-size="11">05-19</text>
  <text x="694.0" y="53.3" fill="#58a6ff" font-family="sans-serif" font-size="12" font-weight="bold">10.5K</text>
</svg>