<svg xmlns="http://www.w3.org/2000/svg" width="720" height="320">
  <rect width="720" height="320" fill="#0d1117" rx="8"/>
  <text x="70" y="22" fill="#c9d1d9" font-family="sans-serif" font-size="14" font-weight="bold">Total Downloads Over Time</text>
  <line x1="70" y1="270.0" x2="690" y2="270.0" stroke="#21262d" stroke-width="1"/><text x="62" y="274.0" text-anchor="end" fill="#8b949e" font-family="sans-serif" font-size="11">0</text><line x1="70" y1="210.0" x2="690" y2="210.0" stroke="#21262d" stroke-width="1"/><text x="62" y="214.0" text-anchor="end" fill="#8b949e" font-family="sans-serif" font-size="11">3.2K</text><line x1="70" y1="150.0" x2="690" y2="150.0" stroke="#21262d" stroke-width="1"/><text x="62" y="154.0" text-anchor="end" fill="#8b949e" font-family="sans-serif" font-size="11">6.5K</text><line x1="70" y1="90.0" x2="690" y2="90.0" stroke="#21262d" stroke-width="1"/><text x="62" y="94.0" text-anchor="end" fill="#8b949e" font-family="sans-serif" font-size="11">9.7K</text><line x1="70" y1="30.0" x2="690" y2="30.0" stroke="#21262d" stroke-width="1"/><text x="62" y="34.0" text-anchor="end" fill="#8b949e" font-family="sans-serif" font-size="11">12.9K</text>
  <polygon points="70.0,196.8 76.5,196.7 82.9,195.8 89.4,184.9 95.8,178.0 102.3,176.0 108.8,174.4 115.2,168.7 121.7,168.4 128.1,166.7 134.6,166.3 141.0,166.1 147.5,157.7 154.0,146.7 160.4,137.4 166.9,133.9 173.3,130.3 179.8,127.5 186.2,126.7 192.7,126.5 199.2,124.9 205.6,123.2 212.1,119.1 218.5,115.1 225.0,112.1 231.5,109.1 237.9,108.1 244.4,100.5 250.8,95.8 257.3,94.2 263.8,93.9 270.2,92.7 276.7,92.6 283.1,92.5 289.6,92.0 296.0,91.9 302.5,91.8 309.0,91.3 315.4,88.6 321.9,88.5 328.3,88.0 334.8,87.0 341.2,86.8 347.7,86.5 354.2,86.3 360.6,86.0 367.1,85.9 373.5,85.8 380.0,85.7 386.5,84.0 392.9,83.6 399.4,83.6 405.8,83.4 412.3,83.4 418.8,83.3 425.2,82.3 431.7,82.1 438.1,81.9 444.6,81.9 451.0,80.5 457.5,80.2 464.0,79.9 470.4,77.6 476.9,77.5 483.3,77.0 489.8,74.8 496.2,74.6 502.7,74.6 509.2,74.5 515.6,74.4 522.1,74.4 528.5,74.0 535.0,74.0 541.5,74.0 547.9,73.7 554.4,73.5 560.8,72.2 567.3,69.7 573.8,69.7 580.2,69.6 586.7,69.6 593.1,68.4 599.6,68.4 606.0,68.3 612.5,67.5 619.0,67.5 625.4,64.1 631.9,62.6 638.3,62.5 644.8,62.5 651.2,62.4 657.7,62.0 664.2,61.8 670.6,61.8 677.1,61.8 683.5,61.8 690.0,61.3 690.0,270.0 70.0,270.0" fill="#58a6ff" opacity="0.15"/>
  <polyline points="70.0,196.8 76.5,196.7 82.9,195.8 89.4,184.9 95.8,178.0 102.3,176.0 108.8,174.4 115.2,168.7 121.7,168.4 128.1,166.7 134.6,166.3 141.0,166.1 147.5,157.7 154.0,146.7 160.4,137.4 166.9,133.9 173.3,130.3 179.8,127.5 186.2,126.7 192.7,126.5 199.2,124.9 205.6,123.2 212.1,119.1 218.5,115.1 225.0,112.1 231.5,109.1 237.9,108.1 244.4,100.5 250.8,95.8 257.3,94.2 263.8,93.9 270.2,92.7 276.7,92.6 283.1,92.5 289.6,92.0 296.0,91.9 302.5,91.8 309.0,91.3 315.4,88.6 321.9,88.5 328.3,88.0 334.8,87.0 341.2,86.8 347.7,86.5 354.2,86.3 360.6,86.0 367.1,85.9 373.5,85.8 380.0,85.7 386.5,84.0 392.9,83.6 399.4,83.6 405.8,83.4 412.3,83.4 418.8,83.3 425.2,82.3 431.7,82.1 438.1,81.9 444.6,81.9 451.0,80.5 457.5,80.2 464.0,79.9 470.4,77.6 476.9,77.5 483.3,77.0 489.8,74.8 496.2,74.6 502.7,74.6 509.2,74.5 515.6,74.4 522.1,74.4 528.5,74.0 535.0,74.0 541.5,74.0 547.9,73.7 554.4,73.5 560.8,72.2 567.3,69.7 573.8,69.7 580.2,69.6 586.7,69.6 593.1,68.4 599.6,68.4 606.0,68.3 612.5,67.5 619.0,67.5 625.4,64.1 631.9,62.6 638.3,62.5 644.8,62.5 651.2,62.4 657.7,62.0 664.2,61.8 670.6,61.8 677.1,61.8 683.5,61.8 690.0,61.3" fill="none" stroke="#58a6ff" stroke-width="2.5" stroke-linejoin="round" stroke-linecap="round"/>
  <text x="70.0" y="310" text-anchor="middle" fill="#8b949e" font-family="sans-serif" font-size="11">03-12</text><text x="225.0" y="310" text-anchor="middle" fill="#8b949e" font-family="sans-serif" font-size="11">04-05</text><text x="380.0" y="310" text-anchor="middle" fill="#8b949e" font-family="sans-serif" font-size="11">04-29</text><text x="535.0" y="310" text-anchor="middle" fill="#8b949e" font-family="sans-serif" font-size="11">05-23</text><text x="690.0" y="310" text-anchor="middle" fill="#8b949e" font-family="sans-serif" font-size="11">06-16</text>
  <text x="694.0" y="53.3" fill="#58a6ff" font-family="sans-serif" font-size="12" font-weight="bold">11.2K</text>
</svg>