<svg xmlns="http://www.w3.org/2000/svg" width="720" height="320">
  <rect width="720" height="320" fill="#0d1117" rx="8"/>
  <text x="70" y="22" fill="#c9d1d9" font-family="sans-serif" font-size="14" font-weight="bold">Total Downloads Over Time</text>
  <line x1="70" y1="270.0" x2="690" y2="270.0" stroke="#21262d" stroke-width="1"/><text x="62" y="274.0" text-anchor="end" fill="#8b949e" font-family="sans-serif" font-size="11">0</text><line x1="70" y1="210.0" x2="690" y2="210.0" stroke="#21262d" stroke-width="1"/><text x="62" y="214.0" text-anchor="end" fill="#8b949e" font-family="sans-serif" font-size="11">3.3K</text><line x1="70" y1="150.0" x2="690" y2="150.0" stroke="#21262d" stroke-width="1"/><text x="62" y="154.0" text-anchor="end" fill="#8b949e" font-family="sans-serif" font-size="11">6.6K</text><line x1="70" y1="90.0" x2="690" y2="90.0" stroke="#21262d" stroke-width="1"/><text x="62" y="94.0" text-anchor="end" fill="#8b949e" font-family="sans-serif" font-size="11">9.9K</text><line x1="70" y1="30.0" x2="690" y2="30.0" stroke="#21262d" stroke-width="1"/><text x="62" y="34.0" text-anchor="end" fill="#8b949e" font-family="sans-serif" font-size="11">13.2K</text>
  <polygon points="70.0,198.6 75.6,198.5 81.2,197.6 86.8,187.0 92.3,180.2 97.9,178.3 103.5,176.8 109.1,171.2 114.7,170.9 120.3,169.2 125.9,168.8 131.4,168.7 137.0,160.5 142.6,149.7 148.2,140.7 153.8,137.2 159.4,133.8 165.0,131.0 170.5,130.2 176.1,130.0 181.7,128.4 187.3,126.8 192.9,122.8 198.5,118.9 204.1,116.0 209.6,113.0 215.2,112.1 220.8,104.7 226.4,100.1 232.0,98.5 237.6,98.3 243.2,97.0 248.7,96.9 254.3,96.9 259.9,96.4 265.5,96.3 271.1,96.1 276.7,95.7 282.3,93.1 287.8,93.0 293.4,92.5 299.0,91.5 304.6,91.3 310.2,91.0 315.8,90.8 321.4,90.6 326.9,90.4 332.5,90.3 338.1,90.2 343.7,88.5 349.3,88.2 354.9,88.2 360.5,88.0 366.0,87.9 371.6,87.9 377.2,86.9 382.8,86.8 388.4,86.5 394.0,86.5 399.5,85.2 405.1,84.9 410.7,84.6 416.3,82.3 421.9,82.2 427.5,81.7 433.1,79.6 438.6,79.4 444.2,79.4 449.8,79.3 455.4,79.2 461.0,79.2 466.6,78.8 472.2,78.8 477.7,78.8 483.3,78.6 488.9,78.3 494.5,77.1 500.1,74.7 505.7,74.6 511.3,74.5 516.8,74.5 522.4,73.3 528.0,73.3 533.6,73.2 539.2,72.5 544.8,72.5 550.4,69.2 555.9,67.7 561.5,67.6 567.1,67.6 572.7,67.5 578.3,67.1 583.9,66.9 589.5,66.9 595.0,66.9 600.6,66.9 606.2,66.4 611.8,65.7 617.4,65.6 623.0,65.5 628.6,65.4 634.1,65.3 639.7,65.2 645.3,65.1 650.9,63.0 656.5,63.0 662.1,62.9 667.7,62.5 673.2,62.2 678.8,62.0 684.4,61.4 690.0,61.3 690.0,270.0 70.0,270.0" fill="#58a6ff" opacity="0.15"/>
  <polyline points="70.0,198.6 75.6,198.5 81.2,197.6 86.8,187.0 92.3,180.2 97.9,178.3 103.5,176.8 109.1,171.2 114.7,170.9 120.3,169.2 125.9,168.8 131.4,168.7 137.0,160.5 142.6,149.7 148.2,140.7 153.8,137.2 159.4,133.8 165.0,131.0 170.5,130.2 176.1,130.0 181.7,128.4 187.3,126.8 192.9,122.8 198.5,118.9 204.1,116.0 209.6,113.0 215.2,112.1 220.8,104.7 226.4,100.1 232.0,98.5 237.6,98.3 243.2,97.0 248.7,96.9 254.3,96.9 259.9,96.4 265.5,96.3 271.1,96.1 276.7,95.7 282.3,93.1 287.8,93.0 293.4,92.5 299.0,91.5 304.6,91.3 310.2,91.0 315.8,90.8 321.4,90.6 326.9,90.4 332.5,90.3 338.1,90.2 343.7,88.5 349.3,88.2 354.9,88.2 360.5,88.0 366.0,87.9 371.6,87.9 377.2,86.9 382.8,86.8 388.4,86.5 394.0,86.5 399.5,85.2 405.1,84.9 410.7,84.6 416.3,82.3 421.9,82.2 427.5,81.7 433.1,79.6 438.6,79.4 444.2,79.4 449.8,79.3 455.4,79.2 461.0,79.2 466.6,78.8 472.2,78.8 477.7,78.8 483.3,78.6 488.9,78.3 494.5,77.1 500.1,74.7 505.7,74.6 511.3,74.5 516.8,74.5 522.4,73.3 528.0,73.3 533.6,73.2 539.2,72.5 544.8,72.5 550.4,69.2 555.9,67.7 561.5,67.6 567.1,67.6 572.7,67.5 578.3,67.1 583.9,66.9 589.5,66.9 595.0,66.9 600.6,66.9 606.2,66.4 611.8,65.7 617.4,65.6 623.0,65.5 628.6,65.4 634.1,65.3 639.7,65.2 645.3,65.1 650.9,63.0 656.5,63.0 662.1,62.9 667.7,62.5 673.2,62.2 678.8,62.0 684.4,61.4 690.0,61.3" fill="none" stroke="#58a6ff" stroke-width="2.5" stroke-linejoin="round" stroke-linecap="round"/>
  <text x="70.0" y="310" text-anchor="middle" fill="#8b949e" font-family="sans-serif" font-size="11">03-12</text><text x="220.8" y="310" text-anchor="middle" fill="#8b949e" font-family="sans-serif" font-size="11">04-08</text><text x="371.6" y="310" text-anchor="middle" fill="#8b949e" font-family="sans-serif" font-size="11">05-05</text><text x="522.4" y="310" text-anchor="middle" fill="#8b949e" font-family="sans-serif" font-size="11">06-01</text><text x="673.2" y="310" text-anchor="middle" fill="#8b949e" font-family="sans-serif" font-size="11">06-28</text>
  <text x="694.0" y="53.3" fill="#58a6ff" font-family="sans-serif" font-size="12" font-weight="bold">11.5K</text>
</svg>