<svg xmlns="http://www.w3.org/2000/svg" width="720" height="320">
  <rect width="720" height="320" fill="#0d1117" rx="8"/>
  <text x="70" y="22" fill="#c9d1d9" font-family="sans-serif" font-size="14" font-weight="bold">Total Downloads Over Time</text>
  <line x1="70" y1="270.0" x2="690" y2="270.0" stroke="#21262d" stroke-width="1"/><text x="62" y="274.0" text-anchor="end" fill="#8b949e" font-family="sans-serif" font-size="11">0</text><line x1="70" y1="210.0" x2="690" y2="210.0" stroke="#21262d" stroke-width="1"/><text x="62" y="214.0" text-anchor="end" fill="#8b949e" font-family="sans-serif" font-size="11">2.7K</text><line x1="70" y1="150.0" x2="690" y2="150.0" stroke="#21262d" stroke-width="1"/><text x="62" y="154.0" text-anchor="end" fill="#8b949e" font-family="sans-serif" font-size="11">5.4K</text><line x1="70" y1="90.0" x2="690" y2="90.0" stroke="#21262d" stroke-width="1"/><text x="62" y="94.0" text-anchor="end" fill="#8b949e" font-family="sans-serif" font-size="11">8.1K</text><line x1="70" y1="30.0" x2="690" y2="30.0" stroke="#21262d" stroke-width="1"/><text x="62" y="34.0" text-anchor="end" fill="#8b949e" font-family="sans-serif" font-size="11">10.8K</text>
  <polygon points="70.0,182.2 92.1,182.2 114.3,181.1 136.4,168.0 158.6,159.7 180.7,157.4 202.9,155.5 225.0,148.6 247.1,148.2 269.3,146.2 291.4,145.7 313.6,145.5 335.7,135.5 357.9,122.3 380.0,111.1 402.1,106.9 424.3,102.6 446.4,99.3 468.6,98.3 490.7,98.1 512.9,96.1 535.0,94.1 557.1,89.1 579.3,84.3 601.4,80.8 623.6,77.2 645.7,76.0 667.9,66.9 690.0,61.3 690.0,270.0 70.0,270.0" fill="#58a6ff" opacity="0.15"/>
  <polyline points="70.0,182.2 92.1,182.2 114.3,181.1 136.4,168.0 158.6,159.7 180.7,157.4 202.9,155.5 225.0,148.6 247.1,148.2 269.3,146.2 291.4,145.7 313.6,145.5 335.7,135.5 357.9,122.3 380.0,111.1 402.1,106.9 424.3,102.6 446.4,99.3 468.6,98.3 490.7,98.1 512.9,96.1 535.0,94.1 557.1,89.1 579.3,84.3 601.4,80.8 623.6,77.2 645.7,76.0 667.9,66.9 690.0,61.3" fill="none" stroke="#58a6ff" stroke-width="2.5" stroke-linejoin="round" stroke-linecap="round"/>
  <text x="70.0" y="310" text-anchor="middle" fill="#8b949e" font-family="sans-serif" font-size="11">03-12</text><text x="225.0" y="310" text-anchor="middle" fill="#8b949e" font-family="sans-serif" font-size="11">03-19</text><text x="380.0" y="310" text-anchor="middle" fill="#8b949e" font-family="sans-serif" font-size="11">03-26</text><text x="535.0" y="310" text-anchor="middle" fill="#8b949e" font-family="sans-serif" font-size="11">04-02</text><text x="690.0" y="310" text-anchor="middle" fill="#8b949e" font-family="sans-serif" font-size="11">04-09</text>
  <text x="694.0" y="53.3" fill="#58a6ff" font-family="sans-serif" font-size="12" font-weight="bold">9.4K</text>
</svg>