<svg xmlns="http://www.w3.org/2000/svg" width="720" height="320">
  <rect width="720" height="320" fill="#0d1117" rx="8"/>
  <text x="70" y="22" fill="#c9d1d9" font-family="sans-serif" font-size="14" font-weight="bold">Total Downloads Over Time</text>
  <line x1="70" y1="270.0" x2="690" y2="270.0" stroke="#21262d" stroke-width="1"/><text x="62" y="274.0" text-anchor="end" fill="#8b949e" font-family="sans-serif" font-size="11">0</text><line x1="70" y1="210.0" x2="690" y2="210.0" stroke="#21262d" stroke-width="1"/><text x="62" y="214.0" text-anchor="end" fill="#8b949e" font-family="sans-serif" font-size="11">2.9K</text><line x1="70" y1="150.0" x2="690" y2="150.0" stroke="#21262d" stroke-width="1"/><text x="62" y="154.0" text-anchor="end" fill="#8b949e" font-family="sans-serif" font-size="11">5.7K</text><line x1="70" y1="90.0" x2="690" y2="90.0" stroke="#21262d" stroke-width="1"/><text x="62" y="94.0" text-anchor="end" fill="#8b949e" font-family="sans-serif" font-size="11">8.6K</text><line x1="70" y1="30.0" x2="690" y2="30.0" stroke="#21262d" stroke-width="1"/><text x="62" y="34.0" text-anchor="end" fill="#8b949e" font-family="sans-serif" font-size="11">11.4K</text>
  <polygon points="70.0,187.1 82.9,187.1 95.8,186.0 108.8,173.6 121.7,165.8 134.6,163.6 147.5,161.8 160.4,155.3 173.3,154.9 186.2,153.0 199.2,152.5 212.1,152.4 225.0,142.9 237.9,130.4 250.8,119.9 263.8,115.9 276.7,111.9 289.6,108.7 302.5,107.7 315.4,107.5 328.3,105.7 341.2,103.8 354.2,99.1 367.1,94.6 380.0,91.2 392.9,87.8 405.8,86.7 418.8,78.1 431.7,72.8 444.6,71.0 457.5,70.7 470.4,69.2 483.3,69.1 496.2,69.1 509.2,68.5 522.1,68.3 535.0,68.2 547.9,67.7 560.8,64.6 573.8,64.5 586.7,63.9 599.6,62.8 612.5,62.6 625.4,62.3 638.3,62.0 651.2,61.7 664.2,61.5 677.1,61.4 690.0,61.3 690.0,270.0 70.0,270.0" fill="#58a6ff" opacity="0.15"/>
  <polyline points="70.0,187.1 82.9,187.1 95.8,186.0 108.8,173.6 121.7,165.8 134.6,163.6 147.5,161.8 160.4,155.3 173.3,154.9 186.2,153.0 199.2,152.5 212.1,152.4 225.0,142.9 237.9,130.4 250.8,119.9 263.8,115.9 276.7,111.9 289.6,108.7 302.5,107.7 315.4,107.5 328.3,105.7 341.2,103.8 354.2,99.1 367.1,94.6 380.0,91.2 392.9,87.8 405.8,86.7 418.8,78.1 431.7,72.8 444.6,71.0 457.5,70.7 470.4,69.2 483.3,69.1 496.2,69.1 509.2,68.5 522.1,68.3 535.0,68.2 547.9,67.7 560.8,64.6 573.8,64.5 586.7,63.9 599.6,62.8 612.5,62.6 625.4,62.3 638.3,62.0 651.2,61.7 664.2,61.5 677.1,61.4 690.0,61.3" fill="none" stroke="#58a6ff" stroke-width="2.5" stroke-linejoin="round" stroke-linecap="round"/>
  <text x="70.0" y="310" text-anchor="middle" fill="#8b949e" font-family="sans-serif" font-size="11">03-12</text><text x="225.0" y="310" text-anchor="middle" fill="#8b949e" font-family="sans-serif" font-size="11">03-24</text><text x="380.0" y="310" text-anchor="middle" fill="#8b949e" font-family="sans-serif" font-size="11">04-05</text><text x="535.0" y="310" text-anchor="middle" fill="#8b949e" font-family="sans-serif" font-size="11">04-17</text><text x="690.0" y="310" text-anchor="middle" fill="#8b949e" font-family="sans-serif" font-size="11">04-29</text>
  <text x="694.0" y="53.3" fill="#58a6ff" font-family="sans-serif" font-size="12" font-weight="bold">9.9K</text>
</svg>