<svg xmlns="http://www.w3.org/2000/svg" width="720" height="320">
  <rect width="720" height="320" fill="#0d1117" rx="8"/>
  <text x="70" y="22" fill="#c9d1d9" font-family="sans-serif" font-size="14" font-weight="bold">Total Downloads Over Time</text>
  <line x1="70" y1="270.0" x2="690" y2="270.0" stroke="#21262d" stroke-width="1"/><text x="62" y="274.0" text-anchor="end" fill="#8b949e" font-family="sans-serif" font-size="11">0</text><line x1="70" y1="210.0" x2="690" y2="210.0" stroke="#21262d" stroke-width="1"/><text x="62" y="214.0" text-anchor="end" fill="#8b949e" font-family="sans-serif" font-size="11">3.0K</text><line x1="70" y1="150.0" x2="690" y2="150.0" stroke="#21262d" stroke-width="1"/><text x="62" y="154.0" text-anchor="end" fill="#8b949e" font-family="sans-serif" font-size="11">6.0K</text><line x1="70" y1="90.0" x2="690" y2="90.0" stroke="#21262d" stroke-width="1"/><text x="62" y="94.0" text-anchor="end" fill="#8b949e" font-family="sans-serif" font-size="11">9.1K</text><line x1="70" y1="30.0" x2="690" y2="30.0" stroke="#21262d" stroke-width="1"/><text x="62" y="34.0" text-anchor="end" fill="#8b949e" font-family="sans-serif" font-size="11">12.1K</text>
  <polygon points="70.0,191.8 79.4,191.7 88.8,190.7 98.2,179.1 107.6,171.7 117.0,169.6 126.4,167.9 135.8,161.8 145.2,161.4 154.5,159.6 163.9,159.2 173.3,159.0 182.7,150.1 192.1,138.3 201.5,128.4 210.9,124.6 220.3,120.8 229.7,117.8 239.1,116.9 248.5,116.7 257.9,114.9 267.3,113.2 276.7,108.8 286.1,104.5 295.5,101.3 304.8,98.1 314.2,97.0 323.6,88.9 333.0,83.9 342.4,82.2 351.8,81.9 361.2,80.6 370.6,80.5 380.0,80.4 389.4,79.9 398.8,79.7 408.2,79.6 417.6,79.1 427.0,76.2 436.4,76.1 445.8,75.6 455.2,74.5 464.5,74.3 473.9,74.0 483.3,73.7 492.7,73.5 502.1,73.3 511.5,73.2 520.9,73.1 530.3,71.3 539.7,70.9 549.1,70.8 558.5,70.7 567.9,70.6 577.3,70.5 586.7,69.4 596.1,69.3 605.5,69.1 614.8,69.0 624.2,67.6 633.6,67.2 643.0,67.0 652.4,64.5 661.8,64.3 671.2,63.8 680.6,61.5 690.0,61.3 690.0,270.0 70.0,270.0" fill="#58a6ff" opacity="0.15"/>
  <polyline points="70.0,191.8 79.4,191.7 88.8,190.7 98.2,179.1 107.6,171.7 117.0,169.6 126.4,167.9 135.8,161.8 145.2,161.4 154.5,159.6 163.9,159.2 173.3,159.0 182.7,150.1 192.1,138.3 201.5,128.4 210.9,124.6 220.3,120.8 229.7,117.8 239.1,116.9 248.5,116.7 257.9,114.9 267.3,113.2 276.7,108.8 286.1,104.5 295.5,101.3 304.8,98.1 314.2,97.0 323.6,88.9 333.0,83.9 342.4,82.2 351.8,81.9 361.2,80.6 370.6,80.5 380.0,80.4 389.4,79.9 398.8,79.7 408.2,79.6 417.6,79.1 427.0,76.2 436.4,76.1 445.8,75.6 455.2,74.5 464.5,74.3 473.9,74.0 483.3,73.7 492.7,73.5 502.1,73.3 511.5,73.2 520.9,73.1 530.3,71.3 539.7,70.9 549.1,70.8 558.5,70.7 567.9,70.6 577.3,70.5 586.7,69.4 596.1,69.3 605.5,69.1 614.8,69.0 624.2,67.6 633.6,67.2 643.0,67.0 652.4,64.5 661.8,64.3 671.2,63.8 680.6,61.5 690.0,61.3" fill="none" stroke="#58a6ff" stroke-width="2.5" stroke-linejoin="round" stroke-linecap="round"/>
  <text x="70.0" y="310" text-anchor="middle" fill="#8b949e" font-family="sans-serif" font-size="11">03-12</text><text x="220.3" y="310" text-anchor="middle" fill="#8b949e" font-family="sans-serif" font-size="11">03-28</text><text x="370.6" y="310" text-anchor="middle" fill="#8b949e" font-family="sans-serif" font-size="11">04-13</text><text x="520.9" y="310" text-anchor="middle" fill="#8b949e" font-family="sans-serif" font-size="11">04-29</text><text x="671.2" y="310" text-anchor="middle" fill="#8b949e" font-family="sans-serif" font-size="11">05-15</text>
  <text x="694.0" y="53.3" fill="#58a6ff" font-family="sans-serif" font-size="12" font-weight="bold">10.5K</text>
</svg>